<svg version="1.1" id="Layer_1" xmlns="http://www.w3.org/2000/svg" xmlns:xlink="http://www.w3.org/1999/xlink" x="0px" y="0px"
	 width="100%" viewBox="0 0 800 209" enable-background="new 0 0 800 209" xml:space="preserve">
<path fill="#FFFEFE" opacity="1.000000" stroke="none" 
	d="
M589.000000,210.000000 
	C392.666687,210.000000 196.833374,210.000000 1.000053,210.000000 
	C1.000035,140.333359 1.000035,70.666733 1.000018,1.000071 
	C267.666595,1.000047 534.333191,1.000047 800.999878,1.000024 
	C800.999878,70.666595 800.999878,140.333191 800.999939,209.999893 
	C730.500000,210.000000 660.000000,210.000000 589.000000,210.000000 
M601.619019,145.985367 
	C601.766296,145.673340 601.913513,145.361313 602.000000,145.000610 
	C602.000000,145.000610 602.062073,145.050278 602.638611,144.802292 
	C603.131287,143.905045 603.623962,143.007797 604.038391,142.095459 
	C604.038391,142.095459 604.110779,142.092087 604.685486,141.745712 
	C605.153931,140.496033 605.622375,139.246353 606.241760,137.851669 
	C606.241760,137.851669 606.184204,137.650421 606.756470,137.170044 
	C607.217102,135.778900 607.677673,134.387756 608.258057,132.858246 
	C608.258057,132.858246 608.204712,132.683197 608.778015,132.180435 
	C609.872742,129.132492 610.967529,126.084549 611.997803,123.006332 
	C611.997803,123.006332 612.052551,123.052719 612.578430,122.591835 
	C613.717163,119.402611 614.855896,116.213387 616.018127,113.005913 
	C616.018127,113.005913 616.013184,112.976608 616.529419,112.500130 
	C618.383118,107.332474 620.236877,102.164818 622.241516,96.845009 
	C622.241516,96.845009 622.171326,96.642509 622.744873,96.131142 
	C624.280029,92.007637 625.815186,87.884132 627.640686,82.980797 
	C621.884521,82.980797 617.112976,82.860046 612.357727,83.084023 
	C611.421570,83.128113 610.048767,84.332375 609.723328,85.289322 
	C606.636108,94.365707 603.731873,103.504303 600.639832,113.041862 
	C599.611023,111.819855 598.821533,110.882118 597.993530,109.458237 
	C597.993530,109.458237 597.828796,108.999222 597.968384,108.207329 
	C595.676208,99.883217 593.384033,91.559105 591.023682,82.987503 
	C585.554565,82.987503 580.368347,83.413116 575.279114,82.892052 
	C566.724121,82.016144 559.068604,83.142036 553.141174,90.058815 
	C553.034119,90.183746 552.547791,89.983597 552.032715,89.902931 
	C551.225769,87.702492 550.387573,85.416634 549.613464,83.305641 
	C545.334473,83.305641 541.413574,83.305641 537.411499,83.305641 
	C537.411499,99.545845 537.411499,115.451073 537.411499,131.483063 
	C543.084656,131.483063 548.462585,131.483063 554.490540,131.483063 
	C554.490540,122.952789 554.453308,114.803291 554.506287,106.654381 
	C554.532532,102.614624 556.819580,98.993141 560.531677,99.396088 
	C570.147522,100.439888 571.880676,95.070488 571.931458,87.519173 
	C571.932739,87.325005 572.401489,87.133980 573.770447,86.082962 
	C579.204285,98.806236 584.510681,111.231270 589.767700,123.845116 
	C589.767700,123.845116 589.908386,123.980400 589.916382,124.717949 
	C590.548645,126.032440 591.180908,127.346931 591.755188,128.853607 
	C591.755188,128.853607 591.895508,128.997116 591.916138,129.792648 
	C591.923889,130.841721 591.931580,131.890808 592.000061,132.981720 
	C592.000061,132.981720 591.937378,132.951309 591.431519,133.268494 
	C591.242065,133.822128 591.052612,134.375763 590.979675,134.974152 
	C590.979675,134.974152 590.887268,134.890274 590.338623,135.166855 
	C589.737488,135.984848 589.136292,136.802841 588.704285,137.682510 
	C588.704285,137.682510 588.631531,137.517776 587.874268,137.777496 
	C584.389587,138.468384 580.904907,139.159286 577.169678,139.899857 
	C577.169678,142.874176 576.789551,145.905807 577.328125,148.764389 
	C577.602539,150.220779 579.627258,152.542557 580.689575,152.452499 
	C585.824646,152.017105 590.901489,150.895355 596.004639,150.003677 
	C596.004639,150.003677 596.019531,150.007080 596.646423,149.981018 
	C597.431824,149.338852 598.217224,148.696686 599.032166,148.038528 
	C599.032166,148.038528 599.055847,148.014664 599.577637,147.944870 
	C599.764893,147.665924 599.952148,147.386978 600.021790,147.033310 
	C600.021790,147.033310 600.108215,147.142593 600.650696,147.036545 
	C600.817261,146.725525 600.983765,146.414505 601.044067,146.038971 
	C601.044067,146.038971 601.107849,146.145691 601.619019,145.985367 
M44.131149,110.436234 
	C42.943348,128.032349 53.855042,150.261002 78.446838,157.856522 
	C93.789322,162.595276 109.567528,162.092834 124.220894,154.768417 
	C139.355148,147.203613 149.432068,134.529633 150.704041,117.792046 
	C152.226944,97.752701 151.236069,77.502129 150.898544,57.350334 
	C150.736267,47.662045 143.246231,40.128830 133.646469,39.971989 
	C110.334778,39.591133 87.011223,39.354523 63.701233,39.683231 
	C50.860577,39.864304 43.994789,47.610313 43.965317,60.476391 
	C43.927917,76.801994 44.061008,93.127983 44.131149,110.436234 
M706.124573,85.302399 
	C705.211365,84.530350 704.339172,83.157829 703.377747,83.092140 
	C699.594666,82.833641 695.783508,82.986237 691.683716,82.986237 
	C691.683716,106.458954 691.683716,129.520920 691.683716,152.752716 
	C697.381104,152.752716 702.786682,152.752716 708.684204,152.752716 
	C708.684204,144.428802 708.684204,136.370728 708.684204,127.736580 
	C709.853577,128.331543 710.423523,128.559097 710.927917,128.887375 
	C721.577881,135.818130 734.063477,131.352921 737.526917,119.170212 
	C739.849548,111.000168 739.905396,102.673279 737.424744,94.520401 
	C733.743530,82.421989 720.207764,78.675797 710.717529,86.962509 
	C709.899048,87.677185 708.966125,88.260803 707.762268,89.142708 
	C707.195984,87.855743 706.811401,86.981697 706.124573,85.302399 
M409.397217,109.559174 
	C409.397217,116.849197 409.397217,124.139214 409.397217,131.448471 
	C415.661743,131.448471 421.035461,131.448471 426.481781,131.448471 
	C426.481781,120.216087 426.614868,109.407936 426.431519,98.605156 
	C426.322906,92.203941 424.025299,86.835686 417.535095,84.289536 
	C410.396545,81.489052 403.545959,81.626869 397.255707,86.563057 
	C396.139740,87.438774 395.032684,88.325775 393.864838,89.252533 
	C390.025146,82.408119 387.573669,81.561203 378.787231,83.729675 
	C378.787231,99.641846 378.787231,115.562531 378.787231,131.571106 
	C384.364044,131.571106 389.604156,131.571106 395.714294,131.571106 
	C395.714294,124.155563 395.606262,117.017525 395.764130,109.885361 
	C395.833527,106.750420 395.662750,103.205536 397.052704,100.630287 
	C398.199951,98.504646 401.332062,96.724548 403.859436,96.247673 
	C407.246765,95.608536 408.730682,98.476624 409.038300,101.607605 
	C409.265747,103.922668 409.283173,106.258362 409.397217,109.559174 
M238.900818,104.988419 
	C238.900818,113.770233 238.900818,122.552048 238.900818,131.483429 
	C244.931381,131.483429 250.310974,131.483429 255.529831,131.483429 
	C255.529831,119.469658 255.865067,107.816086 255.314835,96.204460 
	C255.160309,92.943268 253.138474,89.003426 250.697723,86.766548 
	C244.273956,80.879349 233.537170,81.142708 226.659729,86.522125 
	C225.557114,87.384560 224.476257,88.274811 223.342789,89.186424 
	C219.173416,82.450279 216.679138,81.606003 208.230377,83.689224 
	C208.230377,99.619179 208.230377,115.528450 208.230377,131.526886 
	C213.821289,131.526886 219.055023,131.526886 224.562546,131.526886 
	C224.662628,129.585815 224.788132,127.954590 224.823776,126.321411 
	C224.980179,119.158585 224.905228,111.983429 225.314407,104.835663 
	C225.651093,98.954460 228.070755,96.227432 232.227646,96.038033 
	C238.021530,95.774048 238.308853,100.031746 238.900818,104.988419 
M329.901703,127.697899 
	C340.524170,133.894928 351.596893,133.026489 362.747772,129.600693 
	C363.863220,129.258011 365.237335,127.722054 365.369934,126.606598 
	C365.732147,123.559235 365.494598,120.440582 365.494598,117.171097 
	C344.273712,121.592056 339.233185,120.630531 338.622742,111.761032 
	C348.569122,111.761032 358.476532,111.761032 368.316162,111.761032 
	C369.491974,95.405899 364.859314,86.827469 353.535645,83.639854 
	C340.964661,80.101128 328.472107,84.349602 323.386444,94.014122 
	C319.188507,101.991623 318.395294,120.371315 329.901703,127.697899 
M521.443542,124.924133 
	C528.000183,117.397125 528.341675,108.548851 526.314331,99.497711 
	C524.244263,90.255920 517.829163,84.910934 508.794220,83.152946 
	C498.745728,81.197762 489.291565,82.842842 482.714142,91.471405 
	C475.241394,101.274498 476.802460,118.302986 485.305725,125.971634 
	C494.740143,134.480057 511.257721,134.243698 521.443542,124.924133 
M646.328552,130.363220 
	C647.759949,130.786057 649.169983,131.311203 650.626099,131.615631 
	C662.876099,134.176666 674.194763,129.364166 678.714233,119.715294 
	C683.874573,108.698318 681.080383,93.729553 672.203003,87.424744 
	C663.303772,81.104485 653.591370,80.805801 643.840515,85.405777 
	C634.672668,89.730675 631.926697,97.867332 631.904419,107.242523 
	C631.880005,117.537025 635.617676,125.715996 646.328552,130.363220 
M304.364899,115.945175 
	C308.554016,105.125435 312.743134,94.305687 317.049530,83.182953 
	C310.827576,83.182953 305.201904,83.182953 299.329437,83.182953 
	C296.201599,93.583595 293.111816,103.857597 290.022064,114.131607 
	C286.444550,104.817444 283.649170,95.598114 281.147919,86.299660 
	C280.442688,83.677986 279.264832,82.824898 276.654694,82.929489 
	C272.177979,83.108887 267.688904,82.979057 263.091705,82.979057 
	C263.091705,83.796028 262.949310,84.337456 263.112274,84.761505 
	C268.843719,99.673698 274.552185,114.595436 280.464203,129.436020 
	C280.906708,130.546722 282.789215,131.673264 284.077057,131.767120 
	C298.016113,132.783096 298.020966,132.727310 302.869415,119.947357 
	C303.282745,118.857903 303.676666,117.761093 304.364899,115.945175 
M775.856140,83.557541 
	C769.065186,82.309685 762.333130,81.924820 755.710449,84.534691 
	C751.071899,86.362694 747.615356,89.140518 747.034241,94.456062 
	C746.385681,100.388298 747.878723,105.485786 753.386658,108.525337 
	C757.304443,110.687370 761.519653,112.304497 765.497253,114.367043 
	C767.037292,115.165596 768.288452,116.521317 770.643555,118.398010 
	C761.608643,120.987083 754.525024,118.428719 746.486267,116.277008 
	C746.486267,120.379692 746.267700,123.992020 746.623840,127.546761 
	C746.726318,128.569229 748.446228,130.183411 749.492249,130.238388 
	C757.889282,130.679779 766.387878,131.629471 774.681641,130.762131 
	C780.538086,130.149704 784.499390,125.605766 785.257446,119.092003 
	C786.020752,112.533173 784.493896,107.151947 778.187683,104.034218 
	C774.614746,102.267761 770.888977,100.810097 767.320496,99.035446 
	C765.712769,98.235916 764.321045,97.001839 761.916687,95.328285 
	C769.308838,92.543236 774.781250,95.817856 780.801270,97.123779 
	C782.295227,93.727715 783.735352,90.454048 785.457397,86.539375 
	C782.242432,85.518898 779.456177,84.634529 775.856140,83.557541 
M471.017822,122.698723 
	C471.017822,121.102921 471.017822,119.507118 471.017822,117.616417 
	C468.052032,118.054047 465.778381,118.457802 463.488129,118.711052 
	C460.267426,119.067200 458.233307,117.615372 458.155792,114.332497 
	C458.011658,108.225456 458.114471,102.112587 458.114471,95.827003 
	C462.258209,95.591904 465.956665,95.382065 469.492249,95.181473 
	C469.492249,90.809181 469.492249,87.062782 469.492249,82.839432 
	C465.567627,82.839432 461.983887,82.839432 457.835938,82.839432 
	C457.835938,79.312920 457.835938,76.267632 457.835938,73.154991 
	C456.104553,73.078651 454.927612,73.162071 453.804596,72.954117 
	C448.580811,71.986824 445.664459,74.027626 443.872559,79.119019 
	C442.901031,81.879539 440.610321,84.633430 438.172333,86.312202 
	C434.576660,88.788071 434.228699,91.555153 435.278900,95.225105 
	C437.054443,95.578049 438.649353,95.895088 441.329987,96.427940 
	C441.329987,104.162743 441.154449,111.945396 441.382599,119.716202 
	C441.584198,126.583916 445.474976,130.899460 452.323975,131.671921 
	C456.239838,132.113541 460.269989,131.752899 464.233459,131.507523 
	C469.099640,131.206268 471.907501,128.910553 471.017822,122.698723 
M196.013351,92.540619 
	C196.013351,89.451698 196.013351,86.362778 196.013351,83.382553 
	C189.901535,83.382553 184.520065,83.382553 179.347992,83.382553 
	C179.347992,99.680550 179.347992,115.570999 179.347992,131.580750 
	C184.968567,131.580750 190.215073,131.580750 196.015915,131.580750 
	C196.015915,118.718887 196.015915,106.123405 196.013351,92.540619 
M196.694565,71.245064 
	C196.922531,67.430824 195.316376,64.714943 191.632614,63.619751 
	C187.667389,62.440884 183.287811,61.966000 180.515305,65.461815 
	C179.061050,67.295441 178.756516,70.755470 179.228638,73.234207 
	C179.930313,76.918167 183.420761,77.642403 186.738678,77.646477 
	C191.039291,77.651756 195.253281,77.297508 196.694565,71.245064 
z"/>
<path fill="#F8071A" opacity="1.000000" stroke="none" 
	d="
M44.125866,109.945023 
	C44.061008,93.127983 43.927917,76.801994 43.965317,60.476391 
	C43.994789,47.610313 50.860577,39.864304 63.701233,39.683231 
	C87.011223,39.354523 110.334778,39.591133 133.646469,39.971989 
	C143.246231,40.128830 150.736267,47.662045 150.898544,57.350334 
	C151.236069,77.502129 152.226944,97.752701 150.704041,117.792046 
	C149.432068,134.529633 139.355148,147.203613 124.220894,154.768417 
	C109.567528,162.092834 93.789322,162.595276 78.446838,157.856522 
	C53.855042,150.261002 42.943348,128.032349 44.125866,109.945023 
M131.542191,111.787048 
	C131.675888,111.476341 131.809586,111.165634 131.899216,110.164665 
	C130.531433,108.338783 129.163635,106.512901 127.795845,104.687019 
	C128.420639,110.536324 124.126663,110.805931 120.053856,111.993126 
	C115.025520,111.993126 109.997185,111.993126 103.761414,111.993126 
	C105.724586,112.997437 106.438782,113.362801 107.536087,114.417717 
	C113.093773,114.979378 118.651451,115.541046 124.175049,116.723114 
	C124.174942,117.136566 124.174835,117.550018 123.606598,118.278053 
	C123.423172,118.875168 123.239746,119.472275 123.039421,120.055069 
	C123.039421,120.055069 123.067604,120.079315 122.221169,120.000534 
	C117.282204,120.409737 112.343239,120.818947 107.404274,121.228149 
	C107.380142,122.118011 107.356010,123.007874 107.331879,123.897736 
	C112.178619,124.732368 117.025368,125.567001 121.671455,126.786171 
	C121.671455,126.786171 121.365829,127.093925 120.568092,127.292328 
	C116.629898,128.052856 112.691704,128.813385 108.753502,129.573898 
	C108.610573,130.011856 108.467651,130.449814 108.324722,130.887756 
	C110.333504,131.746872 112.396973,132.500305 114.332047,133.501846 
	C115.646103,134.181946 116.780067,135.210037 117.413651,136.563660 
	C115.626282,136.572662 113.838913,136.581680 111.902390,135.920853 
	C110.298050,133.483978 108.364548,133.305191 106.528671,135.468643 
	C106.314888,135.720551 107.808502,137.421356 108.494736,138.550842 
	C108.494736,138.550842 108.587257,138.592896 108.448097,139.157547 
	C108.772385,139.267532 109.096680,139.377518 109.265244,139.683914 
	C109.265244,139.683914 109.470039,139.539368 109.414162,140.194229 
	C109.967697,140.445984 110.521225,140.697739 111.016449,140.997635 
	C111.016449,140.997635 111.033142,140.923889 111.114853,141.292648 
	C111.412949,141.278259 111.711037,141.263855 112.757950,141.273163 
	C113.505020,141.279190 114.252083,141.285202 115.391663,141.654922 
	C115.863518,141.337997 116.335381,141.021057 116.855194,140.813202 
	C116.855194,140.813202 116.742134,140.775604 117.302643,140.757706 
	C117.532707,140.480011 117.762779,140.202301 118.223579,139.487015 
	C118.462807,139.238327 118.753876,139.094742 119.738281,138.972595 
	C120.155724,138.307312 120.573174,137.642044 121.003799,136.998230 
	C121.003799,136.998230 120.979240,136.995544 121.335297,136.908508 
	C121.422997,136.825516 121.595047,136.726807 121.583046,136.662399 
	C121.542595,136.445404 121.436707,136.240601 121.243561,135.393433 
	C121.164536,135.192596 121.085510,134.991745 121.337555,134.241226 
	C121.531944,133.426224 121.726334,132.611206 122.385239,131.377975 
	C122.912079,129.957306 123.438911,128.536636 124.033432,126.431412 
	C124.345741,125.574371 124.658051,124.717323 125.438332,123.433044 
	C128.501556,122.022316 129.311401,120.091698 126.921822,116.604782 
	C127.010651,115.809464 127.099480,115.014145 127.830330,114.100639 
	C128.541077,113.694946 129.251816,113.289253 129.962540,112.964745 
	C129.962540,112.964745 129.888672,112.931053 130.395599,112.847076 
	C130.610916,112.592316 130.826248,112.337555 131.019669,112.008644 
	C131.019669,112.008644 131.089172,112.042542 131.542191,111.787048 
M97.362892,109.754517 
	C97.543060,109.448135 97.723221,109.141747 97.910339,108.947556 
	C97.910339,108.947556 97.835953,108.863281 98.474991,108.977127 
	C99.029678,108.709091 99.584373,108.441055 100.691734,107.713448 
	C102.889053,105.141663 102.496025,103.038269 99.770233,101.417534 
	C99.770233,101.417534 99.559700,101.348030 99.611923,100.750908 
	C99.296173,100.542328 98.980415,100.333748 98.125160,99.774910 
	C95.745018,97.474724 93.735954,98.160370 92.270744,100.734802 
	C91.338158,102.373390 90.803276,104.238342 89.986404,106.801430 
	C90.387787,108.876381 90.789169,110.951332 91.037674,113.679550 
	C91.096603,114.118263 91.155533,114.556976 91.142784,115.510742 
	C91.208382,115.671188 91.273979,115.831635 91.134346,116.802940 
	C89.064072,123.159721 90.147072,130.636154 84.830002,136.198914 
	C83.824959,135.400558 83.167732,135.090424 82.821083,134.572433 
	C71.469437,117.609909 65.181160,99.142052 67.352844,78.546944 
	C68.185532,70.650078 75.170052,66.568947 82.813591,68.885674 
	C86.426476,69.980728 89.830803,71.859131 93.207794,73.616692 
	C99.546562,76.915718 105.662079,80.678917 112.145271,83.649208 
	C115.036720,84.973946 118.593758,84.845924 121.848709,85.377251 
	C121.985474,84.890755 122.122246,84.404259 122.259010,83.917755 
	C117.101845,80.588570 111.944687,77.259384 105.522026,73.113258 
	C109.860504,71.551399 112.697266,70.262123 115.670242,69.514702 
	C122.212875,67.869858 126.221176,69.790550 129.058563,76.319191 
	C129.427567,76.887024 129.796570,77.454865 130.329697,78.172668 
	C130.329697,78.172668 130.297760,78.392693 130.122498,79.397102 
	C130.445694,86.435677 130.768890,93.474251 131.092072,100.512825 
	C131.750656,100.580902 132.409241,100.648979 133.067825,100.717049 
	C133.577316,98.568886 134.086807,96.420715 134.618668,94.158714 
	C134.618668,94.158714 134.665619,94.052635 135.346069,93.618660 
	C137.852966,85.841621 138.364258,77.999466 136.570023,69.961105 
	C136.135147,68.012817 136.731598,65.834312 136.743835,63.083691 
	C133.509323,53.827801 125.517128,49.372223 117.465546,52.257725 
	C115.457207,52.977467 114.014992,53.696716 115.203995,55.989723 
	C111.136909,57.738972 106.835945,59.095024 103.063240,61.339165 
	C98.568329,64.012901 95.096741,64.136406 90.580856,60.884876 
	C83.520203,55.801064 75.343559,54.952248 67.478622,59.125587 
	C60.011311,63.087933 57.920284,70.403885 58.031342,78.202888 
	C58.343391,100.117050 65.537231,119.899841 77.842361,137.809601 
	C79.688438,140.496536 83.454285,141.864471 86.332069,143.842560 
	C88.210487,140.695145 90.192535,137.602432 91.901733,134.365662 
	C92.389687,133.441620 91.994431,132.085602 92.167732,130.952698 
	C92.409119,129.374634 92.804375,127.820107 93.470947,126.090202 
	C93.470947,126.090202 93.786674,125.886841 94.444778,125.472183 
	C94.845718,121.097054 95.246658,116.721931 95.600220,112.154045 
	C95.600220,112.154045 95.712547,111.990379 96.336189,111.717552 
	C96.507545,111.095642 96.678902,110.473740 96.974548,109.968391 
	C96.974548,109.968391 96.825966,109.884979 97.362892,109.754517 
z"/>
<path fill="#F80B1E" opacity="1.000000" stroke="none" 
	d="
M706.275635,85.705025 
	C706.811401,86.981697 707.195984,87.855743 707.762268,89.142708 
	C708.966125,88.260803 709.899048,87.677185 710.717529,86.962509 
	C720.207764,78.675797 733.743530,82.421989 737.424744,94.520401 
	C739.905396,102.673279 739.849548,111.000168 737.526917,119.170212 
	C734.063477,131.352921 721.577881,135.818130 710.927917,128.887375 
	C710.423523,128.559097 709.853577,128.331543 708.684204,127.736580 
	C708.684204,136.370728 708.684204,144.428802 708.684204,152.752716 
	C702.786682,152.752716 697.381104,152.752716 691.683716,152.752716 
	C691.683716,129.520920 691.683716,106.458954 691.683716,82.986237 
	C695.783508,82.986237 699.594666,82.833641 703.377747,83.092140 
	C704.339172,83.157829 705.211365,84.530350 706.275635,85.705025 
M708.632080,108.407494 
	C708.729797,109.736984 708.745850,111.078613 708.941040,112.393631 
	C709.469543,115.954002 711.451233,118.281975 715.138184,118.404160 
	C718.670715,118.521233 720.935425,116.334534 721.174500,112.985939 
	C721.478577,108.725708 721.670532,104.282433 720.728821,100.190102 
	C720.323303,98.428093 716.919128,96.224449 714.933838,96.279076 
	C712.986145,96.332672 710.487732,98.649338 709.383789,100.618912 
	C708.347534,102.467667 708.818481,105.161263 708.632080,108.407494 
z"/>
<path fill="#F6091C" opacity="1.000000" stroke="none" 
	d="
M409.395691,109.072021 
	C409.283173,106.258362 409.265747,103.922668 409.038300,101.607605 
	C408.730682,98.476624 407.246765,95.608536 403.859436,96.247673 
	C401.332062,96.724548 398.199951,98.504646 397.052704,100.630287 
	C395.662750,103.205536 395.833527,106.750420 395.764130,109.885361 
	C395.606262,117.017525 395.714294,124.155563 395.714294,131.571106 
	C389.604156,131.571106 384.364044,131.571106 378.787231,131.571106 
	C378.787231,115.562531 378.787231,99.641846 378.787231,83.729675 
	C387.573669,81.561203 390.025146,82.408119 393.864838,89.252533 
	C395.032684,88.325775 396.139740,87.438774 397.255707,86.563057 
	C403.545959,81.626869 410.396545,81.489052 417.535095,84.289536 
	C424.025299,86.835686 426.322906,92.203941 426.431519,98.605156 
	C426.614868,109.407936 426.481781,120.216087 426.481781,131.448471 
	C421.035461,131.448471 415.661743,131.448471 409.397217,131.448471 
	C409.397217,124.139214 409.397217,116.849197 409.395691,109.072021 
z"/>
<path fill="#F6081B" opacity="1.000000" stroke="none" 
	d="
M238.865326,104.541176 
	C238.308853,100.031746 238.021530,95.774048 232.227646,96.038033 
	C228.070755,96.227432 225.651093,98.954460 225.314407,104.835663 
	C224.905228,111.983429 224.980179,119.158585 224.823776,126.321411 
	C224.788132,127.954590 224.662628,129.585815 224.562546,131.526886 
	C219.055023,131.526886 213.821289,131.526886 208.230377,131.526886 
	C208.230377,115.528450 208.230377,99.619179 208.230377,83.689224 
	C216.679138,81.606003 219.173416,82.450279 223.342789,89.186424 
	C224.476257,88.274811 225.557114,87.384560 226.659729,86.522125 
	C233.537170,81.142708 244.273956,80.879349 250.697723,86.766548 
	C253.138474,89.003426 255.160309,92.943268 255.314835,96.204460 
	C255.865067,107.816086 255.529831,119.469658 255.529831,131.483429 
	C250.310974,131.483429 244.931381,131.483429 238.900818,131.483429 
	C238.900818,122.552048 238.900818,113.770233 238.865326,104.541176 
z"/>
<path fill="#F5091C" opacity="1.000000" stroke="none" 
	d="
M329.609924,127.479095 
	C318.395294,120.371315 319.188507,101.991623 323.386444,94.014122 
	C328.472107,84.349602 340.964661,80.101128 353.535645,83.639854 
	C364.859314,86.827469 369.491974,95.405899 368.316162,111.761032 
	C358.476532,111.761032 348.569122,111.761032 338.622742,111.761032 
	C339.233185,120.630531 344.273712,121.592056 365.494598,117.171097 
	C365.494598,120.440582 365.732147,123.559235 365.369934,126.606598 
	C365.237335,127.722054 363.863220,129.258011 362.747772,129.600693 
	C351.596893,133.026489 340.524170,133.894928 329.609924,127.479095 
M351.566010,96.966705 
	C345.768219,91.977592 340.909058,93.154076 338.091919,100.967888 
	C342.592285,100.967888 346.831329,101.053238 351.052948,100.821426 
	C351.429779,100.800735 351.693512,98.721138 351.566010,96.966705 
z"/>
<path fill="#F6091C" opacity="1.000000" stroke="none" 
	d="
M521.201172,125.192802 
	C511.257721,134.243698 494.740143,134.480057 485.305725,125.971634 
	C476.802460,118.302986 475.241394,101.274498 482.714142,91.471405 
	C489.291565,82.842842 498.745728,81.197762 508.794220,83.152946 
	C517.829163,84.910934 524.244263,90.255920 526.314331,99.497711 
	C528.341675,108.548851 528.000183,117.397125 521.201172,125.192802 
M506.207336,96.106911 
	C501.490936,94.380074 497.253296,95.480560 496.602722,99.634331 
	C495.804047,104.733971 496.017273,110.149277 496.845764,115.257362 
	C497.118652,116.939949 500.586670,119.024963 502.737854,119.205170 
	C504.623840,119.363159 507.832092,117.555908 508.511566,115.844635 
	C511.100311,109.324280 511.551941,102.622375 506.207336,96.106911 
z"/>
<path fill="#F6091B" opacity="1.000000" stroke="none" 
	d="
M645.965088,130.219360 
	C635.617676,125.715996 631.880005,117.537025 631.904419,107.242523 
	C631.926697,97.867332 634.672668,89.730675 643.840515,85.405777 
	C653.591370,80.805801 663.303772,81.104485 672.203003,87.424744 
	C681.080383,93.729553 683.874573,108.698318 678.714233,119.715294 
	C674.194763,129.364166 662.876099,134.176666 650.626099,131.615631 
	C649.169983,131.311203 647.759949,130.786057 645.965088,130.219360 
M651.251038,117.103729 
	C657.244751,121.550575 662.048401,120.184212 663.228455,113.061523 
	C663.937012,108.784782 663.622314,104.067375 662.516113,99.878479 
	C661.983704,97.862190 658.435120,95.207649 656.471741,95.377502 
	C654.165833,95.576981 650.473206,98.340912 650.241760,100.326027 
	C649.627380,105.596542 650.551697,111.046425 651.251038,117.103729 
z"/>
<path fill="#F60A1D" opacity="1.000000" stroke="none" 
	d="
M597.828796,108.999222 
	C597.828796,108.999222 597.993530,109.458237 598.002075,110.126038 
	C598.573425,112.486778 599.136108,114.179726 599.698853,115.872673 
	C601.030090,114.401459 602.375977,112.942894 603.676758,111.445236 
	C603.869324,111.223503 603.840881,110.814827 603.928894,110.496552 
	C606.028320,102.903900 608.006653,95.273651 610.337585,87.752686 
	C610.787781,86.300095 612.495911,84.411652 613.836426,84.221214 
	C617.342896,83.723106 620.967102,84.053322 624.815002,84.053322 
	C623.830505,88.741364 623.000916,92.691933 622.171326,96.642509 
	C622.171326,96.642509 622.241516,96.845009 621.800293,96.980545 
	C619.577087,102.402931 617.795105,107.689774 616.013184,112.976608 
	C616.013184,112.976608 616.018127,113.005913 615.692627,113.167976 
	C614.262268,116.570930 613.157410,119.811821 612.052551,123.052719 
	C612.052551,123.052719 611.997803,123.006332 611.704468,123.164482 
	C610.342285,126.442818 609.273499,129.563004 608.204712,132.683197 
	C608.204712,132.683197 608.258057,132.858246 607.794434,133.003601 
	C606.948608,134.649460 606.566406,136.149948 606.184204,137.650421 
	C606.184204,137.650421 606.241760,137.851669 605.795166,137.986298 
	C604.935913,139.444641 604.523315,140.768356 604.110779,142.092072 
	C604.110779,142.092087 604.038391,142.095459 603.719360,142.116943 
	C602.954285,143.109039 602.508179,144.079651 602.062073,145.050262 
	C602.062073,145.050278 602.000000,145.000610 601.795105,145.130707 
	C601.429443,145.555756 601.268677,145.850723 601.107849,146.145691 
	C601.107849,146.145691 601.044067,146.038971 600.845581,146.153137 
	C600.467407,146.559052 600.287842,146.850815 600.108215,147.142593 
	C600.108215,147.142593 600.021790,147.033310 599.837769,147.136185 
	C599.454529,147.497589 599.255188,147.756134 599.055847,148.014679 
	C599.055847,148.014664 599.032166,148.038528 598.664490,148.032745 
	C597.537720,148.687012 596.778625,149.347046 596.019531,150.007080 
	C596.019531,150.007080 596.004639,150.003677 595.623657,150.003494 
	C591.675842,150.335297 588.100098,150.593307 584.544373,151.018066 
	C580.139404,151.544250 578.859680,149.587326 578.883972,145.334106 
	C578.908752,140.991211 581.982971,141.020554 584.663086,139.995956 
	C586.092712,139.449387 587.315430,138.361420 588.631531,137.517792 
	C588.631531,137.517776 588.704285,137.682510 588.977905,137.668945 
	C589.796814,136.733673 590.342041,135.811981 590.887268,134.890289 
	C590.887268,134.890274 590.979675,134.974152 591.197266,134.814728 
	C591.588989,134.087311 591.763184,133.519302 591.937378,132.951309 
	C591.937378,132.951309 592.000061,132.981720 592.324585,132.921539 
	C594.771240,131.110458 594.730225,129.781403 591.895508,128.997116 
	C591.895508,128.997116 591.755188,128.853607 591.831299,128.350983 
	C591.241028,126.559036 590.574707,125.269722 589.908386,123.980408 
	C589.908386,123.980400 589.767700,123.845116 589.837830,123.312912 
	C587.592590,116.337730 585.390259,109.851227 582.929688,103.464203 
	C580.535156,97.248520 577.876221,91.134712 574.931396,84.002670 
	C579.432556,84.002670 582.904358,83.699661 586.276794,84.146873 
	C587.690857,84.334396 589.616211,85.866531 590.070801,87.207291 
	C592.284241,93.734558 594.041687,100.415276 596.070801,107.007744 
	C596.308167,107.778885 597.226257,108.340485 597.828796,108.999222 
z"/>
<path fill="#F60A1D" opacity="1.000000" stroke="none" 
	d="
M304.222260,116.306442 
	C303.676666,117.761093 303.282745,118.857903 302.869415,119.947357 
	C298.020966,132.727310 298.016113,132.783096 284.077057,131.767120 
	C282.789215,131.673264 280.906708,130.546722 280.464203,129.436020 
	C274.552185,114.595436 268.843719,99.673698 263.112274,84.761505 
	C262.949310,84.337456 263.091705,83.796028 263.091705,82.979057 
	C267.688904,82.979057 272.177979,83.108887 276.654694,82.929489 
	C279.264832,82.824898 280.442688,83.677986 281.147919,86.299660 
	C283.649170,95.598114 286.444550,104.817444 290.022064,114.131607 
	C293.111816,103.857597 296.201599,93.583595 299.329437,83.182953 
	C305.201904,83.182953 310.827576,83.182953 317.049530,83.182953 
	C312.743134,94.305687 308.554016,105.125435 304.222260,116.306442 
z"/>
<path fill="#F50A1C" opacity="1.000000" stroke="none" 
	d="
M776.263062,83.653847 
	C779.456177,84.634529 782.242432,85.518898 785.457397,86.539375 
	C783.735352,90.454048 782.295227,93.727715 780.801270,97.123779 
	C774.781250,95.817856 769.308838,92.543236 761.916687,95.328285 
	C764.321045,97.001839 765.712769,98.235916 767.320496,99.035446 
	C770.888977,100.810097 774.614746,102.267761 778.187683,104.034218 
	C784.493896,107.151947 786.020752,112.533173 785.257446,119.092003 
	C784.499390,125.605766 780.538086,130.149704 774.681641,130.762131 
	C766.387878,131.629471 757.889282,130.679779 749.492249,130.238388 
	C748.446228,130.183411 746.726318,128.569229 746.623840,127.546761 
	C746.267700,123.992020 746.486267,120.379692 746.486267,116.277008 
	C754.525024,118.428719 761.608643,120.987083 770.643555,118.398010 
	C768.288452,116.521317 767.037292,115.165596 765.497253,114.367043 
	C761.519653,112.304497 757.304443,110.687370 753.386658,108.525337 
	C747.878723,105.485786 746.385681,100.388298 747.034241,94.456062 
	C747.615356,89.140518 751.071899,86.362694 755.710449,84.534691 
	C762.333130,81.924820 769.065186,82.309685 776.263062,83.653847 
z"/>
<path fill="#F6091B" opacity="1.000000" stroke="none" 
	d="
M471.016968,123.135712 
	C471.907501,128.910553 469.099640,131.206268 464.233459,131.507523 
	C460.269989,131.752899 456.239838,132.113541 452.323975,131.671921 
	C445.474976,130.899460 441.584198,126.583916 441.382599,119.716202 
	C441.154449,111.945396 441.329987,104.162743 441.329987,96.427940 
	C438.649353,95.895088 437.054443,95.578049 435.278900,95.225105 
	C434.228699,91.555153 434.576660,88.788071 438.172333,86.312202 
	C440.610321,84.633430 442.901031,81.879539 443.872559,79.119019 
	C445.664459,74.027626 448.580811,71.986824 453.804596,72.954117 
	C454.927612,73.162071 456.104553,73.078651 457.835938,73.154991 
	C457.835938,76.267632 457.835938,79.312920 457.835938,82.839432 
	C461.983887,82.839432 465.567627,82.839432 469.492249,82.839432 
	C469.492249,87.062782 469.492249,90.809181 469.492249,95.181473 
	C465.956665,95.382065 462.258209,95.591904 458.114471,95.827003 
	C458.114471,102.112587 458.011658,108.225456 458.155792,114.332497 
	C458.233307,117.615372 460.267426,119.067200 463.488129,118.711052 
	C465.778381,118.457802 468.052032,118.054047 471.017822,117.616417 
	C471.017822,119.507118 471.017822,121.102921 471.016968,123.135712 
z"/>
<path fill="#F50C1E" opacity="1.000000" stroke="none" 
	d="
M597.898560,108.603279 
	C597.226257,108.340485 596.308167,107.778885 596.070801,107.007744 
	C594.041687,100.415276 592.284241,93.734558 590.070801,87.207291 
	C589.616211,85.866531 587.690857,84.334396 586.276794,84.146873 
	C582.904358,83.699661 579.432556,84.002670 574.931396,84.002670 
	C577.876221,91.134712 580.535156,97.248520 582.929688,103.464203 
	C585.390259,109.851227 587.592590,116.337730 589.862549,123.218506 
	C584.510681,111.231270 579.204285,98.806236 573.770447,86.082962 
	C572.401489,87.133980 571.932739,87.325005 571.931458,87.519173 
	C571.880676,95.070488 570.147522,100.439888 560.531677,99.396088 
	C556.819580,98.993141 554.532532,102.614624 554.506287,106.654381 
	C554.453308,114.803291 554.490540,122.952789 554.490540,131.483063 
	C548.462585,131.483063 543.084656,131.483063 537.411499,131.483063 
	C537.411499,115.451073 537.411499,99.545845 537.411499,83.305641 
	C541.413574,83.305641 545.334473,83.305641 549.613464,83.305641 
	C550.387573,85.416634 551.225769,87.702492 552.032715,89.902931 
	C552.547791,89.983597 553.034119,90.183746 553.141174,90.058815 
	C559.068604,83.142036 566.724121,82.016144 575.279114,82.892052 
	C580.368347,83.413116 585.554565,82.987503 591.023682,82.987503 
	C593.384033,91.559105 595.676208,99.883217 597.898560,108.603279 
z"/>
<path fill="#F5081B" opacity="1.000000" stroke="none" 
	d="
M196.014633,93.034271 
	C196.015915,106.123405 196.015915,118.718887 196.015915,131.580750 
	C190.215073,131.580750 184.968567,131.580750 179.347992,131.580750 
	C179.347992,115.570999 179.347992,99.680550 179.347992,83.382553 
	C184.520065,83.382553 189.901535,83.382553 196.013351,83.382553 
	C196.013351,86.362778 196.013351,89.451698 196.014633,93.034271 
z"/>
<path fill="#F11123" opacity="1.000000" stroke="none" 
	d="
M196.623718,71.620941 
	C195.253281,77.297508 191.039291,77.651756 186.738678,77.646477 
	C183.420761,77.642403 179.930313,76.918167 179.228638,73.234207 
	C178.756516,70.755470 179.061050,67.295441 180.515305,65.461815 
	C183.287811,61.966000 187.667389,62.440884 191.632614,63.619751 
	C195.316376,64.714943 196.922531,67.430824 196.623718,71.620941 
z"/>
<path fill="#F50C1E" opacity="1.000000" stroke="none" 
	d="
M622.458130,96.386826 
	C623.000916,92.691933 623.830505,88.741364 624.815002,84.053322 
	C620.967102,84.053322 617.342896,83.723106 613.836426,84.221214 
	C612.495911,84.411652 610.787781,86.300095 610.337585,87.752686 
	C608.006653,95.273651 606.028320,102.903900 603.928894,110.496552 
	C603.840881,110.814827 603.869324,111.223503 603.676758,111.445236 
	C602.375977,112.942894 601.030090,114.401459 599.698853,115.872673 
	C599.136108,114.179726 598.573425,112.486778 598.021362,110.369110 
	C598.821533,110.882118 599.611023,111.819855 600.639832,113.041862 
	C603.731873,103.504303 606.636108,94.365707 609.723328,85.289322 
	C610.048767,84.332375 611.421570,83.128113 612.357727,83.084023 
	C617.112976,82.860046 621.884521,82.980797 627.640686,82.980797 
	C625.815186,87.884132 624.280029,92.007637 622.458130,96.386826 
z"/>
<path fill="#F50C1E" opacity="1.000000" stroke="none" 
	d="
M588.252930,137.647644 
	C587.315430,138.361420 586.092712,139.449387 584.663086,139.995956 
	C581.982971,141.020554 578.908752,140.991211 578.883972,145.334106 
	C578.859680,149.587326 580.139404,151.544250 584.544373,151.018066 
	C588.100098,150.593307 591.675842,150.335297 595.620850,150.010132 
	C590.901489,150.895355 585.824646,152.017105 580.689575,152.452499 
	C579.627258,152.542557 577.602539,150.220779 577.328125,148.764389 
	C576.789551,145.905807 577.169678,142.874176 577.169678,139.899857 
	C580.904907,139.159286 584.389587,138.468384 588.252930,137.647644 
z"/>
<path fill="#F50C1E" opacity="1.000000" stroke="none" 
	d="
M616.271301,112.738373 
	C617.795105,107.689774 619.577087,102.402931 621.724792,97.056625 
	C620.236877,102.164818 618.383118,107.332474 616.271301,112.738373 
z"/>
<path fill="#F50C1E" opacity="1.000000" stroke="none" 
	d="
M612.315491,122.822281 
	C613.157410,119.811821 614.262268,116.570930 615.680908,113.177094 
	C614.855896,116.213387 613.717163,119.402611 612.315491,122.822281 
z"/>
<path fill="#F50C1E" opacity="1.000000" stroke="none" 
	d="
M608.491333,132.431824 
	C609.273499,129.563004 610.342285,126.442818 611.736694,123.179611 
	C610.967529,126.084549 609.872742,129.132492 608.491333,132.431824 
z"/>
<path fill="#F50C1E" opacity="1.000000" stroke="none" 
	d="
M591.905823,129.394882 
	C594.730225,129.781403 594.771240,131.110458 592.294189,132.900604 
	C591.931580,131.890808 591.923889,130.841721 591.905823,129.394882 
z"/>
<path fill="#F50C1E" opacity="1.000000" stroke="none" 
	d="
M604.398132,141.918884 
	C604.523315,140.768356 604.935913,139.444641 605.719666,138.058807 
	C605.622375,139.246353 605.153931,140.496033 604.398132,141.918884 
z"/>
<path fill="#F50C1E" opacity="1.000000" stroke="none" 
	d="
M606.470337,137.410233 
	C606.566406,136.149948 606.948608,134.649460 607.734497,133.072784 
	C607.677673,134.387756 607.217102,135.778900 606.470337,137.410233 
z"/>
<path fill="#F50C1E" opacity="1.000000" stroke="none" 
	d="
M589.912354,124.349182 
	C590.574707,125.269722 591.241028,126.559036 591.860229,128.254883 
	C591.180908,127.346931 590.548645,126.032440 589.912354,124.349182 
z"/>
<path fill="#F50C1E" opacity="1.000000" stroke="none" 
	d="
M596.333008,149.994049 
	C596.778625,149.347046 597.537720,148.687012 598.649719,148.040741 
	C598.217224,148.696686 597.431824,149.338852 596.333008,149.994049 
z"/>
<path fill="#F50C1E" opacity="1.000000" stroke="none" 
	d="
M602.350342,144.926270 
	C602.508179,144.079651 602.954285,143.109039 603.758545,142.124481 
	C603.623962,143.007797 603.131287,143.905045 602.350342,144.926270 
z"/>
<path fill="#F50C1E" opacity="1.000000" stroke="none" 
	d="
M590.612915,135.028564 
	C590.342041,135.811981 589.796814,136.733673 588.893311,137.638107 
	C589.136292,136.802841 589.737488,135.984848 590.612915,135.028564 
z"/>
<path fill="#F50C1E" opacity="1.000000" stroke="none" 
	d="
M591.684448,133.109894 
	C591.763184,133.519302 591.588989,134.087311 591.138977,134.792358 
	C591.052612,134.375763 591.242065,133.822128 591.684448,133.109894 
z"/>
<path fill="#F50C1E" opacity="1.000000" stroke="none" 
	d="
M599.316772,147.979767 
	C599.255188,147.756134 599.454529,147.497589 599.896606,147.173538 
	C599.952148,147.386978 599.764893,147.665924 599.316772,147.979767 
z"/>
<path fill="#F50C1E" opacity="1.000000" stroke="none" 
	d="
M600.379456,147.089569 
	C600.287842,146.850815 600.467407,146.559052 600.898682,146.185394 
	C600.983765,146.414505 600.817261,146.725525 600.379456,147.089569 
z"/>
<path fill="#F50C1E" opacity="1.000000" stroke="none" 
	d="
M601.363403,146.065521 
	C601.268677,145.850723 601.429443,145.555756 601.825500,145.155029 
	C601.913513,145.361313 601.766296,145.673340 601.363403,146.065521 
z"/>
<path fill="#FEF1F2" opacity="1.000000" stroke="none" 
	d="
M134.665619,94.052635 
	C134.665619,94.052635 134.618668,94.158714 134.300018,94.423080 
	C133.450104,95.299194 132.918839,95.910927 132.625870,96.248276 
	C131.848221,90.284103 131.072998,84.338394 130.297760,78.392693 
	C130.297760,78.392693 130.329697,78.172668 130.252319,77.750748 
	C129.834579,76.752029 129.494232,76.175240 129.153870,75.598450 
	C126.221176,69.790550 122.212875,67.869858 115.670242,69.514702 
	C112.697266,70.262123 109.860504,71.551399 105.522026,73.113258 
	C111.944687,77.259384 117.101845,80.588570 122.259010,83.917755 
	C122.122246,84.404259 121.985474,84.890755 121.848709,85.377251 
	C118.593758,84.845924 115.036720,84.973946 112.145271,83.649208 
	C105.662079,80.678917 99.546562,76.915718 93.207794,73.616692 
	C89.830803,71.859131 86.426476,69.980728 82.813591,68.885674 
	C75.170052,66.568947 68.185532,70.650078 67.352844,78.546944 
	C65.181160,99.142052 71.469437,117.609909 82.821083,134.572433 
	C83.167732,135.090424 83.824959,135.400558 84.830002,136.198914 
	C90.147072,130.636154 89.064072,123.159721 91.380402,116.296165 
	C91.489128,115.524826 91.351791,115.260254 91.214462,114.995689 
	C91.155533,114.556976 91.096603,114.118263 91.451782,113.291458 
	C92.596695,111.037056 93.327492,109.170738 94.347061,107.141006 
	C95.421631,106.694824 96.207451,106.412056 97.114212,106.379494 
	C97.505470,107.112946 97.775803,107.596207 97.965630,108.267921 
	C97.885132,108.456383 97.835953,108.863281 97.835953,108.863281 
	C97.835953,108.863281 97.910339,108.947556 97.623398,108.931244 
	C97.166298,109.238289 96.996132,109.561630 96.825966,109.884979 
	C96.825966,109.884979 96.974548,109.968391 96.623909,110.062561 
	C96.086365,110.767944 95.899452,111.379158 95.712547,111.990379 
	C95.712547,111.990379 95.600220,112.154045 95.386307,112.561264 
	C94.972298,113.982811 94.772194,114.997139 94.402161,116.194626 
	C94.220207,116.703110 94.208176,117.028435 94.213562,117.761742 
	C94.025131,119.789215 93.819298,121.408707 93.400459,123.294243 
	C93.169571,124.458694 93.151680,125.357101 93.133789,126.255508 
	C92.804375,127.820107 92.409119,129.374634 92.167732,130.952698 
	C91.994431,132.085602 92.389687,133.441620 91.901733,134.365662 
	C90.192535,137.602432 88.210487,140.695145 86.332069,143.842560 
	C83.454285,141.864471 79.688438,140.496536 77.842361,137.809601 
	C65.537231,119.899841 58.343391,100.117050 58.031342,78.202888 
	C57.920284,70.403885 60.011311,63.087933 67.478622,59.125587 
	C75.343559,54.952248 83.520203,55.801064 90.580856,60.884876 
	C95.096741,64.136406 98.568329,64.012901 103.063240,61.339165 
	C106.835945,59.095024 111.136909,57.738972 115.816772,56.301064 
	C118.971085,56.730854 121.512619,56.849308 124.409332,56.989388 
	C130.580780,59.123562 134.667068,63.209030 135.015106,69.316849 
	C135.483063,77.528801 134.834778,85.804375 134.665619,94.052635 
z"/>
<path fill="#FFBDC7" opacity="1.000000" stroke="none" 
	d="
M124.054161,56.967766 
	C121.512619,56.849308 118.971085,56.730854 116.199036,56.268936 
	C114.014992,53.696716 115.457207,52.977467 117.465546,52.257725 
	C125.517128,49.372223 133.509323,53.827801 136.499908,63.316551 
	C135.148636,62.132809 134.030838,60.724209 132.935989,59.298012 
	C130.246262,55.794277 126.987671,53.851852 122.119240,55.424679 
	C122.887955,56.037724 123.471062,56.502743 124.054161,56.967766 
z"/>
<path fill="#D62836" opacity="1.000000" stroke="none" 
	d="
M124.409332,56.989388 
	C123.471062,56.502743 122.887955,56.037724 122.119240,55.424679 
	C126.987671,53.851852 130.246262,55.794277 132.935989,59.298012 
	C134.030838,60.724209 135.148636,62.132809 136.554901,63.655540 
	C136.731598,65.834312 136.135147,68.012817 136.570023,69.961105 
	C138.364258,77.999466 137.852966,85.841621 135.005844,93.835648 
	C134.834778,85.804375 135.483063,77.528801 135.015106,69.316849 
	C134.667068,63.209030 130.580780,59.123562 124.409332,56.989388 
z"/>
<path fill="#DD2332" opacity="1.000000" stroke="none" 
	d="
M121.872116,126.401642 
	C117.025368,125.567001 112.178619,124.732368 107.331879,123.897736 
	C107.356010,123.007874 107.380142,122.118011 107.404274,121.228149 
	C112.343239,120.818947 117.282204,120.409737 122.403175,120.327927 
	C119.528450,121.409332 116.471725,122.163338 113.414993,122.917343 
	C113.510063,123.231659 113.605133,123.545967 113.700203,123.860283 
	C117.456924,123.860283 121.213638,123.860283 124.970360,123.860283 
	C124.658051,124.717323 124.345741,125.574371 123.777237,126.717049 
	C122.971397,126.802338 122.421753,126.601990 121.872116,126.401642 
z"/>
<path fill="#FEDDDE" opacity="1.000000" stroke="none" 
	d="
M120.978020,112.101234 
	C124.126663,110.805931 128.420639,110.536324 127.795845,104.687019 
	C129.163635,106.512901 130.531433,108.338783 131.708435,110.649628 
	C131.374832,111.437241 131.231995,111.739891 131.089172,112.042542 
	C131.089172,112.042542 131.019669,112.008644 130.777344,112.092331 
	C130.319565,112.427689 130.104126,112.679375 129.888672,112.931053 
	C129.888672,112.931053 129.962540,112.964745 129.637955,112.936852 
	C128.674393,113.010292 128.035416,113.111626 127.075813,113.154205 
	C126.175163,113.312927 125.595146,113.530396 124.557999,113.841156 
	C119.750908,113.915451 115.400955,113.896454 111.345070,113.615845 
	C114.752106,112.936569 117.865059,112.518906 120.978020,112.101234 
z"/>
<path fill="#FFD6DE" opacity="1.000000" stroke="none" 
	d="
M125.204346,123.646667 
	C121.213638,123.860283 117.456924,123.860283 113.700203,123.860283 
	C113.605133,123.545967 113.510063,123.231659 113.414993,122.917343 
	C116.471725,122.163338 119.528450,121.409332 122.826393,120.367317 
	C123.067604,120.079315 123.039421,120.055069 123.387230,119.958344 
	C123.881607,119.228897 124.028168,118.596184 124.174728,117.963470 
	C124.174835,117.550018 124.174942,117.136566 124.458420,116.535172 
	C125.437820,116.698723 126.133835,117.050209 126.829857,117.401703 
	C129.311401,120.091698 128.501556,122.022316 125.204346,123.646667 
z"/>
<path fill="#DD2332" opacity="1.000000" stroke="none" 
	d="
M121.920715,131.796204 
	C121.726334,132.611206 121.531944,133.426224 120.863678,134.640884 
	C119.591377,135.387863 118.792969,135.735184 117.994560,136.082520 
	C116.780067,135.210037 115.646103,134.181946 114.332047,133.501846 
	C112.396973,132.500305 110.333504,131.746872 108.324722,130.887756 
	C108.467651,130.449814 108.610573,130.011856 108.753502,129.573898 
	C112.691704,128.813385 116.629898,128.052856 120.891922,127.575363 
	C118.604095,129.019913 115.992439,130.181427 112.361641,131.796204 
	C116.347145,131.796204 119.133934,131.796204 121.920715,131.796204 
z"/>
<path fill="#D62836" opacity="1.000000" stroke="none" 
	d="
M130.210129,78.894897 
	C131.072998,84.338394 131.848221,90.284103 132.625870,96.248276 
	C132.918839,95.910927 133.450104,95.299194 134.288818,94.479996 
	C134.086807,96.420715 133.577316,98.568886 133.067825,100.717049 
	C132.409241,100.648979 131.750656,100.580902 131.092072,100.512825 
	C130.768890,93.474251 130.445694,86.435677 130.210129,78.894897 
z"/>
<path fill="#FFE9EB" opacity="1.000000" stroke="none" 
	d="
M117.704102,136.323090 
	C118.792969,135.735184 119.591377,135.387863 120.698135,134.915710 
	C121.085510,134.991745 121.164536,135.192596 121.136063,135.926178 
	C121.012115,136.637802 120.995674,136.816666 120.979240,136.995544 
	C120.979240,136.995544 121.003799,136.998230 120.741180,137.119781 
	C120.017967,137.846298 119.557381,138.451279 119.096786,139.056244 
	C118.753876,139.094742 118.462807,139.238327 117.837234,139.744858 
	C117.214630,140.260345 116.978386,140.517975 116.742142,140.775604 
	C116.742134,140.775604 116.855194,140.813202 116.510002,140.785370 
	C115.776260,140.935440 115.387703,141.113327 114.999146,141.291229 
	C114.252083,141.285202 113.505020,141.279190 112.162506,141.110809 
	C111.389076,140.940262 111.211105,140.932083 111.033142,140.923889 
	C111.033142,140.923889 111.016449,140.997635 110.913414,140.732910 
	C110.363602,140.158585 109.916824,139.848969 109.470039,139.539368 
	C109.470039,139.539368 109.265244,139.683914 109.261688,139.389801 
	C109.093567,138.849304 108.869934,138.681702 108.587257,138.592896 
	C108.587257,138.592896 108.494736,138.550842 108.386322,138.172653 
	C109.535782,137.393204 110.793663,136.991943 112.051544,136.590698 
	C113.838913,136.581680 115.626282,136.572662 117.704102,136.323090 
z"/>
<path fill="#FED1D5" opacity="1.000000" stroke="none" 
	d="
M90.090057,106.001793 
	C90.803276,104.238342 91.338158,102.373390 92.270744,100.734802 
	C93.735954,98.160370 95.745018,97.474724 98.473518,100.202263 
	C99.067818,100.869087 99.313759,101.108559 99.559700,101.348030 
	C99.559700,101.348030 99.770233,101.417534 99.741219,101.728020 
	C99.453583,102.575592 99.194954,103.112686 98.936333,103.649773 
	C95.183174,100.194801 93.751961,103.519539 91.711739,106.009041 
	C90.954971,106.003975 90.522514,106.002884 90.090057,106.001793 
z"/>
<path fill="#DE2938" opacity="1.000000" stroke="none" 
	d="
M92.036049,106.013016 
	C93.751961,103.519539 95.183174,100.194801 98.936333,103.649773 
	C99.194954,103.112686 99.453583,102.575592 99.630859,101.717545 
	C102.496025,103.038269 102.889053,105.141663 100.331581,107.859436 
	C99.971428,108.005417 99.794731,107.851067 99.626785,107.614410 
	C98.636978,106.961594 97.815125,106.545448 96.993271,106.129303 
	C96.207451,106.412056 95.421631,106.694824 94.026672,107.051208 
	C92.957031,106.754234 92.496536,106.383629 92.036049,106.013016 
z"/>
<path fill="#DD2332" opacity="1.000000" stroke="none" 
	d="
M126.875839,117.003242 
	C126.133835,117.050209 125.437820,116.698723 124.475464,116.224976 
	C118.651451,115.541046 113.093773,114.979378 107.735359,114.086418 
	C108.973419,113.795898 110.012207,113.836670 111.050995,113.877457 
	C115.400955,113.896454 119.750908,113.915451 124.875076,113.903641 
	C126.079735,113.891060 126.510201,113.909286 127.003204,113.999802 
	C127.065750,114.072090 127.188316,114.218826 127.188309,114.218826 
	C127.099480,115.014145 127.010651,115.809464 126.875839,117.003242 
z"/>
<path fill="#FEC3CA" opacity="1.000000" stroke="none" 
	d="
M122.152977,131.587097 
	C119.133934,131.796204 116.347145,131.796204 112.361641,131.796204 
	C115.992439,130.181427 118.604095,129.019913 121.290787,127.476158 
	C121.365829,127.093925 121.671455,126.786171 121.771790,126.593903 
	C122.421753,126.601990 122.971397,126.802338 123.743393,127.059326 
	C123.438911,128.536636 122.912079,129.957306 122.152977,131.587097 
z"/>
<path fill="#FFBCC7" opacity="1.000000" stroke="none" 
	d="
M111.345070,113.615845 
	C110.012207,113.836670 108.973419,113.795898 107.543808,113.741646 
	C106.438782,113.362801 105.724586,112.997437 103.761414,111.993126 
	C109.997185,111.993126 115.025520,111.993126 120.515938,112.047180 
	C117.865059,112.518906 114.752106,112.936569 111.345070,113.615845 
z"/>
<path fill="#DD2332" opacity="1.000000" stroke="none" 
	d="
M111.976967,136.255768 
	C110.793663,136.991943 109.535782,137.393204 108.394226,138.122467 
	C107.808502,137.421356 106.314888,135.720551 106.528671,135.468643 
	C108.364548,133.305191 110.298050,133.483978 111.976967,136.255768 
z"/>
<path fill="#FFD0D7" opacity="1.000000" stroke="none" 
	d="
M91.711739,106.009041 
	C92.496536,106.383629 92.957031,106.754234 93.737915,107.214630 
	C93.327492,109.170738 92.596695,111.037056 91.528229,112.964828 
	C90.789169,110.951332 90.387787,108.876381 90.038231,106.401611 
	C90.522514,106.002884 90.954971,106.003975 91.711739,106.009041 
z"/>
<path fill="#DE2938" opacity="1.000000" stroke="none" 
	d="
M94.572098,116.011467 
	C94.772194,114.997139 94.972298,113.982811 95.410004,112.657639 
	C95.246658,116.721931 94.845718,121.097054 94.064835,125.323318 
	C93.661079,124.459030 93.637268,123.743614 93.613457,123.028198 
	C93.819298,121.408707 94.025131,119.789215 94.392700,117.581734 
	C94.560326,116.666321 94.566208,116.338890 94.572098,116.011467 
z"/>
<path fill="#DD2332" opacity="1.000000" stroke="none" 
	d="
M127.396446,113.212952 
	C128.035416,113.111626 128.674393,113.010292 129.637970,112.896255 
	C129.251816,113.289253 128.541077,113.694946 127.509323,114.159729 
	C127.188316,114.218826 127.065750,114.072090 127.125122,113.826263 
	C127.184502,113.580437 127.396446,113.212959 127.396446,113.212952 
z"/>
<path fill="#FFD0D7" opacity="1.000000" stroke="none" 
	d="
M93.400459,123.294243 
	C93.637268,123.743614 93.661079,124.459030 93.735779,125.530640 
	C93.786674,125.886841 93.470947,126.090202 93.302368,126.172852 
	C93.151680,125.357101 93.169571,124.458694 93.400459,123.294243 
z"/>
<path fill="#DD2332" opacity="1.000000" stroke="none" 
	d="
M119.417534,139.014420 
	C119.557381,138.451279 120.017967,137.846298 120.734589,137.109039 
	C120.573174,137.642044 120.155724,138.307312 119.417534,139.014420 
z"/>
<path fill="#D62836" opacity="1.000000" stroke="none" 
	d="
M129.106216,75.958817 
	C129.494232,76.175240 129.834579,76.752029 130.170258,77.675758 
	C129.796570,77.454865 129.427567,76.887024 129.106216,75.958817 
z"/>
<path fill="#DD2332" opacity="1.000000" stroke="none" 
	d="
M115.195404,141.473068 
	C115.387703,141.113327 115.776260,140.935440 116.486023,140.730835 
	C116.335381,141.021057 115.863518,141.337997 115.195404,141.473068 
z"/>
<path fill="#DD2332" opacity="1.000000" stroke="none" 
	d="
M109.442101,139.866791 
	C109.916824,139.848969 110.363602,140.158585 110.942566,140.708832 
	C110.521225,140.697739 109.967697,140.445984 109.442101,139.866791 
z"/>
<path fill="#DE2938" opacity="1.000000" stroke="none" 
	d="
M98.155472,108.920204 
	C97.835953,108.863281 97.885132,108.456383 98.262337,108.287498 
	C99.024605,108.029434 99.409668,107.940254 99.794731,107.851067 
	C99.794731,107.851067 99.971428,108.005417 100.055244,108.089218 
	C99.584373,108.441055 99.029678,108.709091 98.155472,108.920204 
z"/>
<path fill="#DE2938" opacity="1.000000" stroke="none" 
	d="
M96.024368,111.853966 
	C95.899452,111.379158 96.086365,110.767944 96.561768,110.004272 
	C96.678902,110.473740 96.507545,111.095642 96.024368,111.853966 
z"/>
<path fill="#DD2332" opacity="1.000000" stroke="none" 
	d="
M123.890663,118.120758 
	C124.028168,118.596184 123.881607,119.228897 123.395676,119.965500 
	C123.239746,119.472275 123.423172,118.875168 123.890663,118.120758 
z"/>
<path fill="#FFD0D7" opacity="1.000000" stroke="none" 
	d="
M91.178619,115.253220 
	C91.351791,115.260254 91.489128,115.524826 91.483017,115.890732 
	C91.273979,115.831635 91.208382,115.671188 91.178619,115.253220 
z"/>
<path fill="#DE2938" opacity="1.000000" stroke="none" 
	d="
M99.585815,101.049469 
	C99.313759,101.108559 99.067818,100.869087 98.743271,100.377396 
	C98.980415,100.333748 99.296173,100.542328 99.585815,101.049469 
z"/>
<path fill="#DD2332" opacity="1.000000" stroke="none" 
	d="
M111.073997,141.108276 
	C111.211105,140.932083 111.389076,140.940262 111.788094,141.098969 
	C111.711037,141.263855 111.412949,141.278259 111.073997,141.108276 
z"/>
<path fill="#DD2332" opacity="1.000000" stroke="none" 
	d="
M117.022392,140.766663 
	C116.978386,140.517975 117.214630,140.260345 117.721863,139.963654 
	C117.762779,140.202301 117.532707,140.480011 117.022392,140.766663 
z"/>
<path fill="#DD2332" opacity="1.000000" stroke="none" 
	d="
M130.142136,112.889069 
	C130.104126,112.679375 130.319565,112.427689 130.788300,112.129402 
	C130.826248,112.337555 130.610916,112.592316 130.142136,112.889069 
z"/>
<path fill="#DD2332" opacity="1.000000" stroke="none" 
	d="
M108.517677,138.875214 
	C108.869934,138.681702 109.093567,138.849304 109.339554,139.291595 
	C109.096680,139.377518 108.772385,139.267532 108.517677,138.875214 
z"/>
<path fill="#DD2332" opacity="1.000000" stroke="none" 
	d="
M131.315674,111.914795 
	C131.231995,111.739891 131.374832,111.437241 131.730469,110.994751 
	C131.809586,111.165634 131.675888,111.476341 131.315674,111.914795 
z"/>
<path fill="#DD2332" opacity="1.000000" stroke="none" 
	d="
M121.157272,136.952026 
	C120.995674,136.816666 121.012115,136.637802 121.192215,136.245026 
	C121.436707,136.240601 121.542595,136.445404 121.583046,136.662399 
	C121.595047,136.726807 121.422997,136.825516 121.157272,136.952026 
z"/>
<path fill="#DE2938" opacity="1.000000" stroke="none" 
	d="
M97.094429,109.819748 
	C96.996132,109.561630 97.166298,109.238289 97.619919,108.875153 
	C97.723221,109.141747 97.543060,109.448135 97.094429,109.819748 
z"/>
<path fill="#FEF2F3" opacity="1.000000" stroke="none" 
	d="
M708.629150,107.945305 
	C708.818481,105.161263 708.347534,102.467667 709.383789,100.618912 
	C710.487732,98.649338 712.986145,96.332672 714.933838,96.279076 
	C716.919128,96.224449 720.323303,98.428093 720.728821,100.190102 
	C721.670532,104.282433 721.478577,108.725708 721.174500,112.985939 
	C720.935425,116.334534 718.670715,118.521233 715.138184,118.404160 
	C711.451233,118.281975 709.469543,115.954002 708.941040,112.393631 
	C708.745850,111.078613 708.729797,109.736984 708.629150,107.945305 
z"/>
<path fill="#FFE7EA" opacity="1.000000" stroke="none" 
	d="
M351.787903,97.282234 
	C351.693512,98.721138 351.429779,100.800735 351.052948,100.821426 
	C346.831329,101.053238 342.592285,100.967888 338.091919,100.967888 
	C340.909058,93.154076 345.768219,91.977592 351.787903,97.282234 
z"/>
<path fill="#FEF2F4" opacity="1.000000" stroke="none" 
	d="
M506.520477,96.336960 
	C511.551941,102.622375 511.100311,109.324280 508.511566,115.844635 
	C507.832092,117.555908 504.623840,119.363159 502.737854,119.205170 
	C500.586670,119.024963 497.118652,116.939949 496.845764,115.257362 
	C496.017273,110.149277 495.804047,104.733971 496.602722,99.634331 
	C497.253296,95.480560 501.490936,94.380074 506.520477,96.336960 
z"/>
<path fill="#FEF1F2" opacity="1.000000" stroke="none" 
	d="
M651.057495,116.764343 
	C650.551697,111.046425 649.627380,105.596542 650.241760,100.326027 
	C650.473206,98.340912 654.165833,95.576981 656.471741,95.377502 
	C658.435120,95.207649 661.983704,97.862190 662.516113,99.878479 
	C663.622314,104.067375 663.937012,108.784782 663.228455,113.061523 
	C662.048401,120.184212 657.244751,121.550575 651.057495,116.764343 
z"/>
<path fill="#FFD0D7" opacity="1.000000" stroke="none" 
	d="
M99.626785,107.614410 
	C99.409668,107.940254 99.024605,108.029434 98.342834,108.099037 
	C97.775803,107.596207 97.505470,107.112946 97.114212,106.379501 
	C97.815125,106.545448 98.636978,106.961594 99.626785,107.614410 
z"/>
<path fill="#FFD0D7" opacity="1.000000" stroke="none" 
	d="
M94.402161,116.194626 
	C94.566208,116.338890 94.560326,116.666321 94.375290,117.173752 
	C94.208176,117.028435 94.220207,116.703110 94.402161,116.194626 
z"/>
<path fill="#FFBCC7" opacity="1.000000" stroke="none" 
	d="
M127.075813,113.154213 
	C127.396446,113.212959 127.184502,113.580437 127.062576,113.753983 
	C126.510201,113.909286 126.079735,113.891060 125.332199,113.810349 
	C125.595146,113.530396 126.175163,113.312927 127.075813,113.154213 
z"/>
</svg>