<svg xmlns="http://www.w3.org/2000/svg" xmlns:xlink="http://www.w3.org/1999/xlink" version="1.0" x="0" y="0" width="2400" height="414.935302825572" viewBox="46.25870529174804 103.6063996887207 247.4825894165039 42.78719299316406" preserveAspectRatio="xMidYMid meet" color-interpolation-filters="sRGB"><g><defs><linearGradient id="92" x1="0%" y1="0%" x2="100%" y2="0%"><stop offset="0%" stop-color="#fa71cd"></stop> <stop offset="100%" stop-color="#9b59b6"></stop></linearGradient><linearGradient id="93" x1="0%" y1="0%" x2="100%" y2="0%"><stop offset="0%" stop-color="#f9d423"></stop> <stop offset="100%" stop-color="#f83600"></stop></linearGradient><linearGradient id="94" x1="0%" y1="0%" x2="100%" y2="0%"><stop offset="0%" stop-color="#0064d2"></stop> <stop offset="100%" stop-color="#1cb0f6"></stop></linearGradient><linearGradient id="95" x1="0%" y1="0%" x2="100%" y2="0%"><stop offset="0%" stop-color="#f00978"></stop> <stop offset="100%" stop-color="#3f51b1"></stop></linearGradient><linearGradient id="96" x1="0%" y1="0%" x2="100%" y2="0%"><stop offset="0%" stop-color="#7873f5"></stop> <stop offset="100%" stop-color="#ec77ab"></stop></linearGradient><linearGradient id="97" x1="0%" y1="0%" x2="100%" y2="0%"><stop offset="0%" stop-color="#f9d423"></stop> <stop offset="100%" stop-color="#e14fad"></stop></linearGradient><linearGradient id="98" x1="0%" y1="0%" x2="100%" y2="0%"><stop offset="0%" stop-color="#009efd"></stop> <stop offset="100%" stop-color="#2af598"></stop></linearGradient><linearGradient id="99" x1="0%" y1="0%" x2="100%" y2="0%"><stop offset="0%" stop-color="#ffcc00"></stop> <stop offset="100%" stop-color="#00b140"></stop></linearGradient><linearGradient id="100" x1="0%" y1="0%" x2="100%" y2="0%"><stop offset="0%" stop-color="#d51007"></stop> <stop offset="100%" stop-color="#ff8177"></stop></linearGradient><linearGradient id="102" x1="0%" y1="0%" x2="100%" y2="0%"><stop offset="0%" stop-color="#a2b6df"></stop> <stop offset="100%" stop-color="#0c3483"></stop></linearGradient><linearGradient id="103" x1="0%" y1="0%" x2="100%" y2="0%"><stop offset="0%" stop-color="#7ac5d8"></stop> <stop offset="100%" stop-color="#eea2a2"></stop></linearGradient><linearGradient id="104" x1="0%" y1="0%" x2="100%" y2="0%"><stop offset="0%" stop-color="#00ecbc"></stop> <stop offset="100%" stop-color="#007adf"></stop></linearGradient><linearGradient id="105" x1="0%" y1="0%" x2="100%" y2="0%"><stop offset="0%" stop-color="#b88746"></stop> <stop offset="100%" stop-color="#fdf5a6"></stop></linearGradient></defs><g fill="#000000" class="icon-text-wrapper icon-svg-group iconsvg" transform="translate(48.68500518798828,106.0327033996582)"><g class="iconsvg-imagesvg" transform="translate(0,0)"><g><rect fill="#000000" fill-opacity="0" stroke-width="2" x="0" y="0" width="37.19999999999998" height="37.32878430585518" class="image-rect"></rect> <svg filter="url(#colors6274663190)" x="0" y="0" width="37.19999999999998" height="37.32878430585518" filtersec="colorsf8826262131" class="image-svg-svg primary" style="overflow: visible;"><svg xmlns="http://www.w3.org/2000/svg" viewBox="0.669999897480011 0.6632391810417175 3.6600000858306885 3.6726534366607666"><path d="M1.022 1.399c.075 0 .149.002.224.01.184.017.367.052.548.097.181.046.359.101.535.164.177.063.338.126.505.187.165.061.327.121.486.173.159.052.315.097.465.127.149.03.293.046.424.041a.748.748 0 0 0 .096-.007 1.274 1.274 0 0 0-.018-.089h-.001a3.022 3.022 0 0 1-.371-.076 4.722 4.722 0 0 1-.475-.152 5.841 5.841 0 0 1-.728-.339c-.04-.022-.08-.044-.118-.068L2.478 1.4a5.245 5.245 0 0 0-.465-.239A3.3 3.3 0 0 0 1.55.986L1.479.968c-.175.116-.33.263-.457.431zM2.633 1.138l.117.073.113.071a13.726 13.726 0 0 0 .664.403c.146.081.29.153.431.209.103.042.204.074.301.096A1.837 1.837 0 0 0 1.903.761c.083.032.165.069.247.109.165.081.327.172.483.268zM3.869 2.917a4.803 4.803 0 0 1-1.133.299l-.122.015-.115.014c-.156.02-.31.044-.458.077-.147.032-.29.072-.416.123a1.583 1.583 0 0 0-.175.083.778.778 0 0 0-.133.098c-.035.035-.06.069-.074.101s-.019.062-.017.094l.001.009a1.837 1.837 0 0 0 3.095-1.16c-.029.022-.06.043-.091.064a2.4 2.4 0 0 1-.362.183zM1.257 3.195c.074-.042.15-.078.228-.107.156-.059.318-.1.481-.131.164-.03.331-.051.496-.063l.125-.008.119-.007.235-.014c.156-.01.309-.019.457-.034.148-.015.29-.036.422-.067.13-.032.251-.074.353-.129a.733.733 0 0 0 .157-.112V2.5a1.774 1.774 0 0 1-.178.066 3.401 3.401 0 0 1-.446.103 5.388 5.388 0 0 1-1.32.068l-.137-.012-.133-.012a6.63 6.63 0 0 0-.521-.026 3.487 3.487 0 0 0-.488.025c-.076.01-.149.022-.216.04a1.035 1.035 0 0 0-.181.061l-.024.012c.042.237.13.458.254.654a.685.685 0 0 1 .108-.13c.065-.062.136-.112.209-.154zM4.218 2.326a3.093 3.093 0 0 1-.455.008 5.37 5.37 0 0 1-1.031-.144c-.044-.01-.088-.022-.132-.034-.044-.012-.089-.024-.133-.038l-.132-.04-.128-.04a6.038 6.038 0 0 0-.507-.135 3.398 3.398 0 0 0-.489-.075 1.45 1.45 0 0 0-.424.019l-.012.003a1.86 1.86 0 0 0-.105.431 2.214 2.214 0 0 1 .377-.075c.186-.02.374-.022.562-.014.187.01.375.028.56.055.187.027.357.056.532.083.173.029.343.057.509.08.166.023.327.039.479.042.152.003.296-.007.422-.035a.903.903 0 0 0 .213-.072l-.002-.034a1.735 1.735 0 0 1-.104.015z" fill="#000000"></path></svg></svg> <defs><filter id="colors6274663190"><feColorMatrix type="matrix" values="0 0 0 0 0.859375  0 0 0 0 0.24609375  0 0 0 0 0.08984375  0 0 0 1 0" class="icon-feColorMatrix "></feColorMatrix></filter> <filter id="colorsf8826262131"><feColorMatrix type="matrix" values="0 0 0 0 0.99609375  0 0 0 0 0.99609375  0 0 0 0 0.99609375  0 0 0 1 0" class="icon-fecolormatrix"></feColorMatrix></filter> <filter id="colorsb4086092905"><feColorMatrix type="matrix" values="0 0 0 0 0  0 0 0 0 0  0 0 0 0 0  0 0 0 1 0" class="icon-fecolormatrix"></feColorMatrix></filter></defs></g></g> <g transform="translate(40.20000076293945,8.044191360473633)"><g fill-rule="" stroke="url(#c3b9ac57-f2b4-4730-b103-b20ea08773cd)" class="tp-name iconsvg-namesvg" transform="translate(0,0)" fill="url(#c3b9ac57-f2b4-4730-b103-b20ea08773cd)"><g transform="scale(1)"><g><path d="M9.99 0L0.75 0 0.75-0.27 1.88-0.27Q2.28-0.27 2.58-0.39 2.89-0.51 3.07-0.88 3.24-1.26 3.24-2.01L3.24-2.01 3.24-17.12Q3.24-17.89 3.07-18.26 2.89-18.62 2.58-18.74 2.28-18.86 1.88-18.86L1.88-18.86 0.75-18.86 0.75-19.13 9.99-19.13 9.99-18.86 8.87-18.86Q8.49-18.86 8.17-18.74 7.85-18.62 7.67-18.26 7.5-17.89 7.5-17.12L7.5-17.12 7.5-2.01Q7.5-1.26 7.67-0.88 7.85-0.51 8.17-0.39 8.49-0.27 8.87-0.27L8.87-0.27 9.99-0.27 9.99 0ZM20.72 0L12.2 0 12.2-0.27 12.52-0.27Q12.92-0.27 13.36-0.39 13.8-0.51 14.11-0.88 14.42-1.26 14.42-2.01L14.42-2.01 14.42-12.46Q14.42-13.18 14.1-13.53 13.78-13.88 13.34-13.98 12.89-14.09 12.52-14.09L12.52-14.09 12.2-14.09 12.2-14.36 18.49-14.36 18.49-11.92 18.55-11.92Q18.87-13.13 19.46-13.71 20.05-14.3 20.82-14.51 21.6-14.71 22.38-14.71L22.38-14.71Q24.73-14.71 25.88-13.47 27.04-12.24 27.04-9.54L27.04-9.54 27.04-2.17Q27.04-1.34 27.24-0.94 27.44-0.54 27.84-0.4 28.24-0.27 28.83-0.27L28.83-0.27 28.91-0.27 28.91 0 22.97 0 22.97-10.42Q22.97-12.16 22.51-13.03 22.05-13.9 20.96-13.9L20.96-13.9Q20.02-13.9 19.47-13.26 18.92-12.62 18.71-11.46 18.49-10.31 18.49-8.81L18.49-8.81 18.49-2.01Q18.49-1.26 18.8-0.88 19.11-0.51 19.56-0.39 20.02-0.27 20.39-0.27L20.39-0.27 20.72-0.27 20.72 0ZM37.14 0L32.32-12.8Q32.14-13.31 31.88-13.59 31.63-13.88 31.3-13.98 30.98-14.09 30.61-14.09L30.61-14.09 30.61-14.36 38.91-14.36 38.91-14.09 37.89-14.09Q37.14-14.09 36.81-13.88 36.47-13.66 36.47-13.18L36.47-13.18Q36.47-12.96 36.54-12.68 36.61-12.4 36.72-12.05L36.72-12.05 38.94-5.87Q39.21-5.14 39.47-4.42 39.74-3.7 40-2.99 40.25-2.28 40.47-1.55L40.47-1.55Q40.63-2.09 40.85-2.81 41.08-3.54 41.32-4.23 41.56-4.93 41.7-5.3L41.7-5.3 43.92-11.84Q44.06-12.19 44.12-12.48 44.19-12.78 44.19-13.02L44.19-13.02Q44.19-13.55 43.73-13.82 43.28-14.09 42.1-14.09L42.1-14.09 41.48-14.09 41.48-14.36 46.84-14.36 46.84-14.09 46.71-14.09Q46.04-14.09 45.61-13.96 45.18-13.82 44.9-13.41 44.62-12.99 44.32-12.13L44.32-12.13 40.17 0 37.14 0ZM56.17 0.27L56.17 0.27Q52.69 0.27 50.89-1.67 49.1-3.62 49.1-7.1L49.1-7.1Q49.1-10.88 50.84-12.79 52.58-14.71 55.74-14.71L55.74-14.71Q58.66-14.71 60.34-13.07 62.01-11.44 62.01-8.25L62.01-8.25 62.01-7.61 53.23-7.61Q53.23-4.9 53.59-3.23 53.95-1.55 54.74-0.79 55.53-0.03 56.79-0.03L56.79-0.03Q57.73-0.03 58.49-0.43 59.25-0.83 59.77-1.71 60.3-2.6 60.46-4.07L60.46-4.07Q60.99-3.96 61.22-3.62 61.45-3.27 61.45-2.81L61.45-2.81Q61.45-2.06 60.86-1.35 60.27-0.64 59.1-0.19 57.94 0.27 56.17 0.27ZM53.23-7.88L57.94-7.88Q57.94-10.31 57.75-11.75 57.56-13.18 57.08-13.81 56.6-14.44 55.74-14.44L55.74-14.44Q54.89-14.44 54.32-13.81 53.76-13.18 53.51-11.75 53.25-10.31 53.23-7.88L53.23-7.88ZM73.11 0L64.59 0 64.59-0.27 64.91-0.27Q65.31-0.27 65.76-0.39 66.2-0.51 66.51-0.88 66.82-1.26 66.82-2.01L66.82-2.01 66.82-12.46Q66.82-13.18 66.49-13.53 66.17-13.88 65.73-13.98 65.29-14.09 64.91-14.09L64.91-14.09 64.59-14.09 64.59-14.36 70.89-14.36 70.89-11.92 70.94-11.92Q71.26-13.13 71.85-13.71 72.44-14.3 73.22-14.51 73.99-14.71 74.77-14.71L74.77-14.71Q77.13-14.71 78.28-13.47 79.43-12.24 79.43-9.54L79.43-9.54 79.43-2.17Q79.43-1.34 79.63-0.94 79.83-0.54 80.24-0.4 80.64-0.27 81.23-0.27L81.23-0.27 81.31-0.27 81.31 0 75.36 0 75.36-10.42Q75.36-12.16 74.9-13.03 74.45-13.9 73.35-13.9L73.35-13.9Q72.41-13.9 71.86-13.26 71.32-12.62 71.1-11.46 70.89-10.31 70.89-8.81L70.89-8.81 70.89-2.01Q70.89-1.26 71.19-0.88 71.5-0.51 71.96-0.39 72.41-0.27 72.79-0.27L72.79-0.27 73.11-0.27 73.11 0ZM89.51 0.27L89.51 0.27Q87.72 0.27 86.65-0.67 85.57-1.61 85.57-3.96L85.57-3.96 85.57-14.09 83.57-14.09 83.57-14.36Q84.88-14.36 85.87-14.63 86.86-14.89 87.58-15.48L87.58-15.48Q88.25-16.02 88.7-16.84 89.14-17.65 89.38-18.75L89.38-18.75 89.65-18.75 89.65-14.36 93.08-14.36 93.08-14.09 89.65-14.09 89.65-2.76Q89.65-1.5 90.13-0.91 90.61-0.32 91.55-0.32L91.55-0.32Q91.92-0.32 92.37-0.4 92.81-0.48 93.32-0.67L93.32-0.67 93.32-0.4Q92.89-0.21 91.91 0.03 90.93 0.27 89.51 0.27ZM103.02 0.27L103.02 0.27Q99.81 0.27 97.96-1.59 96.11-3.46 96.11-7.23L96.11-7.23Q96.11-11.01 97.88-12.86 99.65-14.71 103.1-14.71L103.1-14.71Q106.32-14.71 108.16-12.86 110.01-11.01 110.01-7.23L110.01-7.23Q110.01-3.46 108.23-1.59 106.45 0.27 103.02 0.27ZM103.08 0L103.08 0Q104.12 0 104.72-0.7 105.33-1.39 105.59-2.97 105.86-4.55 105.86-7.23L105.86-7.23Q105.86-9.91 105.59-11.48 105.33-13.05 104.71-13.74 104.09-14.44 103.05-14.44L103.05-14.44Q102.03-14.44 101.41-13.74 100.8-13.05 100.53-11.48 100.26-9.91 100.26-7.23L100.26-7.23Q100.26-4.55 100.53-2.97 100.8-1.39 101.41-0.7 102.03 0 103.08 0ZM121.75 0L112.81 0 112.81-0.27 113.05-0.27Q113.45-0.27 113.89-0.39 114.33-0.51 114.64-0.88 114.95-1.26 114.95-2.01L114.95-2.01 114.95-12.46Q114.95-13.18 114.63-13.53 114.31-13.88 113.87-13.98 113.42-14.09 113.05-14.09L113.05-14.09 112.94-14.09 112.94-14.36 119.02-14.36 119.02-12.05 119.08-12.05Q119.37-12.94 119.85-13.51 120.33-14.09 121.07-14.38 121.81-14.68 122.8-14.68L122.8-14.68Q124.3-14.68 125.09-14.06 125.88-13.45 125.88-12.35L125.88-12.35Q125.88-11.2 124.97-10.55 124.06-9.91 122.48-9.91L122.48-9.91Q122.48-11.95 122.08-12.71 121.67-13.47 120.92-13.47L120.92-13.47Q120.52-13.47 120.17-13.26 119.83-13.05 119.57-12.55 119.32-12.05 119.17-11.24 119.02-10.42 119.02-9.19L119.02-9.19 119.02-2.01Q119.02-1.26 119.33-0.88 119.64-0.51 120.09-0.39 120.55-0.27 120.92-0.27L120.92-0.27 121.75-0.27 121.75 0ZM128.11 6.43L128.11 6.16Q129.93 6.16 131.1 5.85 132.26 5.54 132.99 4.92 133.71 4.29 134.22 3.31 134.73 2.33 135.29 0.99L135.29 0.99 128.78-12.8Q128.57-13.29 128.37-13.57 128.17-13.85 127.95-13.97 127.74-14.09 127.44-14.09L127.44-14.09 127.28-14.09 127.28-14.36 134.97-14.36 135-14.09 134.46-14.09Q133.68-14.09 133.31-13.9 132.93-13.71 132.93-13.26L132.93-13.26Q132.93-13.02 133.01-12.72 133.09-12.43 133.26-12.05L133.26-12.05 135.88-6.03Q136.12-5.52 136.28-5.14 136.44-4.77 136.55-4.51 136.66-4.26 136.75-4.03 136.84-3.8 136.95-3.56L136.95-3.56Q137.17-4.13 137.35-4.62 137.54-5.12 137.67-5.52L137.67-5.52 139.95-11.68Q140.11-12.11 140.19-12.44 140.27-12.78 140.27-13.05L140.27-13.05Q140.27-13.63 139.86-13.86 139.44-14.09 138.51-14.09L138.51-14.09 137.38-14.09 137.38-14.36 142.79-14.36 142.79-14.09 142.74-14.09Q142.15-14.09 141.72-13.9 141.29-13.71 140.97-13.26 140.65-12.8 140.35-12L140.35-12 135.91 0.11Q135.21 2.04 134.57 3.27 133.92 4.5 133.12 5.2 132.32 5.89 131.14 6.16 129.96 6.43 128.19 6.43L128.19 6.43 128.11 6.43ZM161.37 0.27L161.37 0.27Q158.32 0.27 156.31-0.96 154.3-2.2 153.3-4.42 152.29-6.64 152.29-9.62L152.29-9.62Q152.29-12.59 153.3-14.79 154.3-16.98 156.32-18.2 158.35-19.42 161.4-19.42L161.4-19.42Q164.29-19.42 166.31-18.2 168.34-16.98 169.38-14.77 170.43-12.56 170.43-9.59L170.43-9.59Q170.43-6.62 169.37-4.41 168.31-2.2 166.3-0.96 164.29 0.27 161.37 0.27ZM161.37 0L161.37 0Q162.58 0 163.43-0.55 164.29-1.1 164.84-2.26 165.39-3.43 165.66-5.25 165.93-7.07 165.93-9.59L165.93-9.59Q165.93-12.11 165.66-13.92 165.39-15.72 164.84-16.89 164.29-18.05 163.43-18.6 162.58-19.15 161.4-19.15L161.4-19.15Q160.19-19.15 159.32-18.6 158.45-18.05 157.89-16.89 157.33-15.72 157.06-13.92 156.79-12.11 156.79-9.59L156.79-9.59Q156.79-7.07 157.06-5.25 157.33-3.43 157.88-2.26 158.43-1.1 159.3-0.55 160.17 0 161.37 0ZM182.49 6.43L173.7 6.43 173.7 6.16 174.02 6.16Q174.43 6.16 174.87 6.04 175.31 5.92 175.62 5.54 175.93 5.17 175.93 4.42L175.93 4.42 175.93-12.46Q175.93-13.18 175.6-13.53 175.28-13.88 174.84-13.98 174.4-14.09 174.02-14.09L174.02-14.09 173.94-14.09 173.94-14.36 179.97-14.36 179.97-11.01 180.02-11.01Q180.32-12.88 181.36-13.78 182.41-14.68 184.02-14.68L184.02-14.68Q186.59-14.68 187.98-12.9 189.37-11.12 189.37-7.23L189.37-7.23Q189.37-3.35 187.98-1.54 186.59 0.27 183.88 0.27L183.88 0.27Q182.38 0.27 181.35-0.68 180.32-1.63 180.02-3.67L180.02-3.67 179.97-3.67Q180-2.84 180-1.89 180-0.94 180 0L180 0 180 4.42Q180 5.17 180.31 5.54 180.61 5.92 181.07 6.04 181.52 6.16 181.9 6.16L181.9 6.16 182.49 6.16 182.49 6.43ZM182.76-0.4L182.76-0.4Q183.59-0.4 184.14-1.21 184.69-2.01 184.97-3.62 185.25-5.22 185.25-7.61L185.25-7.61Q185.25-9.72 184.97-11.14 184.69-12.56 184.15-13.29 183.61-14.01 182.81-14.01L182.81-14.01Q181.9-14.01 181.27-13.29 180.64-12.56 180.32-11.14 180-9.72 180-7.61L180-7.61Q180-5.22 180.31-3.62 180.61-2.01 181.23-1.21 181.85-0.4 182.76-0.4ZM197.1 0.27L197.1 0.27Q195.36 0.27 194.22-0.15 193.08-0.56 192.53-1.27 191.98-1.98 191.98-2.87L191.98-2.87Q191.98-3.75 192.41-4.18 192.84-4.61 193.43-4.75 194.02-4.9 194.47-4.9L194.47-4.9Q194.47-3.08 194.78-2 195.09-0.91 195.74-0.46 196.4 0 197.42 0L197.42 0Q198.7 0 199.49-0.64 200.28-1.29 200.28-2.65L200.28-2.65Q200.28-3.56 199.91-4.07 199.53-4.58 198.74-4.97 197.95-5.36 196.72-5.81L196.72-5.81Q195.52-6.27 194.5-6.8 193.48-7.34 192.86-8.18 192.25-9.03 192.25-10.39L192.25-10.39Q192.25-12.56 193.82-13.62 195.38-14.68 198.03-14.68L198.03-14.68Q199.72-14.68 200.74-14.32 201.76-13.96 202.23-13.37 202.7-12.78 202.7-12.08L202.7-12.08Q202.7-11.3 202.07-10.82 201.44-10.34 199.96-10.34L199.96-10.34Q199.96-12.62 199.37-13.51 198.78-14.41 197.61-14.41L197.61-14.41Q197.04-14.41 196.48-14.2 195.92-13.98 195.54-13.46 195.17-12.94 195.17-11.97L195.17-11.97Q195.17-11.12 195.56-10.61 195.94-10.1 196.8-9.7 197.66-9.3 199.11-8.76L199.11-8.76Q200.34-8.3 201.25-7.75 202.16-7.21 202.67-6.39 203.18-5.57 203.18-4.31L203.18-4.31Q203.18-2.2 201.64-0.96 200.1 0.27 197.1 0.27Z" transform="translate(-0.75, 19.420000076293945)" stroke-width="1.3" stroke-linejoin="round"></path></g> </g></g> <g fill-rule="" class="tp-slogan iconsvg-slogansvg" fill="#EC1C24" transform="translate(-1.7274093627929688,24.500002288818358)"> <g transform="scale(1, 1)"><g transform="scale(0.96)"><path d="M1.05-0.09L1.05-0.09L2.26-0.09Q2.44-0.09 2.54-0.19Q2.65-0.28 2.65-0.41Q2.65-0.54 2.54-0.64Q2.44-0.74 2.26-0.74L2.26-0.74L1.05-0.74Q0.87-0.74 0.77-0.64Q0.67-0.54 0.67-0.41Q0.67-0.28 0.77-0.19Q0.87-0.09 1.05-0.09ZM4.37-0.09L4.37-0.09L5.57-0.09Q5.75-0.09 5.85-0.19Q5.96-0.28 5.96-0.41Q5.96-0.54 5.85-0.64Q5.75-0.74 5.57-0.74L5.57-0.74L4.37-0.74Q4.18-0.74 4.08-0.64Q3.98-0.54 3.98-0.41Q3.98-0.28 4.08-0.19Q4.18-0.09 4.37-0.09ZM1.05-0.92L1.05-0.92L2.26-0.92Q2.44-0.92 2.54-1.02Q2.65-1.11 2.65-1.24Q2.65-1.37 2.54-1.47Q2.44-1.57 2.26-1.57L2.26-1.57L1.05-1.57Q0.87-1.57 0.77-1.47Q0.67-1.37 0.67-1.24Q0.67-1.11 0.77-1.02Q0.87-0.92 1.05-0.92ZM4.37-0.92L4.37-0.92L5.57-0.92Q5.75-0.92 5.85-1.02Q5.96-1.11 5.96-1.24Q5.96-1.37 5.85-1.47Q5.75-1.57 5.57-1.57L5.57-1.57L4.37-1.57Q4.18-1.57 4.08-1.47Q3.98-1.37 3.98-1.24Q3.98-1.11 4.08-1.02Q4.18-0.92 4.37-0.92ZM1.05-1.75L1.05-1.75L2.26-1.75Q2.44-1.75 2.54-1.84Q2.65-1.94 2.65-2.07Q2.65-2.20 2.54-2.30Q2.44-2.39 2.26-2.39L2.26-2.39L1.05-2.39Q0.87-2.39 0.77-2.30Q0.67-2.20 0.67-2.07Q0.67-1.94 0.77-1.84Q0.87-1.75 1.05-1.75ZM4.37-1.75L4.37-1.75L5.57-1.75Q5.75-1.75 5.85-1.84Q5.96-1.94 5.96-2.07Q5.96-2.20 5.85-2.30Q5.75-2.39 5.57-2.39L5.57-2.39L4.37-2.39Q4.18-2.39 4.08-2.30Q3.98-2.20 3.98-2.07Q3.98-1.94 4.08-1.84Q4.18-1.75 4.37-1.75ZM1.05-2.57L1.05-2.57L5.57-2.57Q5.75-2.57 5.85-2.67Q5.96-2.77 5.96-2.90Q5.96-3.03 5.85-3.12Q5.75-3.22 5.57-3.22L5.57-3.22L1.05-3.22Q0.87-3.22 0.77-3.12Q0.67-3.03 0.67-2.90Q0.67-2.77 0.77-2.67Q0.87-2.57 1.05-2.57ZM1.05-3.40L1.05-3.40L2.26-3.40Q2.44-3.40 2.54-3.50Q2.65-3.60 2.65-3.73Q2.65-3.86 2.54-3.95Q2.44-4.05 2.26-4.05L2.26-4.05L1.05-4.05Q0.87-4.05 0.77-3.95Q0.67-3.86 0.67-3.73Q0.67-3.60 0.77-3.50Q0.87-3.40 1.05-3.40ZM4.37-3.40L4.37-3.40L5.57-3.40Q5.75-3.40 5.85-3.50Q5.96-3.60 5.96-3.73Q5.96-3.86 5.85-3.95Q5.75-4.05 5.57-4.05L5.57-4.05L4.37-4.05Q4.18-4.05 4.08-3.95Q3.98-3.86 3.98-3.73Q3.98-3.60 4.08-3.50Q4.18-3.40 4.37-3.40ZM1.88-4.23L1.88-4.23L4.74-4.23Q4.92-4.23 5.03-4.33Q5.13-4.42 5.13-4.55Q5.13-4.68 5.03-4.78Q4.92-4.88 4.74-4.88L4.74-4.88L1.88-4.88Q1.70-4.88 1.60-4.78Q1.49-4.68 1.49-4.55Q1.49-4.42 1.60-4.33Q1.70-4.23 1.88-4.23ZM2.71-5.06L2.71-5.06L3.91-5.06Q4.09-5.06 4.20-5.16Q4.30-5.25 4.30-5.38Q4.30-5.51 4.20-5.61Q4.09-5.70 3.91-5.70L3.91-5.70L2.71-5.70Q2.53-5.70 2.43-5.61Q2.32-5.51 2.32-5.38Q2.32-5.25 2.43-5.16Q2.53-5.06 2.71-5.06ZM8.51-0.09L8.51-0.09L11.36-0.09Q11.55-0.09 11.65-0.19Q11.75-0.28 11.75-0.41Q11.75-0.54 11.65-0.64Q11.55-0.74 11.36-0.74L11.36-0.74L8.51-0.74Q8.32-0.74 8.22-0.64Q8.12-0.54 8.12-0.41Q8.12-0.28 8.22-0.19Q8.32-0.09 8.51-0.09ZM9.33-0.92L9.33-0.92L10.54-0.92Q10.72-0.92 10.82-1.02Q10.92-1.11 10.92-1.24Q10.92-1.37 10.82-1.47Q10.72-1.57 10.54-1.57L10.54-1.57L9.33-1.57Q9.15-1.57 9.05-1.47Q8.95-1.37 8.95-1.24Q8.95-1.11 9.05-1.02Q9.15-0.92 9.33-0.92ZM9.33-1.75L9.33-1.75L10.54-1.75Q10.72-1.75 10.82-1.84Q10.92-1.94 10.92-2.07Q10.92-2.20 10.82-2.30Q10.72-2.39 10.54-2.39L10.54-2.39L9.33-2.39Q9.15-2.39 9.05-2.30Q8.95-2.20 8.95-2.07Q8.95-1.94 9.05-1.84Q9.15-1.75 9.33-1.75ZM9.33-2.57L9.33-2.57L10.54-2.57Q10.72-2.57 10.82-2.67Q10.92-2.77 10.92-2.90Q10.92-3.03 10.82-3.12Q10.72-3.22 10.54-3.22L10.54-3.22L9.33-3.22Q9.15-3.22 9.05-3.12Q8.95-3.03 8.95-2.90Q8.95-2.77 9.05-2.67Q9.15-2.57 9.33-2.57ZM9.33-3.40L9.33-3.40L10.54-3.40Q10.72-3.40 10.82-3.50Q10.92-3.60 10.92-3.73Q10.92-3.86 10.82-3.95Q10.72-4.05 10.54-4.05L10.54-4.05L9.33-4.05Q9.15-4.05 9.05-3.95Q8.95-3.86 8.95-3.73Q8.95-3.60 9.05-3.50Q9.15-3.40 9.33-3.40ZM9.33-4.23L9.33-4.23L10.54-4.23Q10.72-4.23 10.82-4.33Q10.92-4.42 10.92-4.55Q10.92-4.68 10.82-4.78Q10.72-4.88 10.54-4.88L10.54-4.88L9.33-4.88Q9.15-4.88 9.05-4.78Q8.95-4.68 8.95-4.55Q8.95-4.42 9.05-4.33Q9.15-4.23 9.33-4.23ZM8.51-5.06L8.51-5.06L11.36-5.06Q11.55-5.06 11.65-5.16Q11.75-5.25 11.75-5.38Q11.75-5.51 11.65-5.61Q11.55-5.70 11.36-5.70L11.36-5.70L8.51-5.70Q8.32-5.70 8.22-5.61Q8.12-5.51 8.12-5.38Q8.12-5.25 8.22-5.16Q8.32-5.06 8.51-5.06ZM14.30-2.57L14.30-2.57L18.82-2.57Q19.00-2.57 19.10-2.67Q19.20-2.77 19.20-2.90Q19.20-3.03 19.10-3.12Q19.00-3.22 18.82-3.22L18.82-3.22L14.30-3.22Q14.12-3.22 14.02-3.12Q13.91-3.03 13.91-2.90Q13.91-2.77 14.02-2.67Q14.12-2.57 14.30-2.57ZM20.92-0.09L20.92-0.09L22.13-0.09Q22.31-0.09 22.41-0.19Q22.52-0.28 22.52-0.41Q22.52-0.54 22.41-0.64Q22.31-0.74 22.13-0.74L22.13-0.74L20.92-0.74Q20.74-0.74 20.64-0.64Q20.54-0.54 20.54-0.41Q20.54-0.28 20.64-0.19Q20.74-0.09 20.92-0.09ZM20.92-0.92L20.92-0.92L22.13-0.92Q22.31-0.92 22.41-1.02Q22.52-1.11 22.52-1.24Q22.52-1.37 22.41-1.47Q22.31-1.57 22.13-1.57L22.13-1.57L20.92-1.57Q20.74-1.57 20.64-1.47Q20.54-1.37 20.54-1.24Q20.54-1.11 20.64-1.02Q20.74-0.92 20.92-0.92ZM20.92-1.75L20.92-1.75L22.13-1.75Q22.31-1.75 22.41-1.84Q22.52-1.94 22.52-2.07Q22.52-2.20 22.41-2.30Q22.31-2.39 22.13-2.39L22.13-2.39L20.92-2.39Q20.74-2.39 20.64-2.30Q20.54-2.20 20.54-2.07Q20.54-1.94 20.64-1.84Q20.74-1.75 20.92-1.75ZM20.92-2.57L20.92-2.57L24.61-2.57Q24.79-2.57 24.90-2.67Q25.00-2.77 25.00-2.90Q25.00-3.03 24.90-3.12Q24.79-3.22 24.61-3.22L24.61-3.22L20.92-3.22Q20.74-3.22 20.64-3.12Q20.54-3.03 20.54-2.90Q20.54-2.77 20.64-2.67Q20.74-2.57 20.92-2.57ZM20.92-3.40L20.92-3.40L22.13-3.40Q22.31-3.40 22.41-3.50Q22.52-3.60 22.52-3.73Q22.52-3.86 22.41-3.95Q22.31-4.05 22.13-4.05L22.13-4.05L20.92-4.05Q20.74-4.05 20.64-3.95Q20.54-3.86 20.54-3.73Q20.54-3.60 20.64-3.50Q20.74-3.40 20.92-3.40ZM24.24-3.40L24.24-3.40L25.44-3.40Q25.62-3.40 25.72-3.50Q25.83-3.60 25.83-3.73Q25.83-3.86 25.72-3.95Q25.62-4.05 25.44-4.05L25.44-4.05L24.24-4.05Q24.06-4.05 23.95-3.95Q23.85-3.86 23.85-3.73Q23.85-3.60 23.95-3.50Q24.06-3.40 24.24-3.40ZM20.92-4.23L20.92-4.23L22.13-4.23Q22.31-4.23 22.41-4.33Q22.52-4.42 22.52-4.55Q22.52-4.68 22.41-4.78Q22.31-4.88 22.13-4.88L22.13-4.88L20.92-4.88Q20.74-4.88 20.64-4.78Q20.54-4.68 20.54-4.55Q20.54-4.42 20.64-4.33Q20.74-4.23 20.92-4.23ZM24.24-4.23L24.24-4.23L25.44-4.23Q25.62-4.23 25.72-4.33Q25.83-4.42 25.83-4.55Q25.83-4.68 25.72-4.78Q25.62-4.88 25.44-4.88L25.44-4.88L24.24-4.88Q24.06-4.88 23.95-4.78Q23.85-4.68 23.85-4.55Q23.85-4.42 23.95-4.33Q24.06-4.23 24.24-4.23ZM20.92-5.06L20.92-5.06L24.61-5.06Q24.79-5.06 24.90-5.16Q25.00-5.25 25.00-5.38Q25.00-5.51 24.90-5.61Q24.79-5.70 24.61-5.70L24.61-5.70L20.92-5.70Q20.74-5.70 20.64-5.61Q20.54-5.51 20.54-5.38Q20.54-5.25 20.64-5.16Q20.74-5.06 20.92-5.06ZM28.38-0.09L28.38-0.09L31.24-0.09Q31.42-0.09 31.52-0.19Q31.62-0.28 31.62-0.41Q31.62-0.54 31.52-0.64Q31.42-0.74 31.24-0.74L31.24-0.74L28.38-0.74Q28.20-0.74 28.09-0.64Q27.99-0.54 27.99-0.41Q27.99-0.28 28.09-0.19Q28.20-0.09 28.38-0.09ZM27.55-0.92L27.55-0.92L28.75-0.92Q28.93-0.92 29.04-1.02Q29.14-1.11 29.14-1.24Q29.14-1.37 29.04-1.47Q28.93-1.57 28.75-1.57L28.75-1.57L27.55-1.57Q27.37-1.57 27.26-1.47Q27.16-1.37 27.16-1.24Q27.16-1.11 27.26-1.02Q27.37-0.92 27.55-0.92ZM30.86-0.92L30.86-0.92L32.06-0.92Q32.24-0.92 32.35-1.02Q32.45-1.11 32.45-1.24Q32.45-1.37 32.35-1.47Q32.24-1.57 32.06-1.57L32.06-1.57L30.86-1.57Q30.68-1.57 30.58-1.47Q30.47-1.37 30.47-1.24Q30.47-1.11 30.58-1.02Q30.68-0.92 30.86-0.92ZM27.55-1.75L27.55-1.75L28.75-1.75Q28.93-1.75 29.04-1.84Q29.14-1.94 29.14-2.07Q29.14-2.20 29.04-2.30Q28.93-2.39 28.75-2.39L28.75-2.39L27.55-2.39Q27.37-2.39 27.26-2.30Q27.16-2.20 27.16-2.07Q27.16-1.94 27.26-1.84Q27.37-1.75 27.55-1.75ZM30.86-1.75L30.86-1.75L32.06-1.75Q32.24-1.75 32.35-1.84Q32.45-1.94 32.45-2.07Q32.45-2.20 32.35-2.30Q32.24-2.39 32.06-2.39L32.06-2.39L30.86-2.39Q30.68-2.39 30.58-2.30Q30.47-2.20 30.47-2.07Q30.47-1.94 30.58-1.84Q30.68-1.75 30.86-1.75ZM27.55-2.57L27.55-2.57L28.75-2.57Q28.93-2.57 29.04-2.67Q29.14-2.77 29.14-2.90Q29.14-3.03 29.04-3.12Q28.93-3.22 28.75-3.22L28.75-3.22L27.55-3.22Q27.37-3.22 27.26-3.12Q27.16-3.03 27.16-2.90Q27.16-2.77 27.26-2.67Q27.37-2.57 27.55-2.57ZM30.86-2.57L30.86-2.57L32.06-2.57Q32.24-2.57 32.35-2.67Q32.45-2.77 32.45-2.90Q32.45-3.03 32.35-3.12Q32.24-3.22 32.06-3.22L32.06-3.22L30.86-3.22Q30.68-3.22 30.58-3.12Q30.47-3.03 30.47-2.90Q30.47-2.77 30.58-2.67Q30.68-2.57 30.86-2.57ZM27.55-3.40L27.55-3.40L28.75-3.40Q28.93-3.40 29.04-3.50Q29.14-3.60 29.14-3.73Q29.14-3.86 29.04-3.95Q28.93-4.05 28.75-4.05L28.75-4.05L27.55-4.05Q27.37-4.05 27.26-3.95Q27.16-3.86 27.16-3.73Q27.16-3.60 27.26-3.50Q27.37-3.40 27.55-3.40ZM30.86-3.40L30.86-3.40L32.06-3.40Q32.24-3.40 32.35-3.50Q32.45-3.60 32.45-3.73Q32.45-3.86 32.35-3.95Q32.24-4.05 32.06-4.05L32.06-4.05L30.86-4.05Q30.68-4.05 30.58-3.95Q30.47-3.86 30.47-3.73Q30.47-3.60 30.58-3.50Q30.68-3.40 30.86-3.40ZM27.55-4.23L27.55-4.23L28.75-4.23Q28.93-4.23 29.04-4.33Q29.14-4.42 29.14-4.55Q29.14-4.68 29.04-4.78Q28.93-4.88 28.75-4.88L28.75-4.88L27.55-4.88Q27.37-4.88 27.26-4.78Q27.16-4.68 27.16-4.55Q27.16-4.42 27.26-4.33Q27.37-4.23 27.55-4.23ZM30.86-4.23L30.86-4.23L32.06-4.23Q32.24-4.23 32.35-4.33Q32.45-4.42 32.45-4.55Q32.45-4.68 32.35-4.78Q32.24-4.88 32.06-4.88L32.06-4.88L30.86-4.88Q30.68-4.88 30.58-4.78Q30.47-4.68 30.47-4.55Q30.47-4.42 30.58-4.33Q30.68-4.23 30.86-4.23ZM28.38-5.06L28.38-5.06L31.24-5.06Q31.42-5.06 31.52-5.16Q31.62-5.25 31.62-5.38Q31.62-5.51 31.52-5.61Q31.42-5.70 31.24-5.70L31.24-5.70L28.38-5.70Q28.20-5.70 28.09-5.61Q27.99-5.51 27.99-5.38Q27.99-5.25 28.09-5.16Q28.20-5.06 28.38-5.06ZM34.17-0.09L34.17-0.09L35.37-0.09Q35.56-0.09 35.66-0.19Q35.76-0.28 35.76-0.41Q35.76-0.54 35.66-0.64Q35.56-0.74 35.37-0.74L35.37-0.74L34.17-0.74Q33.99-0.74 33.89-0.64Q33.78-0.54 33.78-0.41Q33.78-0.28 33.89-0.19Q33.99-0.09 34.17-0.09ZM38.31-0.09L38.31-0.09L39.51-0.09Q39.70-0.09 39.80-0.19Q39.90-0.28 39.90-0.41Q39.90-0.54 39.80-0.64Q39.70-0.74 39.51-0.74L39.51-0.74L38.31-0.74Q38.13-0.74 38.03-0.64Q37.92-0.54 37.92-0.41Q37.92-0.28 38.03-0.19Q38.13-0.09 38.31-0.09ZM34.17-0.92L34.17-0.92L36.20-0.92Q36.38-0.92 36.49-1.02Q36.59-1.11 36.59-1.24Q36.59-1.37 36.49-1.47Q36.38-1.57 36.20-1.57L36.20-1.57L34.17-1.57Q33.99-1.57 33.89-1.47Q33.78-1.37 33.78-1.24Q33.78-1.11 33.89-1.02Q33.99-0.92 34.17-0.92ZM37.48-0.92L37.48-0.92L39.51-0.92Q39.70-0.92 39.80-1.02Q39.90-1.11 39.90-1.24Q39.90-1.37 39.80-1.47Q39.70-1.57 39.51-1.57L39.51-1.57L37.48-1.57Q37.30-1.57 37.20-1.47Q37.10-1.37 37.10-1.24Q37.10-1.11 37.20-1.02Q37.30-0.92 37.48-0.92ZM34.17-1.75L34.17-1.75L39.51-1.75Q39.70-1.75 39.80-1.84Q39.90-1.94 39.90-2.07Q39.90-2.20 39.80-2.30Q39.70-2.39 39.51-2.39L39.51-2.39L34.17-2.39Q33.99-2.39 33.89-2.30Q33.78-2.20 33.78-2.07Q33.78-1.94 33.89-1.84Q33.99-1.75 34.17-1.75ZM34.17-2.57L34.17-2.57L35.37-2.57Q35.56-2.57 35.66-2.67Q35.76-2.77 35.76-2.90Q35.76-3.03 35.66-3.12Q35.56-3.22 35.37-3.22L35.37-3.22L34.17-3.22Q33.99-3.22 33.89-3.12Q33.78-3.03 33.78-2.90Q33.78-2.77 33.89-2.67Q33.99-2.57 34.17-2.57ZM36.60-2.57L36.60-2.57L37.09-2.57Q37.23-2.57 37.33-2.67Q37.42-2.77 37.42-2.90Q37.42-3.03 37.33-3.12Q37.23-3.22 37.09-3.22L37.09-3.22L36.60-3.22Q36.46-3.22 36.36-3.12Q36.27-3.03 36.27-2.90Q36.27-2.77 36.36-2.67Q36.46-2.57 36.60-2.57ZM38.31-2.57L38.31-2.57L39.51-2.57Q39.70-2.57 39.80-2.67Q39.90-2.77 39.90-2.90Q39.90-3.03 39.80-3.12Q39.70-3.22 39.51-3.22L39.51-3.22L38.31-3.22Q38.13-3.22 38.03-3.12Q37.92-3.03 37.92-2.90Q37.92-2.77 38.03-2.67Q38.13-2.57 38.31-2.57ZM34.17-3.40L34.17-3.40L35.37-3.40Q35.56-3.40 35.66-3.50Q35.76-3.60 35.76-3.73Q35.76-3.86 35.66-3.95Q35.56-4.05 35.37-4.05L35.37-4.05L34.17-4.05Q33.99-4.05 33.89-3.95Q33.78-3.86 33.78-3.73Q33.78-3.60 33.89-3.50Q33.99-3.40 34.17-3.40ZM38.31-3.40L38.31-3.40L39.51-3.40Q39.70-3.40 39.80-3.50Q39.90-3.60 39.90-3.73Q39.90-3.86 39.80-3.95Q39.70-4.05 39.51-4.05L39.51-4.05L38.31-4.05Q38.13-4.05 38.03-3.95Q37.92-3.86 37.92-3.73Q37.92-3.60 38.03-3.50Q38.13-3.40 38.31-3.40ZM34.17-4.23L34.17-4.23L35.37-4.23Q35.56-4.23 35.66-4.33Q35.76-4.42 35.76-4.55Q35.76-4.68 35.66-4.78Q35.56-4.88 35.37-4.88L35.37-4.88L34.17-4.88Q33.99-4.88 33.89-4.78Q33.78-4.68 33.78-4.55Q33.78-4.42 33.89-4.33Q33.99-4.23 34.17-4.23ZM38.31-4.23L38.31-4.23L39.51-4.23Q39.70-4.23 39.80-4.33Q39.90-4.42 39.90-4.55Q39.90-4.68 39.80-4.78Q39.70-4.88 39.51-4.88L39.51-4.88L38.31-4.88Q38.13-4.88 38.03-4.78Q37.92-4.68 37.92-4.55Q37.92-4.42 38.03-4.33Q38.13-4.23 38.31-4.23ZM34.17-5.06L34.17-5.06L35.37-5.06Q35.56-5.06 35.66-5.16Q35.76-5.25 35.76-5.38Q35.76-5.51 35.66-5.61Q35.56-5.70 35.37-5.70L35.37-5.70L34.17-5.70Q33.99-5.70 33.89-5.61Q33.78-5.51 33.78-5.38Q33.78-5.25 33.89-5.16Q33.99-5.06 34.17-5.06ZM38.31-5.06L38.31-5.06L39.51-5.06Q39.70-5.06 39.80-5.16Q39.90-5.25 39.90-5.38Q39.90-5.51 39.80-5.61Q39.70-5.70 39.51-5.70L39.51-5.70L38.31-5.70Q38.13-5.70 38.03-5.61Q37.92-5.51 37.92-5.38Q37.92-5.25 38.03-5.16Q38.13-5.06 38.31-5.06ZM40.80-0.09L40.80-0.09L45.31-0.09Q45.49-0.09 45.59-0.19Q45.70-0.28 45.70-0.41Q45.70-0.54 45.59-0.64Q45.49-0.74 45.31-0.74L45.31-0.74L40.80-0.74Q40.61-0.74 40.51-0.64Q40.41-0.54 40.41-0.41Q40.41-0.28 40.51-0.19Q40.61-0.09 40.80-0.09ZM40.80-0.92L40.80-0.92L42.00-0.92Q42.18-0.92 42.28-1.02Q42.39-1.11 42.39-1.24Q42.39-1.37 42.28-1.47Q42.18-1.57 42.00-1.57L42.00-1.57L40.80-1.57Q40.61-1.57 40.51-1.47Q40.41-1.37 40.41-1.24Q40.41-1.11 40.51-1.02Q40.61-0.92 40.80-0.92ZM40.80-1.75L40.80-1.75L42.00-1.75Q42.18-1.75 42.28-1.84Q42.39-1.94 42.39-2.07Q42.39-2.20 42.28-2.30Q42.18-2.39 42.00-2.39L42.00-2.39L40.80-2.39Q40.61-2.39 40.51-2.30Q40.41-2.20 40.41-2.07Q40.41-1.94 40.51-1.84Q40.61-1.75 40.80-1.75ZM40.80-2.57L40.80-2.57L43.65-2.57Q43.84-2.57 43.94-2.67Q44.04-2.77 44.04-2.90Q44.04-3.03 43.94-3.12Q43.84-3.22 43.65-3.22L43.65-3.22L40.80-3.22Q40.61-3.22 40.51-3.12Q40.41-3.03 40.41-2.90Q40.41-2.77 40.51-2.67Q40.61-2.57 40.80-2.57ZM40.80-3.40L40.80-3.40L42.00-3.40Q42.18-3.40 42.28-3.50Q42.39-3.60 42.39-3.73Q42.39-3.86 42.28-3.95Q42.18-4.05 42.00-4.05L42.00-4.05L40.80-4.05Q40.61-4.05 40.51-3.95Q40.41-3.86 40.41-3.73Q40.41-3.60 40.51-3.50Q40.61-3.40 40.80-3.40ZM40.80-4.23L40.80-4.23L42.00-4.23Q42.18-4.23 42.28-4.33Q42.39-4.42 42.39-4.55Q42.39-4.68 42.28-4.78Q42.18-4.88 42.00-4.88L42.00-4.88L40.80-4.88Q40.61-4.88 40.51-4.78Q40.41-4.68 40.41-4.55Q40.41-4.42 40.51-4.33Q40.61-4.23 40.80-4.23ZM40.80-5.06L40.80-5.06L45.31-5.06Q45.49-5.06 45.59-5.16Q45.70-5.25 45.70-5.38Q45.70-5.51 45.59-5.61Q45.49-5.70 45.31-5.70L45.31-5.70L40.80-5.70Q40.61-5.70 40.51-5.61Q40.41-5.51 40.41-5.38Q40.41-5.25 40.51-5.16Q40.61-5.06 40.80-5.06ZM47.42-0.09L47.42-0.09L48.62-0.09Q48.80-0.09 48.91-0.19Q49.01-0.28 49.01-0.41Q49.01-0.54 48.91-0.64Q48.80-0.74 48.62-0.74L48.62-0.74L47.42-0.74Q47.24-0.74 47.13-0.64Q47.03-0.54 47.03-0.41Q47.03-0.28 47.13-0.19Q47.24-0.09 47.42-0.09ZM50.73-0.09L50.73-0.09L51.93-0.09Q52.11-0.09 52.22-0.19Q52.32-0.28 52.32-0.41Q52.32-0.54 52.22-0.64Q52.11-0.74 51.93-0.74L51.93-0.74L50.73-0.74Q50.55-0.74 50.45-0.64Q50.34-0.54 50.34-0.41Q50.34-0.28 50.45-0.19Q50.55-0.09 50.73-0.09ZM47.42-0.92L47.42-0.92L48.62-0.92Q48.80-0.92 48.91-1.02Q49.01-1.11 49.01-1.24Q49.01-1.37 48.91-1.47Q48.80-1.57 48.62-1.57L48.62-1.57L47.42-1.57Q47.24-1.57 47.13-1.47Q47.03-1.37 47.03-1.24Q47.03-1.11 47.13-1.02Q47.24-0.92 47.42-0.92ZM49.90-0.92L49.90-0.92L51.11-0.92Q51.29-0.92 51.39-1.02Q51.49-1.11 51.49-1.24Q51.49-1.37 51.39-1.47Q51.29-1.57 51.11-1.57L51.11-1.57L49.90-1.57Q49.72-1.57 49.62-1.47Q49.51-1.37 49.51-1.24Q49.51-1.11 49.62-1.02Q49.72-0.92 49.90-0.92ZM47.42-1.75L47.42-1.75L50.28-1.75Q50.46-1.75 50.56-1.84Q50.67-1.94 50.67-2.07Q50.67-2.20 50.56-2.30Q50.46-2.39 50.28-2.39L50.28-2.39L47.42-2.39Q47.24-2.39 47.13-2.30Q47.03-2.20 47.03-2.07Q47.03-1.94 47.13-1.84Q47.24-1.75 47.42-1.75ZM47.42-2.57L47.42-2.57L51.11-2.57Q51.29-2.57 51.39-2.67Q51.49-2.77 51.49-2.90Q51.49-3.03 51.39-3.12Q51.29-3.22 51.11-3.22L51.11-3.22L47.42-3.22Q47.24-3.22 47.13-3.12Q47.03-3.03 47.03-2.90Q47.03-2.77 47.13-2.67Q47.24-2.57 47.42-2.57ZM47.42-3.40L47.42-3.40L48.62-3.40Q48.80-3.40 48.91-3.50Q49.01-3.60 49.01-3.73Q49.01-3.86 48.91-3.95Q48.80-4.05 48.62-4.05L48.62-4.05L47.42-4.05Q47.24-4.05 47.13-3.95Q47.03-3.86 47.03-3.73Q47.03-3.60 47.13-3.50Q47.24-3.40 47.42-3.40ZM50.73-3.40L50.73-3.40L51.93-3.40Q52.11-3.40 52.22-3.50Q52.32-3.60 52.32-3.73Q52.32-3.86 52.22-3.95Q52.11-4.05 51.93-4.05L51.93-4.05L50.73-4.05Q50.55-4.05 50.45-3.95Q50.34-3.86 50.34-3.73Q50.34-3.60 50.45-3.50Q50.55-3.40 50.73-3.40ZM47.42-4.23L47.42-4.23L48.62-4.23Q48.80-4.23 48.91-4.33Q49.01-4.42 49.01-4.55Q49.01-4.68 48.91-4.78Q48.80-4.88 48.62-4.88L48.62-4.88L47.42-4.88Q47.24-4.88 47.13-4.78Q47.03-4.68 47.03-4.55Q47.03-4.42 47.13-4.33Q47.24-4.23 47.42-4.23ZM50.73-4.23L50.73-4.23L51.93-4.23Q52.11-4.23 52.22-4.33Q52.32-4.42 52.32-4.55Q52.32-4.68 52.22-4.78Q52.11-4.88 51.93-4.88L51.93-4.88L50.73-4.88Q50.55-4.88 50.45-4.78Q50.34-4.68 50.34-4.55Q50.34-4.42 50.45-4.33Q50.55-4.23 50.73-4.23ZM47.42-5.06L47.42-5.06L51.11-5.06Q51.29-5.06 51.39-5.16Q51.49-5.25 51.49-5.38Q51.49-5.51 51.39-5.61Q51.29-5.70 51.11-5.70L51.11-5.70L47.42-5.70Q47.24-5.70 47.13-5.61Q47.03-5.51 47.03-5.38Q47.03-5.25 47.13-5.16Q47.24-5.06 47.42-5.06ZM54.04-0.09L54.04-0.09L58.56-0.09Q58.74-0.09 58.84-0.19Q58.95-0.28 58.95-0.41Q58.95-0.54 58.84-0.64Q58.74-0.74 58.56-0.74L58.56-0.74L54.04-0.74Q53.86-0.74 53.76-0.64Q53.65-0.54 53.65-0.41Q53.65-0.28 53.76-0.19Q53.86-0.09 54.04-0.09ZM54.04-0.92L54.04-0.92L55.25-0.92Q55.43-0.92 55.53-1.02Q55.63-1.11 55.63-1.24Q55.63-1.37 55.53-1.47Q55.43-1.57 55.25-1.57L55.25-1.57L54.04-1.57Q53.86-1.57 53.76-1.47Q53.65-1.37 53.65-1.24Q53.65-1.11 53.76-1.02Q53.86-0.92 54.04-0.92ZM54.04-1.75L54.04-1.75L55.25-1.75Q55.43-1.75 55.53-1.84Q55.63-1.94 55.63-2.07Q55.63-2.20 55.53-2.30Q55.43-2.39 55.25-2.39L55.25-2.39L54.04-2.39Q53.86-2.39 53.76-2.30Q53.65-2.20 53.65-2.07Q53.65-1.94 53.76-1.84Q53.86-1.75 54.04-1.75ZM54.04-2.57L54.04-2.57L56.90-2.57Q57.08-2.57 57.19-2.67Q57.29-2.77 57.29-2.90Q57.29-3.03 57.19-3.12Q57.08-3.22 56.90-3.22L56.90-3.22L54.04-3.22Q53.86-3.22 53.76-3.12Q53.65-3.03 53.65-2.90Q53.65-2.77 53.76-2.67Q53.86-2.57 54.04-2.57ZM54.04-3.40L54.04-3.40L55.25-3.40Q55.43-3.40 55.53-3.50Q55.63-3.60 55.63-3.73Q55.63-3.86 55.53-3.95Q55.43-4.05 55.25-4.05L55.25-4.05L54.04-4.05Q53.86-4.05 53.76-3.95Q53.65-3.86 53.65-3.73Q53.65-3.60 53.76-3.50Q53.86-3.40 54.04-3.40ZM54.04-4.23L54.04-4.23L55.25-4.23Q55.43-4.23 55.53-4.33Q55.63-4.42 55.63-4.55Q55.63-4.68 55.53-4.78Q55.43-4.88 55.25-4.88L55.25-4.88L54.04-4.88Q53.86-4.88 53.76-4.78Q53.65-4.68 53.65-4.55Q53.65-4.42 53.76-4.33Q53.86-4.23 54.04-4.23ZM54.04-5.06L54.04-5.06L58.56-5.06Q58.74-5.06 58.84-5.16Q58.95-5.25 58.95-5.38Q58.95-5.51 58.84-5.61Q58.74-5.70 58.56-5.70L58.56-5.70L54.04-5.70Q53.86-5.70 53.76-5.61Q53.65-5.51 53.65-5.38Q53.65-5.25 53.76-5.16Q53.86-5.06 54.04-5.06ZM60.67-0.09L60.67-0.09L63.52-0.09Q63.71-0.09 63.81-0.19Q63.91-0.28 63.91-0.41Q63.91-0.54 63.81-0.64Q63.71-0.74 63.52-0.74L63.52-0.74L60.67-0.74Q60.48-0.74 60.38-0.64Q60.28-0.54 60.28-0.41Q60.28-0.28 60.38-0.19Q60.48-0.09 60.67-0.09ZM60.67-0.92L60.67-0.92L61.87-0.92Q62.05-0.92 62.15-1.02Q62.26-1.11 62.26-1.24Q62.26-1.37 62.15-1.47Q62.05-1.57 61.87-1.57L61.87-1.57L60.67-1.57Q60.48-1.57 60.38-1.47Q60.28-1.37 60.28-1.24Q60.28-1.11 60.38-1.02Q60.48-0.92 60.67-0.92ZM63.15-0.92L63.15-0.92L64.35-0.92Q64.53-0.92 64.64-1.02Q64.74-1.11 64.74-1.24Q64.74-1.37 64.64-1.47Q64.53-1.57 64.35-1.57L64.35-1.57L63.15-1.57Q62.97-1.57 62.86-1.47Q62.76-1.37 62.76-1.24Q62.76-1.11 62.86-1.02Q62.97-0.92 63.15-0.92ZM60.67-1.75L60.67-1.75L61.87-1.75Q62.05-1.75 62.15-1.84Q62.26-1.94 62.26-2.07Q62.26-2.20 62.15-2.30Q62.05-2.39 61.87-2.39L61.87-2.39L60.67-2.39Q60.48-2.39 60.38-2.30Q60.28-2.20 60.28-2.07Q60.28-1.94 60.38-1.84Q60.48-1.75 60.67-1.75ZM63.98-1.75L63.98-1.75L65.18-1.75Q65.36-1.75 65.47-1.84Q65.57-1.94 65.57-2.07Q65.57-2.20 65.47-2.30Q65.36-2.39 65.18-2.39L65.18-2.39L63.98-2.39Q63.80-2.39 63.69-2.30Q63.59-2.20 63.59-2.07Q63.59-1.94 63.69-1.84Q63.80-1.75 63.98-1.75ZM60.67-2.57L60.67-2.57L61.87-2.57Q62.05-2.57 62.15-2.67Q62.26-2.77 62.26-2.90Q62.26-3.03 62.15-3.12Q62.05-3.22 61.87-3.22L61.87-3.22L60.67-3.22Q60.48-3.22 60.38-3.12Q60.28-3.03 60.28-2.90Q60.28-2.77 60.38-2.67Q60.48-2.57 60.67-2.57ZM63.98-2.57L63.98-2.57L65.18-2.57Q65.36-2.57 65.47-2.67Q65.57-2.77 65.57-2.90Q65.57-3.03 65.47-3.12Q65.36-3.22 65.18-3.22L65.18-3.22L63.98-3.22Q63.80-3.22 63.69-3.12Q63.59-3.03 63.59-2.90Q63.59-2.77 63.69-2.67Q63.80-2.57 63.98-2.57ZM60.67-3.40L60.67-3.40L61.87-3.40Q62.05-3.40 62.15-3.50Q62.26-3.60 62.26-3.73Q62.26-3.86 62.15-3.95Q62.05-4.05 61.87-4.05L61.87-4.05L60.67-4.05Q60.48-4.05 60.38-3.95Q60.28-3.86 60.28-3.73Q60.28-3.60 60.38-3.50Q60.48-3.40 60.67-3.40ZM63.98-3.40L63.98-3.40L65.18-3.40Q65.36-3.40 65.47-3.50Q65.57-3.60 65.57-3.73Q65.57-3.86 65.47-3.95Q65.36-4.05 65.18-4.05L65.18-4.05L63.98-4.05Q63.80-4.05 63.69-3.95Q63.59-3.86 63.59-3.73Q63.59-3.60 63.69-3.50Q63.80-3.40 63.98-3.40ZM60.67-4.23L60.67-4.23L61.87-4.23Q62.05-4.23 62.15-4.33Q62.26-4.42 62.26-4.55Q62.26-4.68 62.15-4.78Q62.05-4.88 61.87-4.88L61.87-4.88L60.67-4.88Q60.48-4.88 60.38-4.78Q60.28-4.68 60.28-4.55Q60.28-4.42 60.38-4.33Q60.48-4.23 60.67-4.23ZM63.15-4.23L63.15-4.23L64.35-4.23Q64.53-4.23 64.64-4.33Q64.74-4.42 64.74-4.55Q64.74-4.68 64.64-4.78Q64.53-4.88 64.35-4.88L64.35-4.88L63.15-4.88Q62.97-4.88 62.86-4.78Q62.76-4.68 62.76-4.55Q62.76-4.42 62.86-4.33Q62.97-4.23 63.15-4.23ZM60.67-5.06L60.67-5.06L63.52-5.06Q63.71-5.06 63.81-5.16Q63.91-5.25 63.91-5.38Q63.91-5.51 63.81-5.61Q63.71-5.70 63.52-5.70L63.52-5.70L60.67-5.70Q60.48-5.70 60.38-5.61Q60.28-5.51 60.28-5.38Q60.28-5.25 60.38-5.16Q60.48-5.06 60.67-5.06ZM74.74-0.09L74.74-0.09L77.60-0.09Q77.78-0.09 77.88-0.19Q77.99-0.28 77.99-0.41Q77.99-0.54 77.88-0.64Q77.78-0.74 77.60-0.74L77.60-0.74L74.74-0.74Q74.56-0.74 74.46-0.64Q74.35-0.54 74.35-0.41Q74.35-0.28 74.46-0.19Q74.56-0.09 74.74-0.09ZM75.57-0.92L75.57-0.92L76.77-0.92Q76.95-0.92 77.06-1.02Q77.16-1.11 77.16-1.24Q77.16-1.37 77.06-1.47Q76.95-1.57 76.77-1.57L76.77-1.57L75.57-1.57Q75.39-1.57 75.28-1.47Q75.18-1.37 75.18-1.24Q75.18-1.11 75.28-1.02Q75.39-0.92 75.57-0.92ZM75.57-1.75L75.57-1.75L76.77-1.75Q76.95-1.75 77.06-1.84Q77.16-1.94 77.16-2.07Q77.16-2.20 77.06-2.30Q76.95-2.39 76.77-2.39L76.77-2.39L75.57-2.39Q75.39-2.39 75.28-2.30Q75.18-2.20 75.18-2.07Q75.18-1.94 75.28-1.84Q75.39-1.75 75.57-1.75ZM75.57-2.57L75.57-2.57L76.77-2.57Q76.95-2.57 77.06-2.67Q77.16-2.77 77.16-2.90Q77.16-3.03 77.06-3.12Q76.95-3.22 76.77-3.22L76.77-3.22L75.57-3.22Q75.39-3.22 75.28-3.12Q75.18-3.03 75.18-2.90Q75.18-2.77 75.28-2.67Q75.39-2.57 75.57-2.57ZM75.57-3.40L75.57-3.40L76.77-3.40Q76.95-3.40 77.06-3.50Q77.16-3.60 77.16-3.73Q77.16-3.86 77.06-3.95Q76.95-4.05 76.77-4.05L76.77-4.05L75.57-4.05Q75.39-4.05 75.28-3.95Q75.18-3.86 75.18-3.73Q75.18-3.60 75.28-3.50Q75.39-3.40 75.57-3.40ZM75.57-4.23L75.57-4.23L76.77-4.23Q76.95-4.23 77.06-4.33Q77.16-4.42 77.16-4.55Q77.16-4.68 77.06-4.78Q76.95-4.88 76.77-4.88L76.77-4.88L75.57-4.88Q75.39-4.88 75.28-4.78Q75.18-4.68 75.18-4.55Q75.18-4.42 75.28-4.33Q75.39-4.23 75.57-4.23ZM74.74-5.06L74.74-5.06L77.60-5.06Q77.78-5.06 77.88-5.16Q77.99-5.25 77.99-5.38Q77.99-5.51 77.88-5.61Q77.78-5.70 77.60-5.70L77.60-5.70L74.74-5.70Q74.56-5.70 74.46-5.61Q74.35-5.51 74.35-5.38Q74.35-5.25 74.46-5.16Q74.56-5.06 74.74-5.06ZM80.54-0.09L80.54-0.09L81.74-0.09Q81.92-0.09 82.02-0.19Q82.13-0.28 82.13-0.41Q82.13-0.54 82.02-0.64Q81.92-0.74 81.74-0.74L81.74-0.74L80.54-0.74Q80.36-0.74 80.25-0.64Q80.15-0.54 80.15-0.41Q80.15-0.28 80.25-0.19Q80.36-0.09 80.54-0.09ZM83.85-0.09L83.85-0.09L85.05-0.09Q85.23-0.09 85.34-0.19Q85.44-0.28 85.44-0.41Q85.44-0.54 85.34-0.64Q85.23-0.74 85.05-0.74L85.05-0.74L83.85-0.74Q83.67-0.74 83.56-0.64Q83.46-0.54 83.46-0.41Q83.46-0.28 83.56-0.19Q83.67-0.09 83.85-0.09ZM80.54-0.92L80.54-0.92L81.74-0.92Q81.92-0.92 82.02-1.02Q82.13-1.11 82.13-1.24Q82.13-1.37 82.02-1.47Q81.92-1.57 81.74-1.57L81.74-1.57L80.54-1.57Q80.36-1.57 80.25-1.47Q80.15-1.37 80.15-1.24Q80.15-1.11 80.25-1.02Q80.36-0.92 80.54-0.92ZM83.85-0.92L83.85-0.92L85.05-0.92Q85.23-0.92 85.34-1.02Q85.44-1.11 85.44-1.24Q85.44-1.37 85.34-1.47Q85.23-1.57 85.05-1.57L85.05-1.57L83.85-1.57Q83.67-1.57 83.56-1.47Q83.46-1.37 83.46-1.24Q83.46-1.11 83.56-1.02Q83.67-0.92 83.85-0.92ZM80.54-1.75L80.54-1.75L81.74-1.75Q81.92-1.75 82.02-1.84Q82.13-1.94 82.13-2.07Q82.13-2.20 82.02-2.30Q81.92-2.39 81.74-2.39L81.74-2.39L80.54-2.39Q80.36-2.39 80.25-2.30Q80.15-2.20 80.15-2.07Q80.15-1.94 80.25-1.84Q80.36-1.75 80.54-1.75ZM83.85-1.75L83.85-1.75L85.05-1.75Q85.23-1.75 85.34-1.84Q85.44-1.94 85.44-2.07Q85.44-2.20 85.34-2.30Q85.23-2.39 85.05-2.39L85.05-2.39L83.85-2.39Q83.67-2.39 83.56-2.30Q83.46-2.20 83.46-2.07Q83.46-1.94 83.56-1.84Q83.67-1.75 83.85-1.75ZM80.54-2.57L80.54-2.57L81.74-2.57Q81.92-2.57 82.02-2.67Q82.13-2.77 82.13-2.90Q82.13-3.03 82.02-3.12Q81.92-3.22 81.74-3.22L81.74-3.22L80.54-3.22Q80.36-3.22 80.25-3.12Q80.15-3.03 80.15-2.90Q80.15-2.77 80.25-2.67Q80.36-2.57 80.54-2.57ZM83.02-2.57L83.02-2.57L85.05-2.57Q85.23-2.57 85.34-2.67Q85.44-2.77 85.44-2.90Q85.44-3.03 85.34-3.12Q85.23-3.22 85.05-3.22L85.05-3.22L83.02-3.22Q82.84-3.22 82.74-3.12Q82.63-3.03 82.63-2.90Q82.63-2.77 82.74-2.67Q82.84-2.57 83.02-2.57ZM80.54-3.40L80.54-3.40L85.05-3.40Q85.23-3.40 85.34-3.50Q85.44-3.60 85.44-3.73Q85.44-3.86 85.34-3.95Q85.23-4.05 85.05-4.05L85.05-4.05L80.54-4.05Q80.36-4.05 80.25-3.95Q80.15-3.86 80.15-3.73Q80.15-3.60 80.25-3.50Q80.36-3.40 80.54-3.40ZM80.54-4.23L80.54-4.23L82.57-4.23Q82.75-4.23 82.85-4.33Q82.96-4.42 82.96-4.55Q82.96-4.68 82.85-4.78Q82.75-4.88 82.57-4.88L82.57-4.88L80.54-4.88Q80.36-4.88 80.25-4.78Q80.15-4.68 80.15-4.55Q80.15-4.42 80.25-4.33Q80.36-4.23 80.54-4.23ZM83.85-4.23L83.85-4.23L85.05-4.23Q85.23-4.23 85.34-4.33Q85.44-4.42 85.44-4.55Q85.44-4.68 85.34-4.78Q85.23-4.88 85.05-4.88L85.05-4.88L83.85-4.88Q83.67-4.88 83.56-4.78Q83.46-4.68 83.46-4.55Q83.46-4.42 83.56-4.33Q83.67-4.23 83.85-4.23ZM80.54-5.06L80.54-5.06L81.74-5.06Q81.92-5.06 82.02-5.16Q82.13-5.25 82.13-5.38Q82.13-5.51 82.02-5.61Q81.92-5.70 81.74-5.70L81.74-5.70L80.54-5.70Q80.36-5.70 80.25-5.61Q80.15-5.51 80.15-5.38Q80.15-5.25 80.25-5.16Q80.36-5.06 80.54-5.06ZM83.85-5.06L83.85-5.06L85.05-5.06Q85.23-5.06 85.34-5.16Q85.44-5.25 85.44-5.38Q85.44-5.51 85.34-5.61Q85.23-5.70 85.05-5.70L85.05-5.70L83.85-5.70Q83.67-5.70 83.56-5.61Q83.46-5.51 83.46-5.38Q83.46-5.25 83.56-5.16Q83.67-5.06 83.85-5.06ZM88.82-0.09L88.82-0.09L90.02-0.09Q90.20-0.09 90.30-0.19Q90.41-0.28 90.41-0.41Q90.41-0.54 90.30-0.64Q90.20-0.74 90.02-0.74L90.02-0.74L88.82-0.74Q88.63-0.74 88.53-0.64Q88.43-0.54 88.43-0.41Q88.43-0.28 88.53-0.19Q88.63-0.09 88.82-0.09ZM87.99-0.92L87.99-0.92L90.85-0.92Q91.03-0.92 91.13-1.02Q91.23-1.11 91.23-1.24Q91.23-1.37 91.13-1.47Q91.03-1.57 90.85-1.57L90.85-1.57L87.99-1.57Q87.81-1.57 87.70-1.47Q87.60-1.37 87.60-1.24Q87.60-1.11 87.70-1.02Q87.81-0.92 87.99-0.92ZM87.16-1.75L87.16-1.75L88.36-1.75Q88.54-1.75 88.65-1.84Q88.75-1.94 88.75-2.07Q88.75-2.20 88.65-2.30Q88.54-2.39 88.36-2.39L88.36-2.39L87.16-2.39Q86.98-2.39 86.88-2.30Q86.77-2.20 86.77-2.07Q86.77-1.94 86.88-1.84Q86.98-1.75 87.16-1.75ZM90.47-1.75L90.47-1.75L91.67-1.75Q91.86-1.75 91.96-1.84Q92.06-1.94 92.06-2.07Q92.06-2.20 91.96-2.30Q91.86-2.39 91.67-2.39L91.67-2.39L90.47-2.39Q90.29-2.39 90.19-2.30Q90.08-2.20 90.08-2.07Q90.08-1.94 90.19-1.84Q90.29-1.75 90.47-1.75ZM87.16-2.57L87.16-2.57L88.36-2.57Q88.54-2.57 88.65-2.67Q88.75-2.77 88.75-2.90Q88.75-3.03 88.65-3.12Q88.54-3.22 88.36-3.22L88.36-3.22L87.16-3.22Q86.98-3.22 86.88-3.12Q86.77-3.03 86.77-2.90Q86.77-2.77 86.88-2.67Q86.98-2.57 87.16-2.57ZM90.47-2.57L90.47-2.57L91.67-2.57Q91.86-2.57 91.96-2.67Q92.06-2.77 92.06-2.90Q92.06-3.03 91.96-3.12Q91.86-3.22 91.67-3.22L91.67-3.22L90.47-3.22Q90.29-3.22 90.19-3.12Q90.08-3.03 90.08-2.90Q90.08-2.77 90.19-2.67Q90.29-2.57 90.47-2.57ZM87.16-3.40L87.16-3.40L88.36-3.40Q88.54-3.40 88.65-3.50Q88.75-3.60 88.75-3.73Q88.75-3.86 88.65-3.95Q88.54-4.05 88.36-4.05L88.36-4.05L87.16-4.05Q86.98-4.05 86.88-3.95Q86.77-3.86 86.77-3.73Q86.77-3.60 86.88-3.50Q86.98-3.40 87.16-3.40ZM90.47-3.40L90.47-3.40L91.67-3.40Q91.86-3.40 91.96-3.50Q92.06-3.60 92.06-3.73Q92.06-3.86 91.96-3.95Q91.86-4.05 91.67-4.05L91.67-4.05L90.47-4.05Q90.29-4.05 90.19-3.95Q90.08-3.86 90.08-3.73Q90.08-3.60 90.19-3.50Q90.29-3.40 90.47-3.40ZM87.16-4.23L87.16-4.23L88.36-4.23Q88.54-4.23 88.65-4.33Q88.75-4.42 88.75-4.55Q88.75-4.68 88.65-4.78Q88.54-4.88 88.36-4.88L88.36-4.88L87.16-4.88Q86.98-4.88 86.88-4.78Q86.77-4.68 86.77-4.55Q86.77-4.42 86.88-4.33Q86.98-4.23 87.16-4.23ZM90.47-4.23L90.47-4.23L91.67-4.23Q91.86-4.23 91.96-4.33Q92.06-4.42 92.06-4.55Q92.06-4.68 91.96-4.78Q91.86-4.88 91.67-4.88L91.67-4.88L90.47-4.88Q90.29-4.88 90.19-4.78Q90.08-4.68 90.08-4.55Q90.08-4.42 90.19-4.33Q90.29-4.23 90.47-4.23ZM87.16-5.06L87.16-5.06L88.36-5.06Q88.54-5.06 88.65-5.16Q88.75-5.25 88.75-5.38Q88.75-5.51 88.65-5.61Q88.54-5.70 88.36-5.70L88.36-5.70L87.16-5.70Q86.98-5.70 86.88-5.61Q86.77-5.51 86.77-5.38Q86.77-5.25 86.88-5.16Q86.98-5.06 87.16-5.06ZM90.47-5.06L90.47-5.06L91.67-5.06Q91.86-5.06 91.96-5.16Q92.06-5.25 92.06-5.38Q92.06-5.51 91.96-5.61Q91.86-5.70 91.67-5.70L91.67-5.70L90.47-5.70Q90.29-5.70 90.19-5.61Q90.08-5.51 90.08-5.38Q90.08-5.25 90.19-5.16Q90.29-5.06 90.47-5.06ZM93.78-0.09L93.78-0.09L98.30-0.09Q98.48-0.09 98.58-0.19Q98.69-0.28 98.69-0.41Q98.69-0.54 98.58-0.64Q98.48-0.74 98.30-0.74L98.30-0.74L93.78-0.74Q93.60-0.74 93.50-0.64Q93.40-0.54 93.40-0.41Q93.40-0.28 93.50-0.19Q93.60-0.09 93.78-0.09ZM93.78-0.92L93.78-0.92L94.99-0.92Q95.17-0.92 95.27-1.02Q95.37-1.11 95.37-1.24Q95.37-1.37 95.27-1.47Q95.17-1.57 94.99-1.57L94.99-1.57L93.78-1.57Q93.60-1.57 93.50-1.47Q93.40-1.37 93.40-1.24Q93.40-1.11 93.50-1.02Q93.60-0.92 93.78-0.92ZM93.78-1.75L93.78-1.75L94.99-1.75Q95.17-1.75 95.27-1.84Q95.37-1.94 95.37-2.07Q95.37-2.20 95.27-2.30Q95.17-2.39 94.99-2.39L94.99-2.39L93.78-2.39Q93.60-2.39 93.50-2.30Q93.40-2.20 93.40-2.07Q93.40-1.94 93.50-1.84Q93.60-1.75 93.78-1.75ZM93.78-2.57L93.78-2.57L96.64-2.57Q96.82-2.57 96.93-2.67Q97.03-2.77 97.03-2.90Q97.03-3.03 96.93-3.12Q96.82-3.22 96.64-3.22L96.64-3.22L93.78-3.22Q93.60-3.22 93.50-3.12Q93.40-3.03 93.40-2.90Q93.40-2.77 93.50-2.67Q93.60-2.57 93.78-2.57ZM93.78-3.40L93.78-3.40L94.99-3.40Q95.17-3.40 95.27-3.50Q95.37-3.60 95.37-3.73Q95.37-3.86 95.27-3.95Q95.17-4.05 94.99-4.05L94.99-4.05L93.78-4.05Q93.60-4.05 93.50-3.95Q93.40-3.86 93.40-3.73Q93.40-3.60 93.50-3.50Q93.60-3.40 93.78-3.40ZM93.78-4.23L93.78-4.23L94.99-4.23Q95.17-4.23 95.27-4.33Q95.37-4.42 95.37-4.55Q95.37-4.68 95.27-4.78Q95.17-4.88 94.99-4.88L94.99-4.88L93.78-4.88Q93.60-4.88 93.50-4.78Q93.40-4.68 93.40-4.55Q93.40-4.42 93.50-4.33Q93.60-4.23 93.78-4.23ZM93.78-5.06L93.78-5.06L98.30-5.06Q98.48-5.06 98.58-5.16Q98.69-5.25 98.69-5.38Q98.69-5.51 98.58-5.61Q98.48-5.70 98.30-5.70L98.30-5.70L93.78-5.70Q93.60-5.70 93.50-5.61Q93.40-5.51 93.40-5.38Q93.40-5.25 93.50-5.16Q93.60-5.06 93.78-5.06ZM100.41-0.09L100.41-0.09L101.61-0.09Q101.79-0.09 101.89-0.19Q102.00-0.28 102.00-0.41Q102.00-0.54 101.89-0.64Q101.79-0.74 101.61-0.74L101.61-0.74L100.41-0.74Q100.23-0.74 100.12-0.64Q100.02-0.54 100.02-0.41Q100.02-0.28 100.12-0.19Q100.23-0.09 100.41-0.09ZM103.72-0.09L103.72-0.09L104.92-0.09Q105.10-0.09 105.21-0.19Q105.31-0.28 105.31-0.41Q105.31-0.54 105.21-0.64Q105.10-0.74 104.92-0.74L104.92-0.74L103.72-0.74Q103.54-0.74 103.43-0.64Q103.33-0.54 103.33-0.41Q103.33-0.28 103.43-0.19Q103.54-0.09 103.72-0.09ZM100.41-0.92L100.41-0.92L101.61-0.92Q101.79-0.92 101.89-1.02Q102.00-1.11 102.00-1.24Q102.00-1.37 101.89-1.47Q101.79-1.57 101.61-1.57L101.61-1.57L100.41-1.57Q100.23-1.57 100.12-1.47Q100.02-1.37 100.02-1.24Q100.02-1.11 100.12-1.02Q100.23-0.92 100.41-0.92ZM103.72-0.92L103.72-0.92L104.92-0.92Q105.10-0.92 105.21-1.02Q105.31-1.11 105.31-1.24Q105.31-1.37 105.21-1.47Q105.10-1.57 104.92-1.57L104.92-1.57L103.72-1.57Q103.54-1.57 103.43-1.47Q103.33-1.37 103.33-1.24Q103.33-1.11 103.43-1.02Q103.54-0.92 103.72-0.92ZM100.41-1.75L100.41-1.75L101.61-1.75Q101.79-1.75 101.89-1.84Q102.00-1.94 102.00-2.07Q102.00-2.20 101.89-2.30Q101.79-2.39 101.61-2.39L101.61-2.39L100.41-2.39Q100.23-2.39 100.12-2.30Q100.02-2.20 100.02-2.07Q100.02-1.94 100.12-1.84Q100.23-1.75 100.41-1.75ZM103.72-1.75L103.72-1.75L104.92-1.75Q105.10-1.75 105.21-1.84Q105.31-1.94 105.31-2.07Q105.31-2.20 105.21-2.30Q105.10-2.39 104.92-2.39L104.92-2.39L103.72-2.39Q103.54-2.39 103.43-2.30Q103.33-2.20 103.33-2.07Q103.33-1.94 103.43-1.84Q103.54-1.75 103.72-1.75ZM100.41-2.57L100.41-2.57L101.61-2.57Q101.79-2.57 101.89-2.67Q102.00-2.77 102.00-2.90Q102.00-3.03 101.89-3.12Q101.79-3.22 101.61-3.22L101.61-3.22L100.41-3.22Q100.23-3.22 100.12-3.12Q100.02-3.03 100.02-2.90Q100.02-2.77 100.12-2.67Q100.23-2.57 100.41-2.57ZM102.89-2.57L102.89-2.57L104.92-2.57Q105.10-2.57 105.21-2.67Q105.31-2.77 105.31-2.90Q105.31-3.03 105.21-3.12Q105.10-3.22 104.92-3.22L104.92-3.22L102.89-3.22Q102.71-3.22 102.61-3.12Q102.50-3.03 102.50-2.90Q102.50-2.77 102.61-2.67Q102.71-2.57 102.89-2.57ZM100.41-3.40L100.41-3.40L104.92-3.40Q105.10-3.40 105.21-3.50Q105.31-3.60 105.31-3.73Q105.31-3.86 105.21-3.95Q105.10-4.05 104.92-4.05L104.92-4.05L100.41-4.05Q100.23-4.05 100.12-3.95Q100.02-3.86 100.02-3.73Q100.02-3.60 100.12-3.50Q100.23-3.40 100.41-3.40ZM100.41-4.23L100.41-4.23L102.44-4.23Q102.62-4.23 102.72-4.33Q102.83-4.42 102.83-4.55Q102.83-4.68 102.72-4.78Q102.62-4.88 102.44-4.88L102.44-4.88L100.41-4.88Q100.23-4.88 100.12-4.78Q100.02-4.68 100.02-4.55Q100.02-4.42 100.12-4.33Q100.23-4.23 100.41-4.23ZM103.72-4.23L103.72-4.23L104.92-4.23Q105.10-4.23 105.21-4.33Q105.31-4.42 105.31-4.55Q105.31-4.68 105.21-4.78Q105.10-4.88 104.92-4.88L104.92-4.88L103.72-4.88Q103.54-4.88 103.43-4.78Q103.33-4.68 103.33-4.55Q103.33-4.42 103.43-4.33Q103.54-4.23 103.72-4.23ZM100.41-5.06L100.41-5.06L101.61-5.06Q101.79-5.06 101.89-5.16Q102.00-5.25 102.00-5.38Q102.00-5.51 101.89-5.61Q101.79-5.70 101.61-5.70L101.61-5.70L100.41-5.70Q100.23-5.70 100.12-5.61Q100.02-5.51 100.02-5.38Q100.02-5.25 100.12-5.16Q100.23-5.06 100.41-5.06ZM103.72-5.06L103.72-5.06L104.92-5.06Q105.10-5.06 105.21-5.16Q105.31-5.25 105.31-5.38Q105.31-5.51 105.21-5.61Q105.10-5.70 104.92-5.70L104.92-5.70L103.72-5.70Q103.54-5.70 103.43-5.61Q103.33-5.51 103.33-5.38Q103.33-5.25 103.43-5.16Q103.54-5.06 103.72-5.06ZM108.69-0.09L108.69-0.09L109.89-0.09Q110.07-0.09 110.17-0.19Q110.28-0.28 110.28-0.41Q110.28-0.54 110.17-0.64Q110.07-0.74 109.89-0.74L109.89-0.74L108.69-0.74Q108.50-0.74 108.40-0.64Q108.30-0.54 108.30-0.41Q108.30-0.28 108.40-0.19Q108.50-0.09 108.69-0.09ZM108.69-0.92L108.69-0.92L109.89-0.92Q110.07-0.92 110.17-1.02Q110.28-1.11 110.28-1.24Q110.28-1.37 110.17-1.47Q110.07-1.57 109.89-1.57L109.89-1.57L108.69-1.57Q108.50-1.57 108.40-1.47Q108.30-1.37 108.30-1.24Q108.30-1.11 108.40-1.02Q108.50-0.92 108.69-0.92ZM108.69-1.75L108.69-1.75L109.89-1.75Q110.07-1.75 110.17-1.84Q110.28-1.94 110.28-2.07Q110.28-2.20 110.17-2.30Q110.07-2.39 109.89-2.39L109.89-2.39L108.69-2.39Q108.50-2.39 108.40-2.30Q108.30-2.20 108.30-2.07Q108.30-1.94 108.40-1.84Q108.50-1.75 108.69-1.75ZM108.69-2.57L108.69-2.57L109.89-2.57Q110.07-2.57 110.17-2.67Q110.28-2.77 110.28-2.90Q110.28-3.03 110.17-3.12Q110.07-3.22 109.89-3.22L109.89-3.22L108.69-3.22Q108.50-3.22 108.40-3.12Q108.30-3.03 108.30-2.90Q108.30-2.77 108.40-2.67Q108.50-2.57 108.69-2.57ZM108.69-3.40L108.69-3.40L109.89-3.40Q110.07-3.40 110.17-3.50Q110.28-3.60 110.28-3.73Q110.28-3.86 110.17-3.95Q110.07-4.05 109.89-4.05L109.89-4.05L108.69-4.05Q108.50-4.05 108.40-3.95Q108.30-3.86 108.30-3.73Q108.30-3.60 108.40-3.50Q108.50-3.40 108.69-3.40ZM108.69-4.23L108.69-4.23L109.89-4.23Q110.07-4.23 110.17-4.33Q110.28-4.42 110.28-4.55Q110.28-4.68 110.17-4.78Q110.07-4.88 109.89-4.88L109.89-4.88L108.69-4.88Q108.50-4.88 108.40-4.78Q108.30-4.68 108.30-4.55Q108.30-4.42 108.40-4.33Q108.50-4.23 108.69-4.23ZM107.03-5.06L107.03-5.06L111.55-5.06Q111.73-5.06 111.83-5.16Q111.93-5.25 111.93-5.38Q111.93-5.51 111.83-5.61Q111.73-5.70 111.55-5.70L111.55-5.70L107.03-5.70Q106.85-5.70 106.75-5.61Q106.64-5.51 106.64-5.38Q106.64-5.25 106.75-5.16Q106.85-5.06 107.03-5.06ZM114.48-0.09L114.48-0.09L117.34-0.09Q117.52-0.09 117.63-0.19Q117.73-0.28 117.73-0.41Q117.73-0.54 117.63-0.64Q117.52-0.74 117.34-0.74L117.34-0.74L114.48-0.74Q114.30-0.74 114.20-0.64Q114.09-0.54 114.09-0.41Q114.09-0.28 114.20-0.19Q114.30-0.09 114.48-0.09ZM113.65-0.92L113.65-0.92L114.86-0.92Q115.04-0.92 115.14-1.02Q115.24-1.11 115.24-1.24Q115.24-1.37 115.14-1.47Q115.04-1.57 114.86-1.57L114.86-1.57L113.65-1.57Q113.47-1.57 113.37-1.47Q113.27-1.37 113.27-1.24Q113.27-1.11 113.37-1.02Q113.47-0.92 113.65-0.92ZM116.97-0.92L116.97-0.92L118.17-0.92Q118.35-0.92 118.45-1.02Q118.56-1.11 118.56-1.24Q118.56-1.37 118.45-1.47Q118.35-1.57 118.17-1.57L118.17-1.57L116.97-1.57Q116.78-1.57 116.68-1.47Q116.58-1.37 116.58-1.24Q116.58-1.11 116.68-1.02Q116.78-0.92 116.97-0.92ZM113.65-1.75L113.65-1.75L114.86-1.75Q115.04-1.75 115.14-1.84Q115.24-1.94 115.24-2.07Q115.24-2.20 115.14-2.30Q115.04-2.39 114.86-2.39L114.86-2.39L113.65-2.39Q113.47-2.39 113.37-2.30Q113.27-2.20 113.27-2.07Q113.27-1.94 113.37-1.84Q113.47-1.75 113.65-1.75ZM116.97-1.75L116.97-1.75L118.17-1.75Q118.35-1.75 118.45-1.84Q118.56-1.94 118.56-2.07Q118.56-2.20 118.45-2.30Q118.35-2.39 118.17-2.39L118.17-2.39L116.97-2.39Q116.78-2.39 116.68-2.30Q116.58-2.20 116.58-2.07Q116.58-1.94 116.68-1.84Q116.78-1.75 116.97-1.75ZM113.65-2.57L113.65-2.57L114.86-2.57Q115.04-2.57 115.14-2.67Q115.24-2.77 115.24-2.90Q115.24-3.03 115.14-3.12Q115.04-3.22 114.86-3.22L114.86-3.22L113.65-3.22Q113.47-3.22 113.37-3.12Q113.27-3.03 113.27-2.90Q113.27-2.77 113.37-2.67Q113.47-2.57 113.65-2.57ZM116.97-2.57L116.97-2.57L118.17-2.57Q118.35-2.57 118.45-2.67Q118.56-2.77 118.56-2.90Q118.56-3.03 118.45-3.12Q118.35-3.22 118.17-3.22L118.17-3.22L116.97-3.22Q116.78-3.22 116.68-3.12Q116.58-3.03 116.58-2.90Q116.58-2.77 116.68-2.67Q116.78-2.57 116.97-2.57ZM113.65-3.40L113.65-3.40L114.86-3.40Q115.04-3.40 115.14-3.50Q115.24-3.60 115.24-3.73Q115.24-3.86 115.14-3.95Q115.04-4.05 114.86-4.05L114.86-4.05L113.65-4.05Q113.47-4.05 113.37-3.95Q113.27-3.86 113.27-3.73Q113.27-3.60 113.37-3.50Q113.47-3.40 113.65-3.40ZM116.97-3.40L116.97-3.40L118.17-3.40Q118.35-3.40 118.45-3.50Q118.56-3.60 118.56-3.73Q118.56-3.86 118.45-3.95Q118.35-4.05 118.17-4.05L118.17-4.05L116.97-4.05Q116.78-4.05 116.68-3.95Q116.58-3.86 116.58-3.73Q116.58-3.60 116.68-3.50Q116.78-3.40 116.97-3.40ZM113.65-4.23L113.65-4.23L114.86-4.23Q115.04-4.23 115.14-4.33Q115.24-4.42 115.24-4.55Q115.24-4.68 115.14-4.78Q115.04-4.88 114.86-4.88L114.86-4.88L113.65-4.88Q113.47-4.88 113.37-4.78Q113.27-4.68 113.27-4.55Q113.27-4.42 113.37-4.33Q113.47-4.23 113.65-4.23ZM116.97-4.23L116.97-4.23L118.17-4.23Q118.35-4.23 118.45-4.33Q118.56-4.42 118.56-4.55Q118.56-4.68 118.45-4.78Q118.35-4.88 118.17-4.88L118.17-4.88L116.97-4.88Q116.78-4.88 116.68-4.78Q116.58-4.68 116.58-4.55Q116.58-4.42 116.68-4.33Q116.78-4.23 116.97-4.23ZM114.48-5.06L114.48-5.06L117.34-5.06Q117.52-5.06 117.63-5.16Q117.73-5.25 117.73-5.38Q117.73-5.51 117.63-5.61Q117.52-5.70 117.34-5.70L117.34-5.70L114.48-5.70Q114.30-5.70 114.20-5.61Q114.09-5.51 114.09-5.38Q114.09-5.25 114.20-5.16Q114.30-5.06 114.48-5.06ZM120.28-0.09L120.28-0.09L121.48-0.09Q121.66-0.09 121.76-0.19Q121.87-0.28 121.87-0.41Q121.87-0.54 121.76-0.64Q121.66-0.74 121.48-0.74L121.48-0.74L120.28-0.74Q120.10-0.74 119.99-0.64Q119.89-0.54 119.89-0.41Q119.89-0.28 119.99-0.19Q120.10-0.09 120.28-0.09ZM123.59-0.09L123.59-0.09L124.79-0.09Q124.97-0.09 125.08-0.19Q125.18-0.28 125.18-0.41Q125.18-0.54 125.08-0.64Q124.97-0.74 124.79-0.74L124.79-0.74L123.59-0.74Q123.41-0.74 123.30-0.64Q123.20-0.54 123.20-0.41Q123.20-0.28 123.30-0.19Q123.41-0.09 123.59-0.09ZM120.28-0.92L120.28-0.92L121.48-0.92Q121.66-0.92 121.76-1.02Q121.87-1.11 121.87-1.24Q121.87-1.37 121.76-1.47Q121.66-1.57 121.48-1.57L121.48-1.57L120.28-1.57Q120.10-1.57 119.99-1.47Q119.89-1.37 119.89-1.24Q119.89-1.11 119.99-1.02Q120.10-0.92 120.28-0.92ZM122.76-0.92L122.76-0.92L123.96-0.92Q124.15-0.92 124.25-1.02Q124.35-1.11 124.35-1.24Q124.35-1.37 124.25-1.47Q124.15-1.57 123.96-1.57L123.96-1.57L122.76-1.57Q122.58-1.57 122.48-1.47Q122.37-1.37 122.37-1.24Q122.37-1.11 122.48-1.02Q122.58-0.92 122.76-0.92ZM120.28-1.75L120.28-1.75L123.14-1.75Q123.32-1.75 123.42-1.84Q123.52-1.94 123.52-2.07Q123.52-2.20 123.42-2.30Q123.32-2.39 123.14-2.39L123.14-2.39L120.28-2.39Q120.10-2.39 119.99-2.30Q119.89-2.20 119.89-2.07Q119.89-1.94 119.99-1.84Q120.10-1.75 120.28-1.75ZM120.28-2.57L120.28-2.57L123.96-2.57Q124.15-2.57 124.25-2.67Q124.35-2.77 124.35-2.90Q124.35-3.03 124.25-3.12Q124.15-3.22 123.96-3.22L123.96-3.22L120.28-3.22Q120.10-3.22 119.99-3.12Q119.89-3.03 119.89-2.90Q119.89-2.77 119.99-2.67Q120.10-2.57 120.28-2.57ZM120.28-3.40L120.28-3.40L121.48-3.40Q121.66-3.40 121.76-3.50Q121.87-3.60 121.87-3.73Q121.87-3.86 121.76-3.95Q121.66-4.05 121.48-4.05L121.48-4.05L120.28-4.05Q120.10-4.05 119.99-3.95Q119.89-3.86 119.89-3.73Q119.89-3.60 119.99-3.50Q120.10-3.40 120.28-3.40ZM123.59-3.40L123.59-3.40L124.79-3.40Q124.97-3.40 125.08-3.50Q125.18-3.60 125.18-3.73Q125.18-3.86 125.08-3.95Q124.97-4.05 124.79-4.05L124.79-4.05L123.59-4.05Q123.41-4.05 123.30-3.95Q123.20-3.86 123.20-3.73Q123.20-3.60 123.30-3.50Q123.41-3.40 123.59-3.40ZM120.28-4.23L120.28-4.23L121.48-4.23Q121.66-4.23 121.76-4.33Q121.87-4.42 121.87-4.55Q121.87-4.68 121.76-4.78Q121.66-4.88 121.48-4.88L121.48-4.88L120.28-4.88Q120.10-4.88 119.99-4.78Q119.89-4.68 119.89-4.55Q119.89-4.42 119.99-4.33Q120.10-4.23 120.28-4.23ZM123.59-4.23L123.59-4.23L124.79-4.23Q124.97-4.23 125.08-4.33Q125.18-4.42 125.18-4.55Q125.18-4.68 125.08-4.78Q124.97-4.88 124.79-4.88L124.79-4.88L123.59-4.88Q123.41-4.88 123.30-4.78Q123.20-4.68 123.20-4.55Q123.20-4.42 123.30-4.33Q123.41-4.23 123.59-4.23ZM120.28-5.06L120.28-5.06L123.96-5.06Q124.15-5.06 124.25-5.16Q124.35-5.25 124.35-5.38Q124.35-5.51 124.25-5.61Q124.15-5.70 123.96-5.70L123.96-5.70L120.28-5.70Q120.10-5.70 119.99-5.61Q119.89-5.51 119.89-5.38Q119.89-5.25 119.99-5.16Q120.10-5.06 120.28-5.06ZM128.56-0.09L128.56-0.09L129.76-0.09Q129.94-0.09 130.04-0.19Q130.15-0.28 130.15-0.41Q130.15-0.54 130.04-0.64Q129.94-0.74 129.76-0.74L129.76-0.74L128.56-0.74Q128.38-0.74 128.27-0.64Q128.17-0.54 128.17-0.41Q128.17-0.28 128.27-0.19Q128.38-0.09 128.56-0.09ZM128.56-0.92L128.56-0.92L129.76-0.92Q129.94-0.92 130.04-1.02Q130.15-1.11 130.15-1.24Q130.15-1.37 130.04-1.47Q129.94-1.57 129.76-1.57L129.76-1.57L128.56-1.57Q128.38-1.57 128.27-1.47Q128.17-1.37 128.17-1.24Q128.17-1.11 128.27-1.02Q128.38-0.92 128.56-0.92ZM128.56-1.75L128.56-1.75L129.76-1.75Q129.94-1.75 130.04-1.84Q130.15-1.94 130.15-2.07Q130.15-2.20 130.04-2.30Q129.94-2.39 129.76-2.39L129.76-2.39L128.56-2.39Q128.38-2.39 128.27-2.30Q128.17-2.20 128.17-2.07Q128.17-1.94 128.27-1.84Q128.38-1.75 128.56-1.75ZM127.73-2.57L127.73-2.57L130.59-2.57Q130.77-2.57 130.87-2.67Q130.98-2.77 130.98-2.90Q130.98-3.03 130.87-3.12Q130.77-3.22 130.59-3.22L130.59-3.22L127.73-3.22Q127.55-3.22 127.44-3.12Q127.34-3.03 127.34-2.90Q127.34-2.77 127.44-2.67Q127.55-2.57 127.73-2.57ZM126.90-3.40L126.90-3.40L128.10-3.40Q128.28-3.40 128.39-3.50Q128.49-3.60 128.49-3.73Q128.49-3.86 128.39-3.95Q128.28-4.05 128.10-4.05L128.10-4.05L126.90-4.05Q126.72-4.05 126.62-3.95Q126.51-3.86 126.51-3.73Q126.51-3.60 126.62-3.50Q126.72-3.40 126.90-3.40ZM130.21-3.40L130.21-3.40L131.42-3.40Q131.60-3.40 131.70-3.50Q131.80-3.60 131.80-3.73Q131.80-3.86 131.70-3.95Q131.60-4.05 131.42-4.05L131.42-4.05L130.21-4.05Q130.03-4.05 129.93-3.95Q129.82-3.86 129.82-3.73Q129.82-3.60 129.93-3.50Q130.03-3.40 130.21-3.40ZM126.90-4.23L126.90-4.23L128.10-4.23Q128.28-4.23 128.39-4.33Q128.49-4.42 128.49-4.55Q128.49-4.68 128.39-4.78Q128.28-4.88 128.10-4.88L128.10-4.88L126.90-4.88Q126.72-4.88 126.62-4.78Q126.51-4.68 126.51-4.55Q126.51-4.42 126.62-4.33Q126.72-4.23 126.90-4.23ZM130.21-4.23L130.21-4.23L131.42-4.23Q131.60-4.23 131.70-4.33Q131.80-4.42 131.80-4.55Q131.80-4.68 131.70-4.78Q131.60-4.88 131.42-4.88L131.42-4.88L130.21-4.88Q130.03-4.88 129.93-4.78Q129.82-4.68 129.82-4.55Q129.82-4.42 129.93-4.33Q130.03-4.23 130.21-4.23ZM126.90-5.06L126.90-5.06L128.10-5.06Q128.28-5.06 128.39-5.16Q128.49-5.25 128.49-5.38Q128.49-5.51 128.39-5.61Q128.28-5.70 128.10-5.70L128.10-5.70L126.90-5.70Q126.72-5.70 126.62-5.61Q126.51-5.51 126.51-5.38Q126.51-5.25 126.62-5.16Q126.72-5.06 126.90-5.06ZM130.21-5.06L130.21-5.06L131.42-5.06Q131.60-5.06 131.70-5.16Q131.80-5.25 131.80-5.38Q131.80-5.51 131.70-5.61Q131.60-5.70 131.42-5.70L131.42-5.70L130.21-5.70Q130.03-5.70 129.93-5.61Q129.82-5.51 129.82-5.38Q129.82-5.25 129.93-5.16Q130.03-5.06 130.21-5.06Z" transform="translate(-0.6662300835295849, 5.704999356049455)"></path></g></g></g></g></g><defs v-gra="od"><linearGradient x1="0" y1="1" x2="0" y2="0" id="c3b9ac57-f2b4-4730-b103-b20ea08773cd"><stop offset="0%" stop-color="#ec1c24"></stop><stop offset="100%" stop-color="#f04219"></stop></linearGradient><filter id="42443b3f1de60f6b6fd3b6a9844b4764" filterUnits="objectBoundingBox"><feColorMatrix type="matrix" values="0 0 0 0 0.99609375  0 0 0 0 0.99609375  0 0 0 0 0.99609375  0 0 0 1 0"></feColorMatrix></filter></defs></g></svg>