<svg version="1.1" id="Layer_1" xmlns="http://www.w3.org/2000/svg" xmlns:xlink="http://www.w3.org/1999/xlink" x="0px" y="0px"
	 width="100%" viewBox="0 0 1600 417" enable-background="new 0 0 1600 417" xml:space="preserve">
<path fill="#FFFFFF" opacity="1.000000" stroke="none" 
	d="
M1060.000000,418.000000 
	C706.710388,418.000000 353.920746,418.000000 1.065552,418.000000 
	C1.065552,279.060944 1.065552,140.121857 1.065552,1.091377 
	C534.333313,1.091377 1067.666626,1.091377 1600.966309,1.091377 
	C1600.966309,140.079346 1600.966309,279.039673 1600.966309,418.000000 
	C1420.788452,418.000000 1240.644165,418.000000 1060.000000,418.000000 
M286.245117,54.086292 
	C279.373291,52.735863 272.506927,50.245625 265.628784,50.212742 
	C202.486694,49.910847 139.342499,50.007355 76.199097,50.099216 
	C72.127342,50.105137 67.930038,50.562714 64.009682,51.620300 
	C52.245106,54.794010 41.951721,60.331882 34.177624,70.229141 
	C26.732811,79.707184 22.113476,90.167122 22.073639,102.193428 
	C21.918018,149.175705 21.826366,196.160019 22.141243,243.140686 
	C22.213711,253.953094 23.186016,264.902222 25.136925,275.532867 
	C31.281313,309.014038 48.987808,335.786713 75.459213,356.583740 
	C96.959831,373.475525 121.879532,383.193390 149.140182,384.667725 
	C168.102676,385.693237 187.262665,386.287018 206.239883,383.034576 
	C230.864410,378.814240 252.836319,368.721497 271.680237,352.556824 
	C288.740295,337.922333 302.176788,320.317078 310.434296,299.096649 
	C315.634888,285.732056 319.734619,271.962341 319.837158,257.657501 
	C320.213379,205.179413 320.024170,152.696945 319.914886,100.216400 
	C319.907501,96.676308 319.115784,93.049240 318.148529,89.614792 
	C313.437744,72.887833 302.784424,61.340160 286.245117,54.086292 
M507.543518,271.000000 
	C518.626709,271.000000 529.709900,271.000000 540.630432,271.000000 
	C540.840759,269.870972 540.953918,269.546600 540.954163,269.222198 
	C540.975159,243.389221 541.034424,217.556107 540.954651,191.723419 
	C540.940979,187.289780 540.665222,182.801743 539.928040,178.437241 
	C538.470642,169.808929 534.735535,162.403839 527.521484,156.950455 
	C521.843201,152.658005 515.478821,150.695679 508.520020,149.712173 
	C495.588684,147.884521 483.200806,148.587219 472.159180,156.398636 
	C468.561066,158.944138 465.377838,162.076111 461.692841,165.204758 
	C452.455780,153.104797 439.958923,148.742508 425.115753,148.887054 
	C410.188660,149.032425 397.635345,153.669144 388.012848,165.904587 
	C386.223389,161.534088 384.735718,157.579010 382.957764,153.759048 
	C382.440521,152.647766 381.107910,151.156830 380.124817,151.138504 
	C369.863373,150.947128 359.597015,151.020493 349.426575,151.020493 
	C349.426575,191.397369 349.426575,231.107727 349.426575,270.668518 
	C363.782806,270.668518 377.710480,270.668518 392.000000,270.668518 
	C392.000000,252.367813 391.619293,234.384705 392.177521,216.430801 
	C392.418579,208.678070 394.100372,200.857025 396.043884,193.302734 
	C397.927063,185.983047 402.987122,182.871063 410.275909,183.000458 
	C416.969177,183.119293 419.743622,185.302673 422.020142,193.278503 
	C423.130493,197.168594 423.876099,201.303131 423.914093,205.335251 
	C424.102539,225.333389 424.000000,245.334259 424.000000,265.334167 
	C424.000000,267.101288 424.000000,268.868439 424.000000,270.588013 
	C438.708344,270.588013 452.754425,270.588013 467.000000,270.588013 
	C467.000000,249.850266 466.603546,229.511765 467.225952,209.204468 
	C467.429871,202.550430 469.808105,195.810181 472.074432,189.422424 
	C473.767487,184.650452 478.324280,183.230621 483.321899,182.921295 
	C488.676910,182.589828 492.933868,184.469025 495.247101,189.017334 
	C496.891266,192.250076 497.844116,196.188675 497.883270,199.825394 
	C498.118530,221.656082 498.000000,243.490601 498.000000,265.323822 
	C498.000000,267.091919 498.000000,268.859985 498.000000,271.000000 
	C501.279388,271.000000 503.918762,271.000000 507.543518,271.000000 
M1208.000000,234.500000 
	C1208.000000,227.001190 1207.479126,219.455261 1208.152100,212.017365 
	C1208.779053,205.087677 1210.260132,198.156158 1212.143188,191.443649 
	C1213.718506,185.827850 1219.039307,182.985886 1225.614868,183.000198 
	C1231.765747,183.013580 1235.700195,185.340851 1237.550171,191.301041 
	C1238.941162,195.782104 1239.835449,200.599487 1239.893921,205.280319 
	C1240.143311,225.274078 1240.000000,245.272720 1240.000000,265.269592 
	C1240.000000,267.042755 1240.000000,268.815948 1240.000000,270.613464 
	C1254.659302,270.613464 1268.703125,270.613464 1281.986450,270.613464 
	C1281.986450,240.472794 1282.486450,210.708771 1281.690063,180.979462 
	C1281.442627,171.742584 1277.301392,162.865738 1268.968506,156.964584 
	C1258.398682,149.479370 1246.412598,148.039902 1234.082153,149.105743 
	C1221.630371,150.182053 1210.926392,155.254364 1203.427124,165.604477 
	C1193.921387,153.264923 1181.528687,148.716492 1166.560547,148.877655 
	C1151.567383,149.039062 1138.853271,153.332687 1129.423706,165.832672 
	C1127.719238,161.749100 1126.210083,157.815506 1124.413574,154.017914 
	C1123.854248,152.835678 1122.534302,151.188614 1121.533081,151.167618 
	C1111.448486,150.956161 1101.357788,151.038879 1091.272705,151.038879 
	C1091.272705,191.336258 1091.272705,230.925430 1091.272705,270.646759 
	C1105.591187,270.646759 1119.634521,270.646759 1134.000000,270.646759 
	C1134.000000,268.485199 1134.000000,266.674774 1134.000000,264.864349 
	C1134.000000,246.200607 1133.791870,227.533371 1134.103760,208.874847 
	C1134.226440,201.539108 1135.231689,194.207184 1139.965698,187.940811 
	C1143.985229,182.620377 1155.682983,180.779068 1160.082520,186.423706 
	C1163.892212,191.311340 1164.849121,196.878708 1164.910156,202.555038 
	C1165.135986,223.549332 1165.000000,244.547501 1165.000000,265.544220 
	C1165.000000,267.290649 1165.000000,269.037109 1165.000000,270.693085 
	C1179.734741,270.693085 1193.661011,270.693085 1208.000000,270.693085 
	C1208.000000,258.760559 1208.000000,247.130280 1208.000000,234.500000 
M1306.989624,253.363449 
	C1310.529419,261.897552 1316.819336,267.768738 1325.331543,270.878265 
	C1332.745605,273.586670 1340.349609,274.328278 1348.489868,273.269043 
	C1357.338135,272.117645 1365.642700,270.346191 1372.539307,264.640320 
	C1375.643799,262.071777 1377.897095,258.474487 1381.066528,254.715530 
	C1383.964233,260.295410 1385.920166,264.264343 1388.089355,268.113037 
	C1388.726685,269.243835 1389.952393,270.833954 1390.937622,270.855164 
	C1400.526001,271.061554 1410.120728,270.979309 1419.634155,270.979309 
	C1419.822510,269.797333 1419.966187,269.315063 1419.966431,268.832672 
	C1419.984863,244.000992 1420.291138,219.163528 1419.811157,194.341263 
	C1419.671509,187.115585 1418.516968,179.400986 1415.684326,172.835175 
	C1408.381592,155.908096 1393.432983,149.993271 1376.233398,149.132614 
	C1367.667847,148.704010 1359.014893,149.424286 1350.433350,150.057480 
	C1338.306519,150.952286 1326.850830,154.419907 1315.631104,159.995087 
	C1319.427002,168.657562 1323.143433,177.008652 1326.735352,185.412964 
	C1327.844360,188.007706 1329.105835,188.020599 1331.746460,187.221420 
	C1340.937012,184.439758 1350.200439,181.768921 1359.595947,179.829620 
	C1369.522095,177.780792 1376.996094,183.727539 1376.451538,194.097656 
	C1372.092896,194.395844 1367.668823,195.039780 1363.263062,194.932892 
	C1352.143188,194.663086 1341.218262,195.870819 1330.606201,199.088104 
	C1323.053101,201.377975 1315.854736,204.722305 1310.974121,211.292999 
	C1301.406738,224.173111 1302.275635,238.222290 1306.989624,253.363449 
M1002.161560,179.984756 
	C1010.508484,177.747101 1022.634216,183.327896 1019.290771,194.194794 
	C1014.283752,194.455322 1009.031311,194.536667 1003.820129,195.042740 
	C995.011658,195.898178 986.038208,196.212387 977.482361,198.230362 
	C965.733398,201.001434 955.086182,206.309479 950.216858,218.584930 
	C946.489929,227.980423 946.023621,237.659042 948.814270,247.451996 
	C950.869690,254.664810 953.622742,261.454346 960.023865,265.992340 
	C973.472839,275.526794 988.233276,275.347290 1003.260193,271.227814 
	C1012.138184,268.794037 1019.401978,263.553284 1025.110718,255.415283 
	C1027.451050,260.003754 1029.423462,264.087585 1031.621460,268.046112 
	C1032.263550,269.202637 1033.529785,270.815704 1034.541504,270.838745 
	C1043.948364,271.052948 1053.362061,270.965454 1062.990845,270.965454 
	C1062.990845,241.917038 1063.405762,213.609787 1062.760376,185.326736 
	C1062.541382,175.736420 1058.159790,166.781586 1050.574585,160.338455 
	C1040.498657,151.779617 1028.395508,148.698578 1015.367981,149.028320 
	C1008.598694,149.199661 1001.697144,148.922989 995.103455,150.165466 
	C984.417847,152.178970 973.935547,155.272430 963.369507,157.918060 
	C959.586426,158.865295 959.488831,161.007050 960.989746,164.182068 
	C964.133545,170.832764 967.257568,177.516602 969.871521,184.384033 
	C971.194458,187.859848 972.408020,188.332291 975.954895,187.153580 
	C984.273438,184.389175 992.828796,182.337296 1002.161560,179.984756 
M661.941833,157.475922 
	C654.500793,152.221405 645.912231,149.675430 637.119934,149.162018 
	C617.078796,147.991760 597.358459,149.864899 578.555847,157.875519 
	C575.070679,159.360336 574.376587,160.626526 575.936768,163.994049 
	C579.165833,170.964005 582.076111,178.082565 585.068787,185.160614 
	C586.134827,187.681778 587.363403,188.347336 590.344604,187.411255 
	C599.955566,184.393448 609.651367,181.543411 619.471924,179.325531 
	C628.507690,177.284866 635.705383,184.380035 634.503845,194.074036 
	C630.732056,194.376266 626.834961,194.635498 622.949036,195.010239 
	C612.814880,195.987503 602.496948,196.133484 592.602722,198.249252 
	C580.599670,200.815948 569.981079,206.478745 565.041870,218.943542 
	C561.818909,227.077286 561.579895,235.594604 563.080017,244.061981 
	C565.051331,255.188522 569.977600,264.539642 580.913147,269.406647 
	C589.111938,273.055603 597.460999,274.317047 606.686707,273.319458 
	C616.324585,272.277313 624.968811,269.964722 632.414001,263.812622 
	C635.249634,261.469452 637.747742,258.717743 640.486755,256.067932 
	C642.567688,260.176025 644.481018,264.177490 646.625916,268.050659 
	C647.266296,269.206970 648.536743,270.816254 649.549927,270.839294 
	C658.959839,271.053253 668.376648,270.965820 677.996094,270.965820 
	C677.996094,242.049423 678.465820,213.889160 677.764709,185.758072 
	C677.484558,174.516586 672.442383,164.557785 661.941833,157.475922 
M853.061279,150.447693 
	C844.130798,152.974380 835.207764,155.528091 826.265930,158.013977 
	C822.861450,158.960464 822.350830,160.651062 823.897705,163.832703 
	C827.404602,171.045837 830.477966,178.469864 833.992371,185.679062 
	C834.491028,186.701889 836.668152,187.786957 837.731323,187.516739 
	C847.508240,185.031921 857.120667,181.842941 866.962585,179.688660 
	C875.286194,177.866745 885.604553,184.224335 882.334229,194.440125 
	C876.685730,194.618591 870.590881,194.343628 864.628052,195.104446 
	C854.599365,196.384003 844.420166,197.484512 834.734436,200.196533 
	C822.876587,203.516769 814.047607,211.240677 811.727295,223.962662 
	C810.552307,230.405090 810.424011,237.267563 811.180481,243.782410 
	C812.495972,255.110977 818.259033,263.905273 828.701538,269.319183 
	C839.351318,274.840576 850.583313,274.432983 861.843567,272.544861 
	C872.760132,270.714417 881.358643,264.719330 888.236694,255.632278 
	C890.545959,260.164185 892.521790,264.286713 894.753784,268.265564 
	C895.382263,269.385895 896.745239,270.836334 897.799255,270.859467 
	C907.063293,271.062622 916.333679,270.977142 926.000000,270.977142 
	C926.000000,268.583069 926.000000,266.784210 926.000000,264.985352 
	C926.000000,239.164429 926.061768,213.343292 925.968262,187.522720 
	C925.932983,177.766418 922.293518,169.222534 915.626953,162.226562 
	C907.004456,153.177917 895.701477,149.647308 883.672974,149.156876 
	C873.772827,148.753189 863.816406,149.727829 853.061279,150.447693 
M1548.500000,271.000000 
	C1555.749268,271.000000 1562.998657,271.000000 1571.136230,271.000000 
	C1566.340454,263.567657 1562.061401,256.850403 1557.696167,250.189606 
	C1549.985718,238.424164 1542.163940,226.731110 1534.532471,214.914993 
	C1533.027222,212.584396 1531.278076,210.235077 1533.485107,206.938675 
	C1543.129883,192.533295 1552.567749,177.988861 1562.011108,163.449677 
	C1564.517578,159.590912 1566.776611,155.571381 1569.524048,151.002274 
	C1553.294434,151.002274 1538.144287,150.932938 1522.997437,151.123581 
	C1521.673096,151.140259 1519.875732,152.575775 1519.136230,153.841812 
	C1513.538940,163.421921 1508.151123,173.124405 1502.446899,183.233841 
	C1501.423828,181.791473 1500.568848,180.803146 1499.953003,179.683273 
	C1495.295654,171.212357 1490.543457,162.788040 1486.151001,154.180740 
	C1484.907227,151.743500 1483.630127,150.893707 1480.950928,150.937180 
	C1471.126587,151.096542 1461.298218,151.000092 1451.471313,151.000000 
	C1446.406128,150.999954 1441.340942,151.000000 1435.721436,151.000000 
	C1436.513672,152.808853 1436.836792,153.908905 1437.426636,154.839890 
	C1448.454102,172.243637 1459.567139,189.593689 1470.462769,207.079330 
	C1471.333740,208.477005 1471.526855,211.256027 1470.714966,212.589325 
	C1464.933105,222.083969 1458.807861,231.369431 1452.791992,240.721649 
	C1446.470947,250.548752 1440.150391,260.376160 1433.317261,271.000000 
	C1448.514771,271.000000 1462.632080,270.710022 1476.726074,271.154480 
	C1481.779663,271.313843 1483.946655,269.141113 1486.032104,265.188721 
	C1491.045776,255.686646 1496.416992,246.373352 1502.008179,236.329773 
	C1503.168701,238.044647 1504.041626,239.149704 1504.718384,240.364029 
	C1509.578247,249.083725 1514.474365,257.784698 1519.192261,266.580994 
	C1521.052490,270.049377 1523.539673,271.309143 1527.518311,271.096771 
	C1534.161621,270.742188 1540.837769,271.000000 1548.500000,271.000000 
M740.500000,151.000000 
	C726.755554,151.000000 713.011047,151.000000 699.272949,151.000000 
	C699.272949,162.342209 699.272949,172.930313 699.272949,183.968842 
	C714.754272,183.968842 729.972168,183.968842 746.170532,183.968842 
	C743.417053,187.335266 741.239441,189.926590 739.138245,192.578506 
	C728.041382,206.584030 716.945251,220.590286 705.891357,234.629761 
	C702.864563,238.474121 698.181274,242.117935 697.428955,246.409622 
	C696.051819,254.265274 697.036865,262.535034 697.036865,270.621277 
	C731.009583,270.621277 764.368896,270.621277 797.724304,270.621277 
	C797.724304,259.652222 797.724304,249.064056 797.724304,238.027374 
	C781.574829,238.027374 765.692200,238.027374 748.884094,238.027374 
	C751.295593,234.869766 753.117188,232.427536 754.997864,230.031631 
	C765.423889,216.748611 775.913086,203.514771 786.272095,190.179672 
	C789.669312,185.806351 794.599976,181.534393 795.541931,176.589798 
	C797.091736,168.454193 795.962097,159.808167 795.962097,151.000000 
	C777.408020,151.000000 759.454041,151.000000 740.500000,151.000000 
z"/>
<path fill="#ED1D25" opacity="1.000000" stroke="none" 
	d="
M286.583801,54.278091 
	C302.784424,61.340160 313.437744,72.887833 318.148529,89.614792 
	C319.115784,93.049240 319.907501,96.676308 319.914886,100.216400 
	C320.024170,152.696945 320.213379,205.179413 319.837158,257.657501 
	C319.734619,271.962341 315.634888,285.732056 310.434296,299.096649 
	C302.176788,320.317078 288.740295,337.922333 271.680237,352.556824 
	C252.836319,368.721497 230.864410,378.814240 206.239883,383.034576 
	C187.262665,386.287018 168.102676,385.693237 149.140182,384.667725 
	C121.879532,383.193390 96.959831,373.475525 75.459213,356.583740 
	C48.987808,335.786713 31.281313,309.014038 25.136925,275.532867 
	C23.186016,264.902222 22.213711,253.953094 22.141243,243.140686 
	C21.826366,196.160019 21.918018,149.175705 22.073639,102.193428 
	C22.113476,90.167122 26.732811,79.707184 34.177624,70.229141 
	C41.951721,60.331882 52.245106,54.794010 64.009682,51.620300 
	C67.930038,50.562714 72.127342,50.105137 76.199097,50.099216 
	C139.342499,50.007355 202.486694,49.910847 265.628784,50.212742 
	C272.506927,50.245625 279.373291,52.735863 286.583801,54.278091 
M256.158997,240.499924 
	C256.158997,250.237015 256.158997,259.974121 256.158997,270.233398 
	C274.018066,252.288803 288.179993,147.216904 280.235413,120.523071 
	C268.049225,120.362236 255.450851,121.662590 244.799789,113.548050 
	C233.811874,105.176895 232.062729,92.734673 230.675980,80.110764 
	C213.106049,80.110764 195.868469,80.110764 178.396912,80.110764 
	C178.396912,172.107712 178.396912,263.817657 178.396912,356.646240 
	C185.554886,351.640259 191.972900,347.010132 198.544113,342.608734 
	C202.547623,339.927124 203.936890,336.490662 203.927856,331.658691 
	C203.800171,263.328674 203.848816,194.998383 203.827225,126.668167 
	C203.825333,120.674789 203.516815,114.679359 203.628510,108.690063 
	C203.648987,107.592995 204.840805,105.863609 205.803619,105.610176 
	C206.911819,105.318451 209.221024,106.016586 209.536118,106.844933 
	C212.270721,114.033913 217.168045,120.215942 217.134109,128.687943 
	C216.877121,192.850662 216.993622,257.014893 216.993637,321.178650 
	C216.993637,322.939362 216.993637,324.700043 216.993637,327.940887 
	C225.144852,317.789856 232.577759,308.924866 239.490036,299.671021 
	C241.402374,297.110901 242.688904,293.398254 242.702469,290.207764 
	C242.903351,243.044083 242.840988,195.879288 242.840988,148.714767 
	C242.840988,146.732178 242.840988,144.749588 242.840988,142.176956 
	C247.564804,143.372971 251.805298,144.446625 256.158997,145.548935 
	C256.158997,177.187744 256.158997,208.343826 256.158997,240.499924 
M163.005722,167.500000 
	C163.005722,138.391708 163.005722,109.283417 163.005722,80.163712 
	C145.223785,80.163712 127.994377,80.163712 110.601616,80.163712 
	C110.042709,84.067909 109.594543,87.681595 108.999802,91.270996 
	C106.155594,108.436584 94.902054,118.891663 77.624260,120.081642 
	C71.886726,120.476814 66.099045,120.143990 60.097084,120.143990 
	C59.677471,125.428833 59.195454,129.722763 59.018021,134.029266 
	C58.033279,157.930145 60.373753,181.617996 64.263802,205.140106 
	C67.411987,224.176300 71.182190,243.119598 78.971046,260.951416 
	C80.367310,264.148010 82.287537,267.115723 83.965843,270.189087 
	C84.367027,270.037109 84.768204,269.885101 85.169388,269.733093 
	C85.169388,228.321564 85.169388,186.910019 85.169388,145.440643 
	C89.675560,144.332199 93.772385,143.324463 98.482025,142.165985 
	C98.482025,144.939850 98.482018,146.909958 98.482018,148.880066 
	C98.482048,196.041122 98.419037,243.202438 98.622368,290.362610 
	C98.636086,293.545349 99.974426,297.222198 101.872749,299.804810 
	C107.983353,308.118225 114.672119,316.005249 121.058029,324.119598 
	C121.807899,325.072418 122.060753,326.416412 122.544006,327.579071 
	C123.087799,327.098114 123.631584,326.617126 124.175377,326.136139 
	C124.175377,324.310455 124.175377,322.484741 124.175377,320.659027 
	C124.175377,260.166229 124.326668,199.672684 124.033981,139.181305 
	C123.982140,128.466354 125.007523,118.444641 130.384079,108.970779 
	C132.360275,105.488564 134.121826,104.122047 137.485199,106.339447 
	C137.485199,111.019966 137.485229,115.507179 137.485199,119.994385 
	C137.484695,191.152573 137.470108,262.310791 137.555283,333.468872 
	C137.557709,335.497986 137.962555,338.354675 139.299164,339.416809 
	C146.743042,345.332275 154.532669,350.812592 163.005722,357.029968 
	C163.005722,293.147034 163.005722,230.823517 163.005722,167.500000 
z"/>
<path fill="#DB2827" opacity="1.000000" stroke="none" 
	d="
M507.050842,271.000000 
	C503.918762,271.000000 501.279388,271.000000 498.000000,271.000000 
	C498.000000,268.859985 498.000000,267.091919 498.000000,265.323822 
	C498.000000,243.490601 498.118530,221.656082 497.883270,199.825394 
	C497.844116,196.188675 496.891266,192.250076 495.247101,189.017334 
	C492.933868,184.469025 488.676910,182.589828 483.321899,182.921295 
	C478.324280,183.230621 473.767487,184.650452 472.074432,189.422424 
	C469.808105,195.810181 467.429871,202.550430 467.225952,209.204468 
	C466.603546,229.511765 467.000000,249.850266 467.000000,270.588013 
	C452.754425,270.588013 438.708344,270.588013 424.000000,270.588013 
	C424.000000,268.868439 424.000000,267.101288 424.000000,265.334167 
	C424.000000,245.334259 424.102539,225.333389 423.914093,205.335251 
	C423.876099,201.303131 423.130493,197.168594 422.020142,193.278503 
	C419.743622,185.302673 416.969177,183.119293 410.275909,183.000458 
	C402.987122,182.871063 397.927063,185.983047 396.043884,193.302734 
	C394.100372,200.857025 392.418579,208.678070 392.177521,216.430801 
	C391.619293,234.384705 392.000000,252.367813 392.000000,270.668518 
	C377.710480,270.668518 363.782806,270.668518 349.426575,270.668518 
	C349.426575,231.107727 349.426575,191.397369 349.426575,151.020493 
	C359.597015,151.020493 369.863373,150.947128 380.124817,151.138504 
	C381.107910,151.156830 382.440521,152.647766 382.957764,153.759048 
	C384.735718,157.579010 386.223389,161.534088 388.012848,165.904587 
	C397.635345,153.669144 410.188660,149.032425 425.115753,148.887054 
	C439.958923,148.742508 452.455780,153.104797 461.692841,165.204758 
	C465.377838,162.076111 468.561066,158.944138 472.159180,156.398636 
	C483.200806,148.587219 495.588684,147.884521 508.520020,149.712173 
	C515.478821,150.695679 521.843201,152.658005 527.521484,156.950455 
	C534.735535,162.403839 538.470642,169.808929 539.928040,178.437241 
	C540.665222,182.801743 540.940979,187.289780 540.954651,191.723419 
	C541.034424,217.556107 540.975159,243.389221 540.954163,269.222198 
	C540.953918,269.546600 540.840759,269.870972 540.630432,271.000000 
	C529.709900,271.000000 518.626709,271.000000 507.050842,271.000000 
z"/>
<path fill="#DB2827" opacity="1.000000" stroke="none" 
	d="
M1208.000000,235.000000 
	C1208.000000,247.130280 1208.000000,258.760559 1208.000000,270.693085 
	C1193.661011,270.693085 1179.734741,270.693085 1165.000000,270.693085 
	C1165.000000,269.037109 1165.000000,267.290649 1165.000000,265.544220 
	C1165.000000,244.547501 1165.135986,223.549332 1164.910156,202.555038 
	C1164.849121,196.878708 1163.892212,191.311340 1160.082520,186.423706 
	C1155.682983,180.779068 1143.985229,182.620377 1139.965698,187.940811 
	C1135.231689,194.207184 1134.226440,201.539108 1134.103760,208.874847 
	C1133.791870,227.533371 1134.000000,246.200607 1134.000000,264.864349 
	C1134.000000,266.674774 1134.000000,268.485199 1134.000000,270.646759 
	C1119.634521,270.646759 1105.591187,270.646759 1091.272705,270.646759 
	C1091.272705,230.925430 1091.272705,191.336258 1091.272705,151.038879 
	C1101.357788,151.038879 1111.448486,150.956161 1121.533081,151.167618 
	C1122.534302,151.188614 1123.854248,152.835678 1124.413574,154.017914 
	C1126.210083,157.815506 1127.719238,161.749100 1129.423706,165.832672 
	C1138.853271,153.332687 1151.567383,149.039062 1166.560547,148.877655 
	C1181.528687,148.716492 1193.921387,153.264923 1203.427124,165.604477 
	C1210.926392,155.254364 1221.630371,150.182053 1234.082153,149.105743 
	C1246.412598,148.039902 1258.398682,149.479370 1268.968506,156.964584 
	C1277.301392,162.865738 1281.442627,171.742584 1281.690063,180.979462 
	C1282.486450,210.708771 1281.986450,240.472794 1281.986450,270.613464 
	C1268.703125,270.613464 1254.659302,270.613464 1240.000000,270.613464 
	C1240.000000,268.815948 1240.000000,267.042755 1240.000000,265.269592 
	C1240.000000,245.272720 1240.143311,225.274078 1239.893921,205.280319 
	C1239.835449,200.599487 1238.941162,195.782104 1237.550171,191.301041 
	C1235.700195,185.340851 1231.765747,183.013580 1225.614868,183.000198 
	C1219.039307,182.985886 1213.718506,185.827850 1212.143188,191.443649 
	C1210.260132,198.156158 1208.779053,205.087677 1208.152100,212.017365 
	C1207.479126,219.455261 1208.000000,227.001190 1208.000000,235.000000 
z"/>
<path fill="#DB2827" opacity="1.000000" stroke="none" 
	d="
M1306.934326,252.970932 
	C1302.275635,238.222290 1301.406738,224.173111 1310.974121,211.292999 
	C1315.854736,204.722305 1323.053101,201.377975 1330.606201,199.088104 
	C1341.218262,195.870819 1352.143188,194.663086 1363.263062,194.932892 
	C1367.668823,195.039780 1372.092896,194.395844 1376.451538,194.097656 
	C1376.996094,183.727539 1369.522095,177.780792 1359.595947,179.829620 
	C1350.200439,181.768921 1340.937012,184.439758 1331.746460,187.221420 
	C1329.105835,188.020599 1327.844360,188.007706 1326.735352,185.412964 
	C1323.143433,177.008652 1319.427002,168.657562 1315.631104,159.995087 
	C1326.850830,154.419907 1338.306519,150.952286 1350.433350,150.057480 
	C1359.014893,149.424286 1367.667847,148.704010 1376.233398,149.132614 
	C1393.432983,149.993271 1408.381592,155.908096 1415.684326,172.835175 
	C1418.516968,179.400986 1419.671509,187.115585 1419.811157,194.341263 
	C1420.291138,219.163528 1419.984863,244.000992 1419.966431,268.832672 
	C1419.966187,269.315063 1419.822510,269.797333 1419.634155,270.979309 
	C1410.120728,270.979309 1400.526001,271.061554 1390.937622,270.855164 
	C1389.952393,270.833954 1388.726685,269.243835 1388.089355,268.113037 
	C1385.920166,264.264343 1383.964233,260.295410 1381.066528,254.715530 
	C1377.897095,258.474487 1375.643799,262.071777 1372.539307,264.640320 
	C1365.642700,270.346191 1357.338135,272.117645 1348.489868,273.269043 
	C1340.349609,274.328278 1332.745605,273.586670 1325.331543,270.878265 
	C1316.819336,267.768738 1310.529419,261.897552 1306.934326,252.970932 
M1352.543945,241.134277 
	C1359.034790,245.196136 1364.966675,242.714462 1370.326782,239.005676 
	C1377.742798,233.874130 1377.671875,226.150391 1376.712769,219.000000 
	C1373.234863,219.000000 1370.146729,218.868240 1367.075073,219.036942 
	C1363.985107,219.206650 1360.856689,219.419998 1357.843018,220.068970 
	C1352.490845,221.221497 1348.663696,224.270279 1347.558716,229.926773 
	C1346.679077,234.430435 1347.756592,238.270859 1352.543945,241.134277 
z"/>
<path fill="#DB2827" opacity="1.000000" stroke="none" 
	d="
M1001.724915,179.990875 
	C992.828796,182.337296 984.273438,184.389175 975.954895,187.153580 
	C972.408020,188.332291 971.194458,187.859848 969.871521,184.384033 
	C967.257568,177.516602 964.133545,170.832764 960.989746,164.182068 
	C959.488831,161.007050 959.586426,158.865295 963.369507,157.918060 
	C973.935547,155.272430 984.417847,152.178970 995.103455,150.165466 
	C1001.697144,148.922989 1008.598694,149.199661 1015.367981,149.028320 
	C1028.395508,148.698578 1040.498657,151.779617 1050.574585,160.338455 
	C1058.159790,166.781586 1062.541382,175.736420 1062.760376,185.326736 
	C1063.405762,213.609787 1062.990845,241.917038 1062.990845,270.965454 
	C1053.362061,270.965454 1043.948364,271.052948 1034.541504,270.838745 
	C1033.529785,270.815704 1032.263550,269.202637 1031.621460,268.046112 
	C1029.423462,264.087585 1027.451050,260.003754 1025.110718,255.415283 
	C1019.401978,263.553284 1012.138184,268.794037 1003.260193,271.227814 
	C988.233276,275.347290 973.472839,275.526794 960.023865,265.992340 
	C953.622742,261.454346 950.869690,254.664810 948.814270,247.451996 
	C946.023621,237.659042 946.489929,227.980423 950.216858,218.584930 
	C955.086182,206.309479 965.733398,201.001434 977.482361,198.230362 
	C986.038208,196.212387 995.011658,195.898178 1003.820129,195.042740 
	C1009.031311,194.536667 1014.283752,194.455322 1019.290771,194.194794 
	C1022.634216,183.327896 1010.508484,177.747101 1001.724915,179.990875 
M998.755371,220.981018 
	C996.491638,223.022079 993.675659,224.707153 992.081604,227.179977 
	C988.982056,231.988281 991.610168,239.490204 996.679504,241.826462 
	C1004.868713,245.600555 1017.395752,240.352829 1019.588379,231.593964 
	C1020.624207,227.456161 1019.766052,222.844208 1019.766052,218.076523 
	C1012.771973,219.035141 1006.158813,219.941544 998.755371,220.981018 
z"/>
<path fill="#DB2827" opacity="1.000000" stroke="none" 
	d="
M662.207520,157.728302 
	C672.442383,164.557785 677.484558,174.516586 677.764709,185.758072 
	C678.465820,213.889160 677.996094,242.049423 677.996094,270.965820 
	C668.376648,270.965820 658.959839,271.053253 649.549927,270.839294 
	C648.536743,270.816254 647.266296,269.206970 646.625916,268.050659 
	C644.481018,264.177490 642.567688,260.176025 640.486755,256.067932 
	C637.747742,258.717743 635.249634,261.469452 632.414001,263.812622 
	C624.968811,269.964722 616.324585,272.277313 606.686707,273.319458 
	C597.460999,274.317047 589.111938,273.055603 580.913147,269.406647 
	C569.977600,264.539642 565.051331,255.188522 563.080017,244.061981 
	C561.579895,235.594604 561.818909,227.077286 565.041870,218.943542 
	C569.981079,206.478745 580.599670,200.815948 592.602722,198.249252 
	C602.496948,196.133484 612.814880,195.987503 622.949036,195.010239 
	C626.834961,194.635498 630.732056,194.376266 634.503845,194.074036 
	C635.705383,184.380035 628.507690,177.284866 619.471924,179.325531 
	C609.651367,181.543411 599.955566,184.393448 590.344604,187.411255 
	C587.363403,188.347336 586.134827,187.681778 585.068787,185.160614 
	C582.076111,178.082565 579.165833,170.964005 575.936768,163.994049 
	C574.376587,160.626526 575.070679,159.360336 578.555847,157.875519 
	C597.358459,149.864899 617.078796,147.991760 637.119934,149.162018 
	C645.912231,149.675430 654.500793,152.221405 662.207520,157.728302 
M624.052856,241.937210 
	C633.985779,238.952927 637.415588,227.603622 635.478577,219.000961 
	C631.051941,219.000961 626.785217,218.787094 622.548462,219.051468 
	C616.309387,219.440750 610.271484,221.032394 607.192871,227.036621 
	C605.228699,230.867325 604.941467,235.226761 608.403625,238.954224 
	C612.668213,243.545502 617.694641,243.902100 624.052856,241.937210 
z"/>
<path fill="#DB2827" opacity="1.000000" stroke="none" 
	d="
M853.473145,150.269653 
	C863.816406,149.727829 873.772827,148.753189 883.672974,149.156876 
	C895.701477,149.647308 907.004456,153.177917 915.626953,162.226562 
	C922.293518,169.222534 925.932983,177.766418 925.968262,187.522720 
	C926.061768,213.343292 926.000000,239.164429 926.000000,264.985352 
	C926.000000,266.784210 926.000000,268.583069 926.000000,270.977142 
	C916.333679,270.977142 907.063293,271.062622 897.799255,270.859467 
	C896.745239,270.836334 895.382263,269.385895 894.753784,268.265564 
	C892.521790,264.286713 890.545959,260.164185 888.236694,255.632278 
	C881.358643,264.719330 872.760132,270.714417 861.843567,272.544861 
	C850.583313,274.432983 839.351318,274.840576 828.701538,269.319183 
	C818.259033,263.905273 812.495972,255.110977 811.180481,243.782410 
	C810.424011,237.267563 810.552307,230.405090 811.727295,223.962662 
	C814.047607,211.240677 822.876587,203.516769 834.734436,200.196533 
	C844.420166,197.484512 854.599365,196.384003 864.628052,195.104446 
	C870.590881,194.343628 876.685730,194.618591 882.334229,194.440125 
	C885.604553,184.224335 875.286194,177.866745 866.962585,179.688660 
	C857.120667,181.842941 847.508240,185.031921 837.731323,187.516739 
	C836.668152,187.786957 834.491028,186.701889 833.992371,185.679062 
	C830.477966,178.469864 827.404602,171.045837 823.897705,163.832703 
	C822.350830,160.651062 822.861450,158.960464 826.265930,158.013977 
	C835.207764,155.528091 844.130798,152.974380 853.473145,150.269653 
M868.963806,219.012939 
	C867.377319,219.358353 865.774536,219.642502 864.207153,220.059677 
	C857.112122,221.948181 852.613892,228.664581 854.328186,234.753937 
	C856.256653,241.604141 862.683044,244.376144 870.421448,242.245468 
	C881.148010,239.292038 885.619751,231.234253 883.643799,219.002487 
	C878.986206,219.002487 874.429077,219.002487 868.963806,219.012939 
z"/>
<path fill="#DB2827" opacity="1.000000" stroke="none" 
	d="
M1548.000000,271.000000 
	C1540.837769,271.000000 1534.161621,270.742188 1527.518311,271.096771 
	C1523.539673,271.309143 1521.052490,270.049377 1519.192261,266.580994 
	C1514.474365,257.784698 1509.578247,249.083725 1504.718384,240.364029 
	C1504.041626,239.149704 1503.168701,238.044647 1502.008179,236.329773 
	C1496.416992,246.373352 1491.045776,255.686646 1486.032104,265.188721 
	C1483.946655,269.141113 1481.779663,271.313843 1476.726074,271.154480 
	C1462.632080,270.710022 1448.514771,271.000000 1433.317261,271.000000 
	C1440.150391,260.376160 1446.470947,250.548752 1452.791992,240.721649 
	C1458.807861,231.369431 1464.933105,222.083969 1470.714966,212.589325 
	C1471.526855,211.256027 1471.333740,208.477005 1470.462769,207.079330 
	C1459.567139,189.593689 1448.454102,172.243637 1437.426636,154.839890 
	C1436.836792,153.908905 1436.513672,152.808853 1435.721436,151.000000 
	C1441.340942,151.000000 1446.406128,150.999954 1451.471313,151.000000 
	C1461.298218,151.000092 1471.126587,151.096542 1480.950928,150.937180 
	C1483.630127,150.893707 1484.907227,151.743500 1486.151001,154.180740 
	C1490.543457,162.788040 1495.295654,171.212357 1499.953003,179.683273 
	C1500.568848,180.803146 1501.423828,181.791473 1502.446899,183.233841 
	C1508.151123,173.124405 1513.538940,163.421921 1519.136230,153.841812 
	C1519.875732,152.575775 1521.673096,151.140259 1522.997437,151.123581 
	C1538.144287,150.932938 1553.294434,151.002274 1569.524048,151.002274 
	C1566.776611,155.571381 1564.517578,159.590912 1562.011108,163.449677 
	C1552.567749,177.988861 1543.129883,192.533295 1533.485107,206.938675 
	C1531.278076,210.235077 1533.027222,212.584396 1534.532471,214.914993 
	C1542.163940,226.731110 1549.985718,238.424164 1557.696167,250.189606 
	C1562.061401,256.850403 1566.340454,263.567657 1571.136230,271.000000 
	C1562.998657,271.000000 1555.749268,271.000000 1548.000000,271.000000 
z"/>
<path fill="#DB2827" opacity="1.000000" stroke="none" 
	d="
M741.000000,151.000000 
	C759.454041,151.000000 777.408020,151.000000 795.962097,151.000000 
	C795.962097,159.808167 797.091736,168.454193 795.541931,176.589798 
	C794.599976,181.534393 789.669312,185.806351 786.272095,190.179672 
	C775.913086,203.514771 765.423889,216.748611 754.997864,230.031631 
	C753.117188,232.427536 751.295593,234.869766 748.884094,238.027374 
	C765.692200,238.027374 781.574829,238.027374 797.724304,238.027374 
	C797.724304,249.064056 797.724304,259.652222 797.724304,270.621277 
	C764.368896,270.621277 731.009583,270.621277 697.036865,270.621277 
	C697.036865,262.535034 696.051819,254.265274 697.428955,246.409622 
	C698.181274,242.117935 702.864563,238.474121 705.891357,234.629761 
	C716.945251,220.590286 728.041382,206.584030 739.138245,192.578506 
	C741.239441,189.926590 743.417053,187.335266 746.170532,183.968842 
	C729.972168,183.968842 714.754272,183.968842 699.272949,183.968842 
	C699.272949,172.930313 699.272949,162.342209 699.272949,151.000000 
	C713.011047,151.000000 726.755554,151.000000 741.000000,151.000000 
z"/>
<path fill="#FFFBFC" opacity="1.000000" stroke="none" 
	d="
M256.158997,239.999908 
	C256.158997,208.343826 256.158997,177.187744 256.158997,145.548935 
	C251.805298,144.446625 247.564804,143.372971 242.840988,142.176956 
	C242.840988,144.749588 242.840988,146.732178 242.840988,148.714767 
	C242.840988,195.879288 242.903351,243.044083 242.702469,290.207764 
	C242.688904,293.398254 241.402374,297.110901 239.490036,299.671021 
	C232.577759,308.924866 225.144852,317.789856 216.993637,327.940887 
	C216.993637,324.700043 216.993637,322.939362 216.993637,321.178650 
	C216.993622,257.014893 216.877121,192.850662 217.134109,128.687943 
	C217.168045,120.215942 212.270721,114.033913 209.536118,106.844933 
	C209.221024,106.016586 206.911819,105.318451 205.803619,105.610176 
	C204.840805,105.863609 203.648987,107.592995 203.628510,108.690063 
	C203.516815,114.679359 203.825333,120.674789 203.827225,126.668167 
	C203.848816,194.998383 203.800171,263.328674 203.927856,331.658691 
	C203.936890,336.490662 202.547623,339.927124 198.544113,342.608734 
	C191.972900,347.010132 185.554886,351.640259 178.396912,356.646240 
	C178.396912,263.817657 178.396912,172.107712 178.396912,80.110764 
	C195.868469,80.110764 213.106049,80.110764 230.675980,80.110764 
	C232.062729,92.734673 233.811874,105.176895 244.799789,113.548050 
	C255.450851,121.662590 268.049225,120.362236 280.235413,120.523071 
	C288.179993,147.216904 274.018066,252.288803 256.158997,270.233398 
	C256.158997,259.974121 256.158997,250.237015 256.158997,239.999908 
z"/>
<path fill="#FFFCFC" opacity="1.000000" stroke="none" 
	d="
M163.005722,168.000000 
	C163.005722,230.823517 163.005722,293.147034 163.005722,357.029968 
	C154.532669,350.812592 146.743042,345.332275 139.299164,339.416809 
	C137.962555,338.354675 137.557709,335.497986 137.555283,333.468872 
	C137.470108,262.310791 137.484695,191.152573 137.485199,119.994385 
	C137.485229,115.507179 137.485199,111.019966 137.485199,106.339447 
	C134.121826,104.122047 132.360275,105.488564 130.384079,108.970779 
	C125.007523,118.444641 123.982140,128.466354 124.033981,139.181305 
	C124.326668,199.672684 124.175377,260.166229 124.175377,320.659027 
	C124.175377,322.484741 124.175377,324.310455 124.175377,326.136139 
	C123.631584,326.617126 123.087799,327.098114 122.544006,327.579071 
	C122.060753,326.416412 121.807899,325.072418 121.058029,324.119598 
	C114.672119,316.005249 107.983353,308.118225 101.872749,299.804810 
	C99.974426,297.222198 98.636086,293.545349 98.622368,290.362610 
	C98.419037,243.202438 98.482048,196.041122 98.482018,148.880066 
	C98.482018,146.909958 98.482025,144.939850 98.482025,142.165985 
	C93.772385,143.324463 89.675560,144.332199 85.169388,145.440643 
	C85.169388,186.910019 85.169388,228.321564 85.169388,269.733093 
	C84.768204,269.885101 84.367027,270.037109 83.965843,270.189087 
	C82.287537,267.115723 80.367310,264.148010 78.971046,260.951416 
	C71.182190,243.119598 67.411987,224.176300 64.263802,205.140106 
	C60.373753,181.617996 58.033279,157.930145 59.018021,134.029266 
	C59.195454,129.722763 59.677471,125.428833 60.097084,120.143990 
	C66.099045,120.143990 71.886726,120.476814 77.624260,120.081642 
	C94.902054,118.891663 106.155594,108.436584 108.999802,91.270996 
	C109.594543,87.681595 110.042709,84.067909 110.601616,80.163712 
	C127.994377,80.163712 145.223785,80.163712 163.005722,80.163712 
	C163.005722,109.283417 163.005722,138.391708 163.005722,168.000000 
z"/>
<path fill="#FFFFFF" opacity="1.000000" stroke="none" 
	d="
M1352.161621,241.036224 
	C1347.756592,238.270859 1346.679077,234.430435 1347.558716,229.926773 
	C1348.663696,224.270279 1352.490845,221.221497 1357.843018,220.068970 
	C1360.856689,219.419998 1363.985107,219.206650 1367.075073,219.036942 
	C1370.146729,218.868240 1373.234863,219.000000 1376.712769,219.000000 
	C1377.671875,226.150391 1377.742798,233.874130 1370.326782,239.005676 
	C1364.966675,242.714462 1359.034790,245.196136 1352.161621,241.036224 
z"/>
<path fill="#FFFFFF" opacity="1.000000" stroke="none" 
	d="
M999.150513,220.914490 
	C1006.158813,219.941544 1012.771973,219.035141 1019.766052,218.076523 
	C1019.766052,222.844208 1020.624207,227.456161 1019.588379,231.593964 
	C1017.395752,240.352829 1004.868713,245.600555 996.679504,241.826462 
	C991.610168,239.490204 988.982056,231.988281 992.081604,227.179977 
	C993.675659,224.707153 996.491638,223.022079 999.150513,220.914490 
z"/>
<path fill="#FFFFFF" opacity="1.000000" stroke="none" 
	d="
M623.645996,241.979340 
	C617.694641,243.902100 612.668213,243.545502 608.403625,238.954224 
	C604.941467,235.226761 605.228699,230.867325 607.192871,227.036621 
	C610.271484,221.032394 616.309387,219.440750 622.548462,219.051468 
	C626.785217,218.787094 631.051941,219.000961 635.478577,219.000961 
	C637.415588,227.603622 633.985779,238.952927 623.645996,241.979340 
z"/>
<path fill="#FFFFFF" opacity="1.000000" stroke="none" 
	d="
M869.417847,219.007721 
	C874.429077,219.002487 878.986206,219.002487 883.643799,219.002487 
	C885.619751,231.234253 881.148010,239.292038 870.421448,242.245468 
	C862.683044,244.376144 856.256653,241.604141 854.328186,234.753937 
	C852.613892,228.664581 857.112122,221.948181 864.207153,220.059677 
	C865.774536,219.642502 867.377319,219.358353 869.417847,219.007721 
z"/>
</svg>