<?xml version="1.0" encoding="UTF-8" standalone="no"?>
<!-- Created with Inkscape (http://www.inkscape.org/) -->

<svg
   version="1.1"
   id="svg2"
   width="5333.3335"
   height="5333.3335"
   viewBox="0 0 5333.3335 5333.3335"
   sodipodi:docname="final logo mobile icon.ai"
   xmlns:inkscape="http://www.inkscape.org/namespaces/inkscape"
   xmlns:sodipodi="http://sodipodi.sourceforge.net/DTD/sodipodi-0.dtd"
   xmlns="http://www.w3.org/2000/svg"
   xmlns:svg="http://www.w3.org/2000/svg">
  <defs
     id="defs6">
    <clipPath
       clipPathUnits="userSpaceOnUse"
       id="clipPath16">
      <path
         d="M 0,4000 H 4000 V 0 H 0 Z"
         id="path14" />
    </clipPath>
    <clipPath
       clipPathUnits="userSpaceOnUse"
       id="clipPath102">
      <path
         d="M 0,4000 H 4000 V 0 H 0 Z"
         id="path100" />
    </clipPath>
  </defs>
  <sodipodi:namedview
     id="namedview4"
     pagecolor="#ffffff"
     bordercolor="#000000"
     borderopacity="0.25"
     inkscape:showpageshadow="2"
     inkscape:pageopacity="0.0"
     inkscape:pagecheckerboard="0"
     inkscape:deskcolor="#d1d1d1" />
  <g
     id="g8"
     inkscape:groupmode="layer"
     inkscape:label="final logo mobile icon"
     transform="matrix(1.3333333,0,0,-1.3333333,0,5333.3333)">
    <g
       id="g10">
      <g
         id="g12"
         clip-path="url(#clipPath16)">
        <g
           id="g18"
           transform="translate(1893.5813,2976.5642)">
          <path
             d="m 0,0 c -1.517,-53.14 -3.074,-105.64 -4.478,-158.146 -0.417,-15.589 -1.091,-31.268 2.078,-46.608 1.24,-6.001 2.978,-11.896 4.913,-17.633 1.321,-3.915 3.575,-7.406 7.611,-7.35 4.711,0.065 6.828,4.455 8.025,8.872 1.461,5.391 2.552,11.087 2.882,16.729 1.123,19.195 2.241,38.413 2.625,57.644 0.737,36.921 1.007,73.857 1.405,110.787 0.622,57.739 1.046,115.482 1.851,173.217 0.319,22.876 1.334,45.756 4.703,68.346 0.833,5.591 2.07,11.166 3.737,16.469 0.649,2.064 2.912,4.475 4.6,4.665 1.516,0.171 3.743,-2.099 4.772,-3.989 1.378,-2.528 2.266,-5.648 2.717,-8.654 0.918,-6.124 1.754,-12.321 2.008,-18.525 1.212,-29.614 2.288,-59.237 3.28,-88.863 1.376,-41.057 2.805,-82.113 3.9,-123.182 1.496,-56.153 2.675,-112.318 4.055,-168.475 0.242,-9.877 0.601,-19.762 1.275,-29.606 0.713,-10.402 5.898,-15.635 14.619,-15.445 8.1,0.176 13.23,5.369 14.163,14.7 0.412,4.121 0.379,8.309 0.488,12.469 1.691,64.989 3.363,129.98 5.06,194.969 1.086,41.595 1.961,83.201 3.394,124.778 1.039,30.134 2.684,60.242 4.436,90.331 0.322,5.527 2.074,11.091 3.868,16.288 1.501,4.35 6.67,4.385 8.268,0.203 1.608,-4.207 3.175,-8.681 3.673,-13.211 1.87,-16.992 3.953,-34.012 4.724,-51.102 1.007,-22.324 0.923,-44.723 1.169,-67.092 0.829,-75.424 1.475,-150.851 2.466,-226.271 0.273,-20.795 1.399,-41.58 2.357,-62.354 0.286,-6.21 1.233,-12.388 2.072,-18.543 0.344,-2.527 1.014,-5.051 1.869,-7.401 1.415,-3.892 3.268,-7.63 7.316,-7.821 4.028,-0.19 6.191,3.315 7.897,7.025 4.273,9.295 6.122,19.501 6.481,29.939 0.448,12.984 0.511,26.012 0.221,39.005 -1.336,59.795 -2.85,119.584 -4.306,179.376 -1.241,50.989 -0.668,101.95 1.914,152.865 0.473,9.327 1.559,18.636 2.803,27.867 0.614,4.555 1.985,9.044 3.531,13.291 0.534,1.467 2.556,2.599 4.048,2.944 0.866,0.2 2.515,-1.19 2.975,-2.345 1.67,-4.194 3.453,-8.455 4.356,-12.935 3.661,-18.172 7.441,-36.335 10.388,-54.685 6.805,-42.381 11.378,-85.178 16.132,-127.954 3.95,-35.54 9.485,-70.823 13.837,-106.304 5.109,-41.653 9.714,-83.395 14.508,-125.102 3.915,-34.059 5.55,-68.353 6.126,-102.666 0.488,-29.111 -0.555,-58.201 -5.553,-86.916 -5.267,-30.257 -16.498,-56.885 -33.412,-79.911 -8.864,-12.066 -18.766,-23.026 -28.114,-34.584 -9.649,-11.931 -19.667,-23.494 -28.692,-36.079 -21.327,-29.74 -31.653,-65.047 -35.552,-103.666 -2.942,-29.135 -1.359,-58.199 -0.396,-87.277 1.894,-57.173 4.023,-114.335 6.327,-171.487 2.43,-60.269 5.075,-120.528 7.814,-180.779 2.478,-54.534 5.201,-109.052 7.831,-163.576 2.553,-52.966 5.138,-105.93 7.685,-158.897 3.522,-73.219 6.814,-146.455 10.612,-219.653 2.129,-41.023 4.795,-82.011 4.09,-123.146 -0.482,-28.096 -1.695,-56.206 -7.408,-83.598 -2.404,-11.523 -5.502,-23.047 -9.685,-33.781 -9.664,-24.793 -25.86,-39.282 -48.854,-43.357 -14.494,-2.569 -28.444,-1.309 -42.335,3.36 -15.344,5.158 -26.688,16.581 -34.837,32.857 -5.865,11.712 -9.537,24.438 -12.119,37.655 -4.174,21.372 -5.696,43.109 -5.993,65.003 -0.592,43.745 1.189,87.34 4.943,130.867 2.454,28.444 4.06,56.994 6.077,85.494 2.274,32.129 4.61,64.251 6.87,96.382 2.115,30.056 4.132,60.123 6.256,90.179 2.196,31.092 4.48,62.175 6.703,93.264 2.038,28.5 4.043,57.003 6.069,85.504 2.357,33.163 4.77,66.32 7.069,99.488 2.048,29.542 3.998,59.095 5.948,88.647 2.36,35.773 4.683,71.55 7.009,107.326 1.078,16.593 2.186,33.183 3.178,49.784 2.481,41.501 5.185,82.987 7.249,124.518 1.341,26.998 1.66,54.004 -1.368,81.006 -4.595,40.963 -17.769,76.939 -41.411,107.077 -8.608,10.972 -17.93,21.13 -26.63,32.001 -10.192,12.736 -20.714,25.211 -29.927,38.929 -16.985,25.292 -26.116,54.849 -29.627,86.949 -4.365,39.919 -3.874,79.962 -1.006,119.926 2.452,34.181 5.497,68.323 9.094,102.357 3.159,29.899 7.493,59.618 11.227,89.431 4.958,39.578 9.932,79.153 14.726,118.759 5.79,47.842 11.147,95.777 20.714,142.813 1.836,9.025 4.717,17.765 7.457,26.482 0.437,1.39 2.62,2.485 4.104,2.717 0.889,0.139 2.515,-1.422 2.898,-2.634 1.369,-4.343 2.983,-8.785 3.37,-13.328 1.803,-21.196 4.274,-42.417 4.574,-63.668 C 0.465,95.103 0,47.228 0,0"
             style="fill:#ffffff;fill-opacity:1;fill-rule:nonzero;stroke:none"
             id="path20" />
        </g>
        <g
           id="g22"
           transform="translate(2180.0791,3065.2573)">
          <path
             d="m 0,0 v -1867.796 c 30.446,19.995 56.663,36.329 81.932,54.046 25.513,17.889 50.819,36.249 74.62,56.329 7.3,6.153 13.223,18.636 13.248,28.235 0.667,350.263 0.698,700.525 0.522,1050.793 -0.085,161.2 -0.789,322.401 -1.208,483.601 -0.018,7.022 -0.006,14.038 -0.006,20.619 36.703,8.283 38.493,7.2 51.431,-24.605 5.887,-14.46 10.711,-29.967 19.535,-42.475 18.631,-26.429 22.005,-54.927 21.956,-86.492 -0.704,-434.435 -0.485,-868.863 -0.491,-1303.298 v -22.672 c 0,-1.787 0.019,-3.573 0.079,-5.357 0.12,-3.572 -0.502,-15.256 1.224,-13.118 7.76,9.612 6.432,8.016 7.818,9.57 52.773,65.659 105.855,131.073 157.844,197.351 5.292,6.746 5.571,18.727 5.584,28.284 0.266,329.575 0.218,659.151 0.218,988.727 v 29.802 c 31.326,-8.081 61.026,-15.734 92.813,-23.931 v -847.375 c 109.108,127.18 207.274,736.529 165.564,1015.671 -36.496,0 -72.92,-1.941 -109.083,0.349 -124.364,7.885 -200.689,77.732 -221.656,201.342 -4.017,23.681 -6.39,47.648 -9.643,72.4 z"
             style="fill:#ffffff;fill-opacity:1;fill-rule:nonzero;stroke:none"
             id="path24" />
        </g>
        <g
           id="g26"
           transform="translate(1759.4135,3065.2573)">
          <path
             d="m 0,0 v -1867.796 c -30.446,19.995 -56.663,36.329 -81.932,54.046 -25.513,17.889 -50.819,36.249 -74.62,56.329 -7.3,6.153 -13.223,18.636 -13.248,28.235 -0.667,350.263 -0.698,700.525 -0.522,1050.793 0.085,161.2 0.789,322.401 1.208,483.601 0.018,7.022 0.006,14.038 0.006,20.619 -36.703,8.283 -38.493,7.2 -51.431,-24.605 -5.887,-14.46 -10.711,-29.967 -19.535,-42.475 -18.631,-26.429 -22.005,-54.927 -21.956,-86.492 0.704,-434.435 0.485,-868.863 0.491,-1303.298 v -22.672 c 0,-1.787 -0.019,-3.573 -0.079,-5.357 -0.12,-3.572 0.502,-15.256 -1.224,-13.118 -7.76,9.612 -6.432,8.016 -7.818,9.57 -52.773,65.659 -105.855,131.073 -157.845,197.351 -5.291,6.746 -5.57,18.727 -5.583,28.284 -0.267,329.575 -0.218,659.151 -0.218,988.727 v 29.802 c -31.326,-8.081 -61.026,-15.734 -92.813,-23.931 v -847.375 c -109.108,127.18 -207.274,736.529 -165.564,1015.671 36.496,0 72.92,-1.941 109.083,0.349 124.364,7.885 200.689,77.732 221.656,201.342 4.017,23.681 6.39,47.648 9.643,72.4 z"
             style="fill:#ffffff;fill-opacity:1;fill-rule:nonzero;stroke:none"
             id="path28" />
        </g>
        <g
           id="g30"
           transform="translate(1505.5917,3367.3413)">
          <path
             d="m 0,0 c 10.84,3.401 23.529,4.736 33.967,-0.222 10.419,-4.948 16.354,-16.323 19.122,-27.248 6.461,-23.453 12.922,-46.905 19.383,-70.356 -12.829,-3.535 -25.609,-7.244 -38.337,-11.124 -5.929,19.448 -11.858,38.896 -17.787,58.344 -2.483,8.146 -5.388,13.455 -8.734,15.914 -3.347,2.458 -7.372,2.96 -12.044,1.487 -6.53,-2.059 -10.203,-6.133 -10.998,-12.152 -0.795,-6.022 0.394,-13.797 3.522,-23.33 5.433,-16.559 10.867,-33.117 16.3,-49.676 -12.723,-4.175 -25.389,-8.524 -37.993,-13.044 -6.863,19.138 -13.726,38.277 -20.589,57.415 -1.826,5.095 -3.791,9.038 -5.899,11.822 -2.107,2.783 -4.414,4.551 -6.91,5.294 -2.496,0.742 -5.245,0.566 -8.232,-0.536 -4.547,-1.678 -7.622,-4.261 -9.212,-7.717 -1.59,-3.458 -1.967,-7.787 -1.137,-12.981 0.831,-5.194 2.586,-11.273 5.251,-18.239 5.85,-15.29 11.7,-30.581 17.55,-45.871 -12.53,-4.794 -24.994,-9.759 -37.389,-14.893 -14.31,34.55 -28.621,69.099 -42.932,103.648 10.085,4.135 20.186,8.198 30.325,12.197 4.367,-4.248 6.541,-6.378 10.87,-10.652 0.45,0.173 0.675,0.26 1.125,0.433 0.957,3.622 2.642,7.166 5.063,10.625 2.421,3.457 5.655,6.682 9.7,9.656 4.044,2.973 8.988,5.517 14.816,7.602 8.672,3.104 16.301,4.281 22.824,3.58 6.523,-0.7 12.323,-2.799 17.385,-6.266 0.498,0.165 0.746,0.248 1.244,0.412 2.159,5.997 5.792,11.252 10.901,15.73 C -13.738,-5.672 -7.369,-2.312 0,0"
             style="fill:#f1f1f2;fill-opacity:1;fill-rule:nonzero;stroke:none"
             id="path32" />
        </g>
        <g
           id="g34"
           transform="translate(1655.4778,3339.8499)">
          <path
             d="m 0,0 c -3.669,-0.935 -5.503,-1.408 -9.166,-2.366 -7.339,-1.863 -12.246,-4.248 -14.72,-7.08 -2.474,-2.834 -3.239,-6.248 -2.317,-10.235 0.862,-3.731 2.546,-6.236 5.039,-7.528 2.492,-1.291 5.45,-1.55 8.883,-0.784 4.779,1.066 8.55,3.405 11.342,7.042 2.791,3.635 3.715,7.773 2.735,12.424 C 1.078,-5.116 0.718,-3.411 0,0 m -20.488,61.138 c 12.399,2.667 26.439,2.991 38.025,-3.026 10.297,-5.347 16.468,-15.849 18.327,-27.144 4.41,-24.124 8.82,-48.248 13.23,-72.372 -10.824,-1.979 -16.23,-3.019 -27.024,-5.201 -4.165,5.22 -6.262,7.823 -10.484,13.014 -0.321,-0.067 -0.482,-0.1 -0.804,-0.167 -2.409,-4.547 -5.026,-8.39 -7.862,-11.533 -2.837,-3.142 -6.276,-5.752 -10.323,-7.84 -4.05,-2.088 -9.169,-3.844 -15.367,-5.301 -6.465,-1.52 -12.564,-1.642 -18.346,-0.357 -5.782,1.286 -10.826,4.123 -15.146,8.533 -4.319,4.411 -7.472,10.669 -9.595,18.485 -2.753,10.133 -1.207,21.394 6.216,29.185 9.606,10.08 22.5,14.354 35.489,18.511 7.811,1.996 11.722,2.969 19.555,4.863 -0.13,0.62 -0.196,0.93 -0.326,1.55 -1.035,4.908 -3.078,8.122 -6.146,9.628 -3.067,1.505 -6.818,1.779 -11.235,0.804 -4.697,-1.037 -9.766,-2.973 -15.18,-5.819 -5.413,-2.845 -10.722,-6.161 -15.908,-9.937 -5.943,7.332 -11.947,14.621 -18.006,21.858 6.102,4.941 13.413,9.292 21.783,13.056 9.078,4.083 19.514,7.143 29.127,9.21"
             style="fill:#f1f1f2;fill-opacity:1;fill-rule:nonzero;stroke:none"
             id="path36" />
        </g>
        <g
           id="g38"
           transform="translate(1816.7205,3314.52)">
          <path
             d="m 0,0 c -31.521,-3.417 -62.88,-7.714 -94.16,-12.901 -1.481,8.708 -2.221,13.061 -3.701,21.769 12.688,22.717 25.841,45.109 39.491,67.261 -15.63,-2.125 -31.223,-4.533 -46.78,-7.134 -1.637,9.732 -3.273,19.464 -4.909,29.196 31.907,5.237 63.893,9.614 96.034,13.141 1.009,-9.532 1.513,-14.298 2.522,-23.829 -13.738,-21.034 -27.02,-42.304 -39.88,-63.887 16.072,2.189 32.176,4.165 48.311,5.831 C -2.048,19.631 -1.024,9.816 0,0"
             style="fill:#f1f1f2;fill-opacity:1;fill-rule:nonzero;stroke:none"
             id="path40" />
        </g>
        <g
           id="g42"
           transform="translate(1895.6964,3370.7837)">
          <path
             d="m 0,0 c -3.753,-0.341 -5.628,-0.518 -9.378,-0.882 -7.502,-0.676 -12.697,-2.251 -15.572,-4.654 -2.874,-2.404 -4.162,-5.654 -3.883,-9.736 0.26,-3.821 1.52,-6.562 3.764,-8.233 2.245,-1.67 5.109,-2.395 8.601,-2.184 4.861,0.294 8.934,2.005 12.249,5.152 3.314,3.147 4.873,7.086 4.642,11.833 C 0.254,-5.222 0.169,-3.482 0,0 m -10.512,63.612 c 12.614,0.666 26.469,-1.247 36.898,-9.014 9.296,-6.923 13.701,-18.27 13.749,-29.704 0.537,-24.518 1.074,-49.035 1.612,-73.553 -10.959,-0.24 -16.438,-0.411 -27.391,-0.854 -3.272,5.813 -4.924,8.715 -8.256,14.51 -0.326,-0.015 -0.49,-0.022 -0.816,-0.037 -3.083,-4.107 -6.26,-7.487 -9.54,-10.139 -3.282,-2.653 -7.07,-4.684 -11.374,-6.102 -4.305,-1.419 -9.609,-2.341 -15.923,-2.794 -6.585,-0.474 -12.591,0.376 -18.062,2.565 -5.472,2.188 -9.976,5.792 -13.521,10.834 -3.545,5.042 -5.655,11.722 -6.511,19.776 -1.108,10.416 2.152,21.291 10.679,27.82 10.998,8.421 24.336,10.593 37.747,12.635 7.985,0.731 11.98,1.07 19.975,1.698 -0.031,0.633 -0.046,0.95 -0.077,1.583 -0.244,5.01 -1.746,8.507 -4.523,10.48 -2.777,1.973 -6.42,2.838 -10.911,2.577 -4.777,-0.278 -10.06,-1.386 -15.823,-3.335 -5.763,-1.949 -11.495,-4.379 -17.178,-7.282 -4.681,8.183 -9.428,16.333 -14.236,24.442 6.762,3.907 14.62,7.039 23.429,9.426 9.554,2.588 20.29,3.953 30.053,4.468"
             style="fill:#f1f1f2;fill-opacity:1;fill-rule:nonzero;stroke:none"
             id="path44" />
        </g>
        <g
           id="g46"
           transform="translate(2029.0662,3371.4282)">
          <path
             d="m 0,0 c -3.768,-0.012 -5.651,-0.024 -9.418,-0.059 -7.531,-0.018 -12.841,-1.133 -15.913,-3.276 -3.073,-2.144 -4.639,-5.269 -4.718,-9.361 -0.074,-3.828 0.94,-6.669 3.03,-8.529 2.088,-1.86 4.877,-2.833 8.373,-2.927 4.867,-0.132 9.073,1.216 12.65,4.062 3.575,2.845 5.472,6.633 5.657,11.383 C -0.203,-5.224 -0.136,-3.483 0,0 M -4.912,64.287 C 7.714,63.849 21.347,60.731 31.059,52.084 39.717,44.376 43.115,32.688 42.164,21.293 40.556,-3.178 38.949,-27.649 37.342,-52.12 c -10.942,0.719 -16.416,1.027 -27.368,1.542 -2.752,6.077 -4.143,9.112 -6.956,15.176 -0.327,0.014 -0.49,0.021 -0.817,0.034 -3.43,-3.822 -6.888,-6.911 -10.388,-9.267 -3.5,-2.355 -7.45,-4.048 -11.86,-5.085 -4.411,-1.038 -9.772,-1.492 -16.099,-1.393 -6.597,0.104 -12.501,1.475 -17.757,4.134 -5.255,2.658 -9.423,6.642 -12.51,11.974 -3.088,5.332 -4.604,12.171 -4.753,20.269 -0.193,10.47 3.997,21.02 13.057,26.781 11.682,7.428 25.152,8.427 38.682,9.289 8.016,0.031 12.024,0.02 20.043,-0.053 0.025,0.633 0.037,0.95 0.061,1.583 0.195,5.012 -0.996,8.627 -3.589,10.836 -2.594,2.207 -6.146,3.387 -10.642,3.519 -4.781,0.14 -10.139,-0.501 -16.047,-1.939 -5.908,-1.439 -11.827,-3.358 -17.738,-5.754 -3.944,8.561 -7.958,17.094 -12.035,25.593 7.072,3.3 15.167,5.735 24.145,7.342 9.74,1.744 20.55,2.166 30.317,1.826"
             style="fill:#f1f1f2;fill-opacity:1;fill-rule:nonzero;stroke:none"
             id="path48" />
        </g>
        <g
           id="g50"
           transform="translate(2252.4402,3411.3003)">
          <path
             d="m 0,0 c 11.142,-1.928 22.962,-6.549 29.919,-15.706 6.971,-9.176 7.026,-21.997 4.492,-32.969 -4.984,-23.809 -9.969,-47.618 -14.952,-71.427 -12.956,2.712 -25.949,5.249 -38.974,7.612 3.628,20.005 7.257,40.01 10.885,60.015 1.52,8.379 1.376,14.427 -0.458,18.142 -1.833,3.714 -5.156,5.998 -9.946,6.82 -6.695,1.149 -11.784,-0.798 -15.223,-5.789 -3.44,-4.994 -5.931,-12.452 -7.514,-22.36 -2.749,-17.208 -5.499,-34.417 -8.248,-51.626 -13.079,2.089 -26.186,4.003 -39.317,5.739 2.665,20.156 5.331,40.312 7.997,60.468 0.71,5.366 0.775,9.77 0.19,13.209 -0.585,3.437 -1.807,6.063 -3.658,7.863 -1.852,1.801 -4.342,2.899 -7.458,3.282 -4.746,0.584 -8.609,-0.308 -11.568,-2.657 -2.959,-2.348 -5.249,-6.027 -6.876,-11.025 -1.627,-5 -2.844,-11.208 -3.668,-18.621 -1.809,-16.271 -3.617,-32.542 -5.425,-48.813 -13.112,1.457 -26.244,2.738 -39.391,3.843 3.131,37.264 6.263,74.529 9.395,111.793 10.671,-0.885 21.341,-1.89 31.989,-3.014 1.895,-5.773 2.831,-8.661 4.682,-14.439 0.472,-0.051 0.708,-0.077 1.18,-0.128 2.477,2.783 5.557,5.166 9.244,7.136 3.685,1.97 7.979,3.361 12.871,4.158 4.891,0.798 10.379,0.804 16.439,-0.002 9.018,-1.198 16.255,-3.634 21.67,-7.235 5.416,-3.6 9.563,-8.113 12.441,-13.508 0.513,-0.08 0.769,-0.121 1.282,-0.201 4.628,4.348 10.217,7.365 16.757,9.016 C -14.704,1.226 -7.558,1.308 0,0"
             style="fill:#f1f1f2;fill-opacity:1;fill-rule:nonzero;stroke:none"
             id="path52" />
        </g>
        <g
           id="g54"
           transform="translate(2372.9077,3318.3213)">
          <path
             d="m 0,0 c -3.703,0.851 -5.556,1.271 -9.262,2.098 -7.398,1.705 -12.862,1.832 -16.362,0.447 -3.501,-1.386 -5.744,-4.072 -6.749,-8.039 -0.939,-3.712 -0.587,-6.711 1.042,-9 1.629,-2.29 4.145,-3.873 7.556,-4.765 4.747,-1.241 9.181,-0.89 13.338,1.064 4.156,1.953 6.876,5.208 8.133,9.791 C -1.382,-5.042 -0.922,-3.361 0,0 M 9.73,63.743 C 22.023,60.428 34.701,54.281 42.31,43.612 49.057,34.15 49.782,21.979 46.26,11.067 39.141,-12.4 32.022,-35.868 24.905,-59.335 c -10.6,3.216 -15.912,4.772 -26.556,7.785 -1.328,6.55 -2.008,9.825 -3.399,16.376 -0.317,0.088 -0.476,0.132 -0.794,0.22 -4.234,-2.937 -8.33,-5.154 -12.3,-6.648 -3.971,-1.493 -8.232,-2.238 -12.795,-2.241 -4.565,-10e-4 -9.929,0.781 -16.112,2.322 -6.448,1.607 -11.928,4.288 -16.477,8.076 -4.551,3.787 -7.733,8.616 -9.552,14.513 -1.818,5.897 -1.755,12.903 -0.068,20.825 2.187,10.264 8.7,19.577 18.859,23.111 13.157,4.578 26.588,2.469 40.045,0.22 7.874,-1.802 11.807,-2.729 19.667,-4.637 0.167,0.611 0.251,0.917 0.418,1.528 1.326,4.838 0.975,8.632 -1.072,11.377 -2.047,2.743 -5.269,4.706 -9.652,5.862 -4.662,1.23 -10.065,1.83 -16.188,1.778 -6.122,-0.052 -12.363,-0.571 -18.701,-1.556 -1.93,9.237 -3.932,18.464 -6.004,27.671 7.679,1.604 16.167,2.129 25.338,1.646 9.959,-0.525 20.658,-2.585 30.168,-5.15"
             style="fill:#f1f1f2;fill-opacity:1;fill-rule:nonzero;stroke:none"
             id="path56" />
        </g>
        <g
           id="g58"
           transform="translate(2465.6094,3297.2383)">
          <path
             d="M 0,0 C -5.797,21.407 -11.934,42.692 -18.417,63.901 -2.87,58.98 12.617,53.862 28.005,48.462 30.504,36.496 32.882,24.505 35.137,12.491 44.718,20.21 54.382,27.825 64.127,35.334 79.49,29.524 94.782,23.517 109.956,17.231 90.99,5.305 72.255,-6.929 53.713,-19.504 59.016,-41.93 63.93,-64.414 68.458,-87.01 c -14.101,5.772 -28.251,11.379 -42.479,16.831 -2.108,12.97 -4.363,25.916 -6.764,38.835 -10.097,-8.375 -20.094,-16.87 -29.99,-25.482 -14.367,4.938 -28.775,9.709 -43.25,14.322 C -36.263,-28.007 -18.269,-13.853 0,0"
             style="fill:#f1f1f2;fill-opacity:1;fill-rule:nonzero;stroke:none"
             id="path60" />
        </g>
        <g
           id="g62"
           transform="translate(1505.5917,3367.3413)">
          <path
             d="m 0,0 c 10.84,3.401 23.529,4.736 33.967,-0.222 10.419,-4.948 16.354,-16.323 19.122,-27.248 6.461,-23.453 12.922,-46.905 19.383,-70.356 -12.829,-3.535 -25.609,-7.244 -38.337,-11.124 -5.929,19.448 -11.858,38.896 -17.787,58.344 -2.483,8.146 -5.388,13.455 -8.734,15.914 -3.347,2.458 -7.372,2.96 -12.044,1.487 -6.53,-2.059 -10.203,-6.133 -10.998,-12.152 -0.795,-6.022 0.394,-13.797 3.522,-23.33 5.433,-16.559 10.867,-33.117 16.3,-49.676 -12.723,-4.175 -25.389,-8.524 -37.993,-13.044 -6.863,19.138 -13.726,38.277 -20.589,57.415 -1.826,5.095 -3.791,9.038 -5.899,11.822 -2.107,2.783 -4.414,4.551 -6.91,5.294 -2.496,0.742 -5.245,0.566 -8.232,-0.536 -4.547,-1.678 -7.622,-4.261 -9.212,-7.717 -1.59,-3.458 -1.967,-7.787 -1.137,-12.981 0.831,-5.194 2.586,-11.273 5.251,-18.239 5.85,-15.29 11.7,-30.581 17.55,-45.871 -12.53,-4.794 -24.994,-9.759 -37.389,-14.893 -14.31,34.55 -28.621,69.099 -42.932,103.648 10.085,4.135 20.186,8.198 30.325,12.197 4.367,-4.248 6.541,-6.378 10.87,-10.652 0.45,0.173 0.675,0.26 1.125,0.433 0.957,3.622 2.642,7.166 5.063,10.625 2.421,3.457 5.655,6.682 9.7,9.656 4.044,2.973 8.988,5.517 14.816,7.602 8.672,3.104 16.301,4.281 22.824,3.58 6.523,-0.7 12.323,-2.799 17.385,-6.266 0.498,0.165 0.746,0.248 1.244,0.412 2.159,5.997 5.792,11.252 10.901,15.73 C -13.738,-5.672 -7.369,-2.312 0,0"
             style="fill:#ffffff;fill-opacity:1;fill-rule:nonzero;stroke:none"
             id="path64" />
        </g>
        <g
           id="g66"
           transform="translate(1655.4778,3339.8499)">
          <path
             d="m 0,0 c -3.669,-0.935 -5.503,-1.408 -9.166,-2.366 -7.339,-1.863 -12.246,-4.248 -14.72,-7.08 -2.474,-2.834 -3.239,-6.248 -2.317,-10.235 0.862,-3.731 2.546,-6.236 5.039,-7.528 2.492,-1.291 5.45,-1.55 8.883,-0.784 4.779,1.066 8.55,3.405 11.342,7.042 2.791,3.635 3.715,7.773 2.735,12.424 C 1.078,-5.116 0.718,-3.411 0,0 m -20.488,61.138 c 12.399,2.667 26.439,2.991 38.025,-3.026 10.297,-5.347 16.468,-15.849 18.327,-27.144 4.41,-24.124 8.82,-48.248 13.23,-72.372 -10.824,-1.979 -16.23,-3.019 -27.024,-5.201 -4.165,5.22 -6.262,7.823 -10.484,13.014 -0.321,-0.067 -0.482,-0.1 -0.804,-0.167 -2.409,-4.547 -5.026,-8.39 -7.862,-11.533 -2.837,-3.142 -6.276,-5.752 -10.323,-7.84 -4.05,-2.088 -9.169,-3.844 -15.367,-5.301 -6.465,-1.52 -12.564,-1.642 -18.346,-0.357 -5.782,1.286 -10.826,4.123 -15.146,8.533 -4.319,4.411 -7.472,10.669 -9.595,18.485 -2.753,10.133 -1.207,21.394 6.216,29.185 9.606,10.08 22.5,14.354 35.489,18.511 7.811,1.996 11.722,2.969 19.555,4.863 -0.13,0.62 -0.196,0.93 -0.326,1.55 -1.035,4.908 -3.078,8.122 -6.146,9.628 -3.067,1.505 -6.818,1.779 -11.235,0.804 -4.697,-1.037 -9.766,-2.973 -15.18,-5.819 -5.413,-2.845 -10.722,-6.161 -15.908,-9.937 -5.943,7.332 -11.947,14.621 -18.006,21.858 6.102,4.941 13.413,9.292 21.783,13.056 9.078,4.083 19.514,7.143 29.127,9.21"
             style="fill:#ffffff;fill-opacity:1;fill-rule:nonzero;stroke:none"
             id="path68" />
        </g>
        <g
           id="g70"
           transform="translate(1816.7205,3314.52)">
          <path
             d="m 0,0 c -31.521,-3.417 -62.88,-7.714 -94.16,-12.901 -1.481,8.708 -2.221,13.061 -3.701,21.769 12.688,22.717 25.841,45.109 39.491,67.261 -15.63,-2.125 -31.223,-4.533 -46.78,-7.134 -1.637,9.732 -3.273,19.464 -4.909,29.196 31.907,5.237 63.893,9.614 96.034,13.141 1.009,-9.532 1.513,-14.298 2.522,-23.829 -13.738,-21.034 -27.02,-42.304 -39.88,-63.887 16.072,2.189 32.176,4.165 48.311,5.831 C -2.048,19.631 -1.024,9.816 0,0"
             style="fill:#ffffff;fill-opacity:1;fill-rule:nonzero;stroke:none"
             id="path72" />
        </g>
        <g
           id="g74"
           transform="translate(1895.6964,3370.7837)">
          <path
             d="m 0,0 c -3.753,-0.341 -5.628,-0.518 -9.378,-0.882 -7.502,-0.676 -12.697,-2.251 -15.572,-4.654 -2.874,-2.404 -4.162,-5.654 -3.883,-9.736 0.26,-3.821 1.52,-6.562 3.764,-8.233 2.245,-1.67 5.109,-2.395 8.601,-2.184 4.861,0.294 8.934,2.005 12.249,5.152 3.314,3.147 4.873,7.086 4.642,11.833 C 0.254,-5.222 0.169,-3.482 0,0 m -10.512,63.612 c 12.614,0.666 26.469,-1.247 36.898,-9.014 9.296,-6.923 13.701,-18.27 13.749,-29.704 0.537,-24.518 1.074,-49.035 1.612,-73.553 -10.959,-0.24 -16.438,-0.411 -27.391,-0.854 -3.272,5.813 -4.924,8.715 -8.256,14.51 -0.326,-0.015 -0.49,-0.022 -0.816,-0.037 -3.083,-4.107 -6.26,-7.487 -9.54,-10.139 -3.282,-2.653 -7.07,-4.684 -11.374,-6.102 -4.305,-1.419 -9.609,-2.341 -15.923,-2.794 -6.585,-0.474 -12.591,0.376 -18.062,2.565 -5.472,2.188 -9.976,5.792 -13.521,10.834 -3.545,5.042 -5.655,11.722 -6.511,19.776 -1.108,10.416 2.152,21.291 10.679,27.82 10.998,8.421 24.336,10.593 37.747,12.635 7.985,0.731 11.98,1.07 19.975,1.698 -0.031,0.633 -0.046,0.95 -0.077,1.583 -0.244,5.01 -1.746,8.507 -4.523,10.48 -2.777,1.973 -6.42,2.838 -10.911,2.577 -4.777,-0.278 -10.06,-1.386 -15.823,-3.335 -5.763,-1.949 -11.495,-4.379 -17.178,-7.282 -4.681,8.183 -9.428,16.333 -14.236,24.442 6.762,3.907 14.62,7.039 23.429,9.426 9.554,2.588 20.29,3.953 30.053,4.468"
             style="fill:#ffffff;fill-opacity:1;fill-rule:nonzero;stroke:none"
             id="path76" />
        </g>
        <g
           id="g78"
           transform="translate(2029.0662,3371.4282)">
          <path
             d="m 0,0 c -3.768,-0.012 -5.651,-0.024 -9.418,-0.059 -7.531,-0.018 -12.841,-1.133 -15.913,-3.276 -3.073,-2.144 -4.639,-5.269 -4.718,-9.361 -0.074,-3.828 0.94,-6.669 3.03,-8.529 2.088,-1.86 4.877,-2.833 8.373,-2.927 4.867,-0.132 9.073,1.216 12.65,4.062 3.575,2.845 5.472,6.633 5.657,11.383 C -0.203,-5.224 -0.136,-3.483 0,0 M -4.912,64.287 C 7.714,63.849 21.347,60.731 31.059,52.084 39.717,44.376 43.115,32.688 42.164,21.293 40.556,-3.178 38.949,-27.649 37.342,-52.12 c -10.942,0.719 -16.416,1.027 -27.368,1.542 -2.752,6.077 -4.143,9.112 -6.956,15.176 -0.327,0.014 -0.49,0.021 -0.817,0.034 -3.43,-3.822 -6.888,-6.911 -10.388,-9.267 -3.5,-2.355 -7.45,-4.048 -11.86,-5.085 -4.411,-1.038 -9.772,-1.492 -16.099,-1.393 -6.597,0.104 -12.501,1.475 -17.757,4.134 -5.255,2.658 -9.423,6.642 -12.51,11.974 -3.088,5.332 -4.604,12.171 -4.753,20.269 -0.193,10.47 3.997,21.02 13.057,26.781 11.682,7.428 25.152,8.427 38.682,9.289 8.016,0.031 12.024,0.02 20.043,-0.053 0.025,0.633 0.037,0.95 0.061,1.583 0.195,5.012 -0.996,8.627 -3.589,10.836 -2.594,2.207 -6.146,3.387 -10.642,3.519 -4.781,0.14 -10.139,-0.501 -16.047,-1.939 -5.908,-1.439 -11.827,-3.358 -17.738,-5.754 -3.944,8.561 -7.958,17.094 -12.035,25.593 7.072,3.3 15.167,5.735 24.145,7.342 9.74,1.744 20.55,2.166 30.317,1.826"
             style="fill:#ffffff;fill-opacity:1;fill-rule:nonzero;stroke:none"
             id="path80" />
        </g>
        <g
           id="g82"
           transform="translate(2252.4402,3411.3003)">
          <path
             d="m 0,0 c 11.142,-1.928 22.962,-6.549 29.919,-15.706 6.971,-9.176 7.026,-21.997 4.492,-32.969 -4.984,-23.809 -9.969,-47.618 -14.952,-71.427 -12.956,2.712 -25.949,5.249 -38.974,7.612 3.628,20.005 7.257,40.01 10.885,60.015 1.52,8.379 1.376,14.427 -0.458,18.142 -1.833,3.714 -5.156,5.998 -9.946,6.82 -6.695,1.149 -11.784,-0.798 -15.223,-5.789 -3.44,-4.994 -5.931,-12.452 -7.514,-22.36 -2.749,-17.208 -5.499,-34.417 -8.248,-51.626 -13.079,2.089 -26.186,4.003 -39.317,5.739 2.665,20.156 5.331,40.312 7.997,60.468 0.71,5.366 0.775,9.77 0.19,13.209 -0.585,3.437 -1.807,6.063 -3.658,7.863 -1.852,1.801 -4.342,2.899 -7.458,3.282 -4.746,0.584 -8.609,-0.308 -11.568,-2.657 -2.959,-2.348 -5.249,-6.027 -6.876,-11.025 -1.627,-5 -2.844,-11.208 -3.668,-18.621 -1.809,-16.271 -3.617,-32.542 -5.425,-48.813 -13.112,1.457 -26.244,2.738 -39.391,3.843 3.131,37.264 6.263,74.529 9.395,111.793 10.671,-0.885 21.341,-1.89 31.989,-3.014 1.895,-5.773 2.831,-8.661 4.682,-14.439 0.472,-0.051 0.708,-0.077 1.18,-0.128 2.477,2.783 5.557,5.166 9.244,7.136 3.685,1.97 7.979,3.361 12.871,4.158 4.891,0.798 10.379,0.804 16.439,-0.002 9.018,-1.198 16.255,-3.634 21.67,-7.235 5.416,-3.6 9.563,-8.113 12.441,-13.508 0.513,-0.08 0.769,-0.121 1.282,-0.201 4.628,4.348 10.217,7.365 16.757,9.016 C -14.704,1.226 -7.558,1.308 0,0"
             style="fill:#ffffff;fill-opacity:1;fill-rule:nonzero;stroke:none"
             id="path84" />
        </g>
        <g
           id="g86"
           transform="translate(2372.9077,3318.3213)">
          <path
             d="m 0,0 c -3.703,0.851 -5.556,1.271 -9.262,2.098 -7.398,1.705 -12.862,1.832 -16.362,0.447 -3.501,-1.386 -5.744,-4.072 -6.749,-8.039 -0.939,-3.712 -0.587,-6.711 1.042,-9 1.629,-2.29 4.145,-3.873 7.556,-4.765 4.747,-1.241 9.181,-0.89 13.338,1.064 4.156,1.953 6.876,5.208 8.133,9.791 C -1.382,-5.042 -0.922,-3.361 0,0 M 9.73,63.743 C 22.023,60.428 34.701,54.281 42.31,43.612 49.057,34.15 49.782,21.979 46.26,11.067 39.141,-12.4 32.022,-35.868 24.905,-59.335 c -10.6,3.216 -15.912,4.772 -26.556,7.785 -1.328,6.55 -2.008,9.825 -3.399,16.376 -0.317,0.088 -0.476,0.132 -0.794,0.22 -4.234,-2.937 -8.33,-5.154 -12.3,-6.648 -3.971,-1.493 -8.232,-2.238 -12.795,-2.241 -4.565,-10e-4 -9.929,0.781 -16.112,2.322 -6.448,1.607 -11.928,4.288 -16.477,8.076 -4.551,3.787 -7.733,8.616 -9.552,14.513 -1.818,5.897 -1.755,12.903 -0.068,20.825 2.187,10.264 8.7,19.577 18.859,23.111 13.157,4.578 26.588,2.469 40.045,0.22 7.874,-1.802 11.807,-2.729 19.667,-4.637 0.167,0.611 0.251,0.917 0.418,1.528 1.326,4.838 0.975,8.632 -1.072,11.377 -2.047,2.743 -5.269,4.706 -9.652,5.862 -4.662,1.23 -10.065,1.83 -16.188,1.778 -6.122,-0.052 -12.363,-0.571 -18.701,-1.556 -1.93,9.237 -3.932,18.464 -6.004,27.671 7.679,1.604 16.167,2.129 25.338,1.646 9.959,-0.525 20.658,-2.585 30.168,-5.15"
             style="fill:#ffffff;fill-opacity:1;fill-rule:nonzero;stroke:none"
             id="path88" />
        </g>
        <g
           id="g90"
           transform="translate(2465.6094,3297.2383)">
          <path
             d="M 0,0 C -5.797,21.407 -11.934,42.692 -18.417,63.901 -2.87,58.98 12.617,53.862 28.005,48.462 30.504,36.496 32.882,24.505 35.137,12.491 44.718,20.21 54.382,27.825 64.127,35.334 79.49,29.524 94.782,23.517 109.956,17.231 90.99,5.305 72.255,-6.929 53.713,-19.504 59.016,-41.93 63.93,-64.414 68.458,-87.01 c -14.101,5.772 -28.251,11.379 -42.479,16.831 -2.108,12.97 -4.363,25.916 -6.764,38.835 -10.097,-8.375 -20.094,-16.87 -29.99,-25.482 -14.367,4.938 -28.775,9.709 -43.25,14.322 C -36.263,-28.007 -18.269,-13.853 0,0"
             style="fill:#ffffff;fill-opacity:1;fill-rule:nonzero;stroke:none"
             id="path92" />
        </g>
        <path
           d="M 4013,-43.222 H -11.889 V 4017.222 H 4013 Z"
           style="fill:#d92826;fill-opacity:1;fill-rule:nonzero;stroke:none"
           id="path94" />
      </g>
    </g>
    <g
       id="g96">
      <g
         id="g98"
         clip-path="url(#clipPath102)">
        <g
           id="g104"
           transform="translate(1885.0812,3095.7178)">
          <path
             d="m 0,0 c -2.289,-80.179 -4.638,-159.392 -6.756,-238.614 -0.629,-23.52 -1.646,-47.177 3.135,-70.322 1.87,-9.055 4.493,-17.949 7.413,-26.606 1.992,-5.906 5.394,-11.173 11.483,-11.089 7.109,0.098 10.302,6.722 12.108,13.387 2.204,8.133 3.852,16.728 4.349,25.24 1.694,28.962 3.381,57.959 3.961,86.975 1.112,55.707 1.519,111.435 2.119,167.157 0.939,87.117 1.579,174.241 2.793,261.352 0.482,34.516 2.012,69.037 7.096,103.122 1.258,8.435 3.124,16.848 5.639,24.849 0.979,3.113 4.393,6.752 6.94,7.039 2.288,0.257 5.647,-3.168 7.2,-6.019 2.079,-3.814 3.419,-8.522 4.099,-13.058 1.387,-9.24 2.648,-18.59 3.031,-27.95 1.829,-44.682 3.452,-89.378 4.949,-134.078 2.075,-61.948 4.231,-123.894 5.883,-185.859 2.259,-84.724 4.036,-169.467 6.119,-254.198 0.366,-14.902 0.907,-29.817 1.924,-44.671 1.075,-15.693 8.898,-23.589 22.057,-23.303 12.222,0.266 19.962,8.101 21.37,22.18 0.621,6.217 0.572,12.537 0.735,18.813 2.552,98.057 5.075,196.116 7.636,294.173 1.639,62.759 2.958,125.534 5.121,188.267 1.566,45.466 4.048,90.894 6.692,136.292 0.486,8.339 3.13,16.734 5.836,24.576 2.265,6.564 10.064,6.616 12.476,0.306 2.425,-6.348 4.79,-13.098 5.542,-19.933 2.821,-25.638 5.964,-51.318 7.127,-77.104 1.519,-33.683 1.392,-67.479 1.763,-101.229 1.251,-113.8 2.227,-227.606 3.722,-341.401 0.412,-31.377 2.111,-62.736 3.556,-94.081 0.432,-9.369 1.86,-18.692 3.125,-27.978 0.52,-3.812 1.531,-7.62 2.821,-11.167 2.135,-5.872 4.931,-11.512 11.038,-11.8 6.077,-0.286 9.342,5.002 11.915,10.6 6.447,14.024 9.237,29.424 9.78,45.172 0.675,19.591 0.77,39.248 0.332,58.851 -2.016,90.22 -4.299,180.431 -6.496,270.645 -1.873,76.934 -1.009,153.825 2.888,230.646 0.713,14.072 2.352,28.118 4.229,42.046 0.926,6.873 2.994,13.646 5.327,20.054 0.806,2.214 3.856,3.921 6.108,4.442 1.307,0.302 3.795,-1.796 4.489,-3.539 2.52,-6.328 5.21,-12.757 6.572,-19.516 5.523,-27.419 11.228,-54.824 15.673,-82.51 10.269,-63.945 17.168,-128.518 24.341,-193.058 5.96,-53.625 14.311,-106.859 20.878,-160.394 7.708,-62.846 14.656,-125.827 21.889,-188.756 5.907,-51.388 8.374,-103.132 9.243,-154.904 0.737,-43.922 -0.837,-87.814 -8.379,-131.14 -7.947,-45.652 -24.891,-85.829 -50.412,-120.571 -13.374,-18.205 -28.314,-34.741 -42.418,-52.181 -14.559,-18.002 -29.675,-35.448 -43.292,-54.436 -32.178,-44.872 -47.757,-98.144 -53.641,-156.413 -4.438,-43.96 -2.051,-87.812 -0.597,-131.685 2.858,-86.263 6.07,-172.511 9.546,-258.742 3.666,-90.936 7.657,-181.854 11.789,-272.762 3.74,-82.282 7.849,-164.54 11.816,-246.807 3.853,-79.916 7.752,-159.829 11.596,-239.746 5.314,-110.474 10.281,-220.973 16.012,-331.415 3.211,-61.897 7.234,-123.74 6.17,-185.805 -0.727,-42.391 -2.558,-84.805 -11.178,-126.135 -3.626,-17.386 -8.3,-34.772 -14.613,-50.969 -14.58,-37.407 -39.018,-59.268 -73.711,-65.417 -21.868,-3.876 -42.916,-1.975 -63.875,5.07 -23.152,7.781 -40.268,25.017 -52.564,49.574 -8.848,17.673 -14.389,36.873 -18.284,56.815 -6.298,32.246 -8.595,65.044 -9.042,98.078 -0.895,66.002 1.793,131.78 7.458,197.453 3.702,42.918 6.125,85.994 9.169,128.995 3.431,48.477 6.954,96.944 10.365,145.423 3.191,45.35 6.235,90.715 9.439,136.063 3.313,46.913 6.759,93.811 10.114,140.719 3.075,43.001 6.099,86.007 9.156,129.01 3.557,50.036 7.198,100.064 10.667,150.108 3.09,44.574 6.031,89.164 8.974,133.752 3.562,53.975 7.065,107.956 10.575,161.935 1.627,25.036 3.298,50.068 4.796,75.115 3.743,62.617 7.823,125.212 10.936,187.876 2.024,40.734 2.506,81.481 -2.064,122.222 -6.932,61.806 -26.809,116.087 -62.481,161.559 -12.987,16.555 -27.053,31.882 -40.18,48.285 -15.377,19.216 -31.254,38.037 -45.154,58.736 -25.627,38.161 -39.405,82.757 -44.701,131.19 -6.587,60.231 -5.846,120.648 -1.519,180.947 3.701,51.573 8.294,103.085 13.721,154.438 4.767,45.112 11.306,89.951 16.941,134.934 7.48,59.715 14.985,119.427 22.217,179.186 8.736,72.185 16.82,144.51 31.254,215.477 2.77,13.618 7.118,26.805 11.252,39.957 0.659,2.098 3.953,3.749 6.192,4.099 1.341,0.21 3.795,-2.144 4.372,-3.973 2.067,-6.553 4.501,-13.255 5.085,-20.111 2.721,-31.98 6.449,-63.999 6.902,-96.063 C 0.701,143.493 0,71.259 0,0"
             style="fill:#ffffff;fill-opacity:1;fill-rule:nonzero;stroke:none"
             id="path106" />
        </g>
        <g
           id="g108"
           transform="translate(2317.3535,3229.5393)">
          <path
             d="m 0,0 v -2818.159 c 45.938,30.169 85.493,54.813 123.621,81.545 38.493,26.991 76.675,54.693 112.587,84.991 11.015,9.283 19.952,28.117 19.988,42.601 1.007,528.481 1.053,1056.962 0.788,1585.452 -0.129,243.222 -1.191,486.443 -1.822,729.664 -0.028,10.595 -0.01,21.181 -0.01,31.111 55.379,12.498 58.079,10.863 77.601,-37.124 8.882,-21.818 16.161,-45.215 29.475,-64.087 28.11,-39.876 33.201,-82.875 33.127,-130.501 -1.062,-655.482 -0.732,-1310.954 -0.741,-1966.435 v -34.209 c 0,-2.695 0.028,-5.391 0.119,-8.082 0.182,-5.389 -0.757,-23.019 1.847,-19.793 11.708,14.503 9.705,12.095 11.796,14.439 79.624,99.067 159.715,197.766 238.158,297.766 7.985,10.179 8.406,28.257 8.424,42.675 0.403,497.269 0.33,994.538 0.33,1491.807 v 44.966 c 47.265,-12.193 92.077,-23.739 140.038,-36.107 v -1278.532 c 164.623,191.891 312.737,1111.285 249.805,1532.459 -55.067,0 -110.024,-2.928 -164.587,0.526 -187.642,11.898 -302.802,117.283 -334.438,303.789 -6.061,35.729 -9.641,71.892 -14.549,109.238 z"
             style="fill:#ffffff;fill-opacity:1;fill-rule:nonzero;stroke:none"
             id="path110" />
        </g>
        <g
           id="g112"
           transform="translate(1682.6466,3229.5393)">
          <path
             d="m 0,0 v -2818.159 c -45.938,30.169 -85.493,54.813 -123.621,81.545 -38.493,26.991 -76.676,54.693 -112.587,84.991 -11.015,9.283 -19.952,28.117 -19.988,42.601 -1.008,528.481 -1.053,1056.962 -0.788,1585.452 0.128,243.222 1.191,486.443 1.822,729.664 0.028,10.595 0.009,21.181 0.009,31.111 -55.378,12.498 -58.079,10.863 -77.6,-37.124 -8.882,-21.818 -16.161,-45.215 -29.475,-64.087 -28.11,-39.876 -33.201,-82.875 -33.127,-130.501 1.062,-655.482 0.732,-1310.954 0.741,-1966.435 v -34.209 c 0,-2.695 -0.028,-5.391 -0.119,-8.082 -0.182,-5.389 0.756,-23.019 -1.847,-19.793 -11.708,14.503 -9.705,12.095 -11.796,14.439 -79.624,99.067 -159.715,197.766 -238.158,297.766 -7.985,10.179 -8.406,28.257 -8.424,42.675 -0.403,497.269 -0.33,994.538 -0.33,1491.807 v 44.966 c -47.265,-12.193 -92.077,-23.739 -140.038,-36.107 v -1278.532 c -164.623,191.891 -312.737,1111.285 -249.805,1532.459 55.067,0 110.023,-2.928 164.586,0.526 187.643,11.898 302.803,117.283 334.438,303.789 6.062,35.729 9.642,71.892 14.55,109.238 z"
             style="fill:#ffffff;fill-opacity:1;fill-rule:nonzero;stroke:none"
             id="path114" />
        </g>
        <g
           id="g116"
           transform="translate(1299.6744,3685.3286)">
          <path
             d="m 0,0 c 15.742,5.542 35.52,6.842 51.25,-0.334 15.69,-7.157 24.645,-25.293 28.852,-41.114 9.748,-35.385 19.497,-70.77 29.245,-106.155 -19.355,-5.332 -38.645,-10.913 -57.844,-16.783 l -26.836,88.032 c -3.747,12.29 -8.13,20.302 -13.179,24.011 -5.049,3.708 -11.123,4.466 -18.173,2.243 -9.851,-3.106 -15.496,-9.333 -16.592,-18.336 -1.429,-11.734 1.53,-24.027 5.313,-35.2 8.198,-24.984 16.396,-49.968 24.594,-74.952 -19.184,-6.35 -38.286,-12.908 -57.325,-19.682 -10.355,28.877 -20.71,57.753 -31.064,86.63 -2.756,7.686 -5.72,13.637 -8.901,17.837 -3.179,4.199 -6.66,6.866 -10.426,7.987 -3.767,1.121 -7.915,0.854 -12.42,-0.808 -6.862,-2.532 -11.501,-6.428 -13.9,-11.644 -2.399,-5.217 -2.955,-11.757 -1.714,-19.585 1.464,-9.238 4.45,-18.863 7.922,-27.521 8.827,-23.07 17.653,-46.14 26.479,-69.21 -18.89,-7.282 -37.689,-14.77 -56.412,-22.47 -21.593,52.128 -43.186,104.256 -64.778,156.385 15.192,6.282 30.437,12.437 45.755,18.404 6.589,-6.41 9.869,-9.625 16.4,-16.073 0.68,0.262 1.019,0.393 1.699,0.654 1.444,5.464 3.986,10.813 7.64,16.031 3.652,5.216 8.531,10.082 14.635,14.569 6.101,4.485 13.605,8.302 22.354,11.471 10.905,3.949 22.865,6.396 34.438,5.401 8.641,-0.743 19.108,-4.299 26.23,-9.455 0.751,0.25 1.126,0.374 1.877,0.622 2.85,8.641 9.76,17.953 16.447,23.734 C -20.199,-8.192 -10.133,-3.568 0,0"
             style="fill:#f1f1f2;fill-opacity:1;fill-rule:nonzero;stroke:none"
             id="path118" />
        </g>
        <g
           id="g120"
           transform="translate(1525.8253,3643.8486)">
          <path
             d="m 0,0 c -5.536,-1.41 -8.302,-2.124 -13.83,-3.569 -11.072,-2.812 -18.478,-6.41 -22.21,-10.683 -3.733,-4.274 -4.887,-9.427 -3.496,-15.443 1.302,-5.629 3.843,-9.41 7.603,-11.358 3.761,-1.948 8.224,-2.338 13.403,-1.183 7.21,1.609 12.901,5.137 17.113,10.624 4.211,5.486 5.605,11.73 4.127,18.747 C 1.626,-7.719 1.084,-5.146 0,0 M -30.913,92.246 C -12.249,96.084 8.481,96.802 26.459,87.682 41.804,79.897 51.225,63.317 54.112,46.725 60.766,10.326 67.42,-26.072 74.073,-62.471 60.458,-64.96 46.866,-67.575 33.299,-70.318 c -6.283,7.876 -9.447,11.803 -15.818,19.636 -0.485,-0.101 -0.728,-0.151 -1.213,-0.252 -3.634,-6.861 -7.583,-12.659 -11.862,-17.4 -4.281,-4.743 -9.469,-8.68 -15.577,-11.83 -6.109,-3.15 -13.833,-5.801 -23.185,-7.999 -9.754,-2.294 -18.956,-2.478 -27.68,-0.538 -8.724,1.94 -16.335,6.314 -22.853,12.875 -7.665,7.715 -11.61,18.071 -14.477,27.89 -4.19,14.353 -1.599,32.537 9.379,44.034 13.813,14.468 34.536,22.178 53.547,27.93 9.816,2.516 19.654,4.963 29.505,7.337 -0.197,0.936 -0.296,1.404 -0.493,2.34 -1.561,7.405 -4.645,12.256 -9.273,14.527 -4.626,2.271 -10.288,2.683 -16.951,1.212 -7.086,-1.564 -14.749,-4.531 -22.904,-8.779 -8.248,-4.297 -16.507,-9.436 -24.003,-14.994 -8.998,11.042 -18.053,22.034 -27.166,32.98 9.98,8.039 21.162,14.523 32.865,19.7 14.181,6.272 29.277,10.879 43.947,13.895"
             style="fill:#f1f1f2;fill-opacity:1;fill-rule:nonzero;stroke:none"
             id="path122" />
        </g>
        <g
           id="g124"
           transform="translate(1769.1112,3605.6306)">
          <path
             d="m 0,0 c -47.561,-5.098 -94.891,-11.583 -142.071,-19.465 -1.861,10.948 -3.723,21.897 -5.584,32.845 19.09,34.293 38.948,68.1 59.586,101.485 -23.579,-3.289 -47.097,-6.875 -70.584,-10.764 -2.469,14.684 -4.938,29.368 -7.406,44.053 48.127,7.955 96.402,14.56 144.897,19.826 1.269,-11.985 2.537,-23.97 3.806,-35.955 -20.758,-31.704 -40.811,-63.815 -60.172,-96.392 24.263,3.263 48.549,6.194 72.893,8.797 C -3.09,29.62 -1.545,14.81 0,0"
             style="fill:#f1f1f2;fill-opacity:1;fill-rule:nonzero;stroke:none"
             id="path126" />
        </g>
        <g
           id="g128"
           transform="translate(1888.2705,3690.522)">
          <path
             d="m 0,0 c -5.662,-0.515 -8.492,-0.781 -14.15,-1.33 -11.319,-1.02 -19.157,-3.396 -23.494,-7.022 -4.337,-3.627 -6.281,-8.531 -5.861,-14.691 0.394,-5.764 2.295,-9.9 5.681,-12.421 3.386,-2.521 7.708,-3.614 12.977,-3.296 7.334,0.443 13.48,3.025 18.482,7.774 5,4.748 7.352,10.691 7.004,17.854 C 0.383,-7.879 0.255,-5.253 0,0 M -15.86,95.979 C 3.099,96.808 23.59,94.22 39.812,82.379 53.695,72.245 60.331,54.381 60.556,37.561 c 0.811,-36.993 1.621,-73.986 2.432,-110.978 -13.779,-0.302 -27.556,-0.732 -41.328,-1.29 -4.937,8.772 -7.428,13.151 -12.456,21.895 -0.493,-0.023 -0.739,-0.034 -1.232,-0.057 -4.651,-6.197 -9.444,-11.295 -14.394,-15.298 -4.952,-4.003 -10.667,-7.068 -17.161,-9.208 -6.495,-2.14 -14.497,-3.53 -24.025,-4.214 -9.935,-0.714 -18.996,0.566 -27.253,3.869 -8.256,3.303 -15.036,8.832 -20.4,16.347 -6.313,8.846 -8.553,19.692 -9.824,29.839 -1.854,14.803 3.504,32.344 16.113,41.976 15.814,12.081 37.38,16.403 56.953,19.063 10.039,0.926 20.088,1.781 30.139,2.563 -0.046,0.955 -0.069,1.432 -0.116,2.388 -0.368,7.558 -2.636,12.837 -6.826,15.814 -4.187,2.975 -9.685,4.28 -16.461,3.886 -7.207,-0.42 -15.199,-2.133 -23.874,-5.032 -8.773,-2.931 -17.69,-6.693 -25.919,-10.987 -7.097,12.331 -14.255,24.623 -21.479,36.88 11.052,6.345 23.046,10.97 35.349,14.221 14.913,3.94 30.464,6.09 45.346,6.741"
             style="fill:#f1f1f2;fill-opacity:1;fill-rule:nonzero;stroke:none"
             id="path130" />
        </g>
        <g
           id="g132"
           transform="translate(2089.5015,3691.4944)">
          <path
             d="m 0,0 c -5.685,-0.018 -8.527,-0.036 -14.209,-0.089 -11.363,-0.027 -19.376,-1.71 -24.011,-4.943 -4.635,-3.234 -6.999,-7.949 -7.118,-14.123 -0.112,-5.776 1.419,-10.063 4.571,-12.869 3.152,-2.807 7.359,-4.274 12.634,-4.417 7.342,-0.199 13.689,1.835 19.085,6.129 5.395,4.294 8.257,10.009 8.537,17.174 C -0.307,-7.883 -0.205,-5.255 0,0 M -7.41,96.998 C 11.55,96.168 31.735,91.797 46.862,78.586 59.81,67.279 64.864,48.903 63.618,32.127 61.192,-4.795 58.767,-41.717 56.343,-78.639 c -13.757,0.903 -27.522,1.679 -41.294,2.326 -4.152,9.169 -6.251,13.749 -10.496,22.899 -0.492,0.02 -0.739,0.031 -1.232,0.051 -5.174,-5.767 -10.394,-10.428 -15.673,-13.982 -5.282,-3.555 -11.242,-6.109 -17.895,-7.674 -6.656,-1.564 -14.745,-2.25 -24.29,-2.1 -9.955,0.157 -18.863,2.224 -26.792,6.236 -7.929,4.012 -14.195,10.111 -18.876,18.067 -5.511,9.365 -6.793,20.364 -7.171,30.583 -0.553,14.904 6.305,31.91 19.7,40.408 16.796,10.654 38.646,13.074 58.365,14.014 10.079,0.046 20.162,0.019 30.241,-0.08 l 0.093,2.389 c 0.293,7.563 -1.504,13.019 -5.417,16.35 -3.911,3.33 -9.273,5.11 -16.055,5.309 -7.214,0.212 -15.322,-0.797 -24.213,-2.926 -8.991,-2.154 -18.197,-5.122 -26.763,-8.681 -5.987,12.903 -12.039,25.773 -18.159,38.615 11.555,5.356 23.899,8.915 36.43,11.078 15.194,2.623 30.868,3.406 45.744,2.755"
             style="fill:#f1f1f2;fill-opacity:1;fill-rule:nonzero;stroke:none"
             id="path134" />
        </g>
        <g
           id="g136"
           transform="translate(2426.5303,3751.6545)">
          <path
             d="m 0,0 c 16.452,-2.261 34.523,-10.161 45.143,-23.697 10.634,-13.554 10.271,-33.767 6.777,-49.744 -7.521,-35.924 -15.041,-71.848 -22.56,-107.772 -19.547,4.092 -39.15,7.936 -58.804,11.485 5.474,30.185 10.949,60.369 16.423,90.553 2.294,12.643 2.076,21.769 -0.69,27.373 -2.766,5.604 -7.78,9.05 -15.008,10.291 -10.1,1.733 -17.906,-1.229 -22.967,-8.737 -6.606,-9.797 -9.586,-22.074 -11.337,-33.736 -4.149,-25.964 -8.297,-51.93 -12.445,-77.895 -19.733,3.153 -39.51,6.055 -59.323,8.66 4.021,30.412 8.043,60.824 12.066,91.236 1.07,8.095 1.17,14.741 0.287,19.929 -0.884,5.187 -2.726,9.148 -5.52,11.864 -2.795,2.717 -6.551,4.374 -11.253,4.953 -7.161,0.881 -12.989,-0.466 -17.453,-4.009 -4.464,-3.545 -7.914,-9.107 -10.374,-16.637 -2.906,-8.893 -4.652,-18.804 -5.535,-28.095 -2.729,-24.55 -5.457,-49.099 -8.185,-73.649 -19.783,2.198 -39.598,4.146 -59.434,5.797 4.723,56.226 9.449,112.452 14.175,168.677 16.103,-1.362 32.195,-2.858 48.266,-4.547 2.858,-8.711 4.27,-13.068 7.062,-21.787 0.713,-0.077 1.069,-0.116 1.782,-0.193 3.738,4.199 8.386,7.795 13.948,10.767 5.559,2.97 12.037,5.071 19.42,6.274 7.38,1.204 15.689,1.173 24.803,-0.003 11.378,-1.468 23.047,-4.577 32.697,-10.917 8.155,-5.358 14.428,-12.242 18.77,-20.381 0.774,-0.121 1.162,-0.182 1.936,-0.304 6.42,6.372 16.748,11.51 25.283,13.604 C -21.552,1.935 -10.564,1.452 0,0"
             style="fill:#f1f1f2;fill-opacity:1;fill-rule:nonzero;stroke:none"
             id="path138" />
        </g>
        <g
           id="g140"
           transform="translate(2608.2939,3611.366)">
          <path
             d="m 0,0 c -5.588,1.284 -8.383,1.917 -13.974,3.166 -11.163,2.573 -19.408,2.765 -24.688,0.674 -5.28,-2.09 -8.667,-6.144 -10.182,-12.129 -1.418,-5.601 -0.885,-10.126 1.572,-13.58 2.457,-3.454 6.254,-5.844 11.399,-7.189 7.162,-1.872 13.854,-1.343 20.126,1.604 6.269,2.947 10.375,7.859 12.271,14.775 C -2.086,-7.607 -1.391,-5.072 0,0 M 14.68,96.177 C 33.103,91.032 51.938,82.161 63.837,65.803 73.973,51.868 74.835,32.803 69.798,16.698 59.057,-18.71 48.316,-54.118 37.577,-89.526 c -13.331,4.007 -26.683,7.922 -40.067,11.746 -2.005,9.883 -3.03,14.825 -5.129,24.71 -0.479,0.133 -0.719,0.199 -1.199,0.332 -6.389,-4.432 -12.569,-7.777 -18.557,-10.031 -5.991,-2.254 -12.421,-3.378 -19.306,-3.381 -6.887,-0.003 -14.98,1.177 -24.31,3.502 -9.729,2.425 -17.996,6.471 -24.861,12.185 -6.866,5.715 -11.625,13.084 -14.412,21.899 -3.278,10.368 -2.045,21.378 -0.102,31.42 2.839,14.672 13.441,29.665 28.455,34.871 18.907,6.557 40.879,3.917 60.419,0.332 9.907,-2.26 19.801,-4.593 29.674,-6.996 0.253,0.922 0.379,1.383 0.632,2.306 2,7.298 1.469,13.026 -1.619,17.165 -3.087,4.139 -7.949,7.1 -14.563,8.845 -7.033,1.855 -15.22,2.725 -24.424,2.682 -9.304,-0.044 -19.004,-0.834 -28.216,-2.348 -2.949,13.933 -5.968,27.849 -9.059,41.751 12.55,2.586 25.458,3.236 38.23,2.484 15.507,-0.914 31.065,-3.734 45.517,-7.771"
             style="fill:#f1f1f2;fill-opacity:1;fill-rule:nonzero;stroke:none"
             id="path142" />
        </g>
        <g
           id="g144"
           transform="translate(2748.1638,3579.5562)">
          <path
             d="M 0,0 C -8.708,32.304 -17.97,64.43 -27.787,96.415 -4.335,88.951 19.002,81.19 42.253,73.121 45.985,55.056 49.572,36.968 53.016,18.846 c 14.485,11.614 29.062,23.1 43.741,34.467 23.172,-8.806 46.211,-17.907 69.146,-27.314 -28.634,-17.956 -56.912,-36.421 -84.86,-55.428 8.041,-33.821 15.459,-67.759 22.248,-101.853 -21.263,8.736 -42.619,17.197 -64.095,25.394 -3.179,19.568 -6.569,39.106 -10.204,58.595 -15.233,-12.637 -30.327,-25.445 -45.249,-38.448 -21.666,7.478 -43.41,14.679 -65.257,21.61 C -54.748,-42.227 -27.585,-20.862 0,0"
             style="fill:#f1f1f2;fill-opacity:1;fill-rule:nonzero;stroke:none"
             id="path146" />
        </g>
        <g
           id="g148"
           transform="translate(1299.6744,3685.3286)">
          <path
             d="m 0,0 c 15.742,5.542 35.52,6.842 51.25,-0.334 15.69,-7.157 24.645,-25.293 28.852,-41.114 9.748,-35.385 19.497,-70.77 29.245,-106.155 -19.355,-5.332 -38.645,-10.913 -57.844,-16.783 l -26.836,88.032 c -3.747,12.29 -8.13,20.302 -13.179,24.011 -5.049,3.708 -11.123,4.466 -18.173,2.243 -9.851,-3.106 -15.496,-9.333 -16.592,-18.336 -1.429,-11.734 1.53,-24.027 5.313,-35.2 8.198,-24.984 16.396,-49.968 24.594,-74.952 -19.184,-6.35 -38.286,-12.908 -57.325,-19.682 -10.355,28.877 -20.71,57.753 -31.064,86.63 -2.756,7.686 -5.72,13.637 -8.901,17.837 -3.179,4.199 -6.66,6.866 -10.426,7.987 -3.767,1.121 -7.915,0.854 -12.42,-0.808 -6.862,-2.532 -11.501,-6.428 -13.9,-11.644 -2.399,-5.217 -2.955,-11.757 -1.714,-19.585 1.464,-9.238 4.45,-18.863 7.922,-27.521 8.827,-23.07 17.653,-46.14 26.479,-69.21 -18.89,-7.282 -37.689,-14.77 -56.412,-22.47 -21.593,52.128 -43.186,104.256 -64.778,156.385 15.192,6.282 30.437,12.437 45.755,18.404 6.589,-6.41 9.869,-9.625 16.4,-16.073 0.68,0.262 1.019,0.393 1.699,0.654 1.444,5.464 3.986,10.813 7.64,16.031 3.652,5.216 8.531,10.082 14.635,14.569 6.101,4.485 13.605,8.302 22.354,11.471 10.905,3.949 22.865,6.396 34.438,5.401 8.641,-0.743 19.108,-4.299 26.23,-9.455 0.751,0.25 1.126,0.374 1.877,0.622 2.85,8.641 9.76,17.953 16.447,23.734 C -20.199,-8.192 -10.133,-3.568 0,0"
             style="fill:#ffffff;fill-opacity:1;fill-rule:nonzero;stroke:none"
             id="path150" />
        </g>
        <g
           id="g152"
           transform="translate(1525.8253,3643.8486)">
          <path
             d="m 0,0 c -5.536,-1.41 -8.302,-2.124 -13.83,-3.569 -11.072,-2.812 -18.478,-6.41 -22.21,-10.683 -3.733,-4.274 -4.887,-9.427 -3.496,-15.443 1.302,-5.629 3.843,-9.41 7.603,-11.358 3.761,-1.948 8.224,-2.338 13.403,-1.183 7.21,1.609 12.901,5.137 17.113,10.624 4.211,5.486 5.605,11.73 4.127,18.747 C 1.626,-7.719 1.084,-5.146 0,0 M -30.913,92.246 C -12.249,96.084 8.481,96.802 26.459,87.682 41.804,79.897 51.225,63.317 54.112,46.725 60.766,10.326 67.42,-26.072 74.073,-62.471 60.458,-64.96 46.866,-67.575 33.299,-70.318 c -6.283,7.876 -9.447,11.803 -15.818,19.636 -0.485,-0.101 -0.728,-0.151 -1.213,-0.252 -3.634,-6.861 -7.583,-12.659 -11.862,-17.4 -4.281,-4.743 -9.469,-8.68 -15.577,-11.83 -6.109,-3.15 -13.833,-5.801 -23.185,-7.999 -9.754,-2.294 -18.956,-2.478 -27.68,-0.538 -8.724,1.94 -16.335,6.314 -22.853,12.875 -7.665,7.715 -11.61,18.071 -14.477,27.89 -4.19,14.353 -1.599,32.537 9.379,44.034 13.813,14.468 34.536,22.178 53.547,27.93 9.816,2.516 19.654,4.963 29.505,7.337 -0.197,0.936 -0.296,1.404 -0.493,2.34 -1.561,7.405 -4.645,12.256 -9.273,14.527 -4.626,2.271 -10.288,2.683 -16.951,1.212 -7.086,-1.564 -14.749,-4.531 -22.904,-8.779 -8.248,-4.297 -16.507,-9.436 -24.003,-14.994 -8.998,11.042 -18.053,22.034 -27.166,32.98 9.98,8.039 21.162,14.523 32.865,19.7 14.181,6.272 29.277,10.879 43.947,13.895"
             style="fill:#ffffff;fill-opacity:1;fill-rule:nonzero;stroke:none"
             id="path154" />
        </g>
        <g
           id="g156"
           transform="translate(1769.1112,3605.6306)">
          <path
             d="m 0,0 c -47.561,-5.098 -94.891,-11.583 -142.071,-19.465 -1.861,10.948 -3.723,21.897 -5.584,32.845 19.09,34.293 38.948,68.1 59.586,101.485 -23.579,-3.289 -47.097,-6.875 -70.584,-10.764 -2.469,14.684 -4.938,29.368 -7.406,44.053 48.127,7.955 96.402,14.56 144.897,19.826 1.269,-11.985 2.537,-23.97 3.806,-35.955 -20.758,-31.704 -40.811,-63.815 -60.172,-96.392 24.263,3.263 48.549,6.194 72.893,8.797 C -3.09,29.62 -1.545,14.81 0,0"
             style="fill:#ffffff;fill-opacity:1;fill-rule:nonzero;stroke:none"
             id="path158" />
        </g>
        <g
           id="g160"
           transform="translate(1888.2705,3690.522)">
          <path
             d="m 0,0 c -5.662,-0.515 -8.492,-0.781 -14.15,-1.33 -11.319,-1.02 -19.157,-3.396 -23.494,-7.022 -4.337,-3.627 -6.281,-8.531 -5.861,-14.691 0.394,-5.764 2.295,-9.9 5.681,-12.421 3.386,-2.521 7.708,-3.614 12.977,-3.296 7.334,0.443 13.48,3.025 18.482,7.774 5,4.748 7.352,10.691 7.004,17.854 C 0.383,-7.879 0.255,-5.253 0,0 M -15.86,95.979 C 3.099,96.808 23.59,94.22 39.812,82.379 53.695,72.245 60.331,54.381 60.556,37.561 c 0.811,-36.993 1.621,-73.986 2.432,-110.978 -13.779,-0.302 -27.556,-0.732 -41.328,-1.29 -4.937,8.772 -7.428,13.151 -12.456,21.895 -0.493,-0.023 -0.739,-0.034 -1.232,-0.057 -4.651,-6.197 -9.444,-11.295 -14.394,-15.298 -4.952,-4.003 -10.667,-7.068 -17.161,-9.208 -6.495,-2.14 -14.497,-3.53 -24.025,-4.214 -9.935,-0.714 -18.996,0.566 -27.253,3.869 -8.256,3.303 -15.036,8.832 -20.4,16.347 -6.313,8.846 -8.553,19.692 -9.824,29.839 -1.854,14.803 3.504,32.344 16.113,41.976 15.814,12.081 37.38,16.403 56.953,19.063 10.039,0.926 20.088,1.781 30.139,2.563 -0.046,0.955 -0.069,1.432 -0.116,2.388 -0.368,7.558 -2.636,12.837 -6.826,15.814 -4.187,2.975 -9.685,4.28 -16.461,3.886 -7.207,-0.42 -15.199,-2.133 -23.874,-5.032 -8.773,-2.931 -17.69,-6.693 -25.919,-10.987 -7.097,12.331 -14.255,24.623 -21.479,36.88 11.052,6.345 23.046,10.97 35.349,14.221 14.913,3.94 30.464,6.09 45.346,6.741"
             style="fill:#ffffff;fill-opacity:1;fill-rule:nonzero;stroke:none"
             id="path162" />
        </g>
        <g
           id="g164"
           transform="translate(2089.5015,3691.4944)">
          <path
             d="m 0,0 c -5.685,-0.018 -8.527,-0.036 -14.209,-0.089 -11.363,-0.027 -19.376,-1.71 -24.011,-4.943 -4.635,-3.234 -6.999,-7.949 -7.118,-14.123 -0.112,-5.776 1.419,-10.063 4.571,-12.869 3.152,-2.807 7.359,-4.274 12.634,-4.417 7.342,-0.199 13.689,1.835 19.085,6.129 5.395,4.294 8.257,10.009 8.537,17.174 C -0.307,-7.883 -0.205,-5.255 0,0 M -7.41,96.998 C 11.55,96.168 31.735,91.797 46.862,78.586 59.81,67.279 64.864,48.903 63.618,32.127 61.192,-4.795 58.767,-41.717 56.343,-78.639 c -13.757,0.903 -27.522,1.679 -41.294,2.326 -4.152,9.169 -6.251,13.749 -10.496,22.899 -0.492,0.02 -0.739,0.031 -1.232,0.051 -5.174,-5.767 -10.394,-10.428 -15.673,-13.982 -5.282,-3.555 -11.242,-6.109 -17.895,-7.674 -6.656,-1.564 -14.745,-2.25 -24.29,-2.1 -9.955,0.157 -18.863,2.224 -26.792,6.236 -7.929,4.012 -14.195,10.111 -18.876,18.067 -5.511,9.365 -6.793,20.364 -7.171,30.583 -0.553,14.904 6.305,31.91 19.7,40.408 16.796,10.654 38.646,13.074 58.365,14.014 10.079,0.046 20.162,0.019 30.241,-0.08 l 0.093,2.389 c 0.293,7.563 -1.504,13.019 -5.417,16.35 -3.911,3.33 -9.273,5.11 -16.055,5.309 -7.214,0.212 -15.322,-0.797 -24.213,-2.926 -8.991,-2.154 -18.197,-5.122 -26.763,-8.681 -5.987,12.903 -12.039,25.773 -18.159,38.615 11.555,5.356 23.899,8.915 36.43,11.078 15.194,2.623 30.868,3.406 45.744,2.755"
             style="fill:#ffffff;fill-opacity:1;fill-rule:nonzero;stroke:none"
             id="path166" />
        </g>
        <g
           id="g168"
           transform="translate(2426.5303,3751.6545)">
          <path
             d="m 0,0 c 16.452,-2.261 34.523,-10.161 45.143,-23.697 10.634,-13.554 10.271,-33.767 6.777,-49.744 -7.521,-35.924 -15.041,-71.848 -22.56,-107.772 -19.547,4.092 -39.15,7.936 -58.804,11.485 5.474,30.185 10.949,60.369 16.423,90.553 2.294,12.643 2.076,21.769 -0.69,27.373 -2.766,5.604 -7.78,9.05 -15.008,10.291 -10.1,1.733 -17.906,-1.229 -22.967,-8.737 -6.606,-9.797 -9.586,-22.074 -11.337,-33.736 -4.149,-25.964 -8.297,-51.93 -12.445,-77.895 -19.733,3.153 -39.51,6.055 -59.323,8.66 4.021,30.412 8.043,60.824 12.066,91.236 1.07,8.095 1.17,14.741 0.287,19.929 -0.884,5.187 -2.726,9.148 -5.52,11.864 -2.795,2.717 -6.551,4.374 -11.253,4.953 -7.161,0.881 -12.989,-0.466 -17.453,-4.009 -4.464,-3.545 -7.914,-9.107 -10.374,-16.637 -2.906,-8.893 -4.652,-18.804 -5.535,-28.095 -2.729,-24.55 -5.457,-49.099 -8.185,-73.649 -19.783,2.198 -39.598,4.146 -59.434,5.797 4.723,56.226 9.449,112.452 14.175,168.677 16.103,-1.362 32.195,-2.858 48.266,-4.547 2.858,-8.711 4.27,-13.068 7.062,-21.787 0.713,-0.077 1.069,-0.116 1.782,-0.193 3.738,4.199 8.386,7.795 13.948,10.767 5.559,2.97 12.037,5.071 19.42,6.274 7.38,1.204 15.689,1.173 24.803,-0.003 11.378,-1.468 23.047,-4.577 32.697,-10.917 8.155,-5.358 14.428,-12.242 18.77,-20.381 0.774,-0.121 1.162,-0.182 1.936,-0.304 6.42,6.372 16.748,11.51 25.283,13.604 C -21.552,1.935 -10.564,1.452 0,0"
             style="fill:#ffffff;fill-opacity:1;fill-rule:nonzero;stroke:none"
             id="path170" />
        </g>
        <g
           id="g172"
           transform="translate(2608.2939,3611.366)">
          <path
             d="m 0,0 c -5.588,1.284 -8.383,1.917 -13.974,3.166 -11.163,2.573 -19.408,2.765 -24.688,0.674 -5.28,-2.09 -8.667,-6.144 -10.182,-12.129 -1.418,-5.601 -0.885,-10.126 1.572,-13.58 2.457,-3.454 6.254,-5.844 11.399,-7.189 7.162,-1.872 13.854,-1.343 20.126,1.604 6.269,2.947 10.375,7.859 12.271,14.775 C -2.086,-7.607 -1.391,-5.072 0,0 M 14.68,96.177 C 33.103,91.032 51.938,82.161 63.837,65.803 73.973,51.868 74.835,32.803 69.798,16.698 59.057,-18.71 48.316,-54.118 37.577,-89.526 c -13.331,4.007 -26.683,7.922 -40.067,11.746 -2.005,9.883 -3.03,14.825 -5.129,24.71 -0.479,0.133 -0.719,0.199 -1.199,0.332 -6.389,-4.432 -12.569,-7.777 -18.557,-10.031 -5.991,-2.254 -12.421,-3.378 -19.306,-3.381 -6.887,-0.003 -14.98,1.177 -24.31,3.502 -9.729,2.425 -17.996,6.471 -24.861,12.185 -6.866,5.715 -11.625,13.084 -14.412,21.899 -3.278,10.368 -2.045,21.378 -0.102,31.42 2.839,14.672 13.441,29.665 28.455,34.871 18.907,6.557 40.879,3.917 60.419,0.332 9.907,-2.26 19.801,-4.593 29.674,-6.996 0.253,0.922 0.379,1.383 0.632,2.306 2,7.298 1.469,13.026 -1.619,17.165 -3.087,4.139 -7.949,7.1 -14.563,8.845 -7.033,1.855 -15.22,2.725 -24.424,2.682 -9.304,-0.044 -19.004,-0.834 -28.216,-2.348 -2.949,13.933 -5.968,27.849 -9.059,41.751 12.55,2.586 25.458,3.236 38.23,2.484 15.507,-0.914 31.065,-3.734 45.517,-7.771"
             style="fill:#ffffff;fill-opacity:1;fill-rule:nonzero;stroke:none"
             id="path174" />
        </g>
        <g
           id="g176"
           transform="translate(2748.1638,3579.5562)">
          <path
             d="M 0,0 C -8.708,32.304 -17.97,64.43 -27.787,96.415 -4.335,88.951 19.002,81.19 42.253,73.121 45.985,55.056 49.572,36.968 53.016,18.846 c 14.485,11.614 29.062,23.1 43.741,34.467 23.172,-8.806 46.211,-17.907 69.146,-27.314 -28.634,-17.956 -56.912,-36.421 -84.86,-55.428 8.041,-33.821 15.459,-67.759 22.248,-101.853 -21.263,8.736 -42.619,17.197 -64.095,25.394 -3.179,19.568 -6.569,39.106 -10.204,58.595 -15.233,-12.637 -30.327,-25.445 -45.249,-38.448 -21.666,7.478 -43.41,14.679 -65.257,21.61 C -54.748,-42.227 -27.585,-20.862 0,0"
             style="fill:#ffffff;fill-opacity:1;fill-rule:nonzero;stroke:none"
             id="path178" />
        </g>
      </g>
    </g>
  </g>
</svg>
