<svg version="1.1" id="Layer_1" xmlns="http://www.w3.org/2000/svg" xmlns:xlink="http://www.w3.org/1999/xlink" x="0px" y="0px" width="100%" viewBox="0 0 5289 1379" enable-background="new 0 0 5289 1379" xml:space="preserve">
<path fill="#FFFFFF" opacity="1.000000" stroke="none" 
	d="
M3560.000000,1382.000000 
	C2373.333496,1382.000000 1187.666992,1382.000000 2.000318,1382.000000 
	C2.000212,922.000183 2.000212,462.000397 2.000106,2.000442 
	C1765.333008,2.000295 3528.666016,2.000295 5291.999023,2.000147 
	C5291.999512,461.999542 5291.999512,921.999084 5292.000000,1381.999268 
	C4715.000000,1382.000000 4138.000000,1382.000000 3560.000000,1382.000000 
M3840.224609,622.997192 
	C3848.133545,637.446777 3850.278564,653.197144 3850.296631,669.317810 
	C3850.376465,739.984131 3850.330811,810.650635 3850.330811,881.317078 
	C3850.330811,885.226990 3850.331055,889.136902 3850.331055,892.796753 
	C3861.175049,895.049927 3982.178223,894.770691 3990.338867,892.516602 
	C3990.338867,889.432617 3990.319336,886.138550 3990.342041,882.844666 
	C3990.781738,818.888733 3991.099365,754.931519 3991.743652,690.977600 
	C3991.949707,670.527100 3995.593994,650.577637 4003.706543,631.672180 
	C4008.761719,619.891785 4016.997559,610.957703 4029.147461,606.266479 
	C4049.622314,598.360901 4071.939453,602.594299 4084.019043,617.634644 
	C4091.803467,627.327026 4094.757812,639.062012 4095.966309,651.034668 
	C4097.333496,664.576599 4098.180664,678.228394 4098.229492,691.836182 
	C4098.457031,755.168518 4098.330078,818.502014 4098.330566,881.835144 
	C4098.330566,885.709839 4098.330566,889.584595 4098.330566,893.230469 
	C4114.758301,895.530090 4230.294434,894.696960 4237.669922,892.224487 
	C4237.669922,888.825928 4237.669922,885.193481 4237.669922,881.561035 
	C4237.669922,797.894653 4237.775879,714.227966 4237.587402,630.562012 
	C4237.546387,612.233032 4235.080078,594.097229 4229.959473,576.417603 
	C4219.145020,539.078064 4195.312500,514.179871 4158.387695,501.991333 
	C4132.791016,493.542206 4106.582520,491.188202 4079.710449,493.529083 
	C4040.695557,496.927795 4007.974854,512.182373 3982.772461,542.607849 
	C3980.970947,544.782959 3978.868652,546.709167 3976.144287,549.543518 
	C3973.362305,546.118164 3971.332764,543.623047 3969.307373,541.124634 
	C3950.109131,517.442688 3925.482178,502.312134 3895.697998,496.501038 
	C3876.481689,492.751862 3857.025635,491.604523 3837.217529,493.399445 
	C3796.470215,497.091766 3761.951172,511.884460 3736.489258,544.964355 
	C3735.219727,546.613586 3733.414307,547.850403 3731.364746,549.732605 
	C3729.938232,546.705505 3728.862549,544.665955 3727.994629,542.541748 
	C3723.209473,530.834229 3718.237549,519.194397 3713.823975,507.347260 
	C3711.627441,501.450287 3708.188477,499.449158 3701.917969,499.511749 
	C3672.254395,499.807800 3642.586182,499.625946 3612.919678,499.680389 
	C3610.369629,499.685059 3607.820557,500.173248 3605.066162,500.458008 
	C3605.066162,631.876526 3605.066162,762.661926 3605.066162,893.673950 
	C3651.634521,893.673950 3697.465088,893.673950 3744.339111,893.673950 
	C3744.339111,889.149353 3744.339111,885.231140 3744.339111,881.312866 
	C3744.339111,829.979736 3743.980713,778.642822 3744.517578,727.315308 
	C3744.729248,707.086060 3746.419678,686.826782 3748.405273,666.676575 
	C3749.913086,651.372803 3754.384033,636.801147 3762.755615,623.498596 
	C3778.974365,597.727295 3824.838867,593.833374 3840.224609,622.997192 
M1626.172363,610.594482 
	C1633.432007,615.434143 1637.525269,622.554504 1640.576538,630.459717 
	C1646.183105,644.984741 1647.488647,660.276611 1647.546875,675.548096 
	C1647.809082,744.203674 1647.661377,812.860779 1647.661499,881.517334 
	C1647.661499,885.424622 1647.661499,889.331909 1647.661499,892.977966 
	C1660.963257,895.292725 1779.977905,894.724243 1787.304077,892.412170 
	C1787.420898,889.917664 1787.661865,887.291016 1787.649414,884.665527 
	C1787.226440,795.722168 1786.979492,706.777100 1786.198486,617.836792 
	C1785.997803,594.970276 1780.659912,572.900879 1769.926392,552.546631 
	C1755.204956,524.629578 1731.141724,508.185425 1701.427490,499.920807 
	C1677.938354,493.387604 1653.962646,491.165802 1629.418823,493.457642 
	C1590.470215,497.094543 1557.663574,512.010620 1532.463501,542.457397 
	C1530.636475,544.664917 1528.458618,546.582031 1525.772827,549.317749 
	C1522.852295,545.891663 1520.519043,543.207825 1518.243286,540.476013 
	C1500.677856,519.390320 1479.007202,504.557800 1452.143677,498.180359 
	C1430.039307,492.932709 1407.691528,491.158905 1384.893799,493.519196 
	C1345.042603,497.645050 1311.032593,512.337524 1286.145752,544.929565 
	C1284.881592,546.585083 1283.130859,547.869141 1280.772949,550.122986 
	C1273.453491,532.566467 1266.595947,516.117920 1259.966309,500.215820 
	C1234.988892,498.423401 1162.969727,499.176819 1155.251221,501.207397 
	C1153.395874,514.378174 1153.974365,886.398132 1155.895386,893.646851 
	C1201.692871,893.646851 1247.521606,893.646851 1294.338501,893.646851 
	C1294.338501,889.079834 1294.338501,885.159302 1294.338501,881.238708 
	C1294.338501,825.246948 1294.034912,769.252563 1294.522949,713.265015 
	C1294.670044,696.376709 1296.453369,679.438293 1298.522583,662.650452 
	C1300.325195,648.025696 1304.885742,634.031189 1313.618896,621.834045 
	C1324.853516,606.143188 1341.100952,601.181946 1359.246948,602.649780 
	C1377.572266,604.132202 1388.400024,615.552185 1394.084839,632.547180 
	C1398.790161,646.613220 1400.310181,661.091492 1400.317261,675.790833 
	C1400.350342,744.447388 1400.332153,813.103943 1400.332275,881.760498 
	C1400.332275,885.637146 1400.332153,889.513855 1400.332153,893.711548 
	C1447.570190,893.711548 1493.393311,893.711548 1540.338379,893.711548 
	C1540.338379,889.586060 1540.338379,886.004333 1540.338379,882.422607 
	C1540.338379,846.094604 1540.167603,809.765625 1540.391724,773.438965 
	C1540.576538,743.485535 1540.854248,713.522949 1541.815918,683.587708 
	C1542.384155,665.904236 1546.397095,648.818726 1552.901245,632.176392 
	C1565.120117,600.911804 1604.651611,595.592163 1626.172363,610.594482 
M380.324249,812.999878 
	C380.324280,920.317444 380.431488,1027.635254 380.178711,1134.952271 
	C380.149567,1147.338989 383.873962,1156.741455 394.191772,1163.864014 
	C410.896301,1175.395386 427.239838,1187.448486 443.850494,1199.117798 
	C449.990906,1203.431763 456.455322,1207.284424 463.642456,1211.907227 
	C463.642456,906.701233 463.642456,602.997070 463.642456,298.898956 
	C406.135468,298.898956 349.325775,298.898956 292.119446,298.898956 
	C291.371124,303.645508 290.743774,307.895752 290.025269,312.130585 
	C287.970673,324.240326 286.722595,336.562500 283.651062,348.410614 
	C272.370270,391.925385 245.403244,419.929901 200.688599,429.076324 
	C190.660156,431.127655 180.263428,431.826752 170.002548,432.186096 
	C155.428268,432.696442 140.822800,432.315674 126.182915,432.315674 
	C125.378876,434.792145 124.552193,436.302917 124.431465,437.868103 
	C123.001450,456.408051 121.024872,474.938263 120.516777,493.507294 
	C120.053604,510.434418 120.919250,527.420044 121.732201,544.354248 
	C122.735336,565.250000 124.170029,586.127686 125.630707,606.998291 
	C128.602798,649.464355 134.812988,691.524048 142.327225,733.382141 
	C150.912384,781.205750 161.436905,828.580078 178.029968,874.384949 
	C184.270096,891.610596 191.011658,908.640930 201.785141,923.691101 
	C202.986420,925.369202 204.683029,926.692749 207.719635,929.773010 
	C207.719635,790.421692 207.719635,653.292297 207.719635,515.523743 
	C222.452286,511.746368 236.438934,508.160248 251.661331,504.257294 
	C251.661331,509.649048 251.661316,513.586365 251.661316,517.523743 
	C251.661316,634.173218 251.661285,750.822754 251.661407,867.472229 
	C251.661438,911.465759 251.748245,955.459595 251.586075,999.452515 
	C251.555328,1007.798096 253.578232,1014.822632 258.992706,1021.477844 
	C283.140533,1051.159546 306.900574,1081.156494 330.852631,1110.997803 
	C332.210968,1112.690308 334.030304,1114.012573 336.859436,1116.647339 
	C337.213989,1112.308472 337.651978,1109.485962 337.645599,1106.664551 
	C337.233643,924.403625 336.773560,742.142761 336.351929,559.881958 
	C336.274811,526.553711 335.989807,493.219543 336.514893,459.899384 
	C336.723053,446.693695 337.900330,433.414246 344.949310,421.377777 
	C349.457733,413.679504 352.847412,405.323700 356.694977,397.241913 
	C358.125519,394.237183 359.304749,391.108032 360.823547,388.151184 
	C363.252838,383.421753 367.309235,381.555725 372.458954,382.497223 
	C375.323364,383.020844 378.089600,384.081696 380.324249,384.732697 
	C380.324249,527.240112 380.324249,669.119995 380.324249,812.999878 
M927.664612,800.999817 
	C927.793884,842.649475 927.922241,884.299072 928.075134,925.948669 
	C928.076050,926.186157 928.382385,926.476379 928.616211,926.644836 
	C928.879333,926.834351 929.221985,926.913574 930.145508,927.294861 
	C932.286499,924.165100 934.655884,921.002625 936.710327,917.647217 
	C946.681641,901.361694 953.625122,883.689941 959.587097,865.671021 
	C983.718506,792.738586 996.828430,717.483337 1005.545044,641.412720 
	C1009.171509,609.764160 1012.304260,577.949768 1013.281433,546.137695 
	C1014.260925,514.251099 1012.391846,482.270020 1011.479004,450.338715 
	C1011.312561,444.516022 1009.742554,438.733429 1008.722900,432.318909 
	C994.412964,432.318909 980.782532,432.615173 967.172180,432.220276 
	C957.230652,431.931793 947.182800,431.497162 937.413086,429.799866 
	C906.016296,424.345367 880.776978,409.065430 864.100037,381.268860 
	C853.468628,363.548615 848.531128,343.932739 845.875244,323.641571 
	C844.809143,315.496338 843.745667,307.350769 842.663147,299.069061 
	C784.618591,299.069061 727.511353,299.069061 670.090027,299.069061 
	C669.924683,302.439209 669.681152,305.076691 669.682129,307.714111 
	C669.795288,608.333130 669.926514,908.952148 670.075195,1209.571167 
	C670.075317,1209.851074 670.290527,1210.201416 670.513672,1210.391357 
	C670.752930,1210.594604 671.120789,1210.646606 671.809021,1210.907104 
	C672.723450,1210.484375 674.005188,1210.104126 675.046875,1209.379028 
	C696.622131,1194.358276 718.035889,1179.100708 739.781860,1164.332275 
	C750.181213,1157.269897 753.911560,1148.303711 753.896057,1135.646973 
	C753.594849,889.673767 753.672607,643.700073 753.672668,397.726471 
	C753.672668,393.456635 753.672668,389.186798 753.672668,385.266052 
	C768.571655,380.397919 770.491577,381.188965 776.168762,393.905884 
	C779.421570,401.192230 781.709412,409.101501 786.033630,415.676788 
	C794.645691,428.772095 797.696106,442.944183 797.693115,458.253815 
	C797.650940,672.230835 797.664551,886.207886 797.664673,1100.184937 
	C797.664673,1103.184570 797.531128,1106.192749 797.716064,1109.181030 
	C797.841187,1111.202393 798.416260,1113.196045 799.003601,1116.347656 
	C802.266235,1112.420044 804.637878,1109.648315 806.920227,1106.804810 
	C829.207458,1079.038086 851.347351,1051.151489 873.844482,1023.556091 
	C879.819458,1016.227112 882.545837,1008.719543 882.529297,999.033875 
	C882.256653,839.384766 882.335327,679.735168 882.335693,520.085632 
	C882.335693,517.085938 882.189819,514.076050 882.393555,511.090088 
	C882.538269,508.969818 883.157532,506.881927 883.651489,504.333252 
	C898.825134,508.305450 913.167847,512.060120 927.664612,515.855103 
	C927.664612,611.053589 927.664612,705.026672 927.664612,800.999817 
M2906.611084,602.281921 
	C2918.387207,613.635803 2920.823486,627.554871 2919.157959,643.162903 
	C2915.499023,643.372803 2913.195557,643.528015 2910.890137,643.633667 
	C2881.349854,644.988037 2851.739990,645.494385 2822.287598,647.916382 
	C2791.595947,650.440247 2762.006836,658.029907 2734.609619,672.862366 
	C2711.071777,685.605469 2694.074219,703.952393 2685.524902,729.539246 
	C2676.429932,756.758545 2676.481934,784.632751 2682.543457,812.193298 
	C2692.936523,859.448059 2722.245605,888.482849 2769.888916,898.509521 
	C2789.287109,902.592041 2808.755371,901.818970 2828.413330,900.487122 
	C2868.199707,897.791687 2900.427979,881.029663 2926.011475,850.800049 
	C2928.713867,847.606812 2931.634521,844.598633 2935.408203,840.457764 
	C2944.847656,859.221497 2953.623779,876.667175 2962.148682,893.613037 
	C2994.971191,893.613037 3026.804443,893.613037 3059.669922,893.613037 
	C3059.669922,889.033508 3059.669678,885.105225 3059.669922,881.176941 
	C3059.670166,803.877747 3059.730225,726.578369 3059.607422,649.279419 
	C3059.588379,637.328918 3059.424561,625.304688 3058.140137,613.443054 
	C3052.884033,564.885559 3028.607666,529.675537 2983.861084,509.003265 
	C2957.635742,496.887543 2929.685303,492.974609 2901.345215,492.580841 
	C2880.475342,492.290863 2859.526611,494.024811 2838.690918,495.780975 
	C2805.031250,498.618011 2772.449951,506.550232 2740.997559,518.884521 
	C2733.707764,521.743347 2726.736816,525.415161 2718.900635,529.045898 
	C2732.634277,560.407471 2745.909180,590.721741 2759.133301,620.919922 
	C2775.910400,614.825073 2791.368652,608.817627 2807.087891,603.593872 
	C2828.619873,596.438416 2850.587158,591.235291 2873.526611,591.638062 
	C2885.107666,591.841492 2895.957275,594.318970 2906.611084,602.281921 
M2134.148682,878.792480 
	C2135.202881,880.872131 2136.608643,882.849731 2137.248047,885.049866 
	C2139.492432,892.774719 2144.461182,894.661926 2152.268066,894.500732 
	C2177.584961,893.978271 2202.919434,894.326233 2228.247314,894.281494 
	C2231.779541,894.275208 2235.311035,893.945984 2239.669678,893.724243 
	C2239.669678,888.825378 2239.669678,884.890808 2239.669678,880.956238 
	C2239.669922,801.306824 2239.860596,721.656616 2239.496338,642.008850 
	C2239.429688,627.460205 2238.157227,612.732056 2235.583984,598.420654 
	C2231.056152,573.240540 2219.643799,551.146240 2200.780029,533.533447 
	C2180.557129,514.651672 2156.312744,503.245819 2129.342041,497.856171 
	C2103.823242,492.756683 2078.123535,492.046356 2052.024414,493.279724 
	C2013.902466,495.081268 1976.598022,500.267242 1940.252441,511.885651 
	C1926.362183,516.325806 1912.820068,521.680664 1898.908081,529.300476 
	C1912.354736,560.014832 1925.606934,590.285217 1939.130005,621.174438 
	C1943.394043,619.592224 1946.485840,618.557678 1949.490112,617.312378 
	C1972.277588,607.866516 1995.460693,599.616516 2019.744263,594.935547 
	C2036.465088,591.712402 2053.269531,589.511414 2070.169434,594.099548 
	C2089.604248,599.375977 2103.288818,615.844788 2097.946777,643.640625 
	C2094.865479,643.640625 2091.591553,643.511414 2088.330322,643.660828 
	C2059.448242,644.983215 2030.511475,645.633545 2001.705322,647.922302 
	C1974.718750,650.066528 1948.541382,656.636841 1923.807495,668.000732 
	C1892.051147,682.591187 1870.199707,705.796814 1862.227173,740.564209 
	C1856.242798,766.661621 1856.972534,792.848572 1863.951538,818.537903 
	C1875.781860,862.084900 1904.362793,888.536560 1948.397949,898.254456 
	C1968.423218,902.673645 1988.575073,901.994263 2008.903687,900.447876 
	C2048.205322,897.458435 2080.312256,881.073914 2105.628906,851.019104 
	C2108.341064,847.799377 2111.375732,844.851135 2115.073730,840.910645 
	C2121.578857,853.774963 2127.558838,865.600464 2134.148682,878.792480 
M3323.499023,644.304993 
	C3305.614746,645.622864 3287.664551,646.364136 3269.861084,648.390869 
	C3241.604980,651.607422 3214.273682,658.427734 3188.842529,671.782776 
	C3158.628662,687.649170 3139.501709,711.762451 3133.704346,745.667542 
	C3129.969727,767.507446 3130.295654,789.487854 3134.526611,811.197144 
	C3143.498291,857.231628 3175.266357,888.900146 3221.132324,898.384155 
	C3240.537109,902.396545 3259.981689,901.745544 3279.668213,900.548523 
	C3321.134033,898.027222 3354.094971,880.073059 3380.262939,848.480347 
	C3382.255859,846.074280 3384.444580,843.830139 3387.366943,840.598816 
	C3396.942871,859.480042 3405.769287,876.884094 3414.317383,893.738953 
	C3440.056152,895.603638 3503.406738,894.807251 3511.669922,892.388184 
	C3511.669922,888.683472 3511.669922,884.737061 3511.669922,880.790649 
	C3511.669922,801.132324 3511.715332,721.473999 3511.610840,641.815796 
	C3511.598145,632.194458 3511.275146,622.520325 3510.244873,612.962402 
	C3504.755371,562.024658 3478.114258,526.688416 3430.980225,506.803589 
	C3406.055420,496.288483 3379.634277,492.846039 3352.967773,492.562531 
	C3333.084717,492.351074 3313.157959,494.244904 3293.283936,495.665955 
	C3263.263428,497.812469 3234.061523,504.231659 3205.728271,514.278687 
	C3194.208252,518.363586 3183.093994,523.592712 3171.045410,528.613708 
	C3184.937500,560.365601 3197.854492,591.085449 3211.758545,621.114624 
	C3224.646973,616.149719 3236.010986,611.366028 3247.653809,607.401245 
	C3259.293213,603.437561 3271.109131,599.884583 3283.032471,596.887329 
	C3299.877197,592.653015 3317.021240,590.092285 3334.444336,592.341980 
	C3361.296387,595.809021 3376.004150,616.104187 3370.938232,643.416321 
	C3355.897217,643.709473 3340.654297,644.006653 3323.499023,644.304993 
M4318.740723,721.973938 
	C4317.187988,726.357910 4315.311035,730.656921 4314.136230,735.139771 
	C4307.427246,760.738403 4307.471191,786.716675 4312.873047,812.301758 
	C4321.700195,854.104736 4346.483887,882.770874 4387.798340,895.324097 
	C4422.490234,905.865234 4457.473633,903.338379 4492.133789,894.320007 
	C4519.759766,887.131714 4540.094727,869.165344 4558.498535,848.494385 
	C4560.568359,846.169922 4562.838867,844.023804 4565.719727,841.074768 
	C4575.009277,859.548401 4583.654785,876.742432 4592.192871,893.721680 
	C4624.730469,893.721680 4656.593262,893.721680 4689.670898,893.721680 
	C4689.670898,889.253479 4689.670898,885.355225 4689.670898,881.456970 
	C4689.670898,801.492004 4689.717773,721.526917 4689.610840,641.562073 
	C4689.597656,631.611084 4689.350098,621.594360 4688.217773,611.722046 
	C4682.674805,563.404907 4657.722168,528.885071 4613.465332,508.642548 
	C4587.280273,496.665680 4559.220703,492.862488 4530.856445,492.561188 
	C4510.647461,492.346497 4490.385254,494.171143 4470.195801,495.718018 
	C4439.194824,498.093201 4409.086426,504.968475 4379.916016,515.671936 
	C4369.719238,519.413391 4359.882324,524.134705 4349.045898,528.765503 
	C4362.906738,560.317993 4376.212402,590.605408 4389.680664,621.263184 
	C4398.678711,617.731445 4406.359863,614.675476 4414.071289,611.697083 
	C4439.281250,601.960449 4464.959473,594.023499 4492.098633,591.932007 
	C4503.806152,591.029785 4515.405273,591.435303 4526.460449,596.069885 
	C4544.448730,603.610779 4554.058105,623.871826 4548.429688,643.639893 
	C4545.723145,643.639893 4542.772949,643.522949 4539.833984,643.657959 
	C4510.626465,644.999878 4481.364258,645.668518 4452.231934,647.973083 
	C4427.303223,649.945312 4402.993652,655.669922 4379.828613,665.573608 
	C4353.289551,676.919678 4331.456055,693.361450 4318.740723,721.973938 
M4797.000000,894.303772 
	C4826.989746,894.303711 4856.982910,894.081116 4886.967773,894.460388 
	C4894.435059,894.554871 4898.820801,892.714661 4902.668457,885.675354 
	C4921.181641,851.806824 4940.416992,818.332886 4959.443359,784.745483 
	C4960.780762,782.383728 4962.500977,780.238281 4964.560059,777.239563 
	C4966.601074,780.532043 4967.882324,782.451050 4969.017578,784.453186 
	C4988.222168,818.323669 5007.548828,852.126221 5026.466309,886.156250 
	C5029.781250,892.118347 5033.412598,894.524353 5040.419434,894.474304 
	C5086.733887,894.143005 5133.052246,894.312134 5179.369141,894.282227 
	C5182.244141,894.280334 5185.119141,893.973328 5189.813965,893.703857 
	C5145.909668,826.176758 5102.812500,759.891235 5059.455566,693.206238 
	C5073.577148,671.505920 5087.509766,650.041443 5101.498535,628.613586 
	C5115.333496,607.422302 5129.484375,586.432678 5143.017090,565.051025 
	C5156.583008,543.618408 5171.456055,522.977539 5184.519531,500.248444 
	C5181.613770,499.944580 5180.298828,499.687439 5178.983398,499.686676 
	C5130.333496,499.659454 5081.684082,499.708679 5033.034180,499.568451 
	C5028.121094,499.554321 5025.253418,501.147552 5022.815918,505.565125 
	C5009.956543,528.872314 4996.768555,551.998840 4983.654785,575.165466 
	C4977.501465,586.036865 4971.258789,596.857971 4964.415039,608.823242 
	C4962.622559,605.970520 4961.524902,604.399841 4960.604004,602.731689 
	C4942.915039,570.686523 4925.118652,538.699646 4907.707031,506.504547 
	C4904.926758,501.363464 4901.767090,499.513916 4896.037598,499.537079 
	C4848.388672,499.729553 4800.738281,499.639008 4753.088379,499.678528 
	C4750.964355,499.680298 4748.840332,500.112213 4745.338867,500.493927 
	C4786.552734,565.401245 4826.992188,629.089417 4867.678223,693.165894 
	C4858.833496,706.950684 4850.216797,720.378723 4841.602051,733.808167 
	C4833.154297,746.977295 4824.720215,760.155334 4816.258301,773.315552 
	C4807.614746,786.758179 4798.958984,800.192566 4790.283203,813.614258 
	C4781.788086,826.756165 4772.982910,839.707520 4764.827148,853.055908 
	C4756.644043,866.449097 4746.912598,878.961426 4739.315430,894.303772 
	C4759.050781,894.303772 4777.025391,894.303772 4797.000000,894.303772 
M2372.778809,725.796875 
	C2351.019287,753.127319 2329.351318,780.531860 2307.407715,807.713745 
	C2303.828369,812.147888 2302.182129,816.541260 2302.243652,822.206177 
	C2302.471191,843.193970 2302.309082,864.185669 2302.367188,885.175781 
	C2302.375000,888.020386 2302.804199,890.863831 2303.036865,893.689026 
	C2414.206299,893.689026 2524.352539,893.689026 2635.025879,893.689026 
	C2635.025879,858.300598 2635.025879,823.527283 2635.025879,787.681274 
	C2580.305420,787.681274 2526.211914,787.681274 2469.975586,787.681274 
	C2473.303711,783.169373 2475.302979,780.300720 2477.460693,777.556580 
	C2525.994385,715.831055 2574.519043,654.098206 2623.157227,592.454895 
	C2626.204102,588.593628 2627.794434,584.787537 2627.753174,579.789673 
	C2627.554932,555.802551 2627.688721,531.812744 2627.623779,507.824097 
	C2627.616943,505.303528 2627.079590,502.784393 2626.796875,500.335571 
	C2521.511963,500.335571 2417.059082,500.335571 2312.342773,500.335571 
	C2312.342773,535.806030 2312.342773,570.581177 2312.342773,606.581604 
	C2363.697998,606.581604 2414.388672,606.581604 2467.489502,606.581604 
	C2435.214600,647.254700 2404.475342,685.993042 2372.778809,725.796875 
M510.094299,303.025574 
	C506.528534,332.024017 503.228821,361.058289 499.333130,390.012329 
	C493.833862,430.884430 489.316345,471.821503 490.404663,513.135986 
	C490.907684,532.231506 493.561218,551.179321 504.259064,567.561951 
	C511.324768,578.382446 519.507690,588.572144 528.003357,598.336853 
	C540.564880,612.774902 548.749634,629.016541 552.434021,647.810974 
	C556.510864,668.607605 555.270874,689.443909 553.972107,710.309875 
	C552.177551,739.139771 550.178406,767.956909 548.343994,796.784424 
	C546.846375,820.319580 545.597229,843.871033 543.991089,867.398438 
	C542.250305,892.898621 540.117859,918.371948 538.351868,943.870544 
	C536.630554,968.724121 535.257629,993.601685 533.544800,1018.455872 
	C531.924683,1041.963501 529.990967,1065.449463 528.331116,1088.954590 
	C527.277954,1103.869263 527.009583,1118.858154 525.439026,1133.713379 
	C522.673096,1159.874390 521.257202,1186.078003 521.747559,1212.354126 
	C522.045471,1228.315063 523.162231,1244.264038 529.664001,1259.247559 
	C535.588684,1272.901001 545.766602,1279.697998 560.830017,1279.742798 
	C575.683655,1279.786987 586.320679,1274.038330 592.323181,1260.006714 
	C599.406738,1243.447998 601.510681,1225.871948 601.422791,1208.328125 
	C601.279785,1179.768066 599.571960,1151.212036 598.338074,1122.662354 
	C597.133057,1094.780884 595.694214,1066.909424 594.358826,1039.033569 
	C593.023499,1011.157593 591.699219,983.281067 590.351257,955.405701 
	C589.035522,928.195679 587.624268,900.989990 586.385864,873.776428 
	C584.965759,842.571716 583.663940,811.361572 582.361389,780.151611 
	C581.640686,762.883484 580.803650,745.615906 580.416260,728.339172 
	C579.953247,707.696045 579.256653,687.023926 579.866333,666.399963 
	C580.560425,642.921692 587.327332,621.227112 602.854492,602.890930 
	C608.658508,596.036865 614.175171,588.937317 620.041992,582.138855 
	C635.739380,563.948547 642.175293,542.402222 643.736145,518.886902 
	C646.240051,481.163544 641.577942,443.868164 637.238770,406.568726 
	C633.096191,370.959747 628.638184,335.384918 623.978271,299.839722 
	C621.561523,281.405151 618.530701,263.046844 615.490540,244.701584 
	C614.827148,240.698105 612.940796,236.897247 611.470886,232.571106 
	C605.911743,235.906647 606.078369,240.550873 605.817139,244.662552 
	C604.911438,258.916595 603.673828,273.197418 603.781006,287.458923 
	C604.098816,329.725433 605.021179,371.987244 605.650513,414.251740 
	C605.774170,422.556274 605.851013,430.871918 605.556030,439.168488 
	C605.368347,444.447754 604.094177,449.542786 599.576599,453.758087 
	C594.415161,449.208588 594.624573,443.328339 594.456848,437.995239 
	C593.568054,409.733856 592.827881,381.464783 592.397278,353.192871 
	C591.945679,323.550171 592.044312,293.899048 591.589722,264.256409 
	C591.462830,255.977982 590.451599,247.687958 589.390442,239.462021 
	C588.994202,236.390121 587.298157,233.485870 586.194763,230.505188 
	C585.381958,230.478363 584.569153,230.451538 583.756409,230.424713 
	C582.615540,233.953644 580.831238,237.415939 580.457520,241.024323 
	C579.431885,250.926834 578.756897,260.881531 578.380371,270.832123 
	C577.550476,292.761871 576.854126,314.698700 576.349792,336.638275 
	C575.562134,370.901611 575.003052,405.170166 574.270081,439.434845 
	C574.199280,442.741486 574.256531,446.329010 572.989258,449.234436 
	C572.142151,451.176453 569.158508,452.978851 566.932678,453.257019 
	C565.371765,453.452026 562.799500,451.324371 561.899963,449.597778 
	C560.743408,447.377899 560.464355,444.529480 560.401550,441.937408 
	C559.651489,411.005737 559.091248,380.069427 558.316284,349.138428 
	C557.775024,327.532410 557.059875,305.929779 556.268372,284.331268 
	C555.769531,270.721191 555.105225,257.114136 554.264526,243.521271 
	C553.982849,238.967651 554.713928,233.582260 548.186951,230.867523 
	C547.174316,233.616425 545.959412,235.655853 545.708374,237.807709 
	C544.440613,248.673981 542.606323,259.558746 542.462646,270.456696 
	C541.891479,313.761383 542.021362,357.074951 541.571594,400.381866 
	C541.423279,414.659393 540.338867,428.928467 539.616760,443.198059 
	C539.416870,447.147095 538.885437,451.035156 534.864929,453.262909 
	C530.002686,447.087067 528.249695,442.222473 528.401611,432.842499 
	C528.643860,417.888641 529.489929,402.942871 529.631165,387.989441 
	C529.999573,349.013885 530.287292,310.035858 530.235046,271.059296 
	C530.221252,260.792297 528.921143,250.521637 528.067993,240.264618 
	C527.832458,237.433304 527.409851,234.434311 522.843262,232.738129 
	C514.975891,255.247192 513.416321,278.398193 510.094299,303.025574 
M309.597839,218.909653 
	C308.106628,214.850586 306.550385,210.813965 305.139984,206.727020 
	C303.192719,201.084366 301.207336,195.447449 299.519257,189.725189 
	C298.237213,185.379288 299.353943,181.625992 304.040833,180.173965 
	C308.541046,178.779816 310.909668,181.806107 312.334015,185.438965 
	C314.882721,191.939499 317.116882,198.562653 319.591461,205.093246 
	C320.950653,208.680161 322.532196,212.182800 324.188690,216.142258 
	C331.046570,213.522751 336.785126,211.330780 342.966675,208.969620 
	C340.269379,200.497116 337.644745,192.970596 335.529663,185.303467 
	C334.487732,181.526428 333.738434,177.423264 334.128326,173.597275 
	C334.331726,171.601212 337.064087,168.777084 339.072510,168.364792 
	C340.973541,167.974548 344.003693,169.754059 345.472076,171.483627 
	C347.078796,173.376129 347.543701,176.279251 348.368011,178.787354 
	C351.141388,187.225769 353.853271,195.684372 356.846344,204.931259 
	C363.637146,203.030106 369.580414,201.366211 376.838715,199.334167 
	C372.567749,185.186295 368.862274,171.829834 364.434265,158.717407 
	C362.340057,152.516144 357.217590,149.849579 350.404419,149.498444 
	C339.352295,148.928802 331.132599,153.455811 324.868011,162.339127 
	C310.385040,157.615402 299.266479,162.218964 290.325439,174.006683 
	C282.421661,168.935837 276.513428,173.901840 269.875641,177.834442 
	C276.995605,194.939484 283.867828,211.449295 291.214844,229.099792 
	C297.827698,225.977020 303.698700,223.204559 309.597839,218.909653 
M650.028503,126.258575 
	C646.118164,118.143143 638.567444,122.746086 631.729980,119.991875 
	C630.161987,139.234924 628.694458,157.245377 627.181702,175.810745 
	C634.627930,176.624268 640.670837,177.284454 647.121399,177.989182 
	C648.553650,167.261276 649.475586,157.704819 651.198853,148.295105 
	C652.554321,140.893890 656.152771,137.738846 660.374146,138.765091 
	C664.688354,139.813934 665.789978,143.440536 664.762268,151.267715 
	C663.528015,160.668549 662.614807,170.111526 661.514099,179.970215 
	C668.990112,180.816147 675.055359,181.502441 681.473083,182.228622 
	C682.483276,175.984238 683.129272,171.070114 684.100952,166.221252 
	C685.270813,160.383453 686.479370,154.532196 688.132019,148.820114 
	C689.153625,145.288788 692.003357,143.129181 695.811890,144.171234 
	C699.780029,145.256943 701.744873,148.093384 700.892090,152.482941 
	C700.069885,156.715179 699.378235,160.974075 698.696472,165.232010 
	C697.667175,171.659668 696.696228,178.096664 695.640442,184.917923 
	C699.502075,185.857681 702.335205,186.718674 705.231201,187.205673 
	C708.393799,187.737488 711.614624,187.923096 715.489502,188.331161 
	C718.319702,174.884232 721.355652,162.344681 723.497192,149.654205 
	C725.049011,140.457886 719.351562,133.248962 710.136902,130.064346 
	C701.752380,127.166611 693.947815,129.116852 686.386963,132.355804 
	C675.641296,121.192543 663.773132,121.541313 650.028503,126.258575 
M388.410553,138.966034 
	C384.980408,141.184647 381.550262,143.403259 377.720947,145.880051 
	C381.539612,150.129395 384.373230,153.282623 387.063354,156.276138 
	C404.032990,148.159882 404.032990,148.159882 410.179321,153.258194 
	C406.967316,154.353958 404.194580,155.153854 401.538086,156.238495 
	C396.938110,158.116669 392.096832,159.667725 387.922455,162.265106 
	C380.957825,166.598648 379.007202,172.536484 380.955261,180.328964 
	C383.688446,191.262238 391.706573,196.670639 402.665283,193.550095 
	C408.773407,191.810791 414.250366,187.855026 420.619965,184.585968 
	C425.361389,190.482056 431.261383,186.279922 438.342407,185.009567 
	C435.716003,171.484848 433.679230,158.431122 430.508698,145.658829 
	C428.687225,138.321274 422.972351,134.281799 415.073456,133.644867 
	C406.183380,132.928055 397.938019,135.268784 388.410553,138.966034 
M798.508179,212.051834 
	C802.645386,214.320282 806.079407,212.990234 809.366394,210.127319 
	C811.970215,207.859344 814.773254,205.819931 818.518127,202.866379 
	C819.504944,208.096893 819.938354,211.671326 820.913330,215.091339 
	C821.513916,217.198257 822.450867,220.056580 824.085693,220.868561 
	C829.880493,223.746780 836.040283,225.890091 843.670349,228.958832 
	C841.188477,216.408813 839.104065,205.868591 837.025208,195.356216 
	C846.241272,189.116211 854.694092,183.392990 864.626709,176.667816 
	C857.220154,173.827744 851.287781,171.819260 845.596008,169.273117 
	C842.038147,167.681580 839.388550,168.139465 836.524048,170.616547 
	C833.918884,172.869308 830.929138,174.677399 827.380615,177.199112 
	C826.147583,172.199692 825.484314,168.645752 824.345459,165.251373 
	C823.761475,163.510651 822.670532,161.201660 821.218567,160.618240 
	C814.899353,158.079178 808.363220,156.079849 799.807922,153.171173 
	C802.249023,161.630737 804.243591,167.815918 805.805969,174.108398 
	C809.038696,187.128021 809.864624,183.869919 799.782227,192.145691 
	C794.308838,196.638336 788.773315,201.055405 782.243896,206.332489 
	C788.411438,208.539520 792.749451,210.091873 798.508179,212.051834 
M514.255798,134.733276 
	C519.298523,133.676910 524.817749,129.261459 529.628540,137.673569 
	C525.808777,138.427872 522.709290,138.862701 519.710510,139.670883 
	C514.308411,141.126740 508.605774,142.090576 503.688660,144.569214 
	C497.199280,147.840408 494.933960,155.139755 496.719421,162.704620 
	C498.709778,171.137497 503.727753,175.589020 511.714966,176.356705 
	C520.044983,177.157364 527.313232,174.746429 533.335571,169.193924 
	C540.107849,175.526627 541.490112,175.697922 551.659302,171.573547 
	C551.659302,160.486816 552.059570,149.171310 551.523010,137.900406 
	C551.145508,129.969116 548.380920,122.630287 539.805298,119.883537 
	C525.789795,115.394424 512.653259,118.221443 498.986908,124.818611 
	C501.875854,129.745865 504.150391,133.625214 506.336884,137.354416 
	C509.146667,136.499680 511.040802,135.923477 514.255798,134.733276 
M747.822815,140.860260 
	C745.984558,141.411575 744.146362,141.962906 741.462585,142.767822 
	C742.585205,147.378830 743.623291,151.642624 744.593994,155.629669 
	C764.067749,155.704315 764.067749,155.704315 765.149109,162.922638 
	C757.657471,162.494080 750.116028,161.449631 742.661438,161.886719 
	C738.748840,162.116104 733.903137,163.957932 731.355469,166.771118 
	C722.453918,176.600250 727.878174,193.204681 740.907715,195.837479 
	C747.122864,197.093338 753.801880,196.053452 760.871582,196.053452 
	C764.920410,202.375366 764.920410,202.375366 777.132080,203.810577 
	C780.363525,193.254135 783.792236,182.588104 786.882446,171.824890 
	C790.863281,157.959457 785.792603,148.197449 771.886047,144.232452 
	C764.631409,142.164017 756.935120,141.644287 747.822815,140.860260 
M591.869812,132.327011 
	C593.122192,133.846176 594.374573,135.365341 595.906738,137.223831 
	C587.218811,138.367386 579.520874,138.680344 572.210388,140.526825 
	C563.790405,142.653519 559.897766,150.123428 561.173096,159.066605 
	C562.592041,169.016556 567.196289,173.671219 576.402649,174.318268 
	C583.850281,174.841705 591.124451,174.591873 597.166077,167.791809 
	C600.260681,177.349594 608.056396,173.178299 613.986633,175.598709 
	C614.725769,173.673843 615.491394,172.521652 615.579224,171.319946 
	C616.352478,160.737991 617.121155,150.153122 617.659241,139.557327 
	C618.152588,129.843567 614.349915,122.616241 605.699707,119.813103 
	C592.773499,115.624344 579.794006,116.374298 566.429443,121.922585 
	C568.887207,127.036713 570.834961,131.089569 572.448486,134.447052 
	C579.202515,133.483109 584.748840,132.691528 591.869812,132.327011 
M480.065247,179.150726 
	C483.906982,178.467392 487.748718,177.784073 492.422455,176.952759 
	C492.011444,171.915237 491.648010,167.460587 491.221222,162.229675 
	C483.854248,162.919968 477.415039,163.523331 469.085602,164.303802 
	C474.205750,155.838684 477.977203,148.487885 482.816345,141.924255 
	C487.428528,135.668488 488.542358,129.719803 484.356995,121.912415 
	C469.377563,124.022850 454.117523,126.172806 437.885651,128.459702 
	C439.001892,134.158524 439.861115,138.545074 440.805176,143.364807 
	C447.583984,142.732864 453.626099,142.169601 461.454651,141.439789 
	C456.194336,150.852707 452.228088,158.837982 447.419037,166.278549 
	C443.468323,172.391068 443.486115,177.779495 447.357849,183.492859 
	C457.981873,182.148270 468.162018,180.859863 480.065247,179.150726 
z"/>
<path fill="#DA2827" opacity="1.000000" stroke="none" 
	d="
M3839.915527,622.327637 
	C3824.838867,593.833374 3778.974365,597.727295 3762.755615,623.498596 
	C3754.384033,636.801147 3749.913086,651.372803 3748.405273,666.676575 
	C3746.419678,686.826782 3744.729248,707.086060 3744.517578,727.315308 
	C3743.980713,778.642822 3744.339111,829.979736 3744.339111,881.312866 
	C3744.339111,885.231140 3744.339111,889.149353 3744.339111,893.673950 
	C3697.465088,893.673950 3651.634521,893.673950 3605.066162,893.673950 
	C3605.066162,762.661926 3605.066162,631.876526 3605.066162,500.458008 
	C3607.820557,500.173248 3610.369629,499.685059 3612.919678,499.680389 
	C3642.586182,499.625946 3672.254395,499.807800 3701.917969,499.511749 
	C3708.188477,499.449158 3711.627441,501.450287 3713.823975,507.347260 
	C3718.237549,519.194397 3723.209473,530.834229 3727.994629,542.541748 
	C3728.862549,544.665955 3729.938232,546.705505 3731.364746,549.732605 
	C3733.414307,547.850403 3735.219727,546.613586 3736.489258,544.964355 
	C3761.951172,511.884460 3796.470215,497.091766 3837.217529,493.399445 
	C3857.025635,491.604523 3876.481689,492.751862 3895.697998,496.501038 
	C3925.482178,502.312134 3950.109131,517.442688 3969.307373,541.124634 
	C3971.332764,543.623047 3973.362305,546.118164 3976.144287,549.543518 
	C3978.868652,546.709167 3980.970947,544.782959 3982.772461,542.607849 
	C4007.974854,512.182373 4040.695557,496.927795 4079.710449,493.529083 
	C4106.582520,491.188202 4132.791016,493.542206 4158.387695,501.991333 
	C4195.312500,514.179871 4219.145020,539.078064 4229.959473,576.417603 
	C4235.080078,594.097229 4237.546387,612.233032 4237.587402,630.562012 
	C4237.775879,714.227966 4237.669922,797.894653 4237.669922,881.561035 
	C4237.669922,885.193481 4237.669922,888.825928 4237.669922,892.224487 
	C4230.294434,894.696960 4114.758301,895.530090 4098.330566,893.230469 
	C4098.330566,889.584595 4098.330566,885.709839 4098.330566,881.835144 
	C4098.330078,818.502014 4098.457031,755.168518 4098.229492,691.836182 
	C4098.180664,678.228394 4097.333496,664.576599 4095.966309,651.034668 
	C4094.757812,639.062012 4091.803467,627.327026 4084.019043,617.634644 
	C4071.939453,602.594299 4049.622314,598.360901 4029.147461,606.266479 
	C4016.997559,610.957703 4008.761719,619.891785 4003.706543,631.672180 
	C3995.593994,650.577637 3991.949707,670.527100 3991.743652,690.977600 
	C3991.099365,754.931519 3990.781738,818.888733 3990.342041,882.844666 
	C3990.319336,886.138550 3990.338867,889.432617 3990.338867,892.516602 
	C3982.178223,894.770691 3861.175049,895.049927 3850.331055,892.796753 
	C3850.331055,889.136902 3850.330811,885.226990 3850.330811,881.317078 
	C3850.330811,810.650635 3850.376465,739.984131 3850.296631,669.317810 
	C3850.278564,653.197144 3848.133545,637.446777 3839.915527,622.327637 
z"/>
<path fill="#DA2827" opacity="1.000000" stroke="none" 
	d="
M1625.552246,610.181396 
	C1604.651611,595.592163 1565.120117,600.911804 1552.901245,632.176392 
	C1546.397095,648.818726 1542.384155,665.904236 1541.815918,683.587708 
	C1540.854248,713.522949 1540.576538,743.485535 1540.391724,773.438965 
	C1540.167603,809.765625 1540.338379,846.094604 1540.338379,882.422607 
	C1540.338379,886.004333 1540.338379,889.586060 1540.338379,893.711548 
	C1493.393311,893.711548 1447.570190,893.711548 1400.332153,893.711548 
	C1400.332153,889.513855 1400.332275,885.637146 1400.332275,881.760498 
	C1400.332153,813.103943 1400.350342,744.447388 1400.317261,675.790833 
	C1400.310181,661.091492 1398.790161,646.613220 1394.084839,632.547180 
	C1388.400024,615.552185 1377.572266,604.132202 1359.246948,602.649780 
	C1341.100952,601.181946 1324.853516,606.143188 1313.618896,621.834045 
	C1304.885742,634.031189 1300.325195,648.025696 1298.522583,662.650452 
	C1296.453369,679.438293 1294.670044,696.376709 1294.522949,713.265015 
	C1294.034912,769.252563 1294.338501,825.246948 1294.338501,881.238708 
	C1294.338501,885.159302 1294.338501,889.079834 1294.338501,893.646851 
	C1247.521606,893.646851 1201.692871,893.646851 1155.895386,893.646851 
	C1153.974365,886.398132 1153.395874,514.378174 1155.251221,501.207397 
	C1162.969727,499.176819 1234.988892,498.423401 1259.966309,500.215820 
	C1266.595947,516.117920 1273.453491,532.566467 1280.772949,550.122986 
	C1283.130859,547.869141 1284.881592,546.585083 1286.145752,544.929565 
	C1311.032593,512.337524 1345.042603,497.645050 1384.893799,493.519196 
	C1407.691528,491.158905 1430.039307,492.932709 1452.143677,498.180359 
	C1479.007202,504.557800 1500.677856,519.390320 1518.243286,540.476013 
	C1520.519043,543.207825 1522.852295,545.891663 1525.772827,549.317749 
	C1528.458618,546.582031 1530.636475,544.664917 1532.463501,542.457397 
	C1557.663574,512.010620 1590.470215,497.094543 1629.418823,493.457642 
	C1653.962646,491.165802 1677.938354,493.387604 1701.427490,499.920807 
	C1731.141724,508.185425 1755.204956,524.629578 1769.926392,552.546631 
	C1780.659912,572.900879 1785.997803,594.970276 1786.198486,617.836792 
	C1786.979492,706.777100 1787.226440,795.722168 1787.649414,884.665527 
	C1787.661865,887.291016 1787.420898,889.917664 1787.304077,892.412170 
	C1779.977905,894.724243 1660.963257,895.292725 1647.661499,892.977966 
	C1647.661499,889.331909 1647.661499,885.424622 1647.661499,881.517334 
	C1647.661377,812.860779 1647.809082,744.203674 1647.546875,675.548096 
	C1647.488647,660.276611 1646.183105,644.984741 1640.576538,630.459717 
	C1637.525269,622.554504 1633.432007,615.434143 1625.552246,610.181396 
z"/>
<path fill="#EB1C24" opacity="1.000000" stroke="none" 
	d="
M380.324249,811.999878 
	C380.324249,669.119995 380.324249,527.240112 380.324249,384.732697 
	C378.089600,384.081696 375.323364,383.020844 372.458954,382.497223 
	C367.309235,381.555725 363.252838,383.421753 360.823547,388.151184 
	C359.304749,391.108032 358.125519,394.237183 356.694977,397.241913 
	C352.847412,405.323700 349.457733,413.679504 344.949310,421.377777 
	C337.900330,433.414246 336.723053,446.693695 336.514893,459.899384 
	C335.989807,493.219543 336.274811,526.553711 336.351929,559.881958 
	C336.773560,742.142761 337.233643,924.403625 337.645599,1106.664551 
	C337.651978,1109.485962 337.213989,1112.308472 336.859436,1116.647339 
	C334.030304,1114.012573 332.210968,1112.690308 330.852631,1110.997803 
	C306.900574,1081.156494 283.140533,1051.159546 258.992706,1021.477844 
	C253.578232,1014.822632 251.555328,1007.798096 251.586075,999.452515 
	C251.748245,955.459595 251.661438,911.465759 251.661407,867.472229 
	C251.661285,750.822754 251.661316,634.173218 251.661316,517.523743 
	C251.661316,513.586365 251.661331,509.649048 251.661331,504.257294 
	C236.438934,508.160248 222.452286,511.746368 207.719635,515.523743 
	C207.719635,653.292297 207.719635,790.421692 207.719635,929.773010 
	C204.683029,926.692749 202.986420,925.369202 201.785141,923.691101 
	C191.011658,908.640930 184.270096,891.610596 178.029968,874.384949 
	C161.436905,828.580078 150.912384,781.205750 142.327225,733.382141 
	C134.812988,691.524048 128.602798,649.464355 125.630707,606.998291 
	C124.170029,586.127686 122.735336,565.250000 121.732201,544.354248 
	C120.919250,527.420044 120.053604,510.434418 120.516777,493.507294 
	C121.024872,474.938263 123.001450,456.408051 124.431465,437.868103 
	C124.552193,436.302917 125.378876,434.792145 126.182915,432.315674 
	C140.822800,432.315674 155.428268,432.696442 170.002548,432.186096 
	C180.263428,431.826752 190.660156,431.127655 200.688599,429.076324 
	C245.403244,419.929901 272.370270,391.925385 283.651062,348.410614 
	C286.722595,336.562500 287.970673,324.240326 290.025269,312.130585 
	C290.743774,307.895752 291.371124,303.645508 292.119446,298.898956 
	C349.325775,298.898956 406.135468,298.898956 463.642456,298.898956 
	C463.642456,602.997070 463.642456,906.701233 463.642456,1211.907227 
	C456.455322,1207.284424 449.990906,1203.431763 443.850494,1199.117798 
	C427.239838,1187.448486 410.896301,1175.395386 394.191772,1163.864014 
	C383.873962,1156.741455 380.149567,1147.338989 380.178711,1134.952271 
	C380.431488,1027.635254 380.324280,920.317444 380.324249,811.999878 
z"/>
<path fill="#EC1C24" opacity="1.000000" stroke="none" 
	d="
M927.664612,799.999756 
	C927.664612,705.026672 927.664612,611.053589 927.664612,515.855103 
	C913.167847,512.060120 898.825134,508.305450 883.651489,504.333252 
	C883.157532,506.881927 882.538269,508.969818 882.393555,511.090088 
	C882.189819,514.076050 882.335693,517.085938 882.335693,520.085632 
	C882.335327,679.735168 882.256653,839.384766 882.529297,999.033875 
	C882.545837,1008.719543 879.819458,1016.227112 873.844482,1023.556091 
	C851.347351,1051.151489 829.207458,1079.038086 806.920227,1106.804810 
	C804.637878,1109.648315 802.266235,1112.420044 799.003601,1116.347656 
	C798.416260,1113.196045 797.841187,1111.202393 797.716064,1109.181030 
	C797.531128,1106.192749 797.664673,1103.184570 797.664673,1100.184937 
	C797.664551,886.207886 797.650940,672.230835 797.693115,458.253815 
	C797.696106,442.944183 794.645691,428.772095 786.033630,415.676788 
	C781.709412,409.101501 779.421570,401.192230 776.168762,393.905884 
	C770.491577,381.188965 768.571655,380.397919 753.672668,385.266052 
	C753.672668,389.186798 753.672668,393.456635 753.672668,397.726471 
	C753.672607,643.700073 753.594849,889.673767 753.896057,1135.646973 
	C753.911560,1148.303711 750.181213,1157.269897 739.781860,1164.332275 
	C718.035889,1179.100708 696.622131,1194.358276 675.046875,1209.379028 
	C674.005188,1210.104126 672.723450,1210.484375 671.809021,1210.907104 
	C671.120789,1210.646606 670.752930,1210.594604 670.513672,1210.391357 
	C670.290527,1210.201416 670.075317,1209.851074 670.075195,1209.571167 
	C669.926514,908.952148 669.795288,608.333130 669.682129,307.714111 
	C669.681152,305.076691 669.924683,302.439209 670.090027,299.069061 
	C727.511353,299.069061 784.618591,299.069061 842.663147,299.069061 
	C843.745667,307.350769 844.809143,315.496338 845.875244,323.641571 
	C848.531128,343.932739 853.468628,363.548615 864.100037,381.268860 
	C880.776978,409.065430 906.016296,424.345367 937.413086,429.799866 
	C947.182800,431.497162 957.230652,431.931793 967.172180,432.220276 
	C980.782532,432.615173 994.412964,432.318909 1008.722900,432.318909 
	C1009.742554,438.733429 1011.312561,444.516022 1011.479004,450.338715 
	C1012.391846,482.270020 1014.260925,514.251099 1013.281433,546.137695 
	C1012.304260,577.949768 1009.171509,609.764160 1005.545044,641.412720 
	C996.828430,717.483337 983.718506,792.738586 959.587097,865.671021 
	C953.625122,883.689941 946.681641,901.361694 936.710327,917.647217 
	C934.655884,921.002625 932.286499,924.165100 930.145508,927.294861 
	C929.221985,926.913574 928.879333,926.834351 928.616211,926.644836 
	C928.382385,926.476379 928.076050,926.186157 928.075134,925.948669 
	C927.922241,884.299072 927.793884,842.649475 927.664612,799.999756 
z"/>
<path fill="#DA2827" opacity="1.000000" stroke="none" 
	d="
M2905.989746,601.886230 
	C2895.957275,594.318970 2885.107666,591.841492 2873.526611,591.638062 
	C2850.587158,591.235291 2828.619873,596.438416 2807.087891,603.593872 
	C2791.368652,608.817627 2775.910400,614.825073 2759.133301,620.919922 
	C2745.909180,590.721741 2732.634277,560.407471 2718.900635,529.045898 
	C2726.736816,525.415161 2733.707764,521.743347 2740.997559,518.884521 
	C2772.449951,506.550232 2805.031250,498.618011 2838.690918,495.780975 
	C2859.526611,494.024811 2880.475342,492.290863 2901.345215,492.580841 
	C2929.685303,492.974609 2957.635742,496.887543 2983.861084,509.003265 
	C3028.607666,529.675537 3052.884033,564.885559 3058.140137,613.443054 
	C3059.424561,625.304688 3059.588379,637.328918 3059.607422,649.279419 
	C3059.730225,726.578369 3059.670166,803.877747 3059.669922,881.176941 
	C3059.669678,885.105225 3059.669922,889.033508 3059.669922,893.613037 
	C3026.804443,893.613037 2994.971191,893.613037 2962.148682,893.613037 
	C2953.623779,876.667175 2944.847656,859.221497 2935.408203,840.457764 
	C2931.634521,844.598633 2928.713867,847.606812 2926.011475,850.800049 
	C2900.427979,881.029663 2868.199707,897.791687 2828.413330,900.487122 
	C2808.755371,901.818970 2789.287109,902.592041 2769.888916,898.509521 
	C2722.245605,888.482849 2692.936523,859.448059 2682.543457,812.193298 
	C2676.481934,784.632751 2676.429932,756.758545 2685.524902,729.539246 
	C2694.074219,703.952393 2711.071777,685.605469 2734.609619,672.862366 
	C2762.006836,658.029907 2791.595947,650.440247 2822.287598,647.916382 
	C2851.739990,645.494385 2881.349854,644.988037 2910.890137,643.633667 
	C2913.195557,643.528015 2915.499023,643.372803 2919.157959,643.162903 
	C2920.823486,627.554871 2918.387207,613.635803 2905.989746,601.886230 
M2920.340820,748.679321 
	C2920.340820,739.487976 2920.340820,730.296692 2920.340820,721.637146 
	C2909.307861,721.637146 2899.766113,721.479187 2890.232666,721.694885 
	C2884.268311,721.829834 2878.251953,722.124634 2872.374756,723.069885 
	C2864.204834,724.383972 2855.922852,725.689697 2848.083252,728.220642 
	C2832.530762,733.241455 2822.583496,743.906738 2820.809326,760.510071 
	C2818.386963,783.183350 2829.316650,800.253296 2854.059326,802.231750 
	C2858.689209,802.601929 2863.393066,802.556580 2868.030518,802.237427 
	C2894.078613,800.444519 2921.023193,779.084778 2920.340820,748.679321 
z"/>
<path fill="#DA2827" opacity="1.000000" stroke="none" 
	d="
M2133.843750,878.109253 
	C2127.558838,865.600464 2121.578857,853.774963 2115.073730,840.910645 
	C2111.375732,844.851135 2108.341064,847.799377 2105.628906,851.019104 
	C2080.312256,881.073914 2048.205322,897.458435 2008.903687,900.447876 
	C1988.575073,901.994263 1968.423218,902.673645 1948.397949,898.254456 
	C1904.362793,888.536560 1875.781860,862.084900 1863.951538,818.537903 
	C1856.972534,792.848572 1856.242798,766.661621 1862.227173,740.564209 
	C1870.199707,705.796814 1892.051147,682.591187 1923.807495,668.000732 
	C1948.541382,656.636841 1974.718750,650.066528 2001.705322,647.922302 
	C2030.511475,645.633545 2059.448242,644.983215 2088.330322,643.660828 
	C2091.591553,643.511414 2094.865479,643.640625 2097.946777,643.640625 
	C2103.288818,615.844788 2089.604248,599.375977 2070.169434,594.099548 
	C2053.269531,589.511414 2036.465088,591.712402 2019.744263,594.935547 
	C1995.460693,599.616516 1972.277588,607.866516 1949.490112,617.312378 
	C1946.485840,618.557678 1943.394043,619.592224 1939.130005,621.174438 
	C1925.606934,590.285217 1912.354736,560.014832 1898.908081,529.300476 
	C1912.820068,521.680664 1926.362183,516.325806 1940.252441,511.885651 
	C1976.598022,500.267242 2013.902466,495.081268 2052.024414,493.279724 
	C2078.123535,492.046356 2103.823242,492.756683 2129.342041,497.856171 
	C2156.312744,503.245819 2180.557129,514.651672 2200.780029,533.533447 
	C2219.643799,551.146240 2231.056152,573.240540 2235.583984,598.420654 
	C2238.157227,612.732056 2239.429688,627.460205 2239.496338,642.008850 
	C2239.860596,721.656616 2239.669922,801.306824 2239.669678,880.956238 
	C2239.669678,884.890808 2239.669678,888.825378 2239.669678,893.724243 
	C2235.311035,893.945984 2231.779541,894.275208 2228.247314,894.281494 
	C2202.919434,894.326233 2177.584961,893.978271 2152.268066,894.500732 
	C2144.461182,894.661926 2139.492432,892.774719 2137.248047,885.049866 
	C2136.608643,882.849731 2135.202881,880.872131 2133.843750,878.109253 
M2013.311768,736.179871 
	C2006.265503,742.334656 2001.884521,750.074951 2000.812988,759.310791 
	C1998.321777,780.784851 2006.704468,797.581299 2028.717285,801.571899 
	C2041.135376,803.823059 2053.822754,803.081604 2065.916016,797.993591 
	C2082.797119,790.891235 2101.598633,774.722412 2100.382568,747.064026 
	C2100.105713,740.760803 2100.433105,734.432983 2100.289551,728.120850 
	C2100.232910,725.619141 2099.651367,723.129333 2099.226318,720.031860 
	C2081.575684,721.281494 2064.732910,722.240540 2047.938599,723.741577 
	C2035.913330,724.816406 2024.444946,728.046387 2013.311768,736.179871 
z"/>
<path fill="#DA2827" opacity="1.000000" stroke="none" 
	d="
M3324.455322,644.304382 
	C3340.654297,644.006653 3355.897217,643.709473 3370.938232,643.416321 
	C3376.004150,616.104187 3361.296387,595.809021 3334.444336,592.341980 
	C3317.021240,590.092285 3299.877197,592.653015 3283.032471,596.887329 
	C3271.109131,599.884583 3259.293213,603.437561 3247.653809,607.401245 
	C3236.010986,611.366028 3224.646973,616.149719 3211.758545,621.114624 
	C3197.854492,591.085449 3184.937500,560.365601 3171.045410,528.613708 
	C3183.093994,523.592712 3194.208252,518.363586 3205.728271,514.278687 
	C3234.061523,504.231659 3263.263428,497.812469 3293.283936,495.665955 
	C3313.157959,494.244904 3333.084717,492.351074 3352.967773,492.562531 
	C3379.634277,492.846039 3406.055420,496.288483 3430.980225,506.803589 
	C3478.114258,526.688416 3504.755371,562.024658 3510.244873,612.962402 
	C3511.275146,622.520325 3511.598145,632.194458 3511.610840,641.815796 
	C3511.715332,721.473999 3511.669922,801.132324 3511.669922,880.790649 
	C3511.669922,884.737061 3511.669922,888.683472 3511.669922,892.388184 
	C3503.406738,894.807251 3440.056152,895.603638 3414.317383,893.738953 
	C3405.769287,876.884094 3396.942871,859.480042 3387.366943,840.598816 
	C3384.444580,843.830139 3382.255859,846.074280 3380.262939,848.480347 
	C3354.094971,880.073059 3321.134033,898.027222 3279.668213,900.548523 
	C3259.981689,901.745544 3240.537109,902.396545 3221.132324,898.384155 
	C3175.266357,888.900146 3143.498291,857.231628 3134.526611,811.197144 
	C3130.295654,789.487854 3129.969727,767.507446 3133.704346,745.667542 
	C3139.501709,711.762451 3158.628662,687.649170 3188.842529,671.782776 
	C3214.273682,658.427734 3241.604980,651.607422 3269.861084,648.390869 
	C3287.664551,646.364136 3305.614746,645.622864 3324.455322,644.304382 
M3372.306396,725.719666 
	C3372.658691,720.211853 3368.957520,720.114014 3365.067871,720.326782 
	C3353.145752,720.979065 3341.169189,721.151306 3329.321289,722.475098 
	C3319.812256,723.537659 3310.234131,725.256714 3301.087891,728.014648 
	C3284.623291,732.979248 3274.349609,744.218872 3273.049561,761.725098 
	C3271.319336,785.024658 3281.259277,798.118286 3301.451660,801.579956 
	C3321.243896,804.973022 3339.813232,800.914368 3355.513672,787.235046 
	C3366.087402,778.022156 3372.254883,766.781311 3372.328369,752.548523 
	C3372.371338,744.230286 3372.334229,735.911621 3372.306396,725.719666 
z"/>
<path fill="#DA2827" opacity="1.000000" stroke="none" 
	d="
M4319.103516,721.301514 
	C4331.456055,693.361450 4353.289551,676.919678 4379.828613,665.573608 
	C4402.993652,655.669922 4427.303223,649.945312 4452.231934,647.973083 
	C4481.364258,645.668518 4510.626465,644.999878 4539.833984,643.657959 
	C4542.772949,643.522949 4545.723145,643.639893 4548.429688,643.639893 
	C4554.058105,623.871826 4544.448730,603.610779 4526.460449,596.069885 
	C4515.405273,591.435303 4503.806152,591.029785 4492.098633,591.932007 
	C4464.959473,594.023499 4439.281250,601.960449 4414.071289,611.697083 
	C4406.359863,614.675476 4398.678711,617.731445 4389.680664,621.263184 
	C4376.212402,590.605408 4362.906738,560.317993 4349.045898,528.765503 
	C4359.882324,524.134705 4369.719238,519.413391 4379.916016,515.671936 
	C4409.086426,504.968475 4439.194824,498.093201 4470.195801,495.718018 
	C4490.385254,494.171143 4510.647461,492.346497 4530.856445,492.561188 
	C4559.220703,492.862488 4587.280273,496.665680 4613.465332,508.642548 
	C4657.722168,528.885071 4682.674805,563.404907 4688.217773,611.722046 
	C4689.350098,621.594360 4689.597656,631.611084 4689.610840,641.562073 
	C4689.717773,721.526917 4689.670898,801.492004 4689.670898,881.456970 
	C4689.670898,885.355225 4689.670898,889.253479 4689.670898,893.721680 
	C4656.593262,893.721680 4624.730469,893.721680 4592.192871,893.721680 
	C4583.654785,876.742432 4575.009277,859.548401 4565.719727,841.074768 
	C4562.838867,844.023804 4560.568359,846.169922 4558.498535,848.494385 
	C4540.094727,869.165344 4519.759766,887.131714 4492.133789,894.320007 
	C4457.473633,903.338379 4422.490234,905.865234 4387.798340,895.324097 
	C4346.483887,882.770874 4321.700195,854.104736 4312.873047,812.301758 
	C4307.471191,786.716675 4307.427246,760.738403 4314.136230,735.139771 
	C4315.311035,730.656921 4317.187988,726.357910 4319.103516,721.301514 
M4501.969727,801.904846 
	C4505.200195,801.147217 4508.539062,800.692627 4511.643555,799.582458 
	C4530.525391,792.830383 4545.802246,781.554810 4549.297363,760.838257 
	C4551.459961,748.018555 4549.698730,734.536926 4549.698730,721.640991 
	C4539.235352,721.640991 4529.333008,720.892822 4519.591797,721.824280 
	C4506.445312,723.081238 4493.198242,724.712524 4480.402832,727.850525 
	C4463.293457,732.046692 4453.119629,743.384521 4451.243652,761.480042 
	C4448.469238,788.244080 4465.560059,801.314514 4484.229492,802.240295 
	C4489.534180,802.503357 4494.867188,802.202881 4501.969727,801.904846 
z"/>
<path fill="#DA2827" opacity="1.000000" stroke="none" 
	d="
M4796.000000,894.303772 
	C4777.025391,894.303772 4759.050781,894.303772 4739.315430,894.303772 
	C4746.912598,878.961426 4756.644043,866.449097 4764.827148,853.055908 
	C4772.982910,839.707520 4781.788086,826.756165 4790.283203,813.614258 
	C4798.958984,800.192566 4807.614746,786.758179 4816.258301,773.315552 
	C4824.720215,760.155334 4833.154297,746.977295 4841.602051,733.808167 
	C4850.216797,720.378723 4858.833496,706.950684 4867.678223,693.165894 
	C4826.992188,629.089417 4786.552734,565.401245 4745.338867,500.493927 
	C4748.840332,500.112213 4750.964355,499.680298 4753.088379,499.678528 
	C4800.738281,499.639008 4848.388672,499.729553 4896.037598,499.537079 
	C4901.767090,499.513916 4904.926758,501.363464 4907.707031,506.504547 
	C4925.118652,538.699646 4942.915039,570.686523 4960.604004,602.731689 
	C4961.524902,604.399841 4962.622559,605.970520 4964.415039,608.823242 
	C4971.258789,596.857971 4977.501465,586.036865 4983.654785,575.165466 
	C4996.768555,551.998840 5009.956543,528.872314 5022.815918,505.565125 
	C5025.253418,501.147552 5028.121094,499.554321 5033.034180,499.568451 
	C5081.684082,499.708679 5130.333496,499.659454 5178.983398,499.686676 
	C5180.298828,499.687439 5181.613770,499.944580 5184.519531,500.248444 
	C5171.456055,522.977539 5156.583008,543.618408 5143.017090,565.051025 
	C5129.484375,586.432678 5115.333496,607.422302 5101.498535,628.613586 
	C5087.509766,650.041443 5073.577148,671.505920 5059.455566,693.206238 
	C5102.812500,759.891235 5145.909668,826.176758 5189.813965,893.703857 
	C5185.119141,893.973328 5182.244141,894.280334 5179.369141,894.282227 
	C5133.052246,894.312134 5086.733887,894.143005 5040.419434,894.474304 
	C5033.412598,894.524353 5029.781250,892.118347 5026.466309,886.156250 
	C5007.548828,852.126221 4988.222168,818.323669 4969.017578,784.453186 
	C4967.882324,782.451050 4966.601074,780.532043 4964.560059,777.239563 
	C4962.500977,780.238281 4960.780762,782.383728 4959.443359,784.745483 
	C4940.416992,818.332886 4921.181641,851.806824 4902.668457,885.675354 
	C4898.820801,892.714661 4894.435059,894.554871 4886.967773,894.460388 
	C4856.982910,894.081116 4826.989746,894.303711 4796.000000,894.303772 
z"/>
<path fill="#DA2827" opacity="1.000000" stroke="none" 
	d="
M2373.257324,725.264160 
	C2404.475342,685.993042 2435.214600,647.254700 2467.489502,606.581604 
	C2414.388672,606.581604 2363.697998,606.581604 2312.342773,606.581604 
	C2312.342773,570.581177 2312.342773,535.806030 2312.342773,500.335571 
	C2417.059082,500.335571 2521.511963,500.335571 2626.796875,500.335571 
	C2627.079590,502.784393 2627.616943,505.303528 2627.623779,507.824097 
	C2627.688721,531.812744 2627.554932,555.802551 2627.753174,579.789673 
	C2627.794434,584.787537 2626.204102,588.593628 2623.157227,592.454895 
	C2574.519043,654.098206 2525.994385,715.831055 2477.460693,777.556580 
	C2475.302979,780.300720 2473.303711,783.169373 2469.975586,787.681274 
	C2526.211914,787.681274 2580.305420,787.681274 2635.025879,787.681274 
	C2635.025879,823.527283 2635.025879,858.300598 2635.025879,893.689026 
	C2524.352539,893.689026 2414.206299,893.689026 2303.036865,893.689026 
	C2302.804199,890.863831 2302.375000,888.020386 2302.367188,885.175781 
	C2302.309082,864.185669 2302.471191,843.193970 2302.243652,822.206177 
	C2302.182129,816.541260 2303.828369,812.147888 2307.407715,807.713745 
	C2329.351318,780.531860 2351.019287,753.127319 2373.257324,725.264160 
z"/>
<path fill="#EA1C24" opacity="1.000000" stroke="none" 
	d="
M510.176453,302.126892 
	C513.416321,278.398193 514.975891,255.247192 522.843262,232.738129 
	C527.409851,234.434311 527.832458,237.433304 528.067993,240.264618 
	C528.921143,250.521637 530.221252,260.792297 530.235046,271.059296 
	C530.287292,310.035858 529.999573,349.013885 529.631165,387.989441 
	C529.489929,402.942871 528.643860,417.888641 528.401611,432.842499 
	C528.249695,442.222473 530.002686,447.087067 534.864929,453.262909 
	C538.885437,451.035156 539.416870,447.147095 539.616760,443.198059 
	C540.338867,428.928467 541.423279,414.659393 541.571594,400.381866 
	C542.021362,357.074951 541.891479,313.761383 542.462646,270.456696 
	C542.606323,259.558746 544.440613,248.673981 545.708374,237.807709 
	C545.959412,235.655853 547.174316,233.616425 548.186951,230.867523 
	C554.713928,233.582260 553.982849,238.967651 554.264526,243.521271 
	C555.105225,257.114136 555.769531,270.721191 556.268372,284.331268 
	C557.059875,305.929779 557.775024,327.532410 558.316284,349.138428 
	C559.091248,380.069427 559.651489,411.005737 560.401550,441.937408 
	C560.464355,444.529480 560.743408,447.377899 561.899963,449.597778 
	C562.799500,451.324371 565.371765,453.452026 566.932678,453.257019 
	C569.158508,452.978851 572.142151,451.176453 572.989258,449.234436 
	C574.256531,446.329010 574.199280,442.741486 574.270081,439.434845 
	C575.003052,405.170166 575.562134,370.901611 576.349792,336.638275 
	C576.854126,314.698700 577.550476,292.761871 578.380371,270.832123 
	C578.756897,260.881531 579.431885,250.926834 580.457520,241.024323 
	C580.831238,237.415939 582.615540,233.953644 583.756409,230.424713 
	C584.569153,230.451538 585.381958,230.478363 586.194763,230.505188 
	C587.298157,233.485870 588.994202,236.390121 589.390442,239.462021 
	C590.451599,247.687958 591.462830,255.977982 591.589722,264.256409 
	C592.044312,293.899048 591.945679,323.550171 592.397278,353.192871 
	C592.827881,381.464783 593.568054,409.733856 594.456848,437.995239 
	C594.624573,443.328339 594.415161,449.208588 599.576599,453.758087 
	C604.094177,449.542786 605.368347,444.447754 605.556030,439.168488 
	C605.851013,430.871918 605.774170,422.556274 605.650513,414.251740 
	C605.021179,371.987244 604.098816,329.725433 603.781006,287.458923 
	C603.673828,273.197418 604.911438,258.916595 605.817139,244.662552 
	C606.078369,240.550873 605.911743,235.906647 611.470886,232.571106 
	C612.940796,236.897247 614.827148,240.698105 615.490540,244.701584 
	C618.530701,263.046844 621.561523,281.405151 623.978271,299.839722 
	C628.638184,335.384918 633.096191,370.959747 637.238770,406.568726 
	C641.577942,443.868164 646.240051,481.163544 643.736145,518.886902 
	C642.175293,542.402222 635.739380,563.948547 620.041992,582.138855 
	C614.175171,588.937317 608.658508,596.036865 602.854492,602.890930 
	C587.327332,621.227112 580.560425,642.921692 579.866333,666.399963 
	C579.256653,687.023926 579.953247,707.696045 580.416260,728.339172 
	C580.803650,745.615906 581.640686,762.883484 582.361389,780.151611 
	C583.663940,811.361572 584.965759,842.571716 586.385864,873.776428 
	C587.624268,900.989990 589.035522,928.195679 590.351257,955.405701 
	C591.699219,983.281067 593.023499,1011.157593 594.358826,1039.033569 
	C595.694214,1066.909424 597.133057,1094.780884 598.338074,1122.662354 
	C599.571960,1151.212036 601.279785,1179.768066 601.422791,1208.328125 
	C601.510681,1225.871948 599.406738,1243.447998 592.323181,1260.006714 
	C586.320679,1274.038330 575.683655,1279.786987 560.830017,1279.742798 
	C545.766602,1279.697998 535.588684,1272.901001 529.664001,1259.247559 
	C523.162231,1244.264038 522.045471,1228.315063 521.747559,1212.354126 
	C521.257202,1186.078003 522.673096,1159.874390 525.439026,1133.713379 
	C527.009583,1118.858154 527.277954,1103.869263 528.331116,1088.954590 
	C529.990967,1065.449463 531.924683,1041.963501 533.544800,1018.455872 
	C535.257629,993.601685 536.630554,968.724121 538.351868,943.870544 
	C540.117859,918.371948 542.250305,892.898621 543.991089,867.398438 
	C545.597229,843.871033 546.846375,820.319580 548.343994,796.784424 
	C550.178406,767.956909 552.177551,739.139771 553.972107,710.309875 
	C555.270874,689.443909 556.510864,668.607605 552.434021,647.810974 
	C548.749634,629.016541 540.564880,612.774902 528.003357,598.336853 
	C519.507690,588.572144 511.324768,578.382446 504.259064,567.561951 
	C493.561218,551.179321 490.907684,532.231506 490.404663,513.135986 
	C489.316345,471.821503 493.833862,430.884430 499.333130,390.012329 
	C503.228821,361.058289 506.528534,332.024017 510.176453,302.126892 
z"/>
<path fill="#E51B23" opacity="1.000000" stroke="none" 
	d="
M309.583771,219.670868 
	C303.698700,223.204559 297.827698,225.977020 291.214844,229.099792 
	C283.867828,211.449295 276.995605,194.939484 269.875641,177.834442 
	C276.513428,173.901840 282.421661,168.935837 290.325439,174.006683 
	C299.266479,162.218964 310.385040,157.615402 324.868011,162.339127 
	C331.132599,153.455811 339.352295,148.928802 350.404419,149.498444 
	C357.217590,149.849579 362.340057,152.516144 364.434265,158.717407 
	C368.862274,171.829834 372.567749,185.186295 376.838715,199.334167 
	C369.580414,201.366211 363.637146,203.030106 356.846344,204.931259 
	C353.853271,195.684372 351.141388,187.225769 348.368011,178.787354 
	C347.543701,176.279251 347.078796,173.376129 345.472076,171.483627 
	C344.003693,169.754059 340.973541,167.974548 339.072510,168.364792 
	C337.064087,168.777084 334.331726,171.601212 334.128326,173.597275 
	C333.738434,177.423264 334.487732,181.526428 335.529663,185.303467 
	C337.644745,192.970596 340.269379,200.497116 342.966675,208.969620 
	C336.785126,211.330780 331.046570,213.522751 324.188690,216.142258 
	C322.532196,212.182800 320.950653,208.680161 319.591461,205.093246 
	C317.116882,198.562653 314.882721,191.939499 312.334015,185.438965 
	C310.909668,181.806107 308.541046,178.779816 304.040833,180.173965 
	C299.353943,181.625992 298.237213,185.379288 299.519257,189.725189 
	C301.207336,195.447449 303.192719,201.084366 305.139984,206.727020 
	C306.550385,210.813965 308.106628,214.850586 309.583771,219.670868 
z"/>
<path fill="#E61B23" opacity="1.000000" stroke="none" 
	d="
M650.617615,126.758820 
	C663.773132,121.541313 675.641296,121.192543 686.386963,132.355804 
	C693.947815,129.116852 701.752380,127.166611 710.136902,130.064346 
	C719.351562,133.248962 725.049011,140.457886 723.497192,149.654205 
	C721.355652,162.344681 718.319702,174.884232 715.489502,188.331161 
	C711.614624,187.923096 708.393799,187.737488 705.231201,187.205673 
	C702.335205,186.718674 699.502075,185.857681 695.640442,184.917923 
	C696.696228,178.096664 697.667175,171.659668 698.696472,165.232010 
	C699.378235,160.974075 700.069885,156.715179 700.892090,152.482941 
	C701.744873,148.093384 699.780029,145.256943 695.811890,144.171234 
	C692.003357,143.129181 689.153625,145.288788 688.132019,148.820114 
	C686.479370,154.532196 685.270813,160.383453 684.100952,166.221252 
	C683.129272,171.070114 682.483276,175.984238 681.473083,182.228622 
	C675.055359,181.502441 668.990112,180.816147 661.514099,179.970215 
	C662.614807,170.111526 663.528015,160.668549 664.762268,151.267715 
	C665.789978,143.440536 664.688354,139.813934 660.374146,138.765091 
	C656.152771,137.738846 652.554321,140.893890 651.198853,148.295105 
	C649.475586,157.704819 648.553650,167.261276 647.121399,177.989182 
	C640.670837,177.284454 634.627930,176.624268 627.181702,175.810745 
	C628.694458,157.245377 630.161987,139.234924 631.729980,119.991875 
	C638.567444,122.746086 646.118164,118.143143 650.617615,126.758820 
z"/>
<path fill="#E51B23" opacity="1.000000" stroke="none" 
	d="
M389.093536,138.625336 
	C397.938019,135.268784 406.183380,132.928055 415.073456,133.644867 
	C422.972351,134.281799 428.687225,138.321274 430.508698,145.658829 
	C433.679230,158.431122 435.716003,171.484848 438.342407,185.009567 
	C431.261383,186.279922 425.361389,190.482056 420.619965,184.585968 
	C414.250366,187.855026 408.773407,191.810791 402.665283,193.550095 
	C391.706573,196.670639 383.688446,191.262238 380.955261,180.328964 
	C379.007202,172.536484 380.957825,166.598648 387.922455,162.265106 
	C392.096832,159.667725 396.938110,158.116669 401.538086,156.238495 
	C404.194580,155.153854 406.967316,154.353958 410.179321,153.258194 
	C404.032990,148.159882 404.032990,148.159882 387.063354,156.276138 
	C384.373230,153.282623 381.539612,150.129395 377.720947,145.880051 
	C381.550262,143.403259 384.980408,141.184647 389.093536,138.625336 
M401.775299,172.962860 
	C402.682007,177.941177 405.883636,178.905502 409.734009,176.682587 
	C413.920288,174.265717 415.325562,170.611313 412.102264,165.675934 
	C407.989502,166.817734 403.975861,167.162689 401.775299,172.962860 
z"/>
<path fill="#E51B23" opacity="1.000000" stroke="none" 
	d="
M797.797852,211.848022 
	C792.749451,210.091873 788.411438,208.539520 782.243896,206.332489 
	C788.773315,201.055405 794.308838,196.638336 799.782227,192.145691 
	C809.864624,183.869919 809.038696,187.128021 805.805969,174.108398 
	C804.243591,167.815918 802.249023,161.630737 799.807922,153.171173 
	C808.363220,156.079849 814.899353,158.079178 821.218567,160.618240 
	C822.670532,161.201660 823.761475,163.510651 824.345459,165.251373 
	C825.484314,168.645752 826.147583,172.199692 827.380615,177.199112 
	C830.929138,174.677399 833.918884,172.869308 836.524048,170.616547 
	C839.388550,168.139465 842.038147,167.681580 845.596008,169.273117 
	C851.287781,171.819260 857.220154,173.827744 864.626709,176.667816 
	C854.694092,183.392990 846.241272,189.116211 837.025208,195.356216 
	C839.104065,205.868591 841.188477,216.408813 843.670349,228.958832 
	C836.040283,225.890091 829.880493,223.746780 824.085693,220.868561 
	C822.450867,220.056580 821.513916,217.198257 820.913330,215.091339 
	C819.938354,211.671326 819.504944,208.096893 818.518127,202.866379 
	C814.773254,205.819931 811.970215,207.859344 809.366394,210.127319 
	C806.079407,212.990234 802.645386,214.320282 797.797852,211.848022 
z"/>
<path fill="#E41B23" opacity="1.000000" stroke="none" 
	d="
M513.595337,135.040283 
	C511.040802,135.923477 509.146667,136.499680 506.336884,137.354416 
	C504.150391,133.625214 501.875854,129.745865 498.986908,124.818611 
	C512.653259,118.221443 525.789795,115.394424 539.805298,119.883537 
	C548.380920,122.630287 551.145508,129.969116 551.523010,137.900406 
	C552.059570,149.171310 551.659302,160.486816 551.659302,171.573547 
	C541.490112,175.697922 540.107849,175.526627 533.335571,169.193924 
	C527.313232,174.746429 520.044983,177.157364 511.714966,176.356705 
	C503.727753,175.589020 498.709778,171.137497 496.719421,162.704620 
	C494.933960,155.139755 497.199280,147.840408 503.688660,144.569214 
	C508.605774,142.090576 514.308411,141.126740 519.710510,139.670883 
	C522.709290,138.862701 525.808777,138.427872 529.628540,137.673569 
	C524.817749,129.261459 519.298523,133.676910 513.595337,135.040283 
M518.893433,159.653900 
	C521.908875,162.406860 524.902832,161.839066 527.768127,159.471191 
	C530.774780,156.986465 531.153076,154.069031 529.069153,150.848724 
	C519.959595,151.325653 519.959595,151.325653 518.893433,159.653900 
z"/>
<path fill="#E61B23" opacity="1.000000" stroke="none" 
	d="
M748.630615,140.642654 
	C756.935120,141.644287 764.631409,142.164017 771.886047,144.232452 
	C785.792603,148.197449 790.863281,157.959457 786.882446,171.824890 
	C783.792236,182.588104 780.363525,193.254135 777.132080,203.810577 
	C764.920410,202.375366 764.920410,202.375366 760.871582,196.053452 
	C753.801880,196.053452 747.122864,197.093338 740.907715,195.837479 
	C727.878174,193.204681 722.453918,176.600250 731.355469,166.771118 
	C733.903137,163.957932 738.748840,162.116104 742.661438,161.886719 
	C750.116028,161.449631 757.657471,162.494080 765.149109,162.922638 
	C764.067749,155.704315 764.067749,155.704315 744.593994,155.629669 
	C743.623291,151.642624 742.585205,147.378830 741.462585,142.767822 
	C744.146362,141.962906 745.984558,141.411575 748.630615,140.642654 
M762.775146,177.182663 
	C760.286621,173.566437 756.517944,173.657242 753.141724,174.744675 
	C751.446167,175.290802 748.982422,178.425674 749.367859,179.409637 
	C750.139160,181.378235 752.434387,183.621597 754.456726,184.043427 
	C758.440613,184.874405 761.189636,182.436829 762.775146,177.182663 
z"/>
<path fill="#E61B23" opacity="1.000000" stroke="none" 
	d="
M591.082520,132.113480 
	C584.748840,132.691528 579.202515,133.483109 572.448486,134.447052 
	C570.834961,131.089569 568.887207,127.036713 566.429443,121.922585 
	C579.794006,116.374298 592.773499,115.624344 605.699707,119.813103 
	C614.349915,122.616241 618.152588,129.843567 617.659241,139.557327 
	C617.121155,150.153122 616.352478,160.737991 615.579224,171.319946 
	C615.491394,172.521652 614.725769,173.673843 613.986633,175.598709 
	C608.056396,173.178299 600.260681,177.349594 597.166077,167.791809 
	C591.124451,174.591873 583.850281,174.841705 576.402649,174.318268 
	C567.196289,173.671219 562.592041,169.016556 561.173096,159.066605 
	C559.897766,150.123428 563.790405,142.653519 572.210388,140.526825 
	C579.520874,138.680344 587.218811,138.367386 595.906738,137.223831 
	C594.374573,135.365341 593.122192,133.846176 591.082520,132.113480 
M583.559509,152.184052 
	C581.407532,156.235382 582.081726,159.337769 586.927979,160.191910 
	C591.881042,161.064880 594.176575,158.235321 595.186462,149.686554 
	C591.496155,150.175446 588.096680,150.625809 583.559509,152.184052 
z"/>
<path fill="#E51B23" opacity="1.000000" stroke="none" 
	d="
M479.203705,179.361084 
	C468.162018,180.859863 457.981873,182.148270 447.357849,183.492859 
	C443.486115,177.779495 443.468323,172.391068 447.419037,166.278549 
	C452.228088,158.837982 456.194336,150.852707 461.454651,141.439789 
	C453.626099,142.169601 447.583984,142.732864 440.805176,143.364807 
	C439.861115,138.545074 439.001892,134.158524 437.885651,128.459702 
	C454.117523,126.172806 469.377563,124.022850 484.356995,121.912415 
	C488.542358,129.719803 487.428528,135.668488 482.816345,141.924255 
	C477.977203,148.487885 474.205750,155.838684 469.085602,164.303802 
	C477.415039,163.523331 483.854248,162.919968 491.221222,162.229675 
	C491.648010,167.460587 492.011444,171.915237 492.422455,176.952759 
	C487.748718,177.784073 483.906982,178.467392 479.203705,179.361084 
z"/>
<path fill="#FFFFFF" opacity="1.000000" stroke="none" 
	d="
M2920.339844,749.623596 
	C2921.023193,779.084778 2894.078613,800.444519 2868.030518,802.237427 
	C2863.393066,802.556580 2858.689209,802.601929 2854.059326,802.231750 
	C2829.316650,800.253296 2818.386963,783.183350 2820.809326,760.510071 
	C2822.583496,743.906738 2832.530762,733.241455 2848.083252,728.220642 
	C2855.922852,725.689697 2864.204834,724.383972 2872.374756,723.069885 
	C2878.251953,722.124634 2884.268311,721.829834 2890.232666,721.694885 
	C2899.766113,721.479187 2909.307861,721.637146 2920.340820,721.637146 
	C2920.340820,730.296692 2920.340820,739.487976 2920.339844,749.623596 
z"/>
<path fill="#FFFFFF" opacity="1.000000" stroke="none" 
	d="
M2013.862061,735.692871 
	C2024.444946,728.046387 2035.913330,724.816406 2047.938599,723.741577 
	C2064.732910,722.240540 2081.575684,721.281494 2099.226318,720.031860 
	C2099.651367,723.129333 2100.232910,725.619141 2100.289551,728.120850 
	C2100.433105,734.432983 2100.105713,740.760803 2100.382568,747.064026 
	C2101.598633,774.722412 2082.797119,790.891235 2065.916016,797.993591 
	C2053.822754,803.081604 2041.135376,803.823059 2028.717285,801.571899 
	C2006.704468,797.581299 1998.321777,780.784851 2000.812988,759.310791 
	C2001.884521,750.074951 2006.265503,742.334656 2013.862061,735.692871 
z"/>
<path fill="#FFFFFF" opacity="1.000000" stroke="none" 
	d="
M3372.319580,726.656372 
	C3372.334229,735.911621 3372.371338,744.230286 3372.328369,752.548523 
	C3372.254883,766.781311 3366.087402,778.022156 3355.513672,787.235046 
	C3339.813232,800.914368 3321.243896,804.973022 3301.451660,801.579956 
	C3281.259277,798.118286 3271.319336,785.024658 3273.049561,761.725098 
	C3274.349609,744.218872 3284.623291,732.979248 3301.087891,728.014648 
	C3310.234131,725.256714 3319.812256,723.537659 3329.321289,722.475098 
	C3341.169189,721.151306 3353.145752,720.979065 3365.067871,720.326782 
	C3368.957520,720.114014 3372.658691,720.211853 3372.319580,726.656372 
z"/>
<path fill="#FFFFFF" opacity="1.000000" stroke="none" 
	d="
M4501.078125,802.032837 
	C4494.867188,802.202881 4489.534180,802.503357 4484.229492,802.240295 
	C4465.560059,801.314514 4448.469238,788.244080 4451.243652,761.480042 
	C4453.119629,743.384521 4463.293457,732.046692 4480.402832,727.850525 
	C4493.198242,724.712524 4506.445312,723.081238 4519.591797,721.824280 
	C4529.333008,720.892822 4539.235352,721.640991 4549.698730,721.640991 
	C4549.698730,734.536926 4551.459961,748.018555 4549.297363,760.838257 
	C4545.802246,781.554810 4530.525391,792.830383 4511.643555,799.582458 
	C4508.539062,800.692627 4505.200195,801.147217 4501.078125,802.032837 
z"/>
<path fill="#FFFFFF" opacity="1.000000" stroke="none" 
	d="
M401.870361,172.180542 
	C403.975861,167.162689 407.989502,166.817734 412.102264,165.675934 
	C415.325562,170.611313 413.920288,174.265717 409.734009,176.682587 
	C405.883636,178.905502 402.682007,177.941177 401.870361,172.180542 
z"/>
<path fill="#FFFFFF" opacity="1.000000" stroke="none" 
	d="
M518.515686,158.977020 
	C519.959595,151.325653 519.959595,151.325653 529.069153,150.848724 
	C531.153076,154.069031 530.774780,156.986465 527.768127,159.471191 
	C524.902832,161.839066 521.908875,162.406860 518.515686,158.977020 
z"/>
<path fill="#FFFFFF" opacity="1.000000" stroke="none" 
	d="
M762.634521,177.875366 
	C761.189636,182.436829 758.440613,184.874405 754.456726,184.043427 
	C752.434387,183.621597 750.139160,181.378235 749.367859,179.409637 
	C748.982422,178.425674 751.446167,175.290802 753.141724,174.744675 
	C756.517944,173.657242 760.286621,173.566437 762.634521,177.875366 
z"/>
<path fill="#FFFFFF" opacity="1.000000" stroke="none" 
	d="
M584.128357,151.630112 
	C588.096680,150.625809 591.496155,150.175446 595.186462,149.686554 
	C594.176575,158.235321 591.881042,161.064880 586.927979,160.191910 
	C582.081726,159.337769 581.407532,156.235382 584.128357,151.630112 
z"/>
</svg>