<svg xmlns="http://www.w3.org/2000/svg" version="1.1" xmlns:xlink="http://www.w3.org/1999/xlink" xmlns:svgjs="http://svgjs.com/svgjs" width="1048.000000pt" height="1157.000000pt"><svg version="1.0" xmlns="http://www.w3.org/2000/svg" width="1048.000000pt" height="1157.000000pt" viewBox="0 0 1048.000000 1157.000000" preserveAspectRatio="xMidYMid meet">

<g transform="translate(0.000000,1157.000000) scale(0.100000,-0.100000)" fill="#db2827" stroke="none">
<path d="M1876 11199 c-261 -30 -561 -140 -776 -284 -266 -178 -470 -410 -610
-690 -79 -158 -128 -300 -162 -467 l-23 -113 0 -2645 c0 -2482 1 -2654 18
-2790 69 -555 207 -1032 435 -1495 103 -209 170 -324 307 -530 787 -1180 2067
-1913 3500 -2005 205 -13 1091 -13 1300 0 1428 90 2714 826 3500 2005 137 206
204 321 307 530 227 462 367 944 435 1495 17 136 18 313 18 2790 l0 2645 -23
113 c-34 167 -83 310 -162 467 -247 493 -684 827 -1244 953 l-121 27 -3315 1
c-1823 1 -3346 -2 -3384 -7z m3064 -5525 c0 -3649 -3 -4564 -12 -4558 -96 57
-452 300 -575 392 -160 120 -214 171 -236 221 -9 19 -11 978 -11 3843 l0 3817
-49 11 c-61 13 -80 13 -110 -1 -30 -14 -46 -41 -97 -169 -23 -58 -61 -136 -85
-175 -50 -81 -81 -166 -95 -262 -6 -43 -10 -1275 -10 -3397 0 -3010 -1 -3327
-16 -3316 -22 19 -798 990 -815 1020 -12 21 -14 417 -17 2558 -3 2375 -4 2533
-20 2528 -37 -10 -412 -106 -417 -106 -3 0 -5 -931 -5 -2070 0 -1289 -4 -2070
-9 -2070 -16 0 -108 147 -160 255 -297 607 -569 1898 -665 3148 -45 579 -41
1198 10 1520 l6 37 231 0 c282 0 425 13 574 50 312 79 542 259 680 534 81 162
124 325 159 614 l17 142 864 0 863 0 0 -4566z m2244 4544 c3 -13 15 -97 26
-188 12 -91 35 -214 50 -275 121 -469 416 -744 890 -830 70 -13 174 -19 398
-22 166 -3 302 -9 302 -13 0 -4 8 -72 17 -151 26 -208 25 -1018 0 -1339 -110
-1395 -399 -2720 -718 -3295 -29 -53 -67 -113 -85 -133 l-33 -37 -1 2071 0
2071 -219 56 c-120 32 -222 57 -225 57 -3 0 -6 -1139 -6 -2530 0 -2297 -1
-2534 -16 -2562 -22 -43 -813 -1028 -825 -1028 -7 0 -10 1084 -9 3363 l2 3362
-21 79 c-12 44 -37 107 -56 140 -43 75 -93 179 -131 271 -32 80 -71 125 -108
125 -14 0 -48 -5 -76 -11 l-50 -11 0 -3816 c0 -3687 -1 -3818 -19 -3858 -32
-71 -260 -245 -663 -508 l-148 -96 0 4565 0 4565 860 0 860 0 4 -22z"></path>
</g>
</svg><style>@media (prefers-color-scheme: light) { :root { filter: none; } }
</style></svg>