<?xml version="1.0" standalone="no"?>
<!DOCTYPE svg PUBLIC "-//W3C//DTD SVG 20010904//EN"
 "http://www.w3.org/TR/2001/REC-SVG-20010904/DTD/svg10.dtd">
<svg version="1.0" xmlns="http://www.w3.org/2000/svg"
 width="383.000000pt" height="383.000000pt" viewBox="0 0 383.000000 383.000000"
 preserveAspectRatio="xMidYMid meet">

<g transform="translate(0.000000,383.000000) scale(0.100000,-0.100000)"
fill="#ED1D25" stroke="none">
<path d="M945 3531 c-247 -31 -434 -211 -466 -452 -15 -111 -5 -1674 11 -1768
28 -163 113 -368 216 -523 182 -274 527 -506 850 -573 179 -37 589 -37 781 0
494 95 886 447 1055 947 41 121 41 127 50 318 5 107 7 510 5 895 -4 613 -6
707 -21 760 -55 198 -195 337 -383 382 -60 14 -191 16 -1053 19 -542 1 -1012
-1 -1045 -5z m1815 -347 c96 -28 179 -92 233 -180 27 -43 63 -152 54 -161 -3
-3 -30 33 -60 79 -59 92 -122 155 -189 189 -59 31 -215 38 -307 14 -35 -9 -66
-14 -69 -11 -15 15 59 61 123 77 54 13 160 9 215 -7z m-58 -126 c98 -21 212
-117 264 -224 65 -133 89 -442 50 -651 -19 -105 -59 -248 -85 -308 -18 -40
-18 -39 -24 225 -6 287 -13 334 -66 439 -40 79 -70 112 -132 145 -72 40 -158
45 -270 17 -98 -25 -213 -79 -217 -103 -4 -22 111 -103 296 -208 78 -45 142
-85 142 -89 0 -34 -105 -42 -219 -16 -92 21 -305 127 -536 266 -229 138 -327
179 -441 187 -135 8 -214 -31 -288 -142 -60 -90 -69 -146 -64 -400 5 -242 18
-323 95 -575 110 -366 326 -773 402 -759 8 2 25 18 38 36 46 70 68 149 136
502 53 269 117 352 212 269 43 -38 44 -50 5 -43 -24 5 -35 1 -58 -24 -39 -42
-47 -74 -82 -339 -49 -378 -83 -504 -154 -579 -33 -34 -50 -44 -75 -44 -98 0
-231 145 -374 408 -256 472 -408 1018 -394 1417 7 212 50 338 152 444 105 110
234 157 410 148 156 -7 269 -51 416 -158 37 -27 73 -49 82 -49 8 0 97 40 198
89 193 93 268 119 384 131 75 7 122 5 197 -12z m-1242 -408 c0 -5 -13 -16 -29
-24 -84 -44 -240 -285 -241 -374 0 -13 -4 -20 -10 -17 -28 17 3 164 56 266 24
46 49 76 79 98 70 50 145 77 145 51z m521 -798 c32 -36 89 -146 89 -171 0 -8
-24 12 -54 45 -71 79 -97 92 -131 70 -27 -18 -95 -146 -95 -179 0 -24 -38 -97
-50 -97 -11 0 -7 40 16 164 16 84 31 120 71 174 46 61 97 59 154 -6z m840
-158 c167 -123 101 -204 -184 -226 -102 -8 -178 -8 -263 -1 -110 10 -244 38
-244 52 0 3 114 6 252 6 243 0 255 1 303 23 93 43 115 85 80 152 -21 40 -4 39
56 -6z m-65 -316 c25 -23 50 -50 55 -60 22 -40 -48 -105 -131 -123 -84 -19
-426 7 -453 34 -4 4 70 13 165 19 172 11 246 25 294 57 22 14 25 22 19 52 -3
19 -9 41 -12 49 -10 26 17 14 63 -28z m-74 -275 c110 -105 -130 -170 -392
-106 l-75 18 65 3 c36 1 118 6 183 11 129 10 151 19 162 72 8 36 21 37 57 2z
m-62 -228 c0 -34 -79 -113 -143 -144 -57 -28 -110 -25 -156 8 -38 27 -126 144
-112 149 5 2 32 -6 58 -19 35 -16 74 -23 148 -26 99 -5 100 -5 140 25 50 38
65 39 65 7z"/>
</g>
</svg>
