<svg xmlns="http://www.w3.org/2000/svg" xmlns:xlink="http://www.w3.org/1999/xlink" version="1.0" x="0" y="0" width="2400" height="2408.145741748656" viewBox="151.02799388885498 105.96360942840576 37.944000778198244 38.072784957885744" preserveAspectRatio="xMidYMid meet" color-interpolation-filters="sRGB"><g><defs><linearGradient id="92" x1="0%" y1="0%" x2="100%" y2="0%"><stop offset="0%" stop-color="#fa71cd"></stop> <stop offset="100%" stop-color="#9b59b6"></stop></linearGradient><linearGradient id="93" x1="0%" y1="0%" x2="100%" y2="0%"><stop offset="0%" stop-color="#f9d423"></stop> <stop offset="100%" stop-color="#f83600"></stop></linearGradient><linearGradient id="94" x1="0%" y1="0%" x2="100%" y2="0%"><stop offset="0%" stop-color="#0064d2"></stop> <stop offset="100%" stop-color="#1cb0f6"></stop></linearGradient><linearGradient id="95" x1="0%" y1="0%" x2="100%" y2="0%"><stop offset="0%" stop-color="#f00978"></stop> <stop offset="100%" stop-color="#3f51b1"></stop></linearGradient><linearGradient id="96" x1="0%" y1="0%" x2="100%" y2="0%"><stop offset="0%" stop-color="#7873f5"></stop> <stop offset="100%" stop-color="#ec77ab"></stop></linearGradient><linearGradient id="97" x1="0%" y1="0%" x2="100%" y2="0%"><stop offset="0%" stop-color="#f9d423"></stop> <stop offset="100%" stop-color="#e14fad"></stop></linearGradient><linearGradient id="98" x1="0%" y1="0%" x2="100%" y2="0%"><stop offset="0%" stop-color="#009efd"></stop> <stop offset="100%" stop-color="#2af598"></stop></linearGradient><linearGradient id="99" x1="0%" y1="0%" x2="100%" y2="0%"><stop offset="0%" stop-color="#ffcc00"></stop> <stop offset="100%" stop-color="#00b140"></stop></linearGradient><linearGradient id="100" x1="0%" y1="0%" x2="100%" y2="0%"><stop offset="0%" stop-color="#d51007"></stop> <stop offset="100%" stop-color="#ff8177"></stop></linearGradient><linearGradient id="102" x1="0%" y1="0%" x2="100%" y2="0%"><stop offset="0%" stop-color="#a2b6df"></stop> <stop offset="100%" stop-color="#0c3483"></stop></linearGradient><linearGradient id="103" x1="0%" y1="0%" x2="100%" y2="0%"><stop offset="0%" stop-color="#7ac5d8"></stop> <stop offset="100%" stop-color="#eea2a2"></stop></linearGradient><linearGradient id="104" x1="0%" y1="0%" x2="100%" y2="0%"><stop offset="0%" stop-color="#00ecbc"></stop> <stop offset="100%" stop-color="#007adf"></stop></linearGradient><linearGradient id="105" x1="0%" y1="0%" x2="100%" y2="0%"><stop offset="0%" stop-color="#b88746"></stop> <stop offset="100%" stop-color="#fdf5a6"></stop></linearGradient></defs><g class="imagesvg isNoFont" transform="translate(151.39999961853027,106.33560752868652)"><g><rect fill="#000000" fill-opacity="0" stroke-width="2" x="0" y="0" width="37.19999999999998" height="37.32878430585518" class="image-rect"></rect> <svg filter="url(#colors2935475375)" x="0" y="0" width="37.19999999999998" height="37.32878430585518" filtersec="colorsf3672023498" class="image-svg-svg primary" style="overflow: visible;"><svg xmlns="http://www.w3.org/2000/svg" viewBox="0.669999897480011 0.6632391810417175 3.6600000858306885 3.6726534366607666"><path d="M1.022 1.399c.075 0 .149.002.224.01.184.017.367.052.548.097.181.046.359.101.535.164.177.063.338.126.505.187.165.061.327.121.486.173.159.052.315.097.465.127.149.03.293.046.424.041a.748.748 0 0 0 .096-.007 1.274 1.274 0 0 0-.018-.089h-.001a3.022 3.022 0 0 1-.371-.076 4.722 4.722 0 0 1-.475-.152 5.841 5.841 0 0 1-.728-.339c-.04-.022-.08-.044-.118-.068L2.478 1.4a5.245 5.245 0 0 0-.465-.239A3.3 3.3 0 0 0 1.55.986L1.479.968c-.175.116-.33.263-.457.431zM2.633 1.138l.117.073.113.071a13.726 13.726 0 0 0 .664.403c.146.081.29.153.431.209.103.042.204.074.301.096A1.837 1.837 0 0 0 1.903.761c.083.032.165.069.247.109.165.081.327.172.483.268zM3.869 2.917a4.803 4.803 0 0 1-1.133.299l-.122.015-.115.014c-.156.02-.31.044-.458.077-.147.032-.29.072-.416.123a1.583 1.583 0 0 0-.175.083.778.778 0 0 0-.133.098c-.035.035-.06.069-.074.101s-.019.062-.017.094l.001.009a1.837 1.837 0 0 0 3.095-1.16c-.029.022-.06.043-.091.064a2.4 2.4 0 0 1-.362.183zM1.257 3.195c.074-.042.15-.078.228-.107.156-.059.318-.1.481-.131.164-.03.331-.051.496-.063l.125-.008.119-.007.235-.014c.156-.01.309-.019.457-.034.148-.015.29-.036.422-.067.13-.032.251-.074.353-.129a.733.733 0 0 0 .157-.112V2.5a1.774 1.774 0 0 1-.178.066 3.401 3.401 0 0 1-.446.103 5.388 5.388 0 0 1-1.32.068l-.137-.012-.133-.012a6.63 6.63 0 0 0-.521-.026 3.487 3.487 0 0 0-.488.025c-.076.01-.149.022-.216.04a1.035 1.035 0 0 0-.181.061l-.024.012c.042.237.13.458.254.654a.685.685 0 0 1 .108-.13c.065-.062.136-.112.209-.154zM4.218 2.326a3.093 3.093 0 0 1-.455.008 5.37 5.37 0 0 1-1.031-.144c-.044-.01-.088-.022-.132-.034-.044-.012-.089-.024-.133-.038l-.132-.04-.128-.04a6.038 6.038 0 0 0-.507-.135 3.398 3.398 0 0 0-.489-.075 1.45 1.45 0 0 0-.424.019l-.012.003a1.86 1.86 0 0 0-.105.431 2.214 2.214 0 0 1 .377-.075c.186-.02.374-.022.562-.014.187.01.375.028.56.055.187.027.357.056.532.083.173.029.343.057.509.08.166.023.327.039.479.042.152.003.296-.007.422-.035a.903.903 0 0 0 .213-.072l-.002-.034a1.735 1.735 0 0 1-.104.015z" fill="#000000"></path></svg></svg> <defs><filter id="colors2935475375"><feColorMatrix type="matrix" values="0 0 0 0 0.859375  0 0 0 0 0.24609375  0 0 0 0 0.08984375  0 0 0 1 0" class="icon-feColorMatrix "></feColorMatrix></filter> <filter id="colorsf3672023498"><feColorMatrix type="matrix" values="0 0 0 0 0.99609375  0 0 0 0 0.99609375  0 0 0 0 0.99609375  0 0 0 1 0" class="icon-fecolormatrix"></feColorMatrix></filter> <filter id="colorsb6750282914"><feColorMatrix type="matrix" values="0 0 0 0 0  0 0 0 0 0  0 0 0 0 0  0 0 0 1 0" class="icon-fecolormatrix"></feColorMatrix></filter></defs></g></g><defs v-gra="od"></defs></g></svg>